<svg width="24" height="24" viewBox="0 0 24 24" fill="none" xmlns="http://www.w3.org/2000/svg">
<path fill-rule="evenodd" clip-rule="evenodd" d="M9.00003 7C9.00003 5.34315 10.3432 4 12 4C13.6569 4 15 5.34315 15 7C15 8.65685 13.6569 10 12 10C10.3432 10 9.00003 8.65685 9.00003 7ZM12 2C9.2386 2 7.00003 4.23858 7.00003 7C7.00003 9.76142 9.2386 12 12 12C14.7615 12 17 9.76142 17 7C17 4.23858 14.7615 2 12 2ZM4.94877 21.3161C5.99166 18.1855 8.78117 16 12 16C15.2189 16 18.0084 18.1855 19.0513 21.3161C19.2258 21.84 19.7921 22.1233 20.3161 21.9487C20.8401 21.7742 21.1233 21.2079 20.9488 20.6839C19.6627 16.8234 16.168 14 12 14C7.83206 14 4.33738 16.8234 3.05129 20.6839C2.87673 21.2079 3.16 21.7742 3.68397 21.9487C4.20795 22.1233 4.77421 21.84 4.94877 21.3161Z" fill="#252525"/>
</svg>
