<svg width="24" height="24" viewBox="0 0 24 24" fill="none" xmlns="http://www.w3.org/2000/svg">
<path fill-rule="evenodd" clip-rule="evenodd" d="M12 2.75C10.2051 2.75 8.75001 4.20507 8.75001 6C8.75001 7.79493 10.2051 9.25 12 9.25C13.7949 9.25 15.25 7.79493 15.25 6C15.25 4.20507 13.7949 2.75 12 2.75ZM7.25001 6C7.25001 3.37665 9.37665 1.25 12 1.25C14.6234 1.25 16.75 3.37665 16.75 6C16.75 8.62335 14.6234 10.75 12 10.75C9.37665 10.75 7.25001 8.62335 7.25001 6Z" fill="#252525"/>
<path fill-rule="evenodd" clip-rule="evenodd" d="M10.2967 13.75C7.649 13.75 5.41564 15.7216 5.08723 18.3488L4.74421 21.093L3.25579 20.907L3.59882 18.1628C4.02105 14.7849 6.89251 12.25 10.2967 12.25H13.7033C17.1075 12.25 19.9789 14.7849 20.4012 18.1628L20.7442 20.907L19.2558 21.093L18.9128 18.3488C18.5844 15.7216 16.351 13.75 13.7033 13.75H10.2967Z" fill="#252525"/>
</svg>
