<svg width="56" height="55" viewBox="0 0 56 55" fill="none" xmlns="http://www.w3.org/2000/svg">
<path d="M18.1515 23.3437L8.82359 28.713L2.50476 20.0003" stroke="#282B35" stroke-width="2" stroke-linecap="round" stroke-linejoin="round"/>
<path d="M15.3373 39.4999C14.9585 39.0979 14.3256 39.0792 13.9237 39.458C13.5217 39.8368 13.503 40.4696 13.8818 40.8716L15.3373 39.4999ZM45.5752 27.5C45.5752 37.165 37.7402 45 28.0752 45V47C38.8447 47 47.5752 38.2696 47.5752 27.5H45.5752ZM10.5752 27.5C10.5752 17.835 18.4102 10 28.0752 10V8C17.3056 8 8.5752 16.7304 8.5752 27.5H10.5752ZM28.0752 10C37.7402 10 45.5752 17.835 45.5752 27.5H47.5752C47.5752 16.7304 38.8447 8 28.0752 8V10ZM28.0752 45C23.055 45 18.5298 42.8874 15.3373 39.4999L13.8818 40.8716C17.4364 44.6433 22.4814 47 28.0752 47V45Z" fill="#282B35"/>
</svg>
