<svg width="15" height="15" viewBox="0 0 15 15" fill="none" xmlns="http://www.w3.org/2000/svg">
<path d="M1.5 2.98531C1.5 1.88885 2.38885 1 3.48531 1H11.5147C12.6111 1 13.5 1.88885 13.5 2.98531V12.0147C13.5 13.1111 12.6111 14 11.5147 14H3.48531C2.38885 14 1.5 13.1111 1.5 12.0147V2.98531Z" fill="white" stroke="#252525" stroke-width="1.5"/>
<path d="M3.9707 4H6.16676" stroke="#252525" stroke-width="1.5" stroke-linecap="round" stroke-linejoin="round"/>
<path d="M3.9707 6.25C3.55649 6.25 3.2207 6.58579 3.2207 7C3.2207 7.41421 3.55649 7.75 3.9707 7.75V6.25ZM10.5589 7.75C10.9731 7.75 11.3089 7.41421 11.3089 7C11.3089 6.58579 10.9731 6.25 10.5589 6.25V7.75ZM3.9707 7.75H10.5589V6.25H3.9707V7.75Z" fill="#252525"/>
<path d="M3.9707 9.25C3.55649 9.25 3.2207 9.58579 3.2207 10C3.2207 10.4142 3.55649 10.75 3.9707 10.75V9.25ZM10.5589 10.75C10.9731 10.75 11.3089 10.4142 11.3089 10C11.3089 9.58579 10.9731 9.25 10.5589 9.25V10.75ZM3.9707 10.75H10.5589V9.25H3.9707V10.75Z" fill="#252525"/>
</svg>
