<svg width="17" height="9" viewBox="0 0 17 9" fill="none" xmlns="http://www.w3.org/2000/svg">
<path d="M1.5 1.92364H12C12.4812 1.92364 12.875 1.52795 12.875 1.04434C12.875 0.560724 12.4812 0.165039 12 0.165039H1.5C1.01875 0.165039 0.625 0.560724 0.625 1.04434C0.625 1.52795 1.01875 1.92364 1.5 1.92364ZM1.5 5.44084H12C12.4812 5.44084 12.875 5.04515 12.875 4.56154C12.875 4.07792 12.4812 3.68224 12 3.68224H1.5C1.01875 3.68224 0.625 4.07792 0.625 4.56154C0.625 5.04515 1.01875 5.44084 1.5 5.44084ZM1.5 8.95803H12C12.4812 8.95803 12.875 8.56235 12.875 8.07873C12.875 7.59512 12.4812 7.19944 12 7.19944H1.5C1.01875 7.19944 0.625 7.59512 0.625 8.07873C0.625 8.56235 1.01875 8.95803 1.5 8.95803ZM14.625 8.95803H16.375V7.19944H14.625V8.95803ZM14.625 0.165039V1.92364H16.375V0.165039H14.625ZM14.625 5.44084H16.375V3.68224H14.625V5.44084Z" fill="#282B35"/>
</svg>
