<svg width="54" height="54" viewBox="0 0 54 54" fill="none" xmlns="http://www.w3.org/2000/svg">
<path fill-rule="evenodd" clip-rule="evenodd" d="M8 5C8 4.44772 8.44772 4 9 4H39C39.5523 4 40 4.44772 40 5V8H15C14.7929 8 14.5907 8.02099 14.3954 8.06095C13.0283 8.34069 12 9.55025 12 11V43H9C8.44772 43 8 42.5523 8 42V5ZM12 45H9C7.34315 45 6 43.6569 6 42V5C6 3.34315 7.34315 2 9 2H39C40.6569 2 42 3.34315 42 5V8C43.6569 8 45 9.34315 45 11V49C45 50.6569 43.6569 52 42 52H15C13.3431 52 12 50.6569 12 49V45ZM14 44V49C14 49.5523 14.4477 50 15 50H42C42.5523 50 43 49.5523 43 49V11C43 10.4477 42.5523 10 42 10H41H15C14.4477 10 14 10.4477 14 11V44Z" fill="#282B35"/>
<path d="M49 44.5C49 49.1944 45.1944 53 40.5 53C35.8056 53 32 49.1944 32 44.5C32 39.8056 35.8056 36 40.5 36C45.1944 36 49 39.8056 49 44.5Z" fill="#FB9E8A"/>
<path fill-rule="evenodd" clip-rule="evenodd" d="M40.5 37C36.3579 37 33 40.3579 33 44.5C33 48.6421 36.3579 52 40.5 52C44.6421 52 48 48.6421 48 44.5C48 40.3579 44.6421 37 40.5 37ZM31 44.5C31 39.2533 35.2533 35 40.5 35C45.7467 35 50 39.2533 50 44.5C50 49.7467 45.7467 54 40.5 54C35.2533 54 31 49.7467 31 44.5Z" fill="#282B35"/>
<path fill-rule="evenodd" clip-rule="evenodd" d="M43.7071 42.7071C44.0976 42.3166 44.0976 41.6834 43.7071 41.2929C43.3166 40.9024 42.6834 40.9024 42.2929 41.2929L40.5 43.0858L38.7071 41.2929C38.3166 40.9024 37.6834 40.9024 37.2929 41.2929C36.9024 41.6834 36.9024 42.3166 37.2929 42.7071L39.0858 44.5L37.2929 46.2929C36.9024 46.6834 36.9024 47.3166 37.2929 47.7071C37.6834 48.0976 38.3166 48.0976 38.7071 47.7071L40.5 45.9142L42.2929 47.7071C42.6834 48.0976 43.3166 48.0976 43.7071 47.7071C44.0976 47.3166 44.0976 46.6834 43.7071 46.2929L41.9142 44.5L43.7071 42.7071Z" fill="#282B35"/>
</svg>
