<svg width="260" height="212" viewBox="0 0 260 212" fill="none" xmlns="http://www.w3.org/2000/svg">
<g clip-path="url(#clip0_7374_3855)">
<path d="M93.7382 91.6513C93.7205 91.9611 93.7737 92.2708 93.8944 92.5582C94.015 92.8455 94.2 93.1032 94.4357 93.3127C94.6715 93.5222 94.9522 93.6782 95.2576 93.7695C95.5631 93.8608 95.8856 93.885 96.2019 93.8405C100.296 93.1623 104.481 93.1943 108.563 93.9351C112.864 94.5703 110.595 77.4616 108.201 75.0156C104.972 71.6642 108.493 69.3668 110.317 71.2993C110.441 71.4228 110.6 71.507 110.774 71.5408C110.948 71.5746 111.128 71.5563 111.291 71.4885C113.254 70.7452 119.087 68.2046 121.732 63.2585C123.736 59.5287 125.824 56.3123 127.119 54.4069C127.203 54.2544 127.329 54.127 127.482 54.0383C127.635 53.9495 127.81 53.9026 127.989 53.9026C128.167 53.9026 128.342 53.9495 128.495 54.0383C128.648 54.127 128.774 54.2544 128.859 54.4069C133.202 60.1503 138.102 64.5964 134.636 79.7049C133.243 85.9889 129.067 94.773 135.276 95.0568C137.896 94.8157 140.534 94.8157 143.155 95.0568C149.655 96.4082 145.939 89.6512 143.155 79.6103C140.204 69.2722 142.737 47.5959 127.842 48.6364C127.842 48.6364 96.2577 37.109 93.7382 91.2188C93.7521 91.2999 93.7521 91.4756 93.7382 91.6513Z" fill="#282B35"/>
<path d="M126.297 68.543C127.564 75.2188 129.555 79.4622 125.059 80.2595" stroke="#282B35" stroke-width="2" stroke-linecap="round" stroke-linejoin="round"/>
<path d="M149.182 207.655C139.355 175.087 142.152 133.193 142.152 133.193" stroke="#282B35" stroke-width="2" stroke-linecap="round" stroke-linejoin="round"/>
<path d="M84.342 210.506C65.3967 193.195 69.336 109.152 96.4524 108.571C114.966 108.193 116.233 92.2461 116.233 92.2461" stroke="#282B35" stroke-width="2" stroke-linecap="round" stroke-linejoin="round"/>
<path d="M110.094 105.18C110.094 105.18 112.572 113.437 120.437 113.288C122.811 113.181 125.129 112.546 127.212 111.434C129.294 110.321 131.086 108.759 132.45 106.869L132.84 106.774C136.346 105.937 140.049 106.396 143.226 108.062C146.404 109.728 148.829 112.482 150.031 115.788C152.815 123.451 153.511 143.046 158.105 143.181C162.698 143.316 165.719 128.316 165.719 128.316L187.601 133.41C187.601 133.41 172.289 173.52 159.483 172.493C146.676 171.466 141.888 154.924 141.888 154.924" stroke="#282B35" stroke-width="2" stroke-linecap="round" stroke-linejoin="round"/>
<path d="M101.519 135.977C101.519 135.977 84.6066 169.559 110.623 210.506" stroke="#282B35" stroke-width="2" stroke-linecap="round" stroke-linejoin="round"/>
<path d="M114.41 90.2198C126.047 104.545 133.188 87.2197 133.188 87.2197C134.343 84.5261 135.319 81.7637 136.111 78.9492" stroke="#282B35" stroke-width="2" stroke-linecap="round" stroke-linejoin="round"/>
<path d="M172.637 95.3535L172.011 103.665C171.987 103.981 172.064 104.297 172.231 104.57C172.397 104.843 172.646 105.06 172.944 105.192L190.163 113.07C190.404 113.182 190.67 113.235 190.937 113.222C191.204 113.21 191.464 113.133 191.693 112.999C191.923 112.865 192.114 112.678 192.25 112.455C192.386 112.231 192.463 111.978 192.474 111.719L193.072 103.705" stroke="#282B35" stroke-width="2" stroke-linecap="round" stroke-linejoin="round"/>
<path d="M162.796 82.0969L195.285 84.4078C194.297 97.4622 200.297 108.53 207.326 109.03C214.356 109.53 220.857 99.3542 221.845 86.2997C222.833 73.2453 217.919 62.2449 210.89 61.7449C209.916 61.6789 208.939 61.8125 208.022 62.1368L204.278 63.4882" stroke="#282B35" stroke-width="2" stroke-linecap="round" stroke-linejoin="round"/>
<path d="M204.264 63.4336L166.36 76.9475C164.97 77.4232 163.749 78.2732 162.84 79.398C161.93 80.5229 161.369 81.876 161.223 83.2991V83.4072C161.175 84.1407 161.175 84.8764 161.223 85.61C161.301 87.0334 161.79 88.4068 162.635 89.573C163.479 90.7393 164.644 91.6513 165.998 92.2047L203.916 108.043" stroke="#282B35" stroke-width="2" stroke-linecap="round" stroke-linejoin="round"/>
<path d="M220.007 71.0302C218.81 67.3409 216.096 63.5435 213.145 63.3408C207.716 62.9489 202.51 73.3816 201.507 86.6253C201.341 89.1453 201.341 91.673 201.507 94.1931L196.844 93.8687" stroke="#282B35" stroke-width="2" stroke-linecap="round" stroke-linejoin="round"/>
<path d="M228.262 67.9071L234.429 64.9746" stroke="#282B35" stroke-width="2" stroke-linecap="round" stroke-linejoin="round"/>
<path d="M232.536 109.179L226.87 105.408" stroke="#282B35" stroke-width="2" stroke-linecap="round" stroke-linejoin="round"/>
<path d="M230.545 87.6641L236.684 88.11" stroke="#282B35" stroke-width="2" stroke-linecap="round" stroke-linejoin="round"/>
<path d="M169.881 128.762L172.192 122.316C172.289 122.059 166.833 118.951 170.8 109.059" stroke="#282B35" stroke-width="2" stroke-linecap="round" stroke-linejoin="round"/>
<path d="M180.224 130.491C180.224 130.491 181.24 128.937 183.008 126.545C184.776 124.153 188.464 124.099 190.19 113.031" stroke="#282B35" stroke-width="2" stroke-linecap="round" stroke-linejoin="round"/>
<path d="M175.394 103.152C175.394 103.152 178.581 100.706 180.335 105.017C180.335 105.017 184.511 102.828 185.193 107.247C185.193 107.247 189.049 105.004 189.815 109.585" stroke="#282B35" stroke-width="2" stroke-linecap="round" stroke-linejoin="round"/>
<path d="M175.797 109.719C176.12 111.913 175.856 114.152 175.031 116.219" stroke="#282B35" stroke-width="2" stroke-linecap="round" stroke-linejoin="round"/>
<path d="M39.4912 72.8941L3.1876 86.6648C2.74998 86.8257 2.35395 87.0778 2.02753 87.4033C1.70111 87.7289 1.45216 88.1199 1.29822 88.5489C1.14428 88.978 1.08919 89.4345 1.13662 89.8865C1.18406 90.3385 1.33291 90.7748 1.57282 91.1649C6.84854 99.7598 20.9635 124.085 22.453 140.693C22.489 141.192 22.6484 141.674 22.9174 142.1C23.1864 142.526 23.5571 142.883 23.9983 143.14C24.4395 143.398 24.9381 143.548 25.4518 143.578C25.9655 143.609 26.479 143.518 26.9492 143.315C34.9532 139.883 52.0055 132.963 62.5569 131.153C63.3684 131.019 64.0963 130.589 64.5909 129.951C65.0855 129.312 65.3092 128.514 65.2157 127.72C64.1856 118.652 59.7729 91.4352 43.0548 73.6644C42.6113 73.2004 42.033 72.8782 41.3966 72.7406C40.7601 72.6031 40.0956 72.6566 39.4912 72.8941V72.8941Z" stroke="#282B35" stroke-width="2" stroke-linecap="round" stroke-linejoin="round"/>
<path d="M33.5058 102.463C36.604 102.463 39.1156 100.024 39.1156 97.0164C39.1156 94.0086 36.604 91.5703 33.5058 91.5703C30.4076 91.5703 27.896 94.0086 27.896 97.0164C27.896 100.024 30.4076 102.463 33.5058 102.463Z" stroke="#282B35" stroke-width="2" stroke-linecap="round" stroke-linejoin="round"/>
<path d="M30.1646 120.922L29.1206 116.868C28.8271 115.731 28.7675 114.549 28.9453 113.39C29.1231 112.231 29.5348 111.117 30.1568 110.113C30.7789 109.109 31.5989 108.233 32.5701 107.537C33.5412 106.841 34.6443 106.338 35.8161 106.057V106.057C36.988 105.77 38.2068 105.711 39.4022 105.884C40.5976 106.057 41.746 106.457 42.7811 107.063C43.8163 107.668 44.7177 108.467 45.4336 109.412C46.1495 110.357 46.6656 111.431 46.9522 112.57L48.0102 116.625" stroke="#282B35" stroke-width="2" stroke-linecap="round" stroke-linejoin="round"/>
<path d="M96.3688 18.2036L61.4154 1.35177C60.9978 1.14666 60.5391 1.03254 60.0713 1.01737C59.6035 1.00219 59.138 1.08634 58.7072 1.26393C58.2763 1.44152 57.8906 1.70827 57.577 2.04556C57.2634 2.38284 57.0294 2.78252 56.8914 3.21669C53.8846 12.7846 44.8505 39.2989 33.2271 51.5695C32.8732 51.9322 32.6143 52.3721 32.4718 52.8522C32.3294 53.3323 32.3077 53.8386 32.4086 54.3286C32.5096 54.8185 32.7301 55.2777 33.0518 55.6677C33.3735 56.0577 33.7868 56.367 34.2572 56.5697C42.2474 60.0157 58.9795 67.57 67.4568 73.9756C68.1029 74.4681 68.9184 74.7018 69.7364 74.629C70.5543 74.5561 71.3126 74.1821 71.8555 73.5837C78.0778 66.7322 95.8399 45.2045 98.1506 21.2578C98.2032 20.634 98.0615 20.0092 97.7438 19.4646C97.4261 18.92 96.9469 18.4806 96.3688 18.2036V18.2036Z" stroke="#282B35" stroke-width="2" stroke-linecap="round" stroke-linejoin="round"/>
<path d="M71.5356 35.4879C74.6338 35.4879 77.1454 33.0496 77.1454 30.0418C77.1454 27.034 74.6338 24.5957 71.5356 24.5957C68.4374 24.5957 65.9258 27.034 65.9258 30.0418C65.9258 33.0496 68.4374 35.4879 71.5356 35.4879Z" stroke="#282B35" stroke-width="2" stroke-linecap="round" stroke-linejoin="round"/>
<path d="M53.4116 46.5417L55.2631 42.7038C55.7755 41.6466 56.4974 40.6979 57.3877 39.9118C58.2779 39.1256 59.3189 38.5175 60.4514 38.1222C61.5838 37.7269 62.7854 37.5521 63.9875 37.6078C65.1895 37.6635 66.3686 37.9486 67.4571 38.4469V38.4469C68.5485 38.9417 69.5283 39.6409 70.3406 40.5044C71.1528 41.3679 71.7813 42.3787 72.19 43.4787C72.5987 44.5787 72.7797 45.7462 72.7224 46.9143C72.665 48.0823 72.3704 49.2278 71.8558 50.2851L70.0045 54.123" stroke="#282B35" stroke-width="2" stroke-linecap="round" stroke-linejoin="round"/>
<path d="M233.232 135.194L196.858 148.951C196.422 149.116 196.029 149.371 195.705 149.7C195.382 150.028 195.137 150.421 194.987 150.851C194.837 151.282 194.786 151.739 194.837 152.19C194.889 152.642 195.042 153.077 195.285 153.465C200.547 162.06 214.676 186.385 216.165 202.993C216.202 203.492 216.361 203.974 216.63 204.4C216.899 204.826 217.27 205.183 217.711 205.44C218.152 205.697 218.65 205.848 219.164 205.878C219.678 205.908 220.192 205.818 220.662 205.615C228.666 202.196 245.718 195.263 256.269 193.452C257.081 193.319 257.809 192.889 258.303 192.251C258.798 191.612 259.022 190.814 258.928 190.02C257.898 180.952 253.485 153.735 236.767 135.964C236.328 135.502 235.755 135.181 235.123 135.044C234.492 134.906 233.832 134.959 233.232 135.194Z" stroke="#282B35" stroke-width="2" stroke-linecap="round" stroke-linejoin="round"/>
<path d="M225.172 163.681C228.27 163.681 230.782 161.243 230.782 158.235C230.782 155.227 228.27 152.789 225.172 152.789C222.074 152.789 219.562 155.227 219.562 158.235C219.562 161.243 222.074 163.681 225.172 163.681Z" stroke="#282B35" stroke-width="2" stroke-linecap="round" stroke-linejoin="round"/>
<path d="M225.019 182.357L223.432 178.411C222.55 176.21 222.604 173.759 223.583 171.598C224.562 169.436 226.385 167.74 228.652 166.883V166.883C230.919 166.027 233.443 166.08 235.67 167.03C237.896 167.981 239.643 169.751 240.526 171.951L242.113 175.897" stroke="#282B35" stroke-width="2" stroke-linecap="round" stroke-linejoin="round"/>
</g>
<defs>
<clipPath id="clip0_7374_3855">
<rect width="260" height="211.52" fill="white"/>
</clipPath>
</defs>
</svg>
