<svg width="141" height="156" viewBox="0 0 141 156" fill="none" xmlns="http://www.w3.org/2000/svg">
    <path d="M99.5 103.055C99.5 102.472 99.9725 102 100.555 102H107.461C111.901 102 115.5 105.599 115.5 110.039V116.961C115.5 121.401 111.901 125 107.461 125H100.555C99.9725 125 99.5 124.528 99.5 123.945V103.055Z"
        stroke="#282B35"
        stroke-width="4" />
    <rect x="46.5" y="93" width="53" height="53" rx="10.0387" stroke="#282B35" stroke-width="4" />
    <rect x="60" y="116" width="6" height="6" rx="2" fill="#282B35" />
    <rect x="80" y="116" width="6" height="6" rx="2" fill="#282B35" />
    <rect x="78" y="109.355" width="10" height="4" rx="2" transform="rotate(-25.8147 78 109.355)" fill="#282B35" />
    <rect x="58" y="108" width="10" height="4" rx="2" fill="#282B35" />
    <path d="M137 152H6" stroke="#282B35" stroke-width="8" stroke-linecap="round" stroke-linejoin="round" />
    <path d="M18 151.5V2" stroke="#282B35" stroke-width="4" stroke-linecap="round" stroke-linejoin="round" />
    <path d="M2 32H104.5" stroke="#282B35" stroke-width="4" stroke-linecap="round" stroke-linejoin="round" />
    <rect x="13.5" y="27" width="10" height="10" rx="2" fill="#282B35" />
</svg>
