<svg width="19" height="19" viewBox="0 0 19 19" fill="none" xmlns="http://www.w3.org/2000/svg">
<path d="M9.49125 0.768555C4.66125 0.768555 0.75 4.70782 0.75 9.56155C0.75 14.4153 4.66125 18.3545 9.49125 18.3545C14.33 18.3545 18.25 14.4153 18.25 9.56155C18.25 4.70782 14.33 0.768555 9.49125 0.768555ZM9.5 16.596C5.6325 16.596 2.5 13.4481 2.5 9.56155C2.5 5.67505 5.6325 2.52715 9.5 2.52715C13.3675 2.52715 16.5 5.67505 16.5 9.56155C16.5 13.4481 13.3675 16.596 9.5 16.596ZM9.3075 5.16505H9.255C8.905 5.16505 8.625 5.44643 8.625 5.79815V9.94844C8.625 10.2562 8.7825 10.5464 9.05375 10.7046L12.685 12.8941C12.9825 13.07 13.3675 12.982 13.5425 12.6831C13.7263 12.3841 13.63 11.9884 13.3238 11.8126L9.9375 9.79017V5.79815C9.9375 5.44643 9.6575 5.16505 9.3075 5.16505Z" fill="#282B35"/>
</svg>
