<svg width="13" height="13" viewBox="0 0 13 13" fill="none" xmlns="http://www.w3.org/2000/svg">
<path fill-rule="evenodd" clip-rule="evenodd" d="M2.27301 1.21186C1.98011 0.918964 1.50524 0.918964 1.21235 1.21186C0.919452 1.50475 0.919452 1.97962 1.21235 2.27252L5.93291 6.99308L1.21235 11.7136C0.919452 12.0065 0.919452 12.4814 1.21235 12.7743C1.50524 13.0672 1.98011 13.0672 2.27301 12.7743L6.99357 8.05374L11.7141 12.7743C12.007 13.0672 12.4819 13.0672 12.7748 12.7743C13.0677 12.4814 13.0677 12.0065 12.7748 11.7136L8.05423 6.99308L12.7748 2.27252C13.0677 1.97962 13.0677 1.50475 12.7748 1.21186C12.4819 0.918964 12.007 0.918964 11.7141 1.21186L6.99357 5.93242L2.27301 1.21186Z" fill="black"/>
</svg>
