<svg width="30" height="30" viewBox="0 0 30 30" fill="none" xmlns="http://www.w3.org/2000/svg">
<circle cx="15" cy="15" r="15" fill="#E7E6E8"/>
<path fill-rule="evenodd" clip-rule="evenodd" d="M10.2732 9.21186C9.9803 8.91896 9.50542 8.91896 9.21253 9.21186C8.91964 9.50475 8.91964 9.97962 9.21253 10.2725L13.9331 14.9931L9.21253 19.7136C8.91964 20.0065 8.91964 20.4814 9.21253 20.7743C9.50542 21.0672 9.9803 21.0672 10.2732 20.7743L14.9938 16.0537L19.7143 20.7743C20.0072 21.0672 20.4821 21.0672 20.775 20.7743C21.0679 20.4814 21.0679 20.0065 20.775 19.7136L16.0544 14.9931L20.775 10.2725C21.0679 9.97962 21.0679 9.50475 20.775 9.21186C20.4821 8.91896 20.0072 8.91896 19.7143 9.21186L14.9938 13.9324L10.2732 9.21186Z" fill="black"/>
</svg>
