<svg width="24" height="24" viewBox="0 0 24 24" fill="none" xmlns="http://www.w3.org/2000/svg">
<g clip-path="url(#clip0_657_2185)">
<g clip-path="url(#clip1_657_2185)">
<path d="M24 12C24 18.6274 18.6274 24 12 24C5.37258 24 0 18.6274 0 12C0 5.37258 5.37258 0 12 0C18.6274 0 24 5.37258 24 12Z" fill="#EEEEEC"/>
<path fill-rule="evenodd" clip-rule="evenodd" d="M16.7071 6.70711C17.0976 7.09763 17.0976 7.7308 16.7071 8.12132L8.12132 16.7071C7.7308 17.0976 7.09763 17.0976 6.70711 16.7071C6.31658 16.3166 6.31658 15.6834 6.70711 15.2929L15.2929 6.70711C15.6834 6.31658 16.3166 6.31658 16.7071 6.70711Z" fill="#5F5F5F"/>
<path fill-rule="evenodd" clip-rule="evenodd" d="M6.70711 6.77812C7.09763 6.3876 7.7308 6.3876 8.12132 6.77812L16.7071 15.3639C17.0976 15.7544 17.0976 16.3876 16.7071 16.7781C16.3166 17.1686 15.6834 17.1686 15.2929 16.7781L6.70711 8.19233C6.31658 7.80181 6.31658 7.16865 6.70711 6.77812Z" fill="#5F5F5F"/>
</g>
</g>
<defs>
<clipPath id="clip0_657_2185">
<rect width="24" height="24" fill="white"/>
</clipPath>
<clipPath id="clip1_657_2185">
<rect width="24" height="24" fill="white"/>
</clipPath>
</defs>
</svg>
