<svg width="20" height="23" viewBox="0 0 20 23" fill="none" xmlns="http://www.w3.org/2000/svg">
<path d="M12.4779 1.83011C12.3002 1.65244 12.0593 1.55263 11.808 1.55263H6.96184C6.05627 1.55263 5.32216 2.28674 5.32216 3.19231V16.3462C5.32216 17.2517 6.05627 17.9858 6.96184 17.9858H16.6541C17.5597 17.9858 18.2938 17.2517 18.2938 16.3462V8.03846C18.2938 7.7872 18.194 7.54624 18.0163 7.36857L12.4779 1.83011Z" fill="white" stroke="#252525" stroke-width="1.89474" stroke-linejoin="round"/>
<path d="M11.8086 2.5V8.03846H17.3471" stroke="#252525" stroke-width="1.89474" stroke-linejoin="round"/>
<path d="M9.01695 5.29105C8.83928 5.11338 8.59831 5.01357 8.34705 5.01357H3.5009C2.59533 5.01357 1.86123 5.74768 1.86123 6.65325V19.8071C1.86123 20.7127 2.59533 21.4468 3.5009 21.4468H13.1932C14.0988 21.4468 14.8329 20.7127 14.8329 19.8071V11.4994C14.8329 11.2481 14.7331 11.0072 14.5554 10.8295L9.01695 5.29105Z" fill="white" stroke="#252525" stroke-width="1.89474" stroke-linejoin="round"/>
<path d="M8.34766 5.96094V11.4994H13.8861" stroke="#252525" stroke-width="1.89474" stroke-linejoin="round"/>
</svg>
