<svg width="24" height="24" viewBox="0 0 24 24" fill="none" xmlns="http://www.w3.org/2000/svg">
<path d="M16.0909 3.36364C16.0909 2.88666 15.7042 2.5 15.2273 2.5H5.72727C4.77727 2.5 4 3.27727 4 4.22727V15.4545C4 15.9315 4.38666 16.3182 4.86364 16.3182V16.3182C5.34061 16.3182 5.72727 15.9315 5.72727 15.4545V4.22727H15.2273C15.7042 4.22727 16.0909 3.84061 16.0909 3.36364V3.36364ZM15.2273 5.95455L20.4091 11.1364V19.7727C20.4091 20.7227 19.6318 21.5 18.6818 21.5H9.17318C8.22318 21.5 7.45455 20.7227 7.45455 19.7727L7.46318 7.68182C7.46318 6.73182 8.23182 5.95455 9.18182 5.95455H15.2273ZM14.3636 12H19.1136L14.3636 7.25V12Z" fill="#282B35"/>
</svg>
