<svg width="42" height="42" viewBox="0 0 42 42" fill="none" xmlns="http://www.w3.org/2000/svg">
<rect width="42" height="42" rx="21" fill="#C7F860"/>
<path d="M33.5873 15.6047C32.5821 13.0557 30.5377 10.7801 27.8199 9.21616C22.0866 5.90729 15.3563 6.80386 12.8094 11.2063C12.2362 12.2076 11.9575 13.3504 12.0053 14.5031L12.2063 28.9307C12.2026 29.8398 12.4411 30.7335 12.8972 31.5199C13.3533 32.3063 14.0106 32.9572 14.8015 33.4055C15.1056 33.5776 15.427 33.717 15.7604 33.8216H15.7705C16.285 33.9876 16.8219 34.0737 17.3626 34.0769C18.4319 34.0758 19.4711 33.7226 20.3196 33.0718L30.2704 26.0721C31.4738 25.294 32.4788 24.2456 33.2053 23.0105C34.4698 20.8213 34.6065 18.1919 33.5873 15.6047ZM14.0075 28.9146L13.8869 19.3378C14.756 20.4411 15.8296 21.3666 17.049 22.0637C18.6506 23.0071 20.4712 23.5151 22.3299 23.5372C22.7455 23.5377 23.1607 23.5089 23.5722 23.4507C24.1262 23.3739 24.6706 23.2391 25.1965 23.0487L23.6245 26.2269C22.0106 26.2859 20.3994 26.053 18.8682 25.5394C18.7023 25.4836 18.527 25.4613 18.3524 25.4738C18.1778 25.4862 18.0074 25.5331 17.8511 25.6117C17.6959 25.6895 17.5577 25.7975 17.4449 25.9293C17.332 26.0612 17.2466 26.2143 17.1937 26.3797L15.4951 31.7209C15.0341 31.4129 14.6568 30.9952 14.3972 30.5054C14.1375 30.0156 14.0036 29.4689 14.0075 28.9146ZM26.9937 19.394C26.284 20.6223 24.9834 21.4284 23.3189 21.6596C22.4587 21.7742 21.5853 21.7423 20.7358 21.5651L23.3149 13.9121C25.1382 14.3141 26.5594 15.263 27.1585 16.5254C27.3759 16.9785 27.4747 17.4793 27.4459 17.981C27.4171 18.4827 27.2615 18.9688 26.9937 19.394ZM19.2643 31.5983L19.2422 31.6143C18.6626 32.066 17.942 32.2981 17.2078 32.2697L18.7637 27.4089C20.5748 27.9564 22.4721 28.1609 24.3582 28.012L19.2643 31.5983ZM31.6373 22.1059C30.5015 24.0759 28.3305 25.4188 25.7734 25.9655L28.7225 19.9971C29.0638 19.3434 29.2479 18.619 29.2601 17.8816C29.2724 17.1442 29.1123 16.4142 28.7928 15.7495C27.8902 13.8518 25.7915 12.4687 23.1762 12.0466C22.873 11.9971 22.5621 12.0573 22.2994 12.2165C22.0367 12.3757 21.8394 12.6234 21.7429 12.915L19.009 21.0264C18.6451 20.8717 18.2913 20.6945 17.9496 20.4957C16.2288 19.5026 14.9181 18.0592 14.2567 16.4229C13.9934 15.7894 13.8444 15.1142 13.8165 14.4287V14.3925C13.7908 13.5932 13.9863 12.8023 14.3814 12.1069C16.4278 8.56886 22.0525 7.97986 26.9213 10.7821C29.2874 12.1491 31.0584 14.095 31.9087 16.2661C32.7168 18.3286 32.6224 20.4032 31.6373 22.1059Z" fill="#252525"/>
</svg>
