<svg width="20" height="20" viewBox="0 0 20 20" fill="none" xmlns="http://www.w3.org/2000/svg">
<g clip-path="url(#clip0_1043_1508)">
<path d="M18.5714 2H1.42858C0.639603 2 1.00112e-05 2.63959 9.41997e-06 3.42857L0 14.5714C0 15.3604 0.639595 16 1.42857 16H7.14286L10 19L12.8571 16H18.5714C19.3604 16 20 15.3604 20 14.5714L20 3.42857C20 2.63959 19.3604 2 18.5714 2Z" fill="#C7F860"/>
<path d="M10 4L11.3225 7.17971L14.7553 7.45492L12.1399 9.69529L12.9389 13.0451L10 11.25L7.06107 13.0451L7.86012 9.69529L5.24472 7.45492L8.67748 7.17971L10 4Z" fill="#252525"/>
</g>
<defs>
<clipPath id="clip0_1043_1508">
<rect width="20" height="20" fill="white"/>
</clipPath>
</defs>
</svg>
