<svg width="16" height="16" viewBox="0 0 16 16" fill="none" xmlns="http://www.w3.org/2000/svg">
<rect width="16" height="16" rx="8" fill="#F8F8F7"/>
<path d="M12.7953 5.94466C12.4124 4.97361 11.6335 4.10672 10.5982 3.51092C8.41407 2.2504 5.85014 2.59195 4.87986 4.26907C4.66151 4.65051 4.55533 5.08586 4.57354 5.52499L4.65012 11.0212C4.64873 11.3675 4.73958 11.708 4.91333 12.0076C5.08709 12.3072 5.33748 12.5551 5.63878 12.7259C5.75462 12.7915 5.87706 12.8446 6.00407 12.8844H6.0079C6.20391 12.9476 6.40846 12.9804 6.61442 12.9817C7.02179 12.9813 7.41768 12.8467 7.74092 12.5988L11.5317 9.93222C11.9901 9.63582 12.373 9.23644 12.6498 8.7659C13.1314 7.93193 13.1835 6.93025 12.7953 5.94466ZM5.33628 11.0151L5.29033 7.36676C5.62143 7.78708 6.03043 8.13966 6.49495 8.4052C7.10509 8.7646 7.79865 8.95812 8.50673 8.96654C8.66507 8.96676 8.82322 8.95575 8.98 8.93361C9.19104 8.90433 9.39844 8.85299 9.59877 8.78045L8.99991 9.99119C8.3851 10.0137 7.77129 9.92494 7.18801 9.72928C7.1248 9.70805 7.05801 9.69956 6.9915 9.70429C6.92499 9.70902 6.86007 9.72689 6.80051 9.75685C6.74138 9.78647 6.68877 9.8276 6.64577 9.87784C6.60276 9.92808 6.57023 9.9864 6.55009 10.0494L5.90298 12.0841C5.72737 11.9668 5.58366 11.8077 5.48474 11.6211C5.38583 11.4345 5.33482 11.2263 5.33628 11.0151ZM10.2834 7.38821C10.0131 7.85612 9.5176 8.16321 8.88351 8.25127C8.55581 8.29494 8.22308 8.28277 7.89944 8.21528L8.88198 5.29985C9.57656 5.45301 10.118 5.81447 10.3462 6.2954C10.429 6.468 10.4667 6.65878 10.4557 6.8499C10.4447 7.04102 10.3854 7.22623 10.2834 7.38821ZM7.33887 12.0374L7.33045 12.0436C7.10966 12.2156 6.83515 12.304 6.55545 12.2932L7.14819 10.4415C7.83811 10.65 8.56091 10.728 9.27943 10.6712L7.33887 12.0374ZM12.0524 8.42128C11.6197 9.17177 10.7927 9.68333 9.81856 9.89163L10.942 7.61795C11.072 7.36891 11.1422 7.09295 11.1468 6.81204C11.1515 6.53113 11.0905 6.25301 10.9688 5.9998C10.625 5.27687 9.82545 4.75 8.82913 4.58918C8.71364 4.57032 8.59521 4.59327 8.49512 4.65391C8.39504 4.71455 8.31986 4.8089 8.28311 4.92001L7.24161 8.01004C7.103 7.95114 6.96821 7.88362 6.83803 7.80787C6.1825 7.42956 5.68319 6.87971 5.43124 6.25634C5.33094 6.015 5.27416 5.7578 5.26353 5.49666V5.48288C5.25374 5.17836 5.32821 4.87705 5.47872 4.61215C6.25832 3.26433 8.40105 3.03995 10.2558 4.10748C11.1572 4.62823 11.8319 5.36954 12.1558 6.19661C12.4637 6.98233 12.4277 7.77264 12.0524 8.42128Z" fill="#989898"/>
</svg>
