<svg width="25" height="25" viewBox="0 0 25 25" fill="none" xmlns="http://www.w3.org/2000/svg">
<path fill-rule="evenodd" clip-rule="evenodd" d="M12.5 19.75C16.5041 19.75 19.75 16.5041 19.75 12.5C19.75 8.49594 16.5041 5.25 12.5 5.25C8.49594 5.25 5.25 8.49594 5.25 12.5C5.25 16.5041 8.49594 19.75 12.5 19.75ZM12.5 21.25C17.3325 21.25 21.25 17.3325 21.25 12.5C21.25 7.66751 17.3325 3.75 12.5 3.75C7.66751 3.75 3.75 7.66751 3.75 12.5C3.75 17.3325 7.66751 21.25 12.5 21.25Z" fill="#252525"/>
<path fill-rule="evenodd" clip-rule="evenodd" d="M11.75 7.75V14.25H13.25V7.75H11.75ZM11.75 15.75V17.25H13.25V15.75H11.75Z" fill="#252525"/>
</svg>
