<svg width="42" height="42" viewBox="0 0 42 42" fill="none" xmlns="http://www.w3.org/2000/svg">
<rect width="42" height="42" rx="21" fill="#EEEEEC"/>
<path fill-rule="evenodd" clip-rule="evenodd" d="M21 8.66667C18.6068 8.66667 16.6667 10.6068 16.6667 13C16.6667 15.3932 18.6068 17.3333 21 17.3333C23.3932 17.3333 25.3333 15.3932 25.3333 13C25.3333 10.6068 23.3932 8.66667 21 8.66667ZM14.6667 13C14.6667 9.5022 17.5022 6.66667 21 6.66667C24.4978 6.66667 27.3333 9.5022 27.3333 13C27.3333 16.4978 24.4978 19.3333 21 19.3333C17.5022 19.3333 14.6667 16.4978 14.6667 13Z" fill="#252525"/>
<path fill-rule="evenodd" clip-rule="evenodd" d="M18.7289 23.3333C15.1987 23.3333 12.2209 25.9621 11.783 29.4651L11.3256 33.124L9.34106 32.876L9.79843 29.217C10.3614 24.7132 14.19 21.3333 18.7289 21.3333H23.2711C27.81 21.3333 31.6386 24.7132 32.2016 29.217L32.659 32.876L30.6744 33.124L30.217 29.4651C29.7792 25.9621 26.8013 23.3333 23.2711 23.3333H18.7289Z" fill="#252525"/>
</svg>
