<svg width="54" height="54" viewBox="0 0 54 54" fill="none" xmlns="http://www.w3.org/2000/svg">
<rect x="6" y="10" width="4" height="44" rx="2" transform="rotate(-15 6 10)" stroke="#252525" stroke-width="2"/>
<path d="M24.4882 9.45131C17.7368 7.43713 13.4748 10.8494 10.9652 13.0748L16.1417 32.3938C18.4472 30.0506 23.2506 26.0831 29.6647 28.7703C37.586 32.089 43.5759 26.5958 43.5759 26.5958L36.1484 18.1094L38.0111 5.82784C38.0111 5.82784 32.2485 11.7665 24.4882 9.45131Z" fill="#E4F1E2"/>
<path d="M10.9652 13.0748L10.3018 12.3266C10.0184 12.5779 9.90127 12.9677 9.9993 13.3336L10.9652 13.0748ZM24.4882 9.45131L24.7741 8.49305L24.4882 9.45131ZM38.0111 5.82784L38.9998 5.9778C39.065 5.54792 38.845 5.12518 38.4555 4.93199C38.066 4.73879 37.5963 4.81942 37.2935 5.13145L38.0111 5.82784ZM36.1484 18.1094L35.1597 17.9594C35.1156 18.2506 35.202 18.5464 35.3959 18.768L36.1484 18.1094ZM43.5759 26.5958L44.2518 27.3328C44.6522 26.9656 44.6862 26.346 44.3284 25.9372L43.5759 26.5958ZM29.6647 28.7703L30.0511 27.848L29.6647 28.7703ZM16.1417 32.3938L15.1758 32.6526C15.2687 32.9991 15.54 33.2693 15.8869 33.3608C16.2337 33.4522 16.603 33.3509 16.8546 33.0951L16.1417 32.3938ZM11.6287 13.823C14.086 11.644 17.9807 8.55345 24.2023 10.4096L24.7741 8.49305C17.4929 6.32081 12.8636 10.0549 10.3018 12.3266L11.6287 13.823ZM24.2023 10.4096C28.3958 11.6607 32.0429 10.6735 34.604 9.40369C35.8842 8.76896 36.9051 8.05847 37.6079 7.50543C37.96 7.22837 38.2341 6.9893 38.423 6.81666C38.5175 6.73029 38.5908 6.6604 38.6421 6.61053C38.6677 6.58559 38.6878 6.56563 38.7023 6.55111C38.7095 6.54385 38.7154 6.53794 38.7198 6.53344C38.722 6.5312 38.7239 6.5293 38.7254 6.52776C38.7261 6.527 38.7268 6.52632 38.7274 6.52573C38.7276 6.52544 38.728 6.52506 38.7282 6.52492C38.7285 6.52457 38.7288 6.52424 38.0111 5.82784C37.2935 5.13145 37.2938 5.13117 37.294 5.13091C37.2941 5.13085 37.2943 5.13062 37.2944 5.1305C37.2946 5.13028 37.2948 5.13014 37.2948 5.13009C37.2949 5.12999 37.2947 5.13024 37.2941 5.13084C37.2929 5.13203 37.2904 5.13461 37.2865 5.13851C37.2787 5.14632 37.2655 5.15943 37.247 5.17742C37.21 5.2134 37.152 5.26884 37.0738 5.34034C36.9172 5.48343 36.6805 5.69022 36.3711 5.93374C35.7508 6.42184 34.8461 7.05131 33.7156 7.61185C31.4552 8.73256 28.3408 9.55715 24.7741 8.49305L24.2023 10.4096ZM37.0225 5.67789L35.1597 17.9594L37.1371 18.2593L38.9998 5.9778L37.0225 5.67789ZM35.3959 18.768L42.8234 27.2544L44.3284 25.9372L36.9009 17.4508L35.3959 18.768ZM43.5759 26.5958C42.9 25.8588 42.9003 25.8585 42.9006 25.8582C42.9007 25.8581 42.901 25.8579 42.9011 25.8577C42.9014 25.8575 42.9016 25.8573 42.9017 25.8572C42.9019 25.857 42.9018 25.8572 42.9012 25.8576C42.9002 25.8585 42.8978 25.8607 42.894 25.8641C42.8863 25.8709 42.8731 25.8826 42.8544 25.8987C42.8169 25.931 42.7576 25.9809 42.6775 26.0451C42.5172 26.1737 42.2741 26.3589 41.9563 26.5737C41.3192 27.0042 40.39 27.5479 39.2312 27.9944C36.9232 28.8837 33.7195 29.3849 30.0511 27.848L29.2783 29.6927C33.5312 31.4744 37.2831 30.8883 39.9503 29.8607C41.2792 29.3487 42.3425 28.7266 43.0761 28.2308C43.4436 27.9824 43.7304 27.7644 43.9286 27.6055C44.0277 27.526 44.1049 27.4612 44.159 27.4146C44.1861 27.3913 44.2075 27.3725 44.223 27.3587C44.2307 27.3518 44.237 27.3462 44.2418 27.3418C44.2442 27.3397 44.2462 27.3378 44.2479 27.3363C44.2487 27.3356 44.2495 27.3349 44.2501 27.3343C44.2504 27.334 44.2509 27.3336 44.251 27.3335C44.2514 27.3331 44.2518 27.3328 43.5759 26.5958ZM30.0511 27.848C23.0145 24.9 17.7717 29.3113 15.4289 31.6925L16.8546 33.0951C19.1227 30.7899 23.4868 27.2663 29.2783 29.6927L30.0511 27.848ZM9.9993 13.3336L15.1758 32.6526L17.1077 32.135L11.9312 12.816L9.9993 13.3336Z" fill="#252525"/>
</svg>
