<svg width="54" height="54" viewBox="0 0 54 54" fill="none"
    xmlns="http://www.w3.org/2000/svg">
    <path d="M47 43C47 46.3137 44.3137 49 41 49L13 49C9.68629 49 7 46.3137 7 43L7 21L47 21L47 43Z" stroke="#282B35" stroke-width="2" stroke-linejoin="round"/>
    <rect x="21" y="21" width="12" height="28" fill="#E4F1E2" stroke="#282B35" stroke-width="2"/>
    <path d="M50 15C50 13.3431 48.6569 12 47 12L7 12C5.34315 12 4 13.3431 4 15L4 18C4 19.6569 5.34315 21 7 21L47 21C48.6569 21 50 19.6569 50 18L50 15Z" stroke="#282B35" stroke-width="2" stroke-linejoin="round"/>
    <rect x="21" y="12" width="12" height="9" fill="#E4F1E2" stroke="#282B35" stroke-width="2"/>
    <path d="M25.8082 10.3147L25.0148 10.9444C25.8082 10.3147 25.8081 10.3146 25.8081 10.3145L25.8079 10.3143L25.8072 10.3135L25.8046 10.3104L25.7947 10.2987L25.7568 10.2539C25.7236 10.2149 25.6751 10.1578 25.613 10.0851C25.4888 9.93961 25.3101 9.73135 25.0911 9.47903C24.6533 8.97479 24.053 8.29264 23.4043 7.58326C22.7571 6.87552 22.0544 6.13252 21.4132 5.50987C20.8152 4.92921 20.1882 4.36998 19.6864 4.08357C19.0045 3.6438 17.9474 3.18748 16.7681 3.19619C15.4998 3.20554 14.1919 3.75677 13.2025 5.17856L13.2024 5.17858C12.4282 6.29109 12.1954 7.92754 12.6034 9.2937C12.8135 9.99723 13.2089 10.6825 13.8502 11.1925C14.5021 11.711 15.3466 11.9985 16.3483 11.9911L16.3604 11.0179L16.3483 11.9911L25.0026 11.9272C25.3959 11.9243 25.7566 11.7025 25.9289 11.3576C26.1012 11.0126 26.0542 10.6065 25.8082 10.3147Z" stroke="#282B35" stroke-width="2"/>
    <path d="M27.6401 10.3147L28.4334 10.9444C27.6401 10.3147 27.6401 10.3146 27.6402 10.3145L27.6404 10.3143L27.6411 10.3135L27.6437 10.3104L27.6536 10.2987L27.6915 10.2539C27.7246 10.2149 27.7731 10.1578 27.8352 10.0851C27.9594 9.93961 28.1381 9.73135 28.3572 9.47903C28.7949 8.97479 29.3952 8.29264 30.0439 7.58326C30.6911 6.87552 31.3939 6.13252 32.0351 5.50987C32.633 4.92921 33.2601 4.36998 33.7618 4.08357C34.4437 3.6438 35.5008 3.18748 36.6802 3.19619C37.9484 3.20554 39.2563 3.75677 40.2458 5.17856L40.2458 5.17858C41.02 6.29109 41.2528 7.92754 40.8448 9.2937C40.6347 9.99723 40.2393 10.6825 39.598 11.1925C38.9461 11.711 38.1017 11.9985 37.0999 11.9911L37.0878 11.0137L37.0999 11.9911L28.4456 11.9272C28.0523 11.9243 27.6916 11.7025 27.5193 11.3576C27.347 11.0126 27.394 10.6065 27.6401 10.3147Z" stroke="#282B35" stroke-width="2"/>
</svg>
