<svg width="24" height="24" viewBox="0 0 24 24" fill="none" xmlns="http://www.w3.org/2000/svg">
<path fill-rule="evenodd" clip-rule="evenodd" d="M19 13.5H5V20.5H19V13.5ZM3.5 12V22H20.5V12H3.5Z" fill="#252525"/>
<path fill-rule="evenodd" clip-rule="evenodd" d="M20.5 8H3.5V12H20.5V8ZM2 6.5V13.5H22V6.5H2Z" fill="#252525"/>
<path d="M11.25 6.5H12.75V22H11.25V6.5Z" fill="#252525"/>
<path fill-rule="evenodd" clip-rule="evenodd" d="M5.8617 5.06121C5.26478 5.55273 5 6.10972 5 6.5H3.5C3.5 5.50956 4.10267 4.56656 4.90822 3.90325C5.73249 3.22454 6.86698 2.75 8.125 2.75C9.38302 2.75 10.5175 3.22454 11.3418 3.90325C12.1473 4.56656 12.75 5.50956 12.75 6.5H11.25C11.25 6.10972 10.9852 5.55273 10.3883 5.06121C9.81009 4.58511 9.00709 4.25 8.125 4.25C7.24291 4.25 6.43991 4.58511 5.8617 5.06121Z" fill="#252525"/>
<path fill-rule="evenodd" clip-rule="evenodd" d="M13.6117 5.06121C13.0148 5.55273 12.75 6.10972 12.75 6.5H11.25C11.25 5.50956 11.8527 4.56656 12.6582 3.90325C13.4825 3.22454 14.617 2.75 15.875 2.75C17.133 2.75 18.2675 3.22454 19.0918 3.90325C19.8973 4.56656 20.5 5.50956 20.5 6.5H19C19 6.10972 18.7352 5.55273 18.1383 5.06121C17.5601 4.58511 16.7571 4.25 15.875 4.25C14.9929 4.25 14.1899 4.58511 13.6117 5.06121Z" fill="#252525"/>
</svg>
