<svg width="24" height="24" viewBox="0 0 24 24" fill="none" xmlns="http://www.w3.org/2000/svg">
<path d="M22 8C22 6.89543 21.1046 6 20 6L4 6C2.89543 6 2 6.89543 2 8L2 10L22 10L22 8Z" stroke="#282B35" stroke-width="2" stroke-linejoin="round"/>
<rect x="9" y="6" width="6" height="4" fill="white" stroke="#282B35" stroke-width="2"/>
<path d="M21 19C21 21.2091 19.2091 23 17 23L7 23C4.79086 23 3 21.2091 3 19L3 10L21 10L21 19Z" stroke="#282B35" stroke-width="2" stroke-linejoin="round"/>
<rect x="9" y="10" width="6" height="13" fill="white" stroke="#282B35" stroke-width="2"/>
<path d="M11.6995 4.36379L10.9061 4.99355C11.6995 4.36379 11.6994 4.36375 11.6994 4.3637L11.6993 4.36357L11.6989 4.36317L11.6978 4.36184L11.6938 4.3571L11.6789 4.33952L11.6234 4.27434C11.5757 4.21845 11.5073 4.1387 11.4235 4.0422C11.2563 3.8496 11.0264 3.58836 10.7773 3.31596C10.5297 3.04522 10.2558 2.75531 10.0018 2.50869C9.78716 2.30025 9.50677 2.04193 9.24322 1.88749C8.91764 1.68031 8.40436 1.45601 7.805 1.46043C7.11665 1.46551 6.42336 1.77591 5.92974 2.4852L5.92973 2.48521C5.52161 3.07168 5.41793 3.88019 5.61848 4.55172C5.72486 4.90794 5.93241 5.27923 6.28922 5.56299C6.65664 5.8552 7.11996 6.0042 7.63155 6.00043L7.63155 6.00043L10.8939 5.97635C11.2872 5.97345 11.6479 5.7516 11.8202 5.40669C11.9925 5.06177 11.9455 4.65563 11.6995 4.36379Z" stroke="#282B35" stroke-width="2" stroke-linejoin="round"/>
<path d="M12.3005 4.36379L13.0939 4.99355C12.3005 4.36379 12.3006 4.36375 12.3006 4.3637L12.3007 4.36357L12.3011 4.36317L12.3022 4.36184L12.3062 4.3571L12.3211 4.33952L12.3766 4.27434C12.4243 4.21845 12.4927 4.1387 12.5765 4.0422C12.7437 3.8496 12.9736 3.58836 13.2227 3.31596C13.4703 3.04522 13.7442 2.75531 13.9982 2.50869C14.2128 2.30025 14.4932 2.04193 14.7568 1.88749C15.0824 1.68031 15.5956 1.45601 16.195 1.46043C16.8833 1.46551 17.5766 1.77591 18.0703 2.4852L18.0703 2.48521C18.4784 3.07168 18.5821 3.88019 18.3815 4.55172C18.2751 4.90794 18.0676 5.27923 17.7108 5.56299C17.3434 5.8552 16.88 6.0042 16.3685 6.00043L16.3685 6.00043L13.1061 5.97635C12.7128 5.97345 12.3521 5.7516 12.1798 5.40669C12.0075 5.06177 12.0545 4.65563 12.3005 4.36379Z" stroke="#282B35" stroke-width="2" stroke-linejoin="round"/>
</svg>
