<svg width="54" height="54" viewBox="0 0 54 54" fill="none" xmlns="http://www.w3.org/2000/svg">
<path fill-rule="evenodd" clip-rule="evenodd" d="M16 27C16 20.9249 20.9249 16 27 16C33.0751 16 38 20.9249 38 27C38 33.0751 33.0751 38 27 38C20.9249 38 16 33.0751 16 27ZM27 14C19.8203 14 14 19.8203 14 27C14 34.1797 19.8203 40 27 40C34.1797 40 40 34.1797 40 27C40 19.8203 34.1797 14 27 14ZM22.5 26C23.3284 26 24 25.3284 24 24.5C24 23.6716 23.3284 23 22.5 23C21.6716 23 21 23.6716 21 24.5C21 25.3284 21.6716 26 22.5 26ZM33 24.5C33 25.3284 32.3284 26 31.5 26C30.6716 26 30 25.3284 30 24.5C30 23.6716 30.6716 23 31.5 23C32.3284 23 33 23.6716 33 24.5ZM31.2855 29.3004C30.2862 30.3208 28.7529 31 27 31C25.2471 31 23.7138 30.3208 22.7145 29.3004C22.3281 28.9058 21.695 28.8991 21.3004 29.2855C20.9058 29.6719 20.8991 30.305 21.2855 30.6996C22.6809 32.1247 24.7386 33 27 33C29.2614 33 31.3191 32.1247 32.7145 30.6996C33.1009 30.305 33.0942 29.6719 32.6996 29.2855C32.305 28.8991 31.6719 28.9058 31.2855 29.3004Z" fill="#282B35"/>
</svg>
