<svg width="24" height="24" viewBox="0 0 24 24" fill="none" xmlns="http://www.w3.org/2000/svg">
<mask id="path-1-inside-1_9253_2040" fill="white">
<path d="M11.4 3.0195C6.62 3.3295 3 7.5195 3 12.3095V18.9995C3 20.6595 4.34 21.9995 6 21.9995H7C8.1 21.9995 9 21.0995 9 19.9995V15.9995C9 14.8995 8.1 13.9995 7 13.9995H5V12.2895C5 8.4495 7.96 5.1095 11.79 4.9995C15.76 4.8895 19 8.0595 19 11.9995V13.9995H17C15.9 13.9995 15 14.8995 15 15.9995V19.9995C15 21.0995 15.9 21.9995 17 21.9995H18C19.66 21.9995 21 20.6595 21 18.9995V11.9995C21 6.8295 16.64 2.6795 11.4 3.0195Z"/>
</mask>
<path d="M11.4 3.0195C6.62 3.3295 3 7.5195 3 12.3095V18.9995C3 20.6595 4.34 21.9995 6 21.9995H7C8.1 21.9995 9 21.0995 9 19.9995V15.9995C9 14.8995 8.1 13.9995 7 13.9995H5V12.2895C5 8.4495 7.96 5.1095 11.79 4.9995C15.76 4.8895 19 8.0595 19 11.9995V13.9995H17C15.9 13.9995 15 14.8995 15 15.9995V19.9995C15 21.0995 15.9 21.9995 17 21.9995H18C19.66 21.9995 21 20.6595 21 18.9995V11.9995C21 6.8295 16.64 2.6795 11.4 3.0195Z" stroke="#252525" stroke-width="4" mask="url(#path-1-inside-1_9253_2040)"/>
</svg>
