<svg width="24" height="24" viewBox="0 0 24 24" fill="none" xmlns="http://www.w3.org/2000/svg">
<path d="M11.9898 19.1128C12.6864 19.1128 13.6225 18.4445 13.6225 18.4445C20.4019 13.479 19.9953 9.5342 19.9953 9.5342C19.995 8.51925 19.6865 7.53235 19.117 6.7244C18.5474 5.91645 17.7482 5.33192 16.8416 5.0602C15.9349 4.78847 14.9707 4.8445 14.0964 5.21972C13.2221 5.59494 12.4857 6.26869 12 7.13796C11.514 6.26908 10.7777 5.59572 9.90344 5.22077C9.02922 4.84582 8.06522 4.78991 7.15876 5.06158C6.2523 5.33325 5.45323 5.91756 4.88367 6.72522C4.31411 7.53287 4.00538 8.51946 4.00466 9.5342C4.00466 9.5342 3.59807 13.478 10.378 18.4445C10.378 18.4445 11.2955 19.1128 11.9922 19.1128" fill="#BBF383"/>
</svg>
