<svg width="24" height="24" viewBox="0 0 24 24" fill="none" xmlns="http://www.w3.org/2000/svg">
<g clip-path="url(#clip0_17469_28588)">
<path fill-rule="evenodd" clip-rule="evenodd" d="M9.65915 0.228387C10.417 0.0784523 11.1999 0 12 0C15.0228 0 17.7846 1.11771 19.8946 2.96239C20.2453 3.26898 20.578 3.59564 20.8909 3.94061C22.7256 5.96335 23.8795 8.61487 23.9911 11.5335C23.997 11.6883 24 11.8438 24 12C24 12.1 23.9988 12.1998 23.9963 12.2992C23.9252 15.2041 22.8218 17.853 21.0391 19.893C20.7321 20.2443 20.4049 20.5775 20.0594 20.8909C18.0366 22.7256 15.3851 23.8795 12.4665 23.9911C12.3117 23.997 12.1562 24 12 24C11.1999 24 10.417 23.9215 9.65915 23.7716C9.11736 23.6644 8.76505 23.1383 8.87223 22.5966C8.97941 22.0548 9.5055 21.7025 10.0473 21.8096C10.678 21.9344 11.3309 22 12 22C12.0836 22 12.167 21.999 12.2501 21.9969C14.66 21.9378 16.8584 21.0261 18.5552 19.552C18.8562 19.2904 19.1415 19.0112 19.4094 18.7158C20.9357 17.0329 21.8966 14.8277 21.9922 12.4002C21.9974 12.2675 22 12.1341 22 12C22 11.9164 21.999 11.833 21.9969 11.7499C21.9378 9.34085 21.0267 7.14315 19.5536 5.44663C19.2916 5.1449 19.0118 4.85901 18.7158 4.59059C17.0046 3.0386 14.7534 2.07122 12.2775 2.00377C12.1853 2.00126 12.0928 2 12 2C11.3309 2 10.678 2.06558 10.0473 2.19036C9.5055 2.29754 8.97941 1.94523 8.87223 1.40344C8.76505 0.861659 9.11736 0.335568 9.65915 0.228387ZM6.71919 2.29646C7.02644 2.75539 6.90348 3.3765 6.44455 3.68375C5.3536 4.41412 4.41412 5.3536 3.68375 6.44455C3.3765 6.90348 2.75539 7.02644 2.29646 6.7192C1.83753 6.41195 1.71457 5.79084 2.02181 5.33191C2.89762 4.02372 4.02372 2.89762 5.33191 2.02181C5.79084 1.71457 6.41195 1.83753 6.71919 2.29646ZM1.40344 8.87223C1.94523 8.97941 2.29754 9.5055 2.19036 10.0473C2.06558 10.678 2 11.3309 2 12C2 12.6691 2.06558 13.322 2.19036 13.9527C2.29754 14.4945 1.94523 15.0206 1.40344 15.1278C0.861659 15.235 0.335568 14.8826 0.228387 14.3409C0.0784523 13.583 0 12.8001 0 12C0 11.1999 0.0784522 10.417 0.228387 9.65915C0.335568 9.11736 0.861659 8.76505 1.40344 8.87223ZM2.29646 17.2808C2.75539 16.9736 3.3765 17.0965 3.68375 17.5555C4.41412 18.6464 5.3536 19.5859 6.44455 20.3163C6.90348 20.6235 7.02644 21.2446 6.7192 21.7035C6.41195 22.1625 5.79084 22.2854 5.33191 21.9782C4.02372 21.1024 2.89762 19.9763 2.02181 18.6681C1.71457 18.2092 1.83753 17.5881 2.29646 17.2808ZM15.3164 7.1504C14.5211 6.90908 13.6744 6.95973 12.9117 7.2911C12.5791 7.43564 12.2728 7.62891 11.9997 7.8619C11.7266 7.62914 11.4205 7.43606 11.088 7.29168C10.3255 6.96055 9.47892 6.91001 8.68385 7.15127C7.89057 7.39199 7.20893 7.90426 6.73171 8.58943C6.26196 9.26388 6.01061 10.0752 6.00309 10.9025L6.00204 10.9239C6.00035 10.9629 5.99939 11.0116 6.00043 11.0697C6.00251 11.186 6.01254 11.3393 6.04044 11.5257C6.0964 11.8994 6.22339 12.4002 6.49652 12.996C7.0445 14.1912 8.16079 15.7265 10.3905 17.3803L10.392 17.3813L10.3944 17.3831L10.398 17.3858L10.4078 17.3929L10.4375 17.414C10.4615 17.4308 10.4941 17.4531 10.5338 17.4792C10.6123 17.5307 10.7234 17.5998 10.8545 17.6701C11.0743 17.7878 11.5128 18 11.9936 18C12.4718 18 12.9125 17.7895 13.1332 17.6733C13.2652 17.6037 13.3774 17.5352 13.4568 17.4842C13.4969 17.4584 13.5298 17.4363 13.554 17.4197L13.5838 17.399L13.5936 17.392L13.5972 17.3894L13.5987 17.3884L13.6 17.3875L13.6097 17.3803C15.8394 15.7268 16.9556 14.1915 17.5035 12.9962C17.7767 12.4004 17.9036 11.8995 17.9596 11.5257C17.9875 11.3394 17.9975 11.186 17.9996 11.0698C18.0006 11.0117 17.9997 10.9629 17.998 10.924L17.9969 10.9027C17.9897 10.0753 17.7385 9.26373 17.2688 8.58907C16.7916 7.90365 16.1098 7.39117 15.3164 7.1504ZM13.6 17.3875C13.6 17.3875 13.6 17.3875 13.5273 17.2869C13.4556 17.1878 13.3133 16.9911 13.0308 16.6003L13.6 17.3875ZM10.9863 16.5771L10.392 17.3813C10.3918 17.3812 10.3917 17.3811 10.9863 16.5771ZM8.00011 11.034C7.99994 11.0243 8 11.0175 8.00007 11.0139C8.00195 10.989 8.0029 10.9641 8.00291 10.9392C8.00323 10.4945 8.13736 10.0706 8.37288 9.73248C8.60762 9.39546 8.9248 9.16821 9.2646 9.0651C9.60261 8.96253 9.96107 8.98275 10.2913 9.12617C10.6237 9.27049 10.9215 9.53782 11.1247 9.90568C11.3007 10.2244 11.6361 10.4222 12.0002 10.4221C12.3643 10.4221 12.6996 10.2241 12.8755 9.90534C13.0786 9.53732 13.3764 9.26984 13.7088 9.12542C14.0391 8.9819 14.3976 8.96164 14.7356 9.06422C15.0755 9.16735 15.3927 9.39466 15.6274 9.7318C15.8629 10.0701 15.9969 10.494 15.9971 10.9388C15.9971 10.9639 15.998 10.9889 15.9999 11.0139C16 11.0175 16.0001 11.0243 15.9999 11.0341C15.9993 11.0666 15.9961 11.1328 15.9816 11.2296C15.9528 11.4221 15.8785 11.7417 15.6855 12.1628C15.3018 12.9998 14.4286 14.2811 12.4277 15.7669L12.4221 15.7708C12.4126 15.7773 12.3964 15.7882 12.3749 15.8021C12.3309 15.8304 12.2696 15.8676 12.201 15.9038C12.1304 15.941 12.0657 15.9698 12.0135 15.9876C12.0063 15.9901 11.9999 15.9921 11.9944 15.9938L11.9789 15.9887C11.9291 15.9715 11.867 15.9435 11.7988 15.907C11.7325 15.8715 11.6734 15.8349 11.6311 15.8071C11.6104 15.7935 11.5949 15.7828 11.5859 15.7765L11.5783 15.7712C9.5732 14.2832 8.69865 13.0002 8.31456 12.1625C8.12154 11.7414 8.04721 11.4219 8.01839 11.2295C8.00391 11.1327 8.00069 11.0665 8.00011 11.034Z" fill="#252525"/>
</g>
<defs>
<clipPath id="clip0_17469_28588">
<rect width="24" height="24" fill="white"/>
</clipPath>
</defs>
</svg>
