<svg width="24" height="24" viewBox="0 0 24 24" fill="none" xmlns="http://www.w3.org/2000/svg">
<path d="M14 8.5C14 9.88071 12.8807 11 11.5 11C10.1193 11 9 9.88071 9 8.5C9 7.11929 10.1193 6 11.5 6C12.8807 6 14 7.11929 14 8.5Z" fill="#252525"/>
<path fill-rule="evenodd" clip-rule="evenodd" d="M2.25 6C2.25 3.92893 3.92893 2.25 6 2.25H18C20.0711 2.25 21.75 3.92893 21.75 6V18C21.75 20.0704 20.0737 21.75 18.002 21.75H5.99897C3.92757 21.75 2.25 20.0707 2.25 18V6ZM6 3.75C4.75736 3.75 3.75 4.75736 3.75 6V18C3.75 19.243 4.75667 20.25 5.99897 20.25H18.002C19.244 20.25 20.25 19.2433 20.25 18V6C20.25 4.75736 19.2426 3.75 18 3.75H6Z" fill="#252525"/>
<path fill-rule="evenodd" clip-rule="evenodd" d="M17 9.93933L21.5303 14.4697L20.4697 15.5303L17 12.0607L11 18.0607L8 15.0607L3.53033 19.5303L2.46967 18.4697L8 12.9393L11 15.9393L17 9.93933Z" fill="#252525"/>
</svg>
