<svg width="85" height="18" viewBox="0 0 85 18" fill="none" xmlns="http://www.w3.org/2000/svg">
<g clip-path="url(#clip0)">
<path d="M52.7701 9.34375L83.7456 9.36317L85 18.0008L54.1026 17.8538L52.7701 9.34375Z" fill="#BBF383"/>
<path d="M81.0251 11.8516H78.7467C78.6264 11.8516 78.5289 11.9528 78.5289 12.0776V14.443C78.5289 14.5679 78.6264 14.6691 78.7467 14.6691H81.0251C81.1453 14.6691 81.2428 14.5679 81.2428 14.443V12.0776C81.2428 11.9528 81.1453 11.8516 81.0251 11.8516Z" fill="#282B35"/>
<path d="M2.49613 0H0.217752C0.0974908 0 0 0.101213 0 0.226066V2.59144C0 2.71629 0.0974908 2.81751 0.217752 2.81751H2.49613C2.61639 2.81751 2.71388 2.71629 2.71388 2.59144V0.226066C2.71388 0.101213 2.61639 0 2.49613 0Z" fill="#BBF383"/>
<path d="M2.72524 4.37109H0V14.671H2.72524V4.37109Z" fill="#282B35"/>
<path d="M4.2702 4.37521H6.81309V5.63938C7.05476 5.14954 7.44417 4.75525 7.92189 4.51668C8.44421 4.26349 9.01542 4.13777 9.59176 4.14915C10.3425 4.14915 10.9998 4.31257 11.5635 4.63942C12.1179 4.95762 12.5745 5.43188 12.8807 6.0076C13.1951 6.59195 13.3525 7.27408 13.353 8.05399V14.6758H10.6278V8.65799C10.6278 8.06716 10.4581 7.59238 10.1188 7.23363C9.77946 6.87488 9.34328 6.69574 8.81026 6.6962C8.2759 6.6962 7.83995 6.87535 7.50241 7.23363C7.16488 7.59192 6.99522 8.0667 6.99343 8.65799V14.6758H4.2702V4.37521Z" fill="#282B35"/>
<path d="M15.8972 6.82746H14.2274V4.37472H15.8972V4.22424C15.8972 3.00422 16.2394 2.06112 16.9239 1.39494C17.6083 0.728764 18.5688 0.395443 19.8054 0.394981C20.1287 0.390351 20.4516 0.421501 20.7686 0.487904V2.9039C20.5699 2.86874 20.3689 2.84973 20.1674 2.84704C19.1383 2.84704 18.6236 3.3061 18.6231 4.22424V4.37472H20.7492V6.82746H18.6245V14.6753H15.8972V6.82746Z" fill="#282B35"/>
<path d="M23.7576 14.2035C22.9653 13.7515 22.301 13.0916 21.8313 12.2896C21.353 11.4782 21.1139 10.5569 21.1139 9.52546C21.1139 8.48204 21.353 7.55744 21.8313 6.75164C22.3033 5.95385 22.9671 5.29736 23.7576 4.84672C24.5803 4.38833 25.4994 4.14844 26.4331 4.14844C27.3668 4.14844 28.2859 4.38833 29.1086 4.84672C29.8953 5.29928 30.5557 5.95554 31.0256 6.75164C31.5039 7.55697 31.7432 8.48158 31.7436 9.52546C31.7436 10.5569 31.5043 11.4782 31.0256 12.2896C30.5579 13.0899 29.8972 13.7496 29.1086 14.2035C28.2859 14.6619 27.3668 14.9018 26.4331 14.9018C25.4994 14.9018 24.5803 14.6619 23.7576 14.2035ZM28.2369 11.5628C28.6965 11.0344 28.9265 10.3553 28.9269 9.52546C28.9269 8.70811 28.6969 8.03222 28.2369 7.4978C27.7769 6.96338 27.1771 6.69617 26.4375 6.69617C25.6987 6.69617 25.0962 6.96338 24.63 7.4978C24.1638 8.03222 23.9304 8.70811 23.93 9.52546C23.93 10.3576 24.1633 11.0367 24.63 11.5628C25.0967 12.0889 25.6991 12.3531 26.4375 12.3554C27.1762 12.3554 27.776 12.0912 28.2369 11.5628Z" fill="#282B35"/>
<path d="M32.8879 4.37349H35.4314V5.92059C35.6857 5.27938 36.0462 4.84227 36.5128 4.60927C37.0169 4.36913 37.5668 4.25059 38.1213 4.26254H38.7024V6.71321H37.8481C37.1801 6.71321 36.6411 6.92379 36.231 7.34495C35.8208 7.7661 35.6151 8.36039 35.6138 9.12782V14.6755H32.8879V4.37349Z" fill="#282B35"/>
<path d="M57.9113 14.1751C57.1492 13.7079 56.5254 13.0324 56.1078 12.2223C55.6794 11.3867 55.4607 10.4526 55.4719 9.50607C55.4719 8.47467 55.693 7.55653 56.1352 6.75167C56.5606 5.96493 57.1777 5.30803 57.9246 4.84675C58.6772 4.38167 59.5257 4.1489 60.4702 4.14844C61.5242 4.14844 62.4148 4.37473 63.142 4.82733C63.8501 5.25991 64.4263 5.89108 64.8045 6.64834C65.1857 7.40883 65.3765 8.26709 65.3769 9.22314C65.3769 9.42424 65.3678 9.62233 65.3496 9.81743C65.3366 9.98758 65.3029 10.1553 65.2494 10.3167H58.308C58.3802 10.9584 58.6284 11.4741 59.0528 11.8638C59.4772 12.2535 60.0222 12.4486 60.6879 12.4491C61.1724 12.4491 61.5874 12.3483 61.933 12.1467C62.2714 11.9524 62.5512 11.6643 62.7412 11.3146L64.9247 12.3922C64.6197 13.1472 64.0853 13.7539 63.3217 14.2125C62.558 14.6711 61.6674 14.9007 60.6499 14.9011C59.5972 14.9011 58.6843 14.6591 57.9113 14.1751ZM59.1136 6.88411C58.7444 7.19848 58.493 7.65108 58.3595 8.2419H62.4867C62.4413 7.73549 62.2144 7.26526 61.8508 6.92434C61.4875 6.585 61.0272 6.41534 60.4702 6.41534C59.9372 6.41349 59.485 6.56975 59.1136 6.88411Z" fill="#282B35"/>
<path d="M68.5918 14.1839C67.8354 13.7129 67.2119 13.0431 66.7844 12.2422C66.339 11.412 66.1104 10.4754 66.1211 9.52525C66.1211 8.51928 66.3451 7.61062 66.793 6.79928C67.2278 6.00266 67.854 5.33657 68.6105 4.86593C69.3839 4.38507 70.2708 4.13682 71.1721 4.14889C72.3718 4.14889 73.3227 4.51365 74.0249 5.24317V0.394531H76.7508V14.6748H74.2093V13.6936C73.8428 14.0939 73.392 14.4006 72.8921 14.5895C72.3489 14.8 71.7732 14.9055 71.1935 14.9009C70.2205 14.9009 69.3533 14.6619 68.5918 14.1839ZM73.3256 11.5716C73.7918 11.0497 74.0249 10.3673 74.0249 9.52455C74.0249 8.69241 73.7918 8.01329 73.3256 7.48718C72.8594 6.96108 72.2566 6.69711 71.5175 6.69526C70.7667 6.69526 70.1488 6.96247 69.6639 7.49689C69.179 8.03132 68.9367 8.7072 68.9372 9.52455C68.9372 10.3567 69.1794 11.0358 69.6639 11.5619C70.1484 12.088 70.7662 12.3522 71.5175 12.3545C72.2562 12.3545 72.8589 12.0936 73.3256 11.5716Z" fill="#282B35"/>
<path d="M39.4471 4.37488H41.9907V5.63905C42.2323 5.14915 42.6217 4.75483 43.0995 4.51634C43.584 4.27132 44.1406 4.14881 44.7694 4.14881C45.3898 4.14082 46.0032 4.28629 46.5588 4.57321C47.0677 4.82763 47.494 5.23086 47.7852 5.73336C48.1107 5.21654 48.5665 4.80231 49.103 4.53576C49.6524 4.27263 50.2515 4.14042 50.8564 4.14881C51.5711 4.14881 52.2039 4.31224 52.7547 4.63909C53.3015 4.9614 53.7513 5.43507 54.0539 6.00727C54.3691 6.59162 54.5268 7.27375 54.5268 8.05366V14.6755H51.8029V8.65766C51.8029 8.06683 51.6486 7.59205 51.34 7.2333C51.0314 6.87455 50.6104 6.69541 50.0769 6.69587C49.5425 6.69587 49.1215 6.87501 48.8138 7.2333C48.5061 7.59158 48.3518 8.06637 48.3509 8.65766V14.6755H45.625V8.65766C45.625 8.06683 45.4705 7.59205 45.1615 7.2333C44.8524 6.87455 44.4316 6.69541 43.899 6.69587C43.3647 6.69587 42.9436 6.87501 42.6359 7.2333C42.3282 7.59158 42.1739 8.06637 42.173 8.65766V14.6755H39.4471V4.37488Z" fill="#282B35"/>
</g>
<defs>
<clipPath id="clip0">
<rect width="85" height="18" fill="white"/>
</clipPath>
</defs>
</svg>
