<svg width="270" height="63" viewBox="0 0 270 63" fill="none" xmlns="http://www.w3.org/2000/svg">
<g clip-path="url(#clip0_19204_18328)">
<path fill-rule="evenodd" clip-rule="evenodd" d="M84.329 16.257C84.329 18.2926 82.6587 19.8585 80.7275 19.8585C78.6918 19.8585 77.0737 18.2926 77.0737 16.257C77.0737 14.2213 78.6918 12.6033 80.7275 12.6033C82.7631 12.6033 84.329 14.2213 84.329 16.257ZM121.009 23.3304V22.0411C121.009 19.1118 121.332 17.8029 125.959 18.6493V14.1138C116.495 12.3614 115.202 17.1829 115.202 21.7935V23.3304H111.747V27.8482H115.202V48.1575H121.009V27.8482H125.959V23.3304H121.009ZM93.5569 23.3304H87.791H87.7807V48.1678H93.691V36.8321C93.691 30.6847 96.0942 27.7553 99.4568 27.7553C102.964 27.7553 104.119 30.3959 104.119 34.1401V48.1575H109.926V32.7888C109.926 26.8889 107.43 22.66 100.994 22.66C97.1876 22.66 94.2479 24.6919 93.7322 31.0663H93.5569V23.3304ZM77.5791 23.3304H83.4894V48.1575H77.5791V23.3304ZM139.182 22.66C131.889 22.66 126.268 27.8482 126.268 35.7182C126.268 43.6398 131.879 48.8692 139.182 48.8692C146.484 48.8692 152.054 43.6398 152.054 35.7182C152.054 27.8482 146.474 22.66 139.182 22.66ZM139.171 27.3118C143.493 27.3118 146.33 31.1076 146.33 35.7182C146.33 40.3288 143.503 44.1245 139.171 44.1245C134.849 44.1245 132.013 40.3288 132.013 35.7182C132.013 31.1076 134.849 27.3118 139.171 27.3118ZM168.073 23.0416V28.6115C167.784 28.6115 166.194 28.7201 165.34 28.9003C163.04 29.3851 160.729 30.6331 160.729 36.8734V48.1575H154.819V23.3304H160.585V31.0663H160.791C161.441 24.1556 164.649 23.0932 168.073 23.0416ZM176.176 23.3304H170.42V48.1678H176.33V36.8321C176.33 31.9327 177.341 27.7553 181.23 27.7553C184.685 27.7553 185.356 30.3959 185.356 34.1401V48.1575H191.07V36.2545C191.07 30.8291 193.04 27.7553 195.969 27.7553C198.992 27.7553 200.095 30.3959 200.095 34.1401V48.1575H205.902V32.7888C205.902 26.8889 202.973 22.66 196.733 22.66C193.174 22.66 189.832 24.6713 189.77 31.0663H189.554C189.935 24.6919 186.191 22.66 182.808 22.66C179.384 22.66 176.578 24.6197 176.392 31.0663H176.176V23.3304ZM232.85 37.3581H213.789C214.274 41.5355 217.007 44.1245 220.751 44.1245C223.484 44.1245 225.795 43.1137 226.661 40.8135H232.52C231.035 45.8058 226.754 48.8795 220.803 48.8795C213.314 48.8795 208.178 43.5469 208.178 35.6769C208.178 28.0957 213.51 22.6187 220.803 22.6187C229.209 22.6187 232.85 29.0549 232.902 36.2545C232.902 36.4917 232.902 36.9249 232.85 37.3581ZM227.187 33.3252C226.806 29.9626 224.836 27.1364 220.751 27.1364C216.955 27.1364 214.418 29.6326 213.84 33.3252H227.187ZM260.338 48.3398V14.0543H254.324V27.783L254.273 29.8974H254.056C253.381 25.3614 250.599 22.832 245.96 22.832C239.235 22.832 234.871 27.9789 234.871 35.8489C234.871 43.7705 239.287 48.9587 246.012 48.9587C249.39 48.9587 253.381 47.8526 254.025 41.46H254.232L254.283 48.3398H260.338ZM247.754 27.556C252.416 27.556 254.768 31.589 254.768 35.8592C254.768 40.2223 252.509 44.3069 247.754 44.3069C242.66 44.3069 240.74 40.6143 240.74 35.8592C240.74 31.2074 242.753 27.556 247.754 27.556ZM270.227 45.2071C270.227 47.312 268.6 48.8795 266.665 48.8795C264.598 48.8795 262.971 47.312 262.971 45.2071C262.971 43.1918 264.598 41.6243 266.665 41.6243C268.6 41.6243 270.227 43.2366 270.227 45.2071Z" fill="#252525"/>
<path d="M49.8138 19.1307C47.4832 13.2421 42.7426 7.98507 36.4405 4.37204C23.1464 -3.27198 7.54021 -1.20076 1.6343 8.96959C0.305241 11.2827 -0.341077 13.9228 -0.230232 16.5858L0.235901 49.9157C0.227451 52.0159 0.780443 54.0805 1.83805 55.8973C2.89566 57.7141 4.41974 59.2176 6.25368 60.2533C6.95878 60.6508 7.70407 60.9731 8.47714 61.2146H8.50045C9.69355 61.598 10.9386 61.7969 12.1922 61.8044C14.6718 61.8019 17.0816 60.9859 19.049 59.4824L42.1226 43.312C44.913 41.5145 47.2435 39.0926 48.9282 36.2392C51.8602 31.1818 52.1771 25.1075 49.8138 19.1307ZM4.41246 49.8786L4.13278 27.7546C6.14812 30.3035 8.6376 32.4415 11.4651 34.0518C15.1789 36.2313 19.4004 37.4049 23.7104 37.4559C24.6741 37.4572 25.6368 37.3905 26.5911 37.2562C27.8757 37.0786 29.138 36.7673 30.3574 36.3274L26.7123 43.6696C22.97 43.8059 19.2339 43.2678 15.6836 42.0813C15.2988 41.9526 14.8923 41.901 14.4875 41.9297C14.0826 41.9584 13.6875 42.0668 13.3249 42.2485C12.965 42.4281 12.6448 42.6775 12.383 42.9822C12.1213 43.2868 11.9233 43.6405 11.8007 44.0225L7.86184 56.3616C6.79295 55.6501 5.91819 54.6853 5.31612 53.5537C4.71405 52.4221 4.40353 51.1593 4.41246 49.8786V49.8786ZM34.5247 27.8846C32.8792 30.7221 29.8633 32.5843 26.0038 33.1184C24.0091 33.3832 21.9838 33.3094 20.0139 32.9001L25.9944 15.2204C30.2223 16.1492 33.5178 18.3412 34.9069 21.2576C35.4109 22.3043 35.6402 23.4612 35.5733 24.6202C35.5065 25.7792 35.1457 26.9023 34.5247 27.8846V27.8846ZM16.6018 56.0783L16.5506 56.1155C15.2067 57.1588 13.5358 57.695 11.8333 57.6294L15.4412 46.4002C19.6406 47.665 24.0402 48.1375 28.4137 47.7934L16.6018 56.0783ZM45.2924 34.1494C42.6587 38.7005 37.6245 41.8027 31.6952 43.0658L38.5334 29.2778C39.3249 27.7676 39.7518 26.0941 39.7802 24.3906C39.8085 22.6871 39.4374 21.0006 38.6966 19.465C36.6036 15.0811 31.7372 11.886 25.6728 10.9108C24.9698 10.7964 24.2489 10.9356 23.6397 11.3033C23.0305 11.6711 22.573 12.2432 22.3493 12.917L16.0099 31.6555C15.1661 31.2983 14.3457 30.8888 13.5533 30.4295C9.56323 28.1354 6.52404 24.801 4.99046 21.0208C4.37992 19.5572 4.03431 17.9975 3.96963 16.4139V16.3303C3.91005 14.4837 4.36331 12.6565 5.27946 11.0501V11.0501C10.0247 2.87667 23.0671 1.51598 34.3569 7.98971C39.8432 11.1476 43.9499 15.643 45.9216 20.6585C47.7955 25.4233 47.5764 30.2159 45.2924 34.1494V34.1494Z" fill="#252525"/>
</g>
<defs>
<clipPath id="clip0_19204_18328">
<rect width="270" height="62.0467" fill="white"/>
</clipPath>
</defs>
</svg>
