<svg fill="none" height="48" viewBox="0 0 48 48" width="48" xmlns="http://www.w3.org/2000/svg" xmlns:xlink="http://www.w3.org/1999/xlink"><linearGradient id="a" gradientUnits="userSpaceOnUse" x1="24" x2="24" y1="0" y2="48"><stop offset=".195314" stop-color="#f3e5f4"/><stop offset="1" stop-color="#eec9f0"/></linearGradient><clipPath id="b"><rect height="34" rx="8" width="34" x="7" y="7"/></clipPath><rect fill="url(#a)" height="48" rx="8" width="48"/><g clip-path="url(#b)"><g fill="#fff"><path d="m21.9256 27.8711-11.077 9.2959c-.3123-.3234-.583-.6846-.8056-1.0752l2.6637-2.5836c.1072-.1078.1751-.2486.1926-.3996.0175-.1511-.0164-.3036-.0963-.4331-.5771-.9301-1.1586-3.4054-.4894-5.5461l.1083-.2328c.3725 1.5051 1.0454 2.9194 1.9783 4.158.1457.1958.3633.3258.6048.3612.2416.0354.4873-.0265.6832-.1723.1958-.1457.3258-.3633.3612-.6048.0354-.2416-.0265-.4873-.1723-.6832-1.7444-2.3453-2.3204-5.0891-1.5387-7.1335l.0228-.0476c.3595 1.9122 1.2344 3.8591 2.59 5.6132.1494.1932.3693.3191.6115.35.2421.031.4867-.0355.6798-.1848.1931-.1494.319-.3693.35-.6115.0309-.2421-.0356-.4867-.1849-.6798-2.2468-2.9084-2.9755-6.3679-1.9317-8.9732.3649 2.4905 1.4726 4.9809 3.1943 7.1855l.0075.0087c.4057.5193.8394 1.0159 1.2994 1.4877.3476.3455.6713.6519.9485.9009z"/><path d="m31.5978 31.0382-14.9838 6.8325-1.1261.5122-.0477.0238c-.8662.4526-1.9934.3801-3.0535-.1256l11.56-9.7008c.1052-.0886.1893-.1995.246-.3248.0568-.1252.0848-.2615.082-.399-.0029-.1375-.0364-.2726-.0982-.3954s-.1503-.2303-.259-.3144c-.5691-.4564-1.1097-.9471-1.6188-1.4694-.2382-.2426-.4667-.4927-.6865-.7471l2.4969-2.8738c.013.1776.0293.3562.0542.5414.2761 1.9794 1.2896 3.9663 2.8564 5.5948 1.3286 1.373 2.9257 2.3638 4.5781 2.8456z"/><path d="m32.8981 18.6878-6.4329 5.3924c-.7829-1.8798-.7363-3.7747.2479-5.0134l.1949-.2252c.0325-.0336.0639-.0661.0975-.0975.6713-.6497 1.6025-.9626 2.6442-.9626 1.0243 0 2.1559.3064 3.2484.9063z"/><path d="m38.607 21.5855c.3064 2.6301-.3725 5.0285-1.9134 6.7545-.2946.3034-.6303.564-.9972.7742-.7894.4082-1.778.5273-2.8694.3324-1.5874-.2837-3.1781-1.1835-4.4774-2.5348-.3558-.3708-.6816-.769-.9746-1.1911l7.6706-6.4243c.1059-.09.1901-.2028.2464-.3299.0562-.1271.083-.2653.0785-.4042-.0038-.1392-.0393-.2756-.1039-.3989-.0645-.1233-.1564-.2302-.2686-.3125-3.2333-2.3919-7.0437-2.5695-9.2656-.4332-.039.0379-.0758.0791-.1137.1181-.0271.0237-.0524.0494-.0758.0768l-.0097.0109c-.0801.0855-.1559.1721-.2296.2631l-4.826 5.5472c-1.4932-2.2327-2.3237-4.7481-2.2891-7.0891.0048-.9291.167-1.8506.4797-2.7254l.5122-1.0969c.2961-.5043.6605-.9652 1.0828-1.3698 3.413-3.28626 9.8881-2.11466 14.4327 2.6096 2.2013 2.2869 3.5905 5.0654 3.9111 7.8233z"/></g><path d="m40.433 21.373c.3681 3.1586-.4732 6.0637-2.3681 8.1925-.119.1322-.2455.2572-.379.3747-.3296.3079-.6979.5714-1.0958.7839-.3063.1832-.6226.3491-.9474.497l-19.3725 8.827c-.6581.3348-1.3871.5068-2.1255.5014-1.6004 0-3.3058-.7417-4.6214-2.1104-1.81477-1.8787-2.42656-4.4774-1.52783-6.4643v-.0119l4.64633-9.8774c.0722-.1913.1559-.3786.2512-.5619.0174-.0331.0366-.0653.0574-.0964l1.8873-3.9999c.0639-.1483.1299-.2967.2025-.4407l.0238-.0411 1.8884-4.014c.4326-1.1743 1.1256-2.2352 2.027-3.10329 2.0476-1.96962 4.9744-2.75357 8.2412-2.20675 3.1661.52949 6.2911 2.25656 8.7967 4.86394 2.4807 2.576 4.0486 5.7324 4.4157 8.8876zm-3.7422 6.9668c1.5408-1.726 2.2198-4.1244 1.9133-6.7545-.3248-2.7579-1.7097-5.5364-3.911-7.8233-4.5446-4.72424-11.0197-5.89583-14.4371-2.6074-.4222.4046-.7866.8655-1.0828 1.3698l-.5143 1.0936c-.3128.8748-.475 1.7964-.4797 2.7254-.0346 2.341.7959 4.8564 2.2891 7.0891l4.8293-5.5472c.0736-.0909.1494-.1775.2295-.2631l.0098-.0108c.0233-.0275.0486-.0532.0758-.0769.0379-.039.0747-.0801.1137-.118 2.2219-2.1353 6.0323-1.9577 9.2655.4331.1122.0823.2041.1892.2687.3125.0645.1233.1.2598.1038.3989.0046.1389-.0223.2771-.0785.4042s-.1405.2399-.2464.3299l-7.6684 6.4265c.293.4221.6188.8203.9746 1.1911 1.2993 1.3513 2.89 2.2511 4.4774 2.5348 1.0914.1949 2.08.0758 2.8694-.3324.3674-.2105.7035-.4714.9983-.7753zm-10.227-4.2597 6.4329-5.3924c-1.0926-.5999-2.2241-.9063-3.2484-.9063-1.0417 0-1.9729.3162-2.6442.9626-.0336.0314-.065.0639-.0975.0975l-.1949.2252c-.981 1.2387-1.0308 3.1336-.2479 5.0134zm-9.8536 13.7905 14.985-6.8325c-1.6524-.4861-3.2485-1.4769-4.5749-2.8542-1.5668-1.6242-2.5803-3.6155-2.8564-5.5949-.0249-.1808-.0412-.3595-.0542-.5414l-2.5002 2.8738c.2166.2544.4483.5046.6865.7471.5092.5223 1.0498 1.013 1.6188 1.4694.1088.0842.1973.1916.2591.3144s.0953.2579.0981.3954-.0252.2738-.0819.3991c-.0568.1252-.1408.2362-.246.3247l-11.56 9.7095c1.06.5057 2.1926.5782 3.0535.1256l.0476-.0238zm-5.7626-.7038 11.077-9.2959c-.2772-.249-.6009-.5554-.9452-.9052-.46-.4718-.8938-.9685-1.2994-1.4877l-.0076-.0087c-1.7216-2.1992-2.8293-4.6929-3.1943-7.1855-1.0438 2.6052-.3151 6.0637 1.9318 8.9732.1493.1931.2158.4377.1848.6798-.0309.2422-.1568.4621-.35.6114-.1931.1494-.4376.2159-.6798.1849-.2421-.031-.4621-.1569-.6114-.35-1.3557-1.7541-2.2306-3.701-2.5901-5.6132l-.0227.0476c-.7861 2.0487-.2101 4.7882 1.5365 7.1378.0722.097.1246.2072.1541.3244.0296.1172.0357.2391.0181.3587-.0176.1195-.0586.2345-.1206.3382-.0621.1037-.144.1942-.2411.2662-.1957.1457-.4413.2076-.6827.1723s-.459-.1651-.6048-.3607c-.9328-1.2385-1.6057-2.6529-1.9782-4.158l-.1083.2328c-.6692 2.1407-.0877 4.616.4894 5.5461.0798.1295.1137.282.0963.4331-.0175.1511-.0854.2918-.1927.3996l-2.6636 2.5836c.2226.3906.4933.7518.8056 1.0752z" fill="#231f20"/></g></svg>