<svg width="128" height="128" viewBox="0 0 128 128" fill="none" xmlns="http://www.w3.org/2000/svg">
<rect width="128" height="128" fill="#C7F860"/>
<path d="M104.63 45.3498C101.109 36.4287 93.9462 28.4644 84.4243 22.9907C64.3382 11.4101 40.7588 14.548 31.8356 29.9559C29.8275 33.4603 28.851 37.4599 29.0184 41.4943L29.7227 91.9889C29.7099 95.1707 30.5455 98.2985 32.1434 101.051C33.7414 103.803 36.0441 106.081 38.815 107.65C39.8803 108.252 41.0064 108.741 42.1744 109.106H42.2096C44.0123 109.687 45.8935 109.989 47.7875 110C51.534 109.996 55.1749 108.76 58.1475 106.482L93.0095 81.9842C97.2255 79.2611 100.747 75.5919 103.292 71.269C107.722 63.6072 108.201 54.4047 104.63 45.3498ZM36.0331 91.9326L35.6105 58.4149C38.6555 62.2765 42.4169 65.5156 46.6889 67.9552C52.3001 71.2571 58.6785 73.035 65.1904 73.1123C66.6465 73.1143 68.101 73.0132 69.5428 72.8098C71.4837 72.5408 73.391 72.0692 75.2334 71.4027L69.7259 82.526C64.0718 82.7325 58.4268 81.9173 53.0626 80.1198C52.4813 79.9247 51.8671 79.8467 51.2554 79.8902C50.6437 79.9336 50.0468 80.0978 49.499 80.3731C48.9552 80.6452 48.4713 81.0231 48.0759 81.4846C47.6804 81.9461 47.3812 82.482 47.196 83.0607L41.2448 101.754C39.6298 100.676 38.3081 99.2146 37.3984 97.5003C36.4888 95.786 36.0196 93.8728 36.0331 91.9326ZM81.5297 58.6119C79.0436 62.9107 74.4869 65.732 68.6554 66.5411C65.6417 66.9422 62.5817 66.8304 59.6054 66.2104L68.6413 39.4258C75.0292 40.833 80.0084 44.1538 82.1072 48.5721C82.8687 50.1578 83.2151 51.9106 83.1141 53.6664C83.0131 55.4223 82.468 57.1238 81.5297 58.6119ZM54.4501 101.325L54.3726 101.381C52.3421 102.962 49.8175 103.774 47.2453 103.675L52.6964 86.6629C59.0413 88.579 65.6886 89.2948 72.2966 88.7736L54.4501 101.325ZM97.7986 68.103C93.8194 74.9979 86.2132 79.6977 77.2547 81.6113L87.5865 60.7226C88.7824 58.4346 89.4274 55.8994 89.4702 53.3186C89.513 50.7379 88.9524 48.1827 87.833 45.8564C84.6708 39.2148 77.3181 34.3743 68.1554 32.8968C67.0932 32.7235 66.0041 32.9344 65.0836 33.4915C64.1632 34.0486 63.4718 34.9155 63.1339 35.9362L53.5556 64.3249C52.2809 63.7837 51.0412 63.1633 49.8441 62.4675C43.8154 58.9919 39.2235 53.9403 36.9064 48.2133C35.9839 45.9961 35.4617 43.6332 35.364 41.234V41.1074C35.274 38.3097 35.9588 35.5415 37.343 33.1079C44.5126 20.7252 64.2184 18.6638 81.2762 28.4714C89.5656 33.2556 95.7703 40.0661 98.7494 47.6645C101.581 54.8831 101.25 62.1438 97.7986 68.103Z" fill="#252525"/>
</svg>
