<svg width="24" height="24" viewBox="0 0 24 24" fill="none" xmlns="http://www.w3.org/2000/svg">
<path d="M7.99688 2.3999C4.90968 2.3999 2.39844 4.91346 2.39844 8.00146V16.0015C2.39844 19.0887 4.912 21.5999 8 21.5999H16C19.0872 21.5999 21.5984 19.0863 21.5984 15.9983V7.99834C21.5984 4.91114 19.0849 2.3999 15.9969 2.3999H7.99688ZM17.5984 5.5999C18.04 5.5999 18.3984 5.9583 18.3984 6.3999C18.3984 6.8415 18.04 7.1999 17.5984 7.1999C17.1568 7.1999 16.7984 6.8415 16.7984 6.3999C16.7984 5.9583 17.1568 5.5999 17.5984 5.5999ZM11.9984 7.1999C14.6456 7.1999 16.7984 9.3527 16.7984 11.9999C16.7984 14.6471 14.6456 16.7999 11.9984 16.7999C9.35124 16.7999 7.19844 14.6471 7.19844 11.9999C7.19844 9.3527 9.35124 7.1999 11.9984 7.1999ZM11.9984 8.7999C11.1497 8.7999 10.3358 9.13704 9.7357 9.73716C9.13558 10.3373 8.79844 11.1512 8.79844 11.9999C8.79844 12.8486 9.13558 13.6625 9.7357 14.2626C10.3358 14.8628 11.1497 15.1999 11.9984 15.1999C12.8471 15.1999 13.6611 14.8628 14.2612 14.2626C14.8613 13.6625 15.1984 12.8486 15.1984 11.9999C15.1984 11.1512 14.8613 10.3373 14.2612 9.73716C13.6611 9.13704 12.8471 8.7999 11.9984 8.7999V8.7999Z" fill="#282B35"/>
</svg>
