<svg width="20" height="20" viewBox="0 0 20 20" fill="none" xmlns="http://www.w3.org/2000/svg">
<path d="M17.041 17.0411H14.0777V12.3991C14.0777 11.2923 14.0578 9.86703 12.5363 9.86703C10.9929 9.86703 10.7565 11.0728 10.7565 12.3177V17.0408H7.7933V7.49728H10.638V8.80166H10.6764C10.9611 8.31487 11.3726 7.91442 11.8669 7.64297C12.3612 7.37152 12.9199 7.23923 13.4835 7.26019C16.487 7.26019 17.041 9.23594 17.041 11.806V17.0411ZM4.44948 6.19251C4.1093 6.19259 3.77675 6.09178 3.49387 5.90285C3.21098 5.71391 2.99048 5.44533 2.86025 5.13108C2.73002 4.81682 2.69591 4.471 2.76223 4.13735C2.82854 3.8037 2.99232 3.49722 3.23283 3.25665C3.47334 3.01609 3.77979 2.85225 4.11342 2.78585C4.44705 2.71946 4.79288 2.7535 5.10717 2.88366C5.42145 3.01382 5.69008 3.23426 5.87908 3.5171C6.06808 3.79994 6.16896 4.13247 6.16896 4.47264C6.16896 4.92872 5.98781 5.36611 5.66536 5.68864C5.3429 6.01117 4.90555 6.19241 4.44948 6.19251ZM5.9311 17.0408H2.96478V7.49728H5.93148L5.9311 17.0408ZM18.5168 0.00129995H1.47549C1.28378 -0.00103031 1.0935 0.0344753 0.915533 0.105784C0.737569 0.177093 0.575417 0.282804 0.438363 0.416865C0.301308 0.550927 0.192043 0.710705 0.116822 0.887052C0.0416017 1.0634 0.00190303 1.25285 0 1.44456V18.555C0.00455346 18.942 0.162548 19.3114 0.439277 19.582C0.716006 19.8526 1.08884 20.0023 1.47587 19.9982H18.5168C18.9049 20.0035 19.2791 19.8544 19.5573 19.5837C19.8354 19.3131 19.9946 18.943 20 18.555V1.44149C19.9944 1.05368 19.8351 0.683962 19.5569 0.41366C19.2788 0.143358 18.9047 -0.00538493 18.5168 0.00014907" fill="#282B35"/>
</svg>
