<svg width="97" height="94" viewBox="0 0 97 94" fill="none" xmlns="http://www.w3.org/2000/svg">
<path d="M67.7394 69.2502L51.4106 39.7048C50.1177 37.3656 46.6421 37.7572 45.9021 40.3254L32.6856 86.1996C31.9457 88.7679 34.6803 90.9486 37.0195 89.6558L66.5649 73.327C68.015 72.5255 68.5408 70.7003 67.7394 69.2502Z" fill="#BBF383"/>
<rect x="81.0054" y="1" width="6" height="6" rx="0.787912" transform="rotate(45 81.0054 1)" fill="#BBF383" stroke="#BBF383" stroke-width="1.57582"/>
<rect x="84.3881" y="48.8938" width="6" height="6" rx="0.787912" transform="rotate(11.4715 84.3881 48.8938)" fill="#BBF383" stroke="#BBF383" stroke-width="1.57582"/>
<rect x="75.8403" y="24.5073" width="6" height="6" rx="0.787912" transform="rotate(117.392 75.8403 24.5073)" fill="#BBF383" stroke="#BBF383" stroke-width="1.57582"/>
<rect x="86.891" y="29.4773" width="10" height="5" transform="rotate(12.523 86.891 29.4773)" fill="#BBF383"/>
<rect x="57.865" y="1" width="10" height="5" transform="rotate(59.3991 57.865 1)" fill="#BBF383"/>
<path d="M74.8483 58.2284L53.6839 19.9334C51.9601 16.8144 47.3259 17.3365 46.3393 20.7609L28.8182 81.5763C28.1796 83.7926 30.5394 85.6745 32.5581 84.5588L73.8348 61.7465C75.0861 61.0548 75.5399 59.4797 74.8483 58.2284Z" stroke="#282B35" stroke-width="3"/>
</svg>
