<svg fill="none" height="150" viewBox="0 0 168 150" width="168" xmlns="http://www.w3.org/2000/svg"><g stroke="#bbf383" stroke-width="6.31995"><path d="m157.823 55.3847-29.902 21.9054 10.975 15.5786c2.243-1.5343 9.277-6.6563 19.474-14.8705 9.827-7.9162 4.659-18.0028.468-22.527-.265-.286-.7-.3168-1.015-.0865z"/><path d="m157.819 78.7827-23.879 18.688 4.956 18.7653c2.243-1.534 9.277-6.656 19.474-14.871 9.815-7.9065 4.671-17.9787.483-22.5107-.271-.2932-.72-.3177-1.034-.0716z"/><path d="m157.819 101.861-23.879 18.688 4.956 18.765c2.243-1.534 9.277-6.656 19.474-14.87 9.815-7.907 4.671-17.98.483-22.512-.271-.293-.72-.317-1.034-.071z"/><path d="m10.1767 55.3847 29.9026 21.9054-10.9758 15.5786c-2.2424-1.5343-9.2763-6.6563-19.47323-14.8705-9.827021-7.9162-4.65898-18.0028-.46819-22.527.26486-.286.70023-.3168 1.01462-.0865z"/><path d="m10.1811 78.7827 23.8792 18.688-4.9568 18.7653c-2.2424-1.534-9.2764-6.656-19.47327-14.871-9.815476-7.9065-4.67111-17.9787-.48298-22.5107.27102-.2932.71938-.3177 1.03385-.0716z"/><path d="m10.1811 101.861 23.8792 18.688-4.9568 18.765c-2.2424-1.534-9.2764-6.656-19.47327-14.87-9.815476-7.907-4.67111-17.98-.48298-22.512.27102-.293.71938-.317 1.03385-.071z"/></g><rect fill="#fff" height="69.3956" rx="4.73996" width="113.299" x="27.1719" y="75.8477"/><path d="m45.0068 89.461c-.6748-.5533-1.6704-.4548-2.2236.22-.5533.6748-.4548 1.6703.22 2.2236zm39.2607 34.234-1.0018 1.222c.5797.475 1.4137.477 1.9962.006zm40.8995-31.0946c.678-.5492.783-1.5442.233-2.2222-.549-.6781-1.544-.7826-2.222-.2334zm-82.1638-.6958 40.2625 33.0124 2.0036-2.444-40.2625-33.012zm42.2587 33.0184 39.9051-32.3226-1.989-2.4556-39.905 32.3222z" fill="#41444d"/><path d="m42.7129 132.01c-.484.441-.5191 1.19-.0785 1.674s1.19.519 1.674.079zm25.1131-19.658c.484-.441.5191-1.19.0785-1.674s-1.19-.519-1.674-.079zm-23.5176 21.411 23.5176-21.411-1.5955-1.753-23.5176 21.411z" fill="#41444d"/><path d="m124.003 133.457c.478.447 1.228.423 1.675-.055s.422-1.228-.056-1.675zm-21.354-23.228c-.478-.448-1.228-.423-1.675.055s-.422 1.228.056 1.675zm22.973 21.498-22.973-21.498-1.619 1.73 22.973 21.498z" fill="#41444d"/><path d="m83.6633 19.5781v36.4681" stroke="#bbf383" stroke-linecap="round" stroke-width="6.31995"/><path d="m61.0034 4v36.4681" stroke="#bbf383" stroke-linecap="round" stroke-width="6.31995"/><path d="m106.323 4v36.4681" stroke="#bbf383" stroke-linecap="round" stroke-width="6.31995"/></svg>