<svg width="46" height="33" viewBox="0 0 46 33" fill="none" xmlns="http://www.w3.org/2000/svg">
<rect x="1" y="1" width="43.3929" height="30.5791" rx="1" fill="#FCFAF8" stroke="#282B35" stroke-width="2"/>
<path d="M21.2679 19.2106L1.81567 1H43.5771L24.9941 19.1701C23.9629 20.1784 22.3207 20.1962 21.2679 19.2106Z" fill="#E4F1E2"/>
<path d="M1.81567 1V0C1.40521 0 1.03642 0.250832 0.885614 0.632591C0.734805 1.01435 0.832599 1.4495 1.13225 1.73002L1.81567 1ZM21.2679 19.2106L20.5845 19.9406V19.9406L21.2679 19.2106ZM24.9941 19.1701L24.2949 18.4551L24.9941 19.1701ZM43.5771 1L44.2762 1.71501C44.5669 1.43081 44.6566 0.998945 44.5031 0.622513C44.3497 0.24608 43.9836 0 43.5771 0V1ZM1.13225 1.73002L20.5845 19.9406L21.9513 18.4806L2.4991 0.269979L1.13225 1.73002ZM25.6932 19.8851L44.2762 1.71501L42.878 0.284993L24.2949 18.4551L25.6932 19.8851ZM1.81567 2H43.5771V0H1.81567V2ZM20.5845 19.9406C22.0279 21.2919 24.2794 21.2675 25.6932 19.8851L24.2949 18.4551C23.6464 19.0893 22.6135 19.1005 21.9513 18.4806L20.5845 19.9406Z" fill="#282B35"/>
<line x1="1" y1="-1" x2="21.9543" y2="-1" transform="matrix(0.658797 -0.752321 0.658797 0.752321 2.08691 32.269)" stroke="#282B35" stroke-width="2" stroke-linecap="round"/>
<line x1="1" y1="-1" x2="20.679" y2="-1" transform="matrix(0.658797 0.752321 -0.658797 0.752321 28.604 15)" stroke="#282B35" stroke-width="2" stroke-linecap="round"/>
</svg>
