<svg width="54" height="54" viewBox="0 0 54 54" fill="none" xmlns="http://www.w3.org/2000/svg">
<path d="M8.58975 34V39.0407C8.58975 39.4333 8.83151 39.7853 9.1979 39.9262L19.6338 43.94C20.2552 44.179 20.9231 43.7203 20.9231 43.0545V37.7949" stroke="#282B35" stroke-width="2" stroke-linecap="round" stroke-linejoin="round"/>
<path d="M24.6778 25H1.29263C0.469337 26.1594 1.57419 30.2011 2.26027 31.0063L30 41C26.6131 37.8202 24.6778 27.8265 24.6778 25Z" fill="#E4F1E2"/>
<path d="M2 25.5H24C24 34.6127 28.6077 42 33.3725 42C38.1373 42 42 34.6127 42 25.5C42 16.3873 38.1373 9 33.3725 9C32.7136 9 32.0719 9.14128 31.4553 9.40886L29 10.5" stroke="#282B35" stroke-width="2" stroke-linecap="round" stroke-linejoin="round"/>
<path d="M29 10.5L2.91677 22.3222C2.43758 22.6074 1.00001 24 1.00001 26.5C1.00001 29.5 1.95839 31.3275 2.43758 31.6127L31 41.5" stroke="#282B35" stroke-width="2" stroke-linecap="round" stroke-linejoin="round"/>
<path d="M40 15C39 12.5 36.9831 10 34.9805 10C31.3027 10 28.3213 17.4944 28.3213 26.7391C28.3213 28.577 28.4392 30.3456 28.6569 32H25.5" stroke="#282B35" stroke-width="2" stroke-linecap="round" stroke-linejoin="round"/>
<line x1="45.404" y1="12.4195" x2="49.4128" y2="10.081" stroke="#282B35" stroke-width="2" stroke-linecap="round"/>
<line x1="1" y1="-1" x2="5.64103" y2="-1" transform="matrix(-0.863779 -0.503871 -0.503871 0.863779 50.7364 42.2266)" stroke="#282B35" stroke-width="2" stroke-linecap="round"/>
<line x1="47.9415" y1="26.0254" x2="52.1082" y2="26.0254" stroke="#282B35" stroke-width="2" stroke-linecap="round"/>
</svg>
