<svg width="24" height="24" viewBox="0 0 24 24" fill="none" xmlns="http://www.w3.org/2000/svg">
<path d="M19.2 3.5H4.8C3.81 3.5 3.009 4.31 3.009 5.3L3.00067 20.2919C3.00042 20.7375 3.53915 20.9609 3.85422 20.6458L6.6 17.9H19.2C20.19 17.9 21 17.09 21 16.1V5.3C21 4.31 20.19 3.5 19.2 3.5ZM9.3 10.7C9.3 11.1971 8.89706 11.6 8.4 11.6V11.6C7.90294 11.6 7.5 11.1971 7.5 10.7V10.7C7.5 10.2029 7.90294 9.8 8.4 9.8V9.8C8.89706 9.8 9.3 10.2029 9.3 10.7V10.7ZM12.9 10.7C12.9 11.1971 12.4971 11.6 12 11.6V11.6C11.5029 11.6 11.1 11.1971 11.1 10.7V10.7C11.1 10.2029 11.5029 9.8 12 9.8V9.8C12.4971 9.8 12.9 10.2029 12.9 10.7V10.7ZM16.5 10.7C16.5 11.1971 16.0971 11.6 15.6 11.6V11.6C15.1029 11.6 14.7 11.1971 14.7 10.7V10.7C14.7 10.2029 15.1029 9.8 15.6 9.8V9.8C16.0971 9.8 16.5 10.2029 16.5 10.7V10.7Z" fill="#282B35"/>
</svg>
