<svg width="60" height="60" viewBox="0 0 60 60" fill="none" xmlns="http://www.w3.org/2000/svg">
<path d="M26.2028 36.2327L8.33998 51.2318C7.8336 50.708 7.39708 50.1318 7.04785 49.5032L11.3433 45.3474C11.6925 44.9982 11.7624 44.4394 11.5005 44.0029C10.575 42.5012 9.63211 38.5201 10.7147 35.0628L10.8893 34.6961C11.483 37.1232 12.583 39.4106 14.0847 41.4012C14.5736 42.0647 15.4991 42.2044 16.1626 41.7155C16.8261 41.2266 16.9658 40.3011 16.4769 39.6376C13.6656 35.8485 12.7402 31.4308 13.9974 28.1307L14.0323 28.0608C14.6085 31.1515 16.0229 34.277 18.2055 37.1057C18.7119 37.7169 19.6024 37.8391 20.2485 37.3676C20.912 36.8787 21.0517 35.9533 20.5628 35.2898C16.9309 30.5927 15.761 25.0226 17.4547 20.8145C18.0484 24.8305 19.8294 28.8641 22.6058 32.4087L22.6232 32.4261C23.2867 33.2643 23.9852 34.0675 24.736 34.8183C25.2249 35.3421 25.7488 35.8311 26.2028 36.2327Z" fill="#F8F8F7"/>
<path d="M43.8908 21.4257L33.5189 30.1214C32.2617 27.0831 32.3315 24.0274 33.9205 22.0369L34.2348 21.6702C34.2872 21.6178 34.3395 21.5654 34.3919 21.513C35.4745 20.4654 36.9762 19.959 38.6525 19.959C40.3113 19.9764 42.1272 20.4654 43.8908 21.4257Z" fill="#F8F8F7"/>
<path d="M41.795 41.3482L17.6287 52.3662L15.8127 53.1869L15.7429 53.2218C14.3635 53.9552 12.53 53.833 10.8188 53.0298L29.4848 37.3846C29.5721 37.3147 29.642 37.2449 29.6944 37.1576C30.2007 36.5115 30.0785 35.5686 29.4325 35.0797C28.507 34.3463 27.634 33.5606 26.8133 32.705C26.4291 32.3208 26.0625 31.9192 25.7132 31.5001L29.7293 26.8555C29.7468 27.1523 29.7817 27.4317 29.8166 27.7285C30.2706 30.9239 31.8945 34.1368 34.4264 36.7559C36.5566 38.9735 39.1234 40.5625 41.795 41.3482Z" fill="#F8F8F7"/>
<path d="M56.0442 25.7562C56.6379 30.8549 55.2759 35.5519 52.2202 38.9743C52.0281 39.1838 51.8186 39.3934 51.6091 39.5854C51.0852 40.0744 50.4915 40.5109 49.8455 40.8426C49.3566 41.1395 48.8327 41.4014 48.3089 41.6459L17.0709 55.8767C16.0057 56.418 14.8358 56.6974 13.6485 56.6799C11.0642 56.6799 8.32282 55.4926 6.19255 53.275C3.27654 50.2542 2.28125 46.0635 3.73053 42.8507V42.8332L11.2214 26.9086C11.3436 26.5943 11.4833 26.2975 11.623 26.0006C11.6579 25.9483 11.6754 25.8959 11.7103 25.8435L14.7485 19.3829C14.8533 19.1384 14.9581 18.9114 15.0803 18.667C15.0978 18.6495 15.0978 18.632 15.1152 18.5971L18.1535 12.119C18.8519 10.2332 19.9694 8.52201 21.4187 7.10766C24.7189 3.92973 29.4334 2.67252 34.7066 3.54558C39.8053 4.40118 44.8516 7.19497 48.8851 11.3856C52.9187 15.5763 55.4505 20.675 56.0442 25.7562ZM50.0026 37.0012C52.4821 34.2074 53.5822 30.3485 53.0933 26.1054C52.5694 21.6528 50.3344 17.1828 46.7898 13.4984C39.4561 5.86792 29.0143 3.98211 23.4966 9.29031C22.8156 9.93637 22.2394 10.6872 21.7679 11.4904L20.9298 13.254C20.4234 14.6683 20.1615 16.1525 20.1615 17.6542C20.1091 21.4258 21.4536 25.4768 23.8458 29.0913L31.6335 20.1512C31.7557 20.0115 31.8779 19.8718 32.0002 19.7321L32.0176 19.7146C32.0525 19.6797 32.0875 19.6273 32.1399 19.5924C32.1922 19.5226 32.2621 19.4702 32.3145 19.4003C35.894 15.9605 42.0403 16.2399 47.2612 20.0988C47.9248 20.5877 48.0644 21.5131 47.5755 22.1767C47.5057 22.264 47.4184 22.3513 47.3311 22.4386L34.9686 32.793C35.44 33.474 35.9639 34.1201 36.5401 34.7138C38.6354 36.8964 41.2022 38.3457 43.7515 38.7997C45.5151 39.114 47.1041 38.9219 48.3787 38.2584C48.9899 37.9092 49.5312 37.4901 50.0026 37.0012ZM33.5193 30.1215L43.8912 21.4258C42.1276 20.4655 40.3117 19.9591 38.6529 19.9591C36.9766 19.9591 35.4749 20.4655 34.3923 21.5131C34.34 21.5655 34.2876 21.6179 34.2352 21.6703L33.9209 22.037C32.3319 24.045 32.2621 27.1007 33.5193 30.1215ZM17.6296 52.367L41.7959 41.349C39.1243 40.5633 36.5575 38.9743 34.4098 36.7393C31.8779 34.1201 30.254 30.9072 29.8001 27.7118C29.7651 27.415 29.7302 27.1356 29.7128 26.8388L25.6967 31.4835C26.0459 31.9025 26.4126 32.3041 26.7967 32.6883C27.6174 33.5264 28.4905 34.3296 29.4159 35.063C30.062 35.5694 30.1842 36.4948 29.6778 37.1409C29.608 37.2282 29.5381 37.298 29.4683 37.3679L10.8198 53.0305C12.531 53.8512 14.3469 53.956 15.7438 53.2226L15.8137 53.1877L17.6296 52.367ZM8.34028 51.232L26.2031 36.2504C25.7491 35.8488 25.2252 35.3598 24.6839 34.7836C23.9331 34.0153 23.2347 33.2296 22.5711 32.3914L22.5537 32.374C19.7773 28.8294 17.9963 24.8133 17.4026 20.7798C15.7264 24.9879 16.8963 30.558 20.5107 35.2551C20.9996 35.9186 20.8599 36.844 20.1964 37.3329C19.5504 37.8044 18.6598 37.6822 18.1535 37.071C15.9708 34.2423 14.5565 31.0993 13.9802 28.0261L13.9453 28.096C12.6881 31.3962 13.6136 35.8138 16.4248 39.6029C16.9137 40.2664 16.774 41.1919 16.1105 41.6808C15.447 42.1697 14.5215 42.03 14.0326 41.3665C12.531 39.3759 11.4484 37.0885 10.8372 34.6614L10.6626 35.0281C9.58002 38.4854 10.5229 42.4665 11.4484 43.9682C11.7103 44.4047 11.6579 44.946 11.2912 45.3127L6.99577 49.4685C7.39737 50.1145 7.8339 50.7082 8.34028 51.232Z" fill="#231F20"/>
<path d="M53.095 26.1066C53.5839 30.3496 52.4839 34.2086 50.0044 37.0023C49.5329 37.4913 48.9916 37.9103 48.398 38.2421C47.1233 38.9056 45.5343 39.0977 43.7707 38.7834C41.2039 38.3294 38.6372 36.8801 36.5418 34.6975C35.9656 34.1038 35.4418 33.4577 34.9703 32.7767L47.3328 22.4223C47.9614 21.8984 48.0487 20.9555 47.5249 20.3269C47.455 20.2396 47.3677 20.1523 47.263 20.0825C42.0421 16.2235 35.8958 15.9442 32.3162 19.384C32.2464 19.4364 32.194 19.5062 32.1416 19.5761C32.1067 19.611 32.0543 19.6634 32.0194 19.6983L32.0019 19.7158C31.8797 19.8555 31.7575 19.9952 31.6352 20.1349L23.8475 29.075C21.4379 25.478 20.0934 21.4095 20.1632 17.6379C20.1807 16.1362 20.4426 14.652 20.9315 13.2377L21.7522 11.4741C22.2237 10.6534 22.8173 9.92006 23.4809 9.25654C29.0161 3.98326 39.4578 5.86907 46.7915 13.4821C50.3361 17.1839 52.5712 21.654 53.095 26.1066Z" fill="#BBF383"/>
</svg>
