<svg width="54" height="54" viewBox="0 0 54 54" fill="none" xmlns="http://www.w3.org/2000/svg">
<path d="M37 42L42 47" stroke="#282B35" stroke-width="2" stroke-linecap="round"/>
<path d="M42 42L37 47" stroke="#282B35" stroke-width="2" stroke-linecap="round"/>
<path d="M12 45H9C7.34315 45 6 43.6569 6 42V6C6 4.34315 7.34315 3 9 3H37C38.6569 3 40 4.34315 40 6V9" stroke="#282B35" stroke-width="2" stroke-linejoin="round"/>
<rect x="12" y="9" width="31" height="42" rx="3" stroke="#282B35" stroke-width="2" stroke-linejoin="round"/>
<circle cx="39.5" cy="44.5" r="8.5" fill="#E4F1E2" stroke="#282B35" stroke-width="2"/>
<path d="M42.5 42L39 47.5L37 45.5" stroke="#282B35" stroke-width="2" stroke-linecap="round" stroke-linejoin="round"/>
<line x1="19" y1="17" x2="36" y2="17" stroke="#282B35" stroke-width="2" stroke-linecap="round"/>
<line x1="19" y1="23" x2="31" y2="23" stroke="#282B35" stroke-width="2" stroke-linecap="round"/>
<line x1="19" y1="29" x2="24" y2="29" stroke="#282B35" stroke-width="2" stroke-linecap="round"/>
</svg>
