<svg width="58" height="55" viewBox="0 0 58 55" fill="none" xmlns="http://www.w3.org/2000/svg">
<g clip-path="url(#clip0)">
<path d="M33.6352 55.0004C47.0768 55.0004 57.9734 43.7853 57.9734 29.9509C57.9734 16.1164 47.0768 4.90137 33.6352 4.90137C20.1936 4.90137 9.297 16.1164 9.297 29.9509C9.297 43.7853 20.1936 55.0004 33.6352 55.0004Z" fill="#BBF383"/>
<path d="M23.4061 35.056C23.1922 35.0503 22.9816 35.0005 22.7867 34.9097C22.5918 34.8189 22.4165 34.6888 22.2713 34.5272L12.5789 23.6914C12.3688 23.4568 12.2296 23.1643 12.1784 22.8496C12.1272 22.5349 12.1662 22.2117 12.2907 21.9195C12.4152 21.6273 12.6197 21.3787 12.8793 21.2042C13.1388 21.0297 13.4421 20.9369 13.7521 20.937C13.9737 20.9368 14.1929 20.9836 14.3961 21.0746C14.5993 21.1656 14.7821 21.2988 14.9329 21.4658L23.4904 31.0389L46.8318 7.0785C46.9818 6.921 47.1607 6.79588 47.3582 6.71047C47.5557 6.62505 47.7678 6.58105 47.982 6.58105C48.1963 6.58105 48.4083 6.62505 48.6058 6.71047C48.8033 6.79588 48.9823 6.921 49.1322 7.0785C49.4314 7.38609 49.5997 7.80339 49.6 8.23863C49.5963 8.67705 49.4256 9.09647 49.1246 9.40667L24.587 34.5667C24.2881 34.8746 23.8826 35.0478 23.4597 35.0481L23.4061 35.056Z" fill="#282B35"/>
<path d="M25.2386 51.8984C18.5519 51.8984 12.139 49.1645 7.4108 44.2981C2.68257 39.4317 0.0262451 32.8314 0.0262451 25.9492C0.0262451 19.0671 2.68257 12.4668 7.4108 7.60038C12.139 2.73396 18.5519 4.01796e-05 25.2386 4.01796e-05C25.4579 -0.0155981 25.6779 0.0153477 25.885 0.0909602C26.0922 0.166573 26.282 0.285233 26.4427 0.439563C26.6034 0.593893 26.7316 0.780597 26.8192 0.988063C26.9068 1.19553 26.952 1.41933 26.952 1.64554C26.952 1.87176 26.9068 2.09555 26.8192 2.30302C26.7316 2.51049 26.6034 2.69718 26.4427 2.85151C26.282 3.00584 26.0922 3.1245 25.885 3.20012C25.6779 3.27573 25.4579 3.30668 25.2386 3.29104C20.8848 3.2926 16.6292 4.62281 13.0099 7.11347C9.39057 9.60414 6.57011 13.1434 4.90504 17.2838C3.23997 21.4242 2.80512 25.9797 3.65543 30.3745C4.50575 34.7692 6.60305 38.8058 9.68218 41.9738C12.7613 45.1418 16.6839 47.299 20.9542 48.1727C25.2244 49.0463 29.6505 48.5971 33.6727 46.8819C37.6949 45.1668 41.1328 42.2626 43.5514 38.5366C45.9701 34.8107 47.261 30.4303 47.261 25.9492C47.2458 25.7236 47.2759 25.4971 47.3494 25.2839C47.4228 25.0707 47.5381 24.8753 47.688 24.7099C47.838 24.5445 48.0194 24.4126 48.221 24.3225C48.4226 24.2323 48.64 24.1858 48.8598 24.1858C49.0796 24.1858 49.297 24.2323 49.4986 24.3225C49.7002 24.4126 49.8815 24.5445 50.0315 24.7099C50.1814 24.8753 50.2968 25.0707 50.3702 25.2839C50.4437 25.4971 50.4738 25.7236 50.4586 25.9492C50.4485 32.8296 47.7878 39.425 43.0601 44.2894C38.3324 49.1537 31.9235 51.8901 25.2386 51.8984Z" fill="#282B35"/>
</g>
<defs>
<clipPath id="clip0">
<rect width="58" height="55" fill="white"/>
</clipPath>
</defs>
</svg>
