<svg width="54" height="54" viewBox="0 0 54 54" fill="none" xmlns="http://www.w3.org/2000/svg">
<path d="M21.1869 52.5277L39 47.9992L17 47.9992L17.5231 50.2885C17.8985 51.9315 19.5534 52.943 21.1869 52.5277Z" fill="#E4F1E2" stroke="#252525" stroke-width="2" stroke-linecap="round" stroke-linejoin="round"/>
<path d="M13.3443 11.0455L10.9352 11.6017C9.31608 11.9755 8.30926 13.5941 8.68972 15.2117L13.3443 35.0008L13.3443 11.0455Z" fill="#E4F1E2" stroke="#252525" stroke-width="2" stroke-linecap="round" stroke-linejoin="round"/>
<path d="M20.8443 6L16.3443 6C14.6875 6 13.3443 7.34315 13.3443 9V45C13.3443 46.6569 14.6875 48 16.3443 48H42.3443C44.0012 48 45.3443 46.6569 45.3443 45V9C45.3443 7.34315 44.0012 6 42.3443 6L38.3443 6" stroke="#252525" stroke-width="2" stroke-linejoin="round"/>
<line x1="20.3443" y1="27" x2="38.3443" y2="27" stroke="#252525" stroke-width="2" stroke-linecap="round"/>
<line x1="20.3443" y1="33" x2="33.3443" y2="33" stroke="#252525" stroke-width="2" stroke-linecap="round"/>
<line x1="20.3443" y1="39" x2="25.3443" y2="39" stroke="#252525" stroke-width="2" stroke-linecap="round"/>
<path d="M24.1601 6.37458L26.3743 14.6382C27.018 17.0403 29.487 18.4658 31.889 17.8221V17.8221C34.2911 17.1785 35.7165 14.7095 35.0729 12.3075L32.8198 3.89883C32.3907 2.29746 30.7447 1.34714 29.1434 1.77623V1.77623C27.542 2.20531 26.5917 3.85131 27.0208 5.45268L29.235 13.7163C29.4496 14.517 30.2726 14.9922 31.0732 14.7776V14.7776C31.8739 14.5631 32.3491 13.7401 32.1345 12.9394L29.9592 4.82073" stroke="#252525" stroke-width="1.8" stroke-linecap="round" stroke-linejoin="round"/>
</svg>
