<svg width="25" height="25" viewBox="0 0 25 25" fill="none" xmlns="http://www.w3.org/2000/svg">
<path d="M7.30409 10.3454L6.45837 10.519C5.05492 10.8072 4 12.0517 4 13.5393C4 14.6902 4.63057 15.6938 5.56506 16.2235L4.47798 17.3106C3.28286 16.4834 2.5 15.1028 2.5 13.5393C2.5 11.3254 4.06961 9.47818 6.15668 9.04967C6.98766 6.57335 9.32715 4.78928 12.0833 4.78928C13.4689 4.78928 14.7492 5.24015 15.7854 6.00317L14.7087 7.07987C13.9561 6.5799 13.0533 6.28928 12.0833 6.28928C9.99095 6.28928 8.21087 7.64314 7.57875 9.52687L7.30409 10.3454Z" fill="#878787"/>
<path fill-rule="evenodd" clip-rule="evenodd" d="M5.93287 17.977L19.4099 4.5L20.4706 5.56066L17.8934 8.13786C20.4709 8.33845 22.5 10.4936 22.5 13.1226C22.5 15.884 20.2614 18.1226 17.5 18.1226L7.90861 18.1226L5.62132 20.4099L4.56066 19.3492L5.93287 17.977C5.93288 17.977 5.93287 17.977 5.93287 17.977ZM9.40861 16.6226L17.4991 16.6226C19.4321 16.6226 21 15.0556 21 13.1226C21 11.2163 19.4756 9.66558 17.5798 9.6235L16.6986 9.60393L16.6048 9.42642L9.40861 16.6226Z" fill="#878787"/>
</svg>
