<svg width="375" height="321" viewBox="0 0 375 321" fill="none" xmlns="http://www.w3.org/2000/svg">
<g opacity="0.6" clip-path="url(#clip0_4804_4524)">
<path d="M318.346 182.375C318.346 182.375 328.332 177.838 330.072 177.646C330.197 177.646 330.274 177.646 330.312 177.646C330.735 178.088 343.047 174.474 343.268 174.455C343.489 174.436 351.918 165.757 351.918 165.42C351.803 164.459 376.533 151.003 379.791 150.619C379.994 150.581 380.202 150.59 380.4 150.645C380.598 150.7 380.781 150.799 380.935 150.936C386.635 157.405 406.972 186.959 411.211 194.524C415.738 202.597 384.568 203.174 361.828 224.319C345.834 233.68 351.371 230.384 335.877 239.697L332.677 245.666C332.455 245.463 332.169 245.344 331.869 245.329C331.379 245.387 331.293 246.156 331.12 246.925C330.947 247.694 330.706 248.491 329.899 248.578C329.068 248.56 328.266 248.273 327.611 247.761C327.047 247.447 326.394 247.332 325.756 247.434C323.632 247.665 321.153 249.481 321.566 251.231C321.787 252.192 315.578 255.2 309.715 258.843C305.63 261.38 292.472 278.979 284.533 289.484C287.08 276.422 279.507 251.327 280.737 244.791C281.842 238.909 284.697 220.359 285.427 207.864C289.272 205.432 293.001 203.058 293.991 200.954C295.461 197.763 296.038 197.244 299.498 196.869L299.969 196.821C303.766 196.225 317.5 185.797 317.27 182.346C317.202 181.904 317.27 181.683 317.471 181.664C317.673 181.644 317.99 181.962 318.346 182.375Z" fill="#F2E8E7"/>
<path d="M298.922 61.6367C303.083 60.6755 299.825 71.4402 297.086 72.2091C299.546 68.2012 300.469 65.3178 299.248 64.0972C297.884 62.7324 294.712 61.579 290.492 60.6082V60.541C294.154 61.4637 297.336 62.0211 298.922 61.6367Z" fill="#F2E8E7"/>
<path d="M296.845 72.2969C296.941 72.3114 297.038 72.3114 297.134 72.2969C296.74 72.9312 296.317 73.5944 295.846 74.2864C296.009 73.0273 296.336 72.3065 296.845 72.2969Z" fill="#F2E8E7"/>
<path d="M282.352 292.522L284.581 289.639C283.764 293.829 281.9 296.78 278.363 297.472C273.61 298.192 268.811 298.565 264.003 298.587L272.49 297.943C274.424 297.789 276.303 297.227 278.003 296.292C279.703 295.357 281.185 294.072 282.352 292.522Z" fill="#F2E8E7"/>
<path d="M260.13 226.463C266.858 220.792 275.018 214.929 275.306 215.131C275.552 215.336 275.861 215.451 276.181 215.458C276.46 215.458 276.777 215.208 277.142 214.612C278.613 212.382 282.044 210.123 285.446 207.961C284.716 220.456 281.861 239.006 280.756 244.888C279.526 251.423 287.099 276.519 284.552 289.581L282.323 292.464C281.153 294.007 279.669 295.285 277.969 296.213C276.269 297.141 274.392 297.697 272.461 297.846L263.975 298.49C257.612 298.663 250.192 298.625 242.83 298.49C242.157 298.308 241.474 298.096 240.802 297.856C234.958 297.352 229.081 297.378 223.242 297.933C219.032 297.769 215.389 297.616 212.669 297.491C211.653 297.442 210.675 297.091 209.861 296.481C209.047 295.871 208.435 295.031 208.104 294.069C207.758 290.224 208.488 284.583 209.978 282.67C216.11 274.789 225.356 258.238 225.356 258.238C228.134 254.807 250.105 234.748 260.024 226.463H260.13Z" fill="#EEDCDA"/>
<path d="M264.003 298.547C257.785 299.008 251.259 299.45 247.885 299.566C246.201 299.343 244.534 299.002 242.897 298.547C250.221 298.681 257.641 298.72 264.003 298.547Z" fill="#F2E8E7"/>
<path d="M290.492 60.6468C278.065 57.7634 256.545 56.4082 245.319 55.8411V55.6873C245.695 55.6982 246.069 55.6156 246.405 55.447C249.884 53.6689 250.384 51.6601 254.094 53.5247C257.804 55.3893 268.434 55.447 273.442 56.091C276.614 56.5043 284.226 58.9744 290.483 60.5218L290.492 60.6468Z" fill="#F2E8E7"/>
<path d="M234.035 57.3226C235.669 49.1145 241.657 55.7079 245.367 55.7079V55.8616C240.975 55.6502 238.168 55.5637 238.149 55.5541C237.255 55.4772 237.851 54.6218 234.035 57.3226Z" fill="#F2E8E7"/>
<path d="M240.869 297.914C241.542 298.155 242.224 298.366 242.897 298.549C235.958 298.424 229.095 298.203 223.309 297.991C229.148 297.436 235.025 297.41 240.869 297.914Z" fill="#F2E8E7"/>
<path d="M223.568 91.7506C223.877 91.6256 224.221 91.6256 224.53 91.7506C224.53 91.7506 230.133 75.8919 230.998 75.6612C231.387 75.7677 231.801 75.7372 232.171 75.5747C232.411 75.4209 232.43 75.1614 232.122 74.8154C231.43 73.8543 232.123 61.792 233.987 57.3516C237.832 54.6508 237.159 55.5062 238.091 55.5831C238.091 55.5831 240.917 55.6792 245.309 55.8907C256.497 56.4385 277.988 57.8129 290.483 60.6963C294.702 61.6575 297.874 62.8204 299.239 64.1853C300.459 65.4059 299.536 68.2893 297.076 72.2972C296.98 72.3117 296.883 72.3117 296.788 72.2972C296.326 72.2972 296 73.0277 295.827 74.2195C279.795 98.0364 220.752 153.302 218.253 155.551C217.417 156.3 216.571 157.069 215.706 157.867C216.206 154.503 216.927 150.899 217.494 147.65L217.09 148.198C217.196 147.573 217.302 146.958 217.398 146.343C217.744 145.987 218.061 145.545 217.725 144.334C218.263 140.701 218.561 137.52 218.109 135.425C215.745 124.266 220.176 133.598 223.655 108.628C224.616 101.535 225.058 94.5475 223.789 92.7406C223.347 92.2312 223.319 91.8755 223.568 91.7506Z" fill="#EEDCDA"/>
<path d="M223.309 297.991C216.456 298.471 210.92 299.019 209.344 297.722C208.719 297.212 208.383 295.847 208.19 294.127C208.522 295.088 209.134 295.929 209.948 296.538C210.762 297.148 211.74 297.5 212.756 297.549C215.457 297.674 219.099 297.827 223.309 297.991Z" fill="#F2E8E7"/>
<path d="M210.064 282.728C208.575 284.65 207.844 290.282 208.19 294.127C207.98 293.532 207.885 292.902 207.912 292.272C208.556 275.087 210.66 219.072 211.208 206.212C211.881 190.391 212.688 173.706 212.977 171.092C212.967 170.802 213.026 170.513 213.148 170.249C213.27 169.986 213.451 169.754 213.678 169.573C213.869 169.465 214.077 169.39 214.293 169.352C214.496 169.319 214.691 169.25 214.87 169.15C215.226 168.929 215.428 168.429 215.216 167.007C214.963 163.96 215.118 160.892 215.678 157.886C216.543 157.088 217.388 156.319 218.225 155.57C220.723 153.32 279.737 98.0552 295.798 74.2383C294.75 80.2934 296.547 98.5453 297.509 101.458C298.662 104.956 287.897 135.04 286.244 139.903C284.591 144.766 281.592 192.342 284.687 196.312C285.648 197.581 285.802 202.079 285.475 207.971C282.073 210.133 278.641 212.392 277.171 214.622C276.777 215.218 276.46 215.439 276.21 215.467C275.89 215.461 275.581 215.346 275.335 215.141C275.047 214.968 266.916 220.802 260.159 226.472V226.53C250.24 234.815 228.268 254.874 225.491 258.305C225.462 258.296 216.197 274.846 210.064 282.728Z" fill="#F2E8E7"/>
<path d="M169.014 28.7288C169.303 29.9687 168.62 31.8813 167.582 33.621C166.275 35.7932 164.411 37.6866 163.152 37.6481C159.547 37.206 124.918 69.1253 110.808 82.1871L118.689 1.45178C120.006 1.45178 121.746 1.3845 122.015 1.45178C124.197 3.37405 135.692 8.43923 146.774 13.9465C153.223 17.6277 159.365 21.1454 163.449 23.183C166.621 25.2302 168.688 27.1621 169.014 28.7288Z" fill="#EEDCDA"/>
<path d="M169.149 27.8341C169.582 29.5353 168.899 31.4768 167.631 33.6009C168.669 31.8612 169.351 29.9486 169.063 28.7087C168.697 27.142 166.631 25.2102 163.536 23.0957C164.247 23.4609 164.891 23.7685 165.458 24.0568C166.362 24.6912 167.102 25.2583 167.679 25.7484C168.263 26.2346 168.727 26.8498 169.034 27.5458C169.061 27.6213 169.083 27.6983 169.101 27.7764V27.863L169.149 27.8341Z" fill="#F2E8E7"/>
<path d="M163.517 23.1155C159.432 21.0779 153.29 17.5601 146.841 13.8789C152.594 16.5922 158.165 19.6776 163.517 23.1155Z" fill="#F2E8E7"/>
<path d="M146.841 13.8971C135.759 8.43785 124.264 3.41112 122.082 1.40234C125.1 2.51726 129.147 4.28573 133.616 6.42906C137.778 8.71656 142.381 11.3309 146.841 13.8971Z" fill="#F2E8E7"/>
<path d="M128.003 261.477C128.003 261.477 114.749 275.586 114.307 275.375C113.278 274.866 112.461 275.048 112.779 275.894C112.952 277.143 85.2036 315.762 77.5049 321.192C77.744 318.569 77.8147 315.933 77.7163 313.301C77.7163 308.707 76.265 272.511 83.9925 266.657C83.8099 254.874 84.6942 219.235 93.6039 210.008C92.489 208.663 92.6428 205.26 93.5366 200.724C98.6728 192.648 104.459 185.004 110.837 177.868L116.354 166.488C119.804 167.737 117.257 158.213 124.043 159.914C126.763 160.596 133.789 154.051 133.577 150.754C133.529 150.081 136.038 147.679 139.71 144.305C148.206 136.501 153.579 132.137 160.566 125.717C163.853 122.689 173.253 114.337 173.119 110.252C182.499 109.185 204.644 83.3402 213.976 74.2383C224.386 66.5973 220.906 66.6068 234.026 57.3223C232.103 61.7627 231.469 73.8153 232.161 74.7861C232.469 75.1321 232.449 75.3916 232.209 75.5454C231.84 75.7079 231.426 75.7384 231.037 75.6319C230.172 75.8625 224.568 91.7213 224.568 91.7213C224.26 91.5962 223.915 91.5962 223.607 91.7213C223.357 91.875 223.386 92.2307 223.799 92.7593C225.068 94.5662 224.655 101.554 223.665 108.647C220.185 133.636 215.755 124.285 218.119 135.443C218.571 137.539 218.273 140.72 217.734 144.353C218.071 145.564 217.734 146.006 217.408 146.362C217.312 146.977 217.206 147.592 217.1 148.217L217.504 147.669C216.937 150.918 216.216 154.522 215.716 157.886C207.585 165.392 198.368 174.811 191.736 181.549L191.169 181.789L190.919 182.039C189.958 183 189.362 182.952 188.862 182.76L188.554 182.895C188.055 182.683 187.593 182.587 186.796 183.644L186.469 183.788C186.401 183.885 186.344 183.961 186.277 184.077C181.73 191.66 166.391 203.098 163.997 209.768C162.075 215.054 161.354 215.842 156.501 218.303C154.175 219.687 148.706 225.723 144.169 232.133C139.633 238.544 128.791 258.497 129.31 260.737C129.608 261.871 128.935 262.121 128.003 261.477Z" fill="#F2E8E7"/>
<path d="M122.054 1.40328C121.784 1.336 120.045 1.40328 118.728 1.40328L118.834 0.365234C119.927 0.647307 121.002 0.99394 122.054 1.40328Z" fill="#F2E8E7"/>
<path d="M118.728 1.40234L110.847 82.1377L110.731 82.2434L118.584 1.40234H118.728Z" fill="#F2E8E7"/>
<path d="M118.718 0.00877729L118.584 1.42168C117.844 1.42168 117.267 1.42168 117.229 1.42168C117.038 1.42226 116.849 1.45809 116.671 1.52739C117.079 0.883752 117.654 0.362373 118.334 0.018398C118.459 -0.01818 118.592 -0.0215022 118.718 0.00877729Z" fill="#F2E8E7"/>
<path d="M116.671 1.53735C116.849 1.46805 117.038 1.43222 117.229 1.43164C117.229 1.43164 117.844 1.43164 118.584 1.43164L110.731 82.3015C107.8 85.0119 105.772 86.8957 105.128 87.4724C103.83 86.5113 105.445 91.5668 104.244 90.4808L104.167 90.4038C101.629 88.1067 79.2541 107.8 76.2265 110.511C69.8638 116.22 62.5303 123.505 56.1772 129.916C59.6758 121.766 63.0782 114.057 63.7029 109.607C64.6641 102.533 65.2888 101.101 69.9215 95.4498C74.2562 89.5677 89.3652 55.9279 88.356 51.1223C88.1061 50.3053 88.356 49.7767 88.8174 49.6229C89.1044 49.5483 89.4078 49.5685 89.6824 49.6806C89.9146 49.3723 90.1295 49.0514 90.3264 48.7194C92.4985 45.269 91.1722 47.3546 96.6699 38.4545C100.053 32.9664 103.628 27.6033 104.167 27.4303C104.504 27.5183 104.858 27.5183 105.195 27.4303C105.319 27.4053 105.436 27.3526 105.537 27.2763C105.638 27.1999 105.721 27.1019 105.779 26.9893C105.837 26.8767 105.869 26.7526 105.873 26.6259C105.877 26.4993 105.852 26.3735 105.801 26.2577C105.464 24.8545 112.509 6.95815 116.671 1.53735Z" fill="#EEDCDA"/>
<path d="M76.1978 110.473C79.2254 107.763 101.601 88.0689 104.138 90.366L104.215 90.4429C105.416 91.529 103.802 86.4542 105.099 87.4346C105.743 86.8579 107.771 84.9741 110.703 82.2637L101.735 175.004C101.216 176.32 100.707 177.656 100.197 179.002C97.4213 186.066 95.1725 193.327 93.4694 200.724C90.8891 204.831 88.068 208.781 85.021 212.555C79.2542 219.379 46.3257 256.96 42.6638 261.64C16.3575 297.433 16.963 318.789 16.8669 318.837C14.762 318.501 19.0487 229.961 32.3412 202.377C32.4469 202.156 32.1105 201.983 32.0336 201.819L32.4085 200.349C32.5973 200.287 32.7714 200.187 32.9198 200.055C33.0681 199.923 33.1876 199.761 33.2706 199.581C33.3536 199.4 33.3984 199.205 33.4023 199.006C33.4061 198.807 33.3688 198.61 33.2927 198.426C33.2254 198.177 33.1678 197.907 33.1005 197.648C38.0503 178.627 43.1444 161.596 44.1728 158.53C44.8071 156.607 45.4319 156.309 46.0181 156.127L46.1912 156.069L46.3642 156.021C47.0081 155.819 47.5848 155.454 48.0173 152.792C49.0361 146.573 52.6211 137.981 56.1101 129.849C62.5016 123.468 69.8351 116.182 76.1978 110.473Z" fill="#F2E8E7"/>
<path d="M110.847 82.1872C124.956 69.1254 159.586 37.2061 163.19 37.6483C164.449 37.6483 166.314 35.7933 167.621 33.6211C167.265 34.2362 166.862 34.861 166.419 35.5434C166.352 35.7933 166.275 36.0431 166.198 36.3026C162.114 42.1271 155.443 49.326 154.665 57.6206C120.746 119.864 125.033 114.808 122.64 128.235C122.516 128.249 122.393 128.275 122.275 128.312C120.775 128.783 121.15 130.725 121.14 132.791C121.131 134.857 120.708 137.039 117.651 138L117.219 138.125H117.132C114.249 139.029 109.607 148.698 111.145 151.456C111.635 152.523 106.55 163.096 101.793 175.139L110.847 82.1872Z" fill="#F2E8E7"/>
<path d="M75.6403 316.77C75.9383 316.895 76.5342 316.636 77.3511 316.059C76.8235 316.388 76.2456 316.628 75.6403 316.77ZM77.7164 313.3C77.8147 315.933 77.7441 318.568 77.5049 321.191C68.8547 317.914 17.9818 319.01 16.8958 318.837C16.9919 318.837 16.3864 297.432 42.6926 261.639C46.3545 256.959 79.2926 219.349 85.0498 212.554C88.0968 208.78 90.9179 204.83 93.4982 200.723C92.5371 205.259 92.4506 208.662 93.5655 210.007C84.6942 219.234 83.81 254.873 83.9541 266.656C76.2651 272.51 77.7068 308.706 77.7068 313.3H77.7164Z" fill="#EEDCDA"/>
<path d="M77.351 316.061C76.534 316.637 75.9381 316.897 75.6401 316.772C76.2454 316.63 76.8233 316.389 77.351 316.061Z" fill="#F2E8E7"/>
<path d="M16.8957 318.836C17.9818 319.009 68.8931 317.875 77.5049 321.191C76.0401 321.577 74.5004 321.577 73.0356 321.191C73.0356 321.191 16.1364 320.672 16.8957 318.836Z" fill="#F2E8E7"/>
<path d="M2.10392 187.047C-2.42303 193.467 -13.2742 213.41 -12.7552 215.65C-12.4669 216.803 -13.0916 217.034 -14.0239 216.39C-14.0239 216.39 -27.278 230.499 -27.7201 230.288C-28.7485 229.779 -29.5655 229.961 -29.2483 230.807C-29.0753 232.056 -57.1212 265.408 -64.8103 270.829C-65.3316 271.161 -65.9075 271.398 -66.5115 271.53C-66.723 271.44 -66.9256 271.331 -67.117 271.204C-66.252 259.862 -67.4438 236.939 -68.2512 236.439C-69.0585 236.122 -68.5683 235.613 -67.463 235.382C-67.0017 235.286 -66.6557 220.965 -66.6076 220.917C-65.4927 220.811 -65.1755 220.379 -66.1655 219.879C-68.0878 218.918 -73.3548 202.578 -74.2967 196.744C-74.6569 194.517 -74.8816 192.271 -74.9695 190.016C-74.925 189.888 -74.8928 189.757 -74.8734 189.622C-71.2211 184.942 -62.6958 174.34 -56.9386 167.516C-49.4898 158.693 -45.405 148.697 -31.1609 132.829L-25.644 121.449C-22.1936 122.699 -24.7406 113.174 -17.955 114.875C-15.2349 115.557 -8.20905 109.002 -8.4205 105.715C-8.46856 105.043 -5.9696 102.64 -2.28846 99.2661C6.20798 91.4617 11.5807 87.0981 18.5682 80.6777C21.8552 77.6501 31.2551 69.2883 31.1206 65.2131C40.5013 64.1462 62.6458 38.3013 71.9784 29.1993C78.2738 31.1216 96.6027 15.234 109.713 5.93985C112.942 3.66196 115.479 1.99923 116.69 1.58594C112.529 7.00674 105.484 24.9031 105.83 26.2583C105.881 26.374 105.906 26.4999 105.902 26.6265C105.898 26.7531 105.866 26.8773 105.808 26.9898C105.75 27.1024 105.667 27.2005 105.566 27.2768C105.465 27.3531 105.348 27.4058 105.224 27.4309C104.887 27.5188 104.533 27.5188 104.196 27.4309C103.657 27.6039 100.082 32.967 96.6988 38.4551C91.2011 47.3552 92.5275 45.2695 90.3553 48.72C90.1585 49.0519 89.9435 49.3728 89.7114 49.6811C89.4368 49.5691 89.1334 49.5488 88.8464 49.6234C88.3658 49.7772 88.1351 50.3058 88.385 51.1228C89.3461 55.9285 74.2852 89.5682 69.9504 95.4503C65.3178 101.102 64.7219 102.534 63.7319 109.608C63.1072 114.058 59.7048 121.766 56.2062 129.917L49.7378 136.481L49.1707 136.721L48.8728 136.923C47.9116 137.884 47.3157 137.884 46.8159 137.644L46.5084 137.779C46.0086 137.567 45.5472 137.471 44.7495 138.528L44.4227 138.673C44.3554 138.769 44.2977 138.846 44.2305 138.961C39.6843 146.544 24.3446 157.982 21.9514 164.652C20.0291 169.938 19.3082 170.726 14.4545 173.187C12.1093 174.6 6.64048 180.626 2.10392 187.047Z" fill="#F2E8E7"/>
</g>
<g clip-path="url(#clip1_4804_4524)">
<path d="M381.554 262.941V299.773C381.554 302.112 380.244 304.015 378.642 304.015H272.827C271.216 304.015 269.915 302.073 269.915 299.773V262.941" stroke="#252525" stroke-width="1.5" stroke-linecap="round" stroke-linejoin="round"/>
<path d="M320.919 284.414H331.87" stroke="#252525" stroke-width="1.5" stroke-linecap="round" stroke-linejoin="round"/>
<path d="M381.515 221.867V262.941H269.876V221.867" stroke="#252525" stroke-width="1.5" stroke-linecap="round" stroke-linejoin="round"/>
<path d="M320.919 199.189H331.87" stroke="#252525" stroke-width="1.5" stroke-linecap="round" stroke-linejoin="round"/>
<path d="M269.915 219.517V183.075C269.915 180.754 271.216 178.871 272.827 178.871H378.642C380.244 178.871 381.554 180.754 381.554 183.075V219.517" stroke="#252525" stroke-width="1.5" stroke-linecap="round" stroke-linejoin="round"/>
<path d="M331.87 242.186H320.919" stroke="#252525" stroke-width="1.5" stroke-linecap="round" stroke-linejoin="round"/>
<path d="M269.876 221.158H381.515" stroke="#252525" stroke-width="1.5" stroke-linecap="round" stroke-linejoin="round"/>
<path fill-rule="evenodd" clip-rule="evenodd" d="M273.274 96.6189V71.7962C273.225 71.3468 273.35 70.8958 273.622 70.5351C273.895 70.1744 274.294 69.931 274.74 69.8546C279.671 69.709 295.903 69.2333 306.649 68.7285C306.881 68.7502 307.106 68.818 307.311 68.9279C307.516 69.0378 307.697 69.1876 307.844 69.3684C307.99 69.5493 308.099 69.7576 308.164 69.9811C308.229 70.2047 308.249 70.4389 308.222 70.6701V96.6189" fill="#F8F8F7"/>
<path d="M273.274 96.6189V71.7962C273.225 71.3468 273.35 70.8958 273.622 70.5351C273.895 70.1744 274.294 69.931 274.74 69.8546C279.671 69.709 295.903 69.2333 306.649 68.7285C306.881 68.7502 307.106 68.818 307.311 68.9279C307.516 69.0378 307.697 69.1876 307.844 69.3684C307.99 69.5493 308.099 69.7576 308.164 69.9811C308.229 70.2047 308.249 70.4389 308.222 70.6701V96.6189" stroke="#252525" stroke-width="1.5" stroke-linecap="round" stroke-linejoin="round"/>
<path fill-rule="evenodd" clip-rule="evenodd" d="M342.199 96.618V74.3776C342.199 73.6592 342.616 73.0768 343.121 73.0962L371.419 74.4067C371.905 74.4067 372.293 74.9892 372.293 75.6784V96.618" fill="#F2E8E7"/>
<path d="M342.199 96.618V74.3776C342.199 73.6592 342.616 73.0768 343.121 73.0962L371.419 74.4067C371.905 74.4067 372.293 74.9892 372.293 75.6784V96.618" stroke="#252525" stroke-width="1.5" stroke-linecap="round" stroke-linejoin="round"/>
<path fill-rule="evenodd" clip-rule="evenodd" d="M308.222 96.6176V81.6191H343.636C344.441 81.6191 345.111 82.7549 345.111 84.1528V96.6176" fill="#F2E8E7"/>
<path d="M308.222 96.6176V81.6191H343.636C344.441 81.6191 345.111 82.7549 345.111 84.1528V96.6176" stroke="#252525" stroke-width="1.5" stroke-linecap="round" stroke-linejoin="round"/>
<path d="M387.825 96.6191H263.566C261.958 96.6191 260.654 97.923 260.654 99.5315V132.538C260.654 134.146 261.958 135.45 263.566 135.45H387.825C389.434 135.45 390.738 134.146 390.738 132.538V99.5315C390.738 97.923 389.434 96.6191 387.825 96.6191Z" stroke="#252525" stroke-width="1.5" stroke-linecap="round" stroke-linejoin="round"/>
<path d="M320.764 115.627H331.714" stroke="#252525" stroke-width="1.5" stroke-linecap="round" stroke-linejoin="round"/>
</g>
<g clip-path="url(#clip2_4804_4524)">
<path fill-rule="evenodd" clip-rule="evenodd" d="M182 97.5C186.667 105.5 193.9 129.7 185.5 162.5L180.5 164.5L177 162.5L164 174.5L142.5 147C141.167 146 139.9 141.9 145.5 133.5C146.931 131.353 148.53 128.892 150.202 126.319C156.706 116.308 164.318 104.591 167.5 103C170.7 101.4 178.5 98.6667 182 97.5ZM175 126L176.5 156.5L161.5 142.5L175 126Z" fill="#F8F8F7"/>
<path d="M209.5 181L203.5 98C228.3 105.2 248.167 86.3333 255 76C258.2 83.2 265 84 268 83.5C254.8 107.5 232.5 119.5 223 122.5L234.5 179.5C221.7 178.3 212.5 180 209.5 181Z" fill="#F8F8F7"/>
<path d="M200.29 159.85L193.29 173.85" stroke="#252525" stroke-width="1.5" stroke-linecap="round" stroke-linejoin="round"/>
<path d="M218.106 153.585C221.552 146.843 219.362 138.83 213.214 135.688C207.067 132.547 199.29 135.466 195.845 142.208C192.399 148.95 194.589 156.963 200.736 160.104C206.883 163.246 214.66 160.327 218.106 153.585Z" fill="#F2E8E7" stroke="#252525" stroke-width="1.5" stroke-miterlimit="10"/>
<path d="M228.63 179.119C228.63 179.119 228.83 282.059 229.83 288.059C231.986 292.606 235.361 296.466 239.58 299.209C249.76 305.839 231.74 307.149 221.71 301.769C218.94 300.279 221.19 297.199 220.13 293.109L215.73 293.709C208.99 261.529 210.22 209.579 208.66 203.329C206.66 195.329 204.66 182.329 200.66 200.329C197.39 215.039 194.66 269.899 191.55 292.499C191.44 293.309 186.74 292.159 187.05 292.829C189.23 297.519 183.52 300.309 180.34 302.829C176.56 305.769 172.59 309.779 170.02 308.829C164.96 307.019 175.2 292.889 175.2 292.889C176.2 286.889 174.2 183.409 174.2 183.409" stroke="#252525" stroke-width="1.5" stroke-linecap="round" stroke-linejoin="round"/>
<path d="M221.76 116.65C221.76 116.65 231.5 161.54 234.02 180.06" stroke="#252525" stroke-width="1.5" stroke-linecap="round" stroke-linejoin="round"/>
<path d="M234.02 180.06C234.02 180.06 221.76 176.57 209.33 181.61C209.33 181.61 204.63 125.34 203.63 97.3399C203.63 97.3399 227.63 110.34 255.63 75.3399C255.63 75.3399 258.63 70.3399 257.63 65.3399C256.63 60.3399 259.06 61.3399 260.34 65.3399C260.34 65.3399 262.13 69.8399 264.13 63.8399C266.13 57.8399 267.13 54.8399 268.13 55.8399C269.13 56.8399 266.13 65.8399 266.13 65.8399C266.13 65.8399 270.27 55.4699 272.2 55.6599C274.13 55.8499 269.13 66.8399 269.13 66.8399C269.13 66.8399 274.13 57.8399 275.13 58.8399C276.13 59.8399 270.13 69.8399 270.13 69.8399C270.13 69.8399 275.13 63.8399 276.13 64.8399C277.13 65.8399 271.13 76.8399 265.13 80.8399L268.13 82.8399C268.13 82.8399 254.13 110.84 227.13 120.84" stroke="#252525" stroke-width="1.5" stroke-linecap="round" stroke-linejoin="round"/>
<path d="M263.63 83.3398C263.63 83.3398 255.63 81.3398 255.63 75.3398" stroke="#252525" stroke-width="1.5" stroke-linecap="round" stroke-linejoin="round"/>
<path d="M267.63 72.3394C267.63 72.3394 262.63 71.3394 261.63 76.3394" stroke="#252525" stroke-width="1.5" stroke-linecap="round" stroke-linejoin="round"/>
<path d="M179.29 94.8398C179.29 94.8398 193.63 107.84 187.29 155.34" stroke="#252525" stroke-width="1.5" stroke-linecap="round" stroke-linejoin="round"/>
<path d="M180.63 164.34C189.63 161.34 189.46 163.77 186.63 165.34C186.181 165.585 185.807 165.947 185.547 166.387C185.286 166.827 185.148 167.329 185.148 167.84C185.148 168.351 185.286 168.853 185.547 169.293C185.807 169.733 186.181 170.094 186.63 170.34C188.63 171.34 194.36 174.46 193.12 176.46C192.37 177.66 182.41 173.22 182.41 173.22C182.41 173.22 192.41 179.06 191.04 180.99C190.24 182.14 179.87 176.89 179.87 176.89C179.87 176.89 186.54 181.8 186.23 183.56C185.89 185.47 183.34 184.18 180.63 182.34C175.948 179.152 171.454 175.696 167.17 171.99C166.52 171.43 164.48 174.74 163.82 174.16C156.42 167.63 149.88 156.16 145.63 151.34C137.63 142.34 143.99 136.41 146.99 132.41C149.99 128.41 154.63 121.34 160.63 111.34C166.63 101.34 174.43 98.9498 182.63 97.3398C190.29 95.8398 193.92 94.1598 193.29 83.8398" stroke="#252525" stroke-width="1.5" stroke-linecap="round" stroke-linejoin="round"/>
<path d="M192.83 84.1808C192.986 84.1544 193.131 84.0842 193.248 83.9783C193.365 83.8725 193.45 83.7354 193.492 83.5831C193.534 83.4309 193.531 83.2698 193.485 83.1188C193.439 82.9679 193.35 82.8332 193.23 82.7308C191.61 81.3708 188.65 78.5408 188.92 76.2408C189.12 74.5608 190.15 74.5008 190.92 74.7408C191.037 74.7769 191.161 74.7866 191.283 74.769C191.405 74.7514 191.521 74.707 191.623 74.6391C191.725 74.5712 191.811 74.4814 191.875 74.3762C191.938 74.271 191.978 74.153 191.99 74.0308C192.25 70.2908 194.99 69.8508 198.48 68.2908C202.32 66.5708 203.02 62.2008 203.02 62.2008C204.762 62.5518 206.374 63.373 207.682 64.5753C208.99 65.7775 209.944 67.3149 210.44 69.0208C213.17 67.1908 212.74 59.7608 212.02 57.0808C210.66 52.0808 207.66 50.9108 205.31 53.3008C201.11 57.5708 198.31 56.1408 194.19 56.8108C177.54 59.5508 185.19 77.3308 185.19 77.3308C185.19 77.3308 189.32 84.5808 192.83 84.1808Z" fill="#252525"/>
<path d="M175.68 125.83C175.68 125.83 165.63 138.34 161.63 142.34C161.63 142.34 173.15 153.62 176.28 156.97C176.63 157.34 175.17 140.16 175.17 140.16" stroke="#252525" stroke-width="1.5" stroke-linecap="round" stroke-linejoin="round"/>
<path d="M199.09 90.0592C199.634 90.72 200.316 91.2533 201.088 91.6214C201.86 91.9895 202.704 92.1833 203.56 92.1892C212.56 92.1892 210.46 72.9492 210.46 72.9492" stroke="#252525" stroke-width="1.5" stroke-linecap="round" stroke-linejoin="round"/>
<path d="M203.31 72.3301C203.986 74.3748 204.475 76.4768 204.77 78.6101C204.77 78.6101 204.77 80.3201 202.48 79.7801" stroke="#252525" stroke-width="1.5" stroke-linecap="round" stroke-linejoin="round"/>
<path d="M283.1 36.8997L258.62 46.4397C258.325 46.5502 258.057 46.7244 257.837 46.9498C257.616 47.1753 257.448 47.4465 257.344 47.7442C257.24 48.042 257.203 48.359 257.235 48.6727C257.267 48.9864 257.368 49.2893 257.53 49.5597C261.08 55.5097 270.53 72.3897 271.61 83.8897C271.637 84.2315 271.744 84.5622 271.924 84.8542C272.103 85.1463 272.35 85.3913 272.643 85.5692C272.936 85.747 273.268 85.8526 273.61 85.877C273.952 85.9014 274.295 85.8441 274.61 85.7097C280 83.3397 291.45 78.5397 298.61 77.3097C299.156 77.2162 299.647 76.918 299.981 76.4759C300.315 76.0338 300.469 75.4809 300.41 74.9297C299.71 68.6397 296.74 49.7697 285.49 37.4297C285.192 37.1099 284.804 36.888 284.377 36.7934C283.951 36.6988 283.505 36.7358 283.1 36.8997Z" fill="#F8F8F7" stroke="#252525" stroke-width="1.5" stroke-linecap="round" stroke-linejoin="round"/>
<path d="M273.83 66.5998C278.349 64.3172 283.028 62.3655 287.83 60.7598L273.83 66.5998Z" fill="#F8F8F7"/>
<path d="M273.83 66.5998C278.349 64.3172 283.028 62.3655 287.83 60.7598" stroke="#252525" stroke-width="1.5" stroke-linecap="round" stroke-linejoin="round"/>
<path d="M270.39 59.5191C270.39 59.5191 280.67 54.5791 287.92 52.6191L270.39 59.5191Z" fill="#F8F8F7"/>
<path d="M270.39 59.5191C270.39 59.5191 280.67 54.5791 287.92 52.6191" stroke="#252525" stroke-width="1.5" stroke-linecap="round" stroke-linejoin="round"/>
<path d="M266.93 52.4195C266.93 52.4195 276.69 47.5695 279.44 47.2695L266.93 52.4195Z" fill="#F8F8F7"/>
<path d="M266.93 52.4195C266.93 52.4195 276.69 47.5695 279.44 47.2695" stroke="#252525" stroke-width="1.5" stroke-linecap="round" stroke-linejoin="round"/>
</g>
<path d="M136.193 205.934C136.731 206.083 228.842 205.934 244.691 205.934C245.295 205.931 245.875 205.658 246.306 205.173C246.737 204.687 246.986 204.028 247 203.334V192.659C246.998 191.955 246.753 191.28 246.319 190.782C245.885 190.284 245.296 190.003 244.682 190H81.8488C81.3585 190 80.8882 190.223 80.5415 190.621C80.1948 191.019 80 191.559 80 192.121V203.812C80 204.375 80.1948 204.915 80.5415 205.312C80.8882 205.71 81.3585 205.934 81.8488 205.934H91.3966" fill="#252525"/>
<path d="M108.046 186C107.852 186 107.67 186.024 107.488 186.091C105.365 186.875 91.1082 193.122 86.6201 220.948C82.8733 244.178 77.3912 260.467 75.0854 266.689C74.5883 268.03 75.5818 269.487 77.0122 269.487H122.566C123.517 269.487 124.332 268.832 124.522 267.901C126.049 260.377 132.547 228.14 134.188 216.094C135.916 203.419 141.577 195.189 145.894 190.592C147.272 189.125 146.174 186 144.162 186H108.046Z" fill="#F8F8F7" stroke="#252525" stroke-width="1.5" stroke-linecap="round" stroke-linejoin="round"/>
<path d="M116.889 262.08H84.4164" stroke="#252525" stroke-width="1.5" stroke-linecap="round" stroke-linejoin="round"/>
<path d="M120.772 251.033H88.2995" stroke="#252525" stroke-width="1.5" stroke-linecap="round" stroke-linejoin="round"/>
<path d="M104.531 239.994H90.377" stroke="#252525" stroke-width="1.5" stroke-linecap="round" stroke-linejoin="round"/>
<path d="M125.461 228.947H92.9981" stroke="#252525" stroke-width="1.5" stroke-linecap="round" stroke-linejoin="round"/>
<path d="M116.889 217.9H94.7357" stroke="#252525" stroke-width="1.5" stroke-linecap="round" stroke-linejoin="round"/>
<path d="M130.751 206.852H98.2888" stroke="#252525" stroke-width="1.5" stroke-linecap="round" stroke-linejoin="round"/>
<path d="M133.664 195.805H106.472" stroke="#252525" stroke-width="1.5" stroke-linecap="round" stroke-linejoin="round"/>
<g clip-path="url(#clip3_4804_4524)">
<path d="M-18.5001 180.499C-16.1001 160.499 -6.8334 153.832 -2.00006 153.999C6.79992 153.999 21.4999 177.999 30.4999 187.499L46.9999 164.999L60.4999 173.499C43.4999 195.999 36.9999 202.999 31.4999 203.999C26.3838 204.929 19.3333 201.166 15.4999 198.499L18.4999 263.999L7.99994 269.499C6.66661 268.166 2.99994 265.499 -1.00008 265.499C-6.0001 265.499 -10.5001 269.499 -15.0001 269.499C-16.5001 269.499 -21.1667 265.832 -22.0001 264.499C-43.0001 272.499 -33.5001 259.499 -22.0001 231.499C-10.5001 203.499 -21.5001 205.499 -18.5001 180.499Z" fill="#F8F8F7"/>
<path d="M55.8606 128.544C55.8606 128.544 55.9965 113.73 55.8606 106.216C55.857 106.006 55.9021 105.797 55.9923 105.607C56.0825 105.416 56.2155 105.249 56.3808 105.119C56.5462 104.988 56.7394 104.898 56.9455 104.854C57.1516 104.81 57.3651 104.815 57.5692 104.867C61.9862 106.003 73.6355 109.061 78.6738 110.944C79.3552 111.201 79.9334 111.674 80.3193 112.292C80.7052 112.909 80.8775 113.636 80.8095 114.361L80.5862 150.591C80.5379 151.118 80.3652 151.627 80.0822 152.075C79.7992 152.522 79.414 152.897 78.9582 153.167C78.5025 153.437 77.9892 153.595 77.4605 153.628C76.9317 153.661 76.4027 153.568 75.9168 153.357L57.5497 145.649C56.9327 145.378 56.4113 144.927 56.053 144.356C55.6948 143.785 55.5161 143.12 55.5402 142.446L55.8897 133.825" fill="#F8F8F7"/>
<path d="M55.8606 128.544C55.8606 128.544 55.9965 113.73 55.8606 106.216C55.857 106.006 55.9021 105.797 55.9923 105.607C56.0825 105.416 56.2155 105.249 56.3808 105.119C56.5462 104.988 56.7394 104.898 56.9455 104.854C57.1516 104.81 57.3651 104.815 57.5692 104.867C61.9862 106.003 73.6355 109.061 78.6738 110.944C79.3552 111.201 79.9334 111.674 80.3193 112.292C80.7052 112.909 80.8775 113.636 80.8095 114.361L80.5862 150.591C80.5379 151.118 80.3652 151.627 80.0822 152.075C79.7992 152.522 79.414 152.897 78.9582 153.167C78.5025 153.437 77.9892 153.595 77.4605 153.628C76.9317 153.661 76.4027 153.568 75.9168 153.357L57.5497 145.649C56.9327 145.378 56.4113 144.927 56.053 144.356C55.6948 143.785 55.5161 143.12 55.5402 142.446L55.8897 133.825" stroke="#252525" stroke-width="1.5" stroke-linecap="round" stroke-linejoin="round"/>
<path d="M46.7051 143.917C51.8909 142.285 54.0253 134.387 51.4726 126.276C48.9199 118.165 42.6466 112.913 37.4609 114.545C32.2751 116.177 30.1407 124.075 32.6934 132.186C35.2461 140.297 41.5194 145.55 46.7051 143.917Z" fill="#F2E8E7" stroke="#252525" stroke-width="1.5" stroke-miterlimit="10"/>
<path d="M46.4539 144.076L50.5991 155.696" stroke="#252525" stroke-width="1.5" stroke-miterlimit="10"/>
<path d="M11.8457 164.725L39.639 137.543L44.4152 133.02C44.4152 133.02 48.0459 128.243 56.4528 129.214C60.598 129.69 60.433 133.233 53.4143 133.34" stroke="#252525" stroke-width="1.5" stroke-linecap="round" stroke-linejoin="round"/>
<path d="M-15.2291 50.2024L11.4964 47.5911C11.7133 47.5683 11.9325 47.5887 12.1415 47.6512C12.3505 47.7137 12.545 47.817 12.7138 47.9551C12.8826 48.0932 13.0224 48.2634 13.125 48.4559C13.2276 48.6483 13.2911 48.8592 13.3117 49.0763L16.923 84.995C16.9471 85.2127 16.9277 85.433 16.8659 85.6431C16.804 85.8532 16.701 86.0489 16.5627 86.2187C16.4245 86.3886 16.2538 86.5292 16.0607 86.6325C15.8675 86.7357 15.6557 86.7995 15.4377 86.82L-11.3945 89.4508C-11.8347 89.4942 -12.2741 89.3611 -12.6162 89.0808C-12.9584 88.8005 -13.1754 88.3959 -13.2195 87.9558L-16.7337 52.0372C-16.7579 51.8175 -16.7379 51.5952 -16.6749 51.3833C-16.612 51.1715 -16.5074 50.9743 -16.3672 50.8034C-16.2271 50.6325 -16.0542 50.4913 -15.8587 50.3881C-15.6633 50.2849 -15.4492 50.2218 -15.2291 50.2024Z" fill="#F8F8F7" stroke="#252525" stroke-width="1.5" stroke-linecap="round" stroke-linejoin="round"/>
<path d="M-8.13272 267.85L-6.80276 284.256C-6.80276 284.256 -16.394 280.946 -40.2653 286.508C-44.1484 287.421 -46.2841 283.887 -49.0023 284.412C-54.3804 285.441 -54.0989 290.518 -60.6516 293.857C-64.6512 295.886 -69.9516 297.498 -70.5535 299.109C-70.66 299.404 -70.6937 299.72 -70.6516 300.03C-70.6094 300.341 -70.4928 300.637 -70.3115 300.892C-70.1303 301.148 -69.8899 301.356 -69.6108 301.498C-69.3318 301.641 -69.0224 301.714 -68.709 301.711L-46.5074 299.167C-44.4517 298.928 -42.3781 298.882 -40.3139 299.031L-2.3566 301.711C1.82979 301.711 5.84471 300.048 8.80493 297.088C11.7652 294.127 13.4282 290.112 13.4282 285.926L13.7194 267.287" stroke="#252525" stroke-width="1.5" stroke-linecap="round" stroke-linejoin="round"/>
<path d="M15.9037 207.71C15.9037 207.71 17.5928 233.29 17.3987 251.046C17.1269 276.441 27.5239 268.131 24.7183 263.608C24.7183 263.608 22.7768 259.724 12.7001 267.287C5.73969 272.471 3.8758 263.035 -3.50208 265.802C-9.06462 267.889 -12.5108 270.976 -16.3454 269.228C-20.5586 267.287 -17.2094 262.239 -30.907 266.724C-40.6148 269.918 -27.0239 245.833 -19.5393 227.611C-17.328 222.631 -16.0733 217.28 -15.8406 211.836C-15.5203 206.769 -16.8114 200.556 -17.6948 194.945C-18.85 187.567 -21.2381 170.054 -8.88987 157.793C-7.46425 156.351 -6.38926 154.6 -5.74795 152.676C-5.10663 150.752 -4.91616 148.707 -5.19122 146.697" stroke="#252525" stroke-width="1.5" stroke-linecap="round" stroke-linejoin="round"/>
<path d="M0.109131 154.436C0.109131 154.436 6.00173 156.61 11.8458 164.726C17.0394 171.929 30.4653 187.384 30.4653 187.384C30.4653 187.384 44.0561 170.123 46.9684 165.434C46.9684 165.434 48.8323 162.376 48.8517 160.464C48.9003 157.144 49.8225 155.552 51.0068 155.61C52.3659 155.717 52.6086 158.406 52.6086 158.406C52.6086 158.406 53.9386 157.057 55.0064 157.435C56.4723 157.901 56.2102 160.348 56.2102 160.348C56.2102 160.348 57.1809 158.212 58.7536 158.882C59.9671 159.396 59.7244 161.415 59.7244 161.415C59.7244 161.415 61.0349 160.493 61.9183 160.94C63.1027 161.522 63.3357 162.881 63.0833 164.347C62.4426 167.929 58.2294 171.909 58.2294 171.909L60.8214 173.569C60.8214 173.569 44.9492 194.344 42.0951 197.373C27.6597 212.614 14.9134 200.771 3.87574 183.064" stroke="#252525" stroke-width="1.5" stroke-linecap="round" stroke-linejoin="round"/>
<path d="M15.2338 131.525C15.6535 133.885 16.4052 136.172 17.4666 138.321C17.6463 138.685 17.6893 139.102 17.5878 139.496C17.4862 139.89 17.2469 140.234 16.9132 140.466L15.0494 141.039C15.0494 141.039 11.3507 151.533 4.73975 147.99" stroke="#252525" stroke-width="1.5" stroke-linecap="round" stroke-linejoin="round"/>
<path d="M7.85579 132.01C7.85579 132.01 6.21519 120.923 3.46791 132.311C3.38335 132.795 3.15152 133.241 2.80405 133.588C2.45659 133.936 2.01041 134.168 1.52636 134.252C0.817692 134.359 -1.19183 132.796 -1.80342 134.019C-2.72566 135.854 0.380819 139.747 0.380819 139.747C0.380819 139.747 -4.65749 152.862 -10.0744 145.698C-15.4913 138.533 -14.5303 129.641 -12.016 126.282C-12.016 126.282 -15.5496 127.253 -18.7046 123.476C-21.1995 120.516 -19.753 112.982 -12.4528 112.982C-6.48255 112.982 -6.434 118.681 -6.434 118.681C-3.92557 116.689 -0.822214 115.596 2.38061 115.574C4.93833 115.574 7.48364 115.93 9.94295 116.633C14.059 117.846 17.049 119.71 16.6801 123.379C16.3501 126.301 11.768 132.67 7.85579 132.01Z" fill="#252525"/>
<path d="M23 178.5L44.9686 154.435L41 151" stroke="#252525" stroke-width="1.5" stroke-linecap="round" stroke-linejoin="round"/>
</g>
<defs>
<clipPath id="clip0_4804_4524">
<rect width="375" height="321" fill="white"/>
</clipPath>
<clipPath id="clip1_4804_4524">
<rect width="115" height="237" fill="white" transform="translate(260 68)"/>
</clipPath>
<clipPath id="clip2_4804_4524">
<rect width="160.16" height="273.73" fill="white" transform="translate(141 36)"/>
</clipPath>
<clipPath id="clip3_4804_4524">
<rect width="82" height="255" fill="white" transform="translate(0 47)"/>
</clipPath>
</defs>
</svg>
