<svg width="129" height="227" viewBox="0 0 129 227" fill="none" xmlns="http://www.w3.org/2000/svg">
<rect x="3.2028" y="19.2028" width="111.594" height="204.594" rx="16.7972" stroke="white" stroke-width="6.40559"/>
<circle cx="59" cy="203" r="8" fill="white"/>
<path d="M93.2868 25.2114C93.3754 24.2789 94.5823 23.969 95.1092 24.7434L97.4479 28.1811C97.7762 28.6636 98.2988 28.9787 98.8788 29.0437L102.998 29.5052C103.912 29.6076 104.215 30.786 103.463 31.3162L100.076 33.7053C99.599 34.0417 99.2928 34.5696 99.2376 35.1506L98.8446 39.2897C98.756 40.2222 97.5491 40.5321 97.0222 39.7577L94.6835 36.32C94.3552 35.8375 93.8326 35.5224 93.2526 35.4574L89.1334 34.9959C88.2193 34.8935 87.9167 33.7152 88.6684 33.1849L92.0555 30.7958C92.5324 30.4594 92.8386 29.9315 92.8938 29.3506L93.2868 25.2114Z" fill="#BBF383"/>
<path d="M115.524 0.952808C116.033 0.166549 117.247 0.448766 117.357 1.37892L118.575 11.6905C118.643 12.27 118.962 12.7908 119.446 13.1162L127.954 18.8302C128.718 19.3431 128.442 20.528 127.531 20.6513L117.374 22.0255C116.796 22.1038 116.281 22.4307 115.964 22.9206L110.321 31.637C109.812 32.4232 108.599 32.141 108.489 31.2109L107.271 20.8993C107.202 20.3197 106.884 19.799 106.4 19.4736L97.8914 13.7596C97.1277 13.2467 97.4033 12.0618 98.3148 11.9384L108.471 10.5643C109.049 10.486 109.565 10.1591 109.882 9.66917L115.524 0.952808Z" fill="#BBF383"/>
</svg>
