<svg width="375" height="321" viewBox="0 0 375 321" fill="none" xmlns="http://www.w3.org/2000/svg">
<g opacity="0.6" clip-path="url(#clip0_4548:2984)">
<path d="M312.346 182.375C312.346 182.375 322.332 177.838 324.072 177.646C324.197 177.646 324.274 177.646 324.312 177.646C324.735 178.088 337.047 174.474 337.268 174.455C337.489 174.436 345.918 165.757 345.918 165.42C345.803 164.459 370.533 151.003 373.791 150.619C373.994 150.581 374.202 150.59 374.4 150.645C374.598 150.7 374.781 150.799 374.935 150.936C380.635 157.405 400.972 186.959 405.211 194.524C409.738 202.597 378.568 203.174 355.828 224.319C339.834 233.68 345.371 230.384 329.877 239.697L326.677 245.666C326.455 245.463 326.169 245.344 325.869 245.329C325.379 245.387 325.293 246.156 325.12 246.925C324.947 247.694 324.706 248.491 323.899 248.578C323.068 248.56 322.266 248.273 321.611 247.761C321.047 247.447 320.394 247.332 319.756 247.434C317.632 247.665 315.153 249.481 315.566 251.231C315.787 252.192 309.578 255.2 303.715 258.843C299.63 261.38 286.472 278.979 278.533 289.484C281.08 276.422 273.507 251.327 274.737 244.791C275.842 238.909 278.697 220.359 279.427 207.864C283.272 205.432 287.001 203.058 287.991 200.954C289.461 197.763 290.038 197.244 293.498 196.869L293.969 196.821C297.766 196.225 311.5 185.797 311.27 182.346C311.202 181.904 311.27 181.683 311.471 181.664C311.673 181.644 311.99 181.962 312.346 182.375Z" fill="#F2E8E7"/>
<path d="M292.921 61.6367C297.083 60.6755 293.825 71.4402 291.086 72.2091C293.546 68.2012 294.469 65.3178 293.248 64.0972C291.883 62.7324 288.712 61.579 284.492 60.6082V60.541C288.154 61.4637 291.336 62.0211 292.921 61.6367Z" fill="#F2E8E7"/>
<path d="M290.845 72.2969C290.941 72.3114 291.038 72.3114 291.134 72.2969C290.74 72.9312 290.317 73.5944 289.846 74.2864C290.009 73.0273 290.336 72.3065 290.845 72.2969Z" fill="#F2E8E7"/>
<path d="M276.352 292.522L278.581 289.639C277.764 293.829 275.9 296.78 272.363 297.472C267.61 298.192 262.811 298.565 258.003 298.587L266.49 297.943C268.424 297.789 270.303 297.227 272.003 296.292C273.703 295.357 275.185 294.072 276.352 292.522Z" fill="#F2E8E7"/>
<path d="M254.13 226.463C260.858 220.792 269.018 214.929 269.306 215.131C269.552 215.336 269.861 215.451 270.181 215.458C270.46 215.458 270.777 215.208 271.142 214.612C272.613 212.382 276.044 210.123 279.446 207.961C278.716 220.456 275.861 239.006 274.756 244.888C273.526 251.423 281.1 276.519 278.552 289.581L276.323 292.464C275.153 294.007 273.669 295.285 271.969 296.213C270.269 297.141 268.392 297.697 266.461 297.846L257.975 298.49C251.612 298.663 244.192 298.625 236.83 298.49C236.157 298.308 235.474 298.096 234.802 297.856C228.958 297.352 223.081 297.378 217.242 297.933C213.032 297.769 209.389 297.616 206.669 297.491C205.653 297.442 204.675 297.091 203.861 296.481C203.048 295.871 202.435 295.031 202.104 294.069C201.758 290.224 202.488 284.583 203.978 282.67C210.11 274.789 219.356 258.238 219.356 258.238C222.134 254.807 244.105 234.748 254.024 226.463H254.13Z" fill="#EEDCDA"/>
<path d="M258.003 298.547C251.785 299.008 245.259 299.45 241.885 299.566C240.201 299.343 238.534 299.002 236.897 298.547C244.221 298.681 251.641 298.72 258.003 298.547Z" fill="#F2E8E7"/>
<path d="M284.492 60.6468C272.065 57.7634 250.545 56.4082 239.319 55.8411V55.6873C239.695 55.6982 240.068 55.6156 240.405 55.447C243.884 53.6689 244.384 51.6601 248.094 53.5247C251.804 55.3893 262.434 55.447 267.442 56.091C270.614 56.5043 278.226 58.9744 284.483 60.5218L284.492 60.6468Z" fill="#F2E8E7"/>
<path d="M228.035 57.3226C229.669 49.1145 235.657 55.7079 239.367 55.7079V55.8616C234.975 55.6502 232.168 55.5637 232.149 55.5541C231.255 55.4772 231.851 54.6218 228.035 57.3226Z" fill="#F2E8E7"/>
<path d="M234.869 297.914C235.542 298.155 236.224 298.366 236.897 298.549C229.958 298.424 223.095 298.203 217.309 297.991C223.148 297.436 229.025 297.41 234.869 297.914Z" fill="#F2E8E7"/>
<path d="M217.568 91.7506C217.877 91.6256 218.221 91.6256 218.53 91.7506C218.53 91.7506 224.133 75.8919 224.998 75.6612C225.387 75.7677 225.801 75.7372 226.171 75.5747C226.411 75.4209 226.43 75.1614 226.123 74.8154C225.431 73.8543 226.123 61.792 227.987 57.3516C231.832 54.6508 231.159 55.5062 232.091 55.5831C232.091 55.5831 234.917 55.6792 239.309 55.8907C250.497 56.4385 271.988 57.8129 284.483 60.6963C288.702 61.6575 291.874 62.8204 293.239 64.1853C294.459 65.4059 293.537 68.2893 291.076 72.2972C290.981 72.3117 290.883 72.3117 290.788 72.2972C290.326 72.2972 290 73.0277 289.827 74.2195C273.795 98.0364 214.752 153.302 212.253 155.551C211.417 156.3 210.571 157.069 209.706 157.867C210.206 154.503 210.927 150.899 211.494 147.65L211.09 148.198C211.196 147.573 211.302 146.958 211.398 146.343C211.744 145.987 212.061 145.545 211.725 144.334C212.263 140.701 212.561 137.52 212.109 135.425C209.745 124.266 214.176 133.598 217.655 108.628C218.616 101.535 219.058 94.5475 217.79 92.7406C217.347 92.2312 217.319 91.8755 217.568 91.7506Z" fill="#EEDCDA"/>
<path d="M217.309 297.991C210.456 298.471 204.92 299.019 203.344 297.722C202.719 297.212 202.383 295.847 202.19 294.127C202.522 295.088 203.134 295.929 203.948 296.538C204.762 297.148 205.74 297.5 206.756 297.549C209.457 297.674 213.099 297.827 217.309 297.991Z" fill="#F2E8E7"/>
<path d="M204.065 282.728C202.575 284.65 201.844 290.282 202.19 294.127C201.98 293.532 201.885 292.902 201.912 292.272C202.556 275.087 204.66 219.072 205.208 206.212C205.881 190.391 206.688 173.706 206.977 171.092C206.967 170.802 207.026 170.513 207.148 170.249C207.27 169.986 207.451 169.754 207.678 169.573C207.869 169.465 208.077 169.39 208.294 169.352C208.496 169.319 208.691 169.25 208.87 169.15C209.226 168.929 209.428 168.429 209.216 167.007C208.963 163.96 209.118 160.892 209.678 157.886C210.543 157.088 211.388 156.319 212.225 155.57C214.724 153.32 273.737 98.0552 289.798 74.2383C288.75 80.2934 290.547 98.5453 291.509 101.458C292.662 104.956 281.897 135.04 280.244 139.903C278.591 144.766 275.592 192.342 278.687 196.312C279.648 197.581 279.802 202.079 279.475 207.971C276.073 210.133 272.641 212.392 271.171 214.622C270.777 215.218 270.46 215.439 270.21 215.467C269.89 215.461 269.581 215.346 269.335 215.141C269.047 214.968 260.916 220.802 254.159 226.472V226.53C244.24 234.815 222.268 254.874 219.491 258.305C219.462 258.296 210.197 274.846 204.065 282.728Z" fill="#F2E8E7"/>
<path d="M163.014 28.7288C163.303 29.9687 162.62 31.8813 161.582 33.621C160.275 35.7932 158.411 37.6866 157.152 37.6481C153.547 37.206 118.918 69.1253 104.808 82.1871L112.689 1.45178C114.006 1.45178 115.746 1.3845 116.015 1.45178C118.197 3.37405 129.692 8.43923 140.774 13.9465C147.223 17.6277 153.365 21.1454 157.449 23.183C160.621 25.2302 162.688 27.1621 163.014 28.7288Z" fill="#EEDCDA"/>
<path d="M163.149 27.8341C163.582 29.5353 162.899 31.4768 161.63 33.6009C162.668 31.8612 163.351 29.9486 163.063 28.7087C162.697 27.142 160.631 25.2102 157.536 23.0957C158.247 23.4609 158.891 23.7685 159.458 24.0568C160.362 24.6912 161.102 25.2583 161.678 25.7484C162.263 26.2346 162.727 26.8498 163.034 27.5458C163.061 27.6213 163.083 27.6983 163.101 27.7764V27.863L163.149 27.8341Z" fill="#F2E8E7"/>
<path d="M157.517 23.1155C153.432 21.0779 147.29 17.5601 140.841 13.8789C146.594 16.5922 152.165 19.6776 157.517 23.1155Z" fill="#F2E8E7"/>
<path d="M140.841 13.8971C129.759 8.43785 118.264 3.41112 116.082 1.40234C119.1 2.51726 123.147 4.28573 127.616 6.42906C131.778 8.71656 136.381 11.3309 140.841 13.8971Z" fill="#F2E8E7"/>
<path d="M122.003 261.477C122.003 261.477 108.749 275.586 108.307 275.375C107.278 274.866 106.461 275.048 106.778 275.894C106.951 277.143 79.2035 315.762 71.5048 321.192C71.7439 318.569 71.8146 315.933 71.7163 313.301C71.7163 308.707 70.2649 272.511 77.9925 266.657C77.8099 254.874 78.6941 219.235 87.6038 210.008C86.4889 208.663 86.6427 205.26 87.5365 200.724C92.6727 192.648 98.4587 185.004 104.837 177.868L110.354 166.488C113.804 167.737 111.257 158.213 118.043 159.914C120.763 160.596 127.789 154.051 127.577 150.754C127.529 150.081 130.038 147.679 133.709 144.305C142.206 136.501 147.579 132.137 154.566 125.717C157.853 122.689 167.253 114.337 167.118 110.252C176.499 109.185 198.644 83.3402 207.976 74.2383C218.385 66.5973 214.906 66.6068 228.026 57.3223C226.103 61.7627 225.469 73.8153 226.161 74.7861C226.469 75.1321 226.449 75.3916 226.209 75.5454C225.84 75.7079 225.426 75.7384 225.036 75.6319C224.171 75.8625 218.568 91.7213 218.568 91.7213C218.26 91.5962 217.915 91.5962 217.607 91.7213C217.357 91.875 217.386 92.2307 217.799 92.7593C219.068 94.5662 218.655 101.554 217.665 108.647C214.185 133.636 209.754 124.285 212.119 135.443C212.571 137.539 212.273 140.72 211.734 144.353C212.071 145.564 211.734 146.006 211.408 146.362C211.311 146.977 211.206 147.592 211.1 148.217L211.504 147.669C210.937 150.918 210.216 154.522 209.716 157.886C201.585 165.392 192.368 174.811 185.736 181.549L185.169 181.789L184.919 182.039C183.958 183 183.362 182.952 182.862 182.76L182.554 182.895C182.055 182.683 181.593 182.587 180.795 183.644L180.469 183.788C180.401 183.885 180.344 183.961 180.276 184.077C175.73 191.66 160.391 203.098 157.997 209.768C156.075 215.054 155.354 215.842 150.5 218.303C148.175 219.687 142.706 225.723 138.169 232.133C133.633 238.544 122.791 258.497 123.31 260.737C123.608 261.871 122.935 262.121 122.003 261.477Z" fill="#F2E8E7"/>
<path d="M116.053 1.40328C115.784 1.336 114.045 1.40328 112.728 1.40328L112.834 0.365234C113.926 0.647307 115.002 0.99394 116.053 1.40328Z" fill="#F2E8E7"/>
<path d="M112.728 1.40234L104.847 82.1377L104.731 82.2434L112.584 1.40234H112.728Z" fill="#F2E8E7"/>
<path d="M112.718 0.00877729L112.584 1.42168C111.844 1.42168 111.267 1.42168 111.229 1.42168C111.038 1.42226 110.849 1.45809 110.671 1.52739C111.079 0.883752 111.654 0.362373 112.334 0.018398C112.459 -0.01818 112.591 -0.0215022 112.718 0.00877729Z" fill="#F2E8E7"/>
<path d="M110.671 1.53735C110.849 1.46805 111.038 1.43222 111.228 1.43164C111.228 1.43164 111.844 1.43164 112.584 1.43164L104.731 82.3015C101.8 85.0119 99.7718 86.8957 99.1278 87.4724C97.8303 86.5113 99.445 91.5668 98.2435 90.4808L98.1667 90.4038C95.6293 88.1067 73.2541 107.8 70.2265 110.511C63.8638 116.22 56.5303 123.505 50.1772 129.916C53.6757 121.766 57.0782 114.057 57.7029 109.607C58.664 102.533 59.2888 101.101 63.9214 95.4498C68.2562 89.5677 83.3652 55.9279 82.356 51.1223C82.1061 50.3053 82.356 49.7767 82.8173 49.6229C83.1044 49.5483 83.4078 49.5685 83.6824 49.6806C83.9145 49.3723 84.1295 49.0514 84.3263 48.7194C86.4985 45.269 85.1721 47.3546 90.6698 38.4545C94.053 32.9664 97.6284 27.6033 98.1667 27.4303C98.5038 27.5183 98.8579 27.5183 99.1951 27.4303C99.3193 27.4053 99.4362 27.3526 99.5373 27.2763C99.6384 27.1999 99.7211 27.1019 99.7792 26.9893C99.8374 26.8767 99.8694 26.7526 99.8731 26.6259C99.8769 26.4993 99.8521 26.3735 99.8006 26.2577C99.4642 24.8545 106.509 6.95815 110.671 1.53735Z" fill="#EEDCDA"/>
<path d="M70.1977 110.473C73.2253 107.763 95.6005 88.0689 98.1379 90.366L98.2148 90.4429C99.4162 91.529 97.8015 86.4542 99.099 87.4346C99.743 86.8579 101.771 84.9741 104.702 82.2637L95.735 175.004C95.216 176.32 94.7066 177.656 94.1972 179.002C91.4212 186.066 89.1724 193.327 87.4693 200.724C84.889 204.831 82.0679 208.781 79.0209 212.555C73.2541 219.379 40.3256 256.96 36.6637 261.64C10.3574 297.433 10.9629 318.789 10.8668 318.837C8.76195 318.501 13.0486 229.961 26.3411 202.377C26.4468 202.156 26.1104 201.983 26.0335 201.819L26.4084 200.349C26.5972 200.287 26.7713 200.187 26.9197 200.055C27.068 199.923 27.1875 199.761 27.2705 199.581C27.3535 199.4 27.3984 199.205 27.4022 199.006C27.406 198.807 27.3687 198.61 27.2926 198.426C27.2253 198.177 27.1677 197.907 27.1004 197.648C32.0502 178.627 37.1443 161.596 38.1727 158.53C38.807 156.607 39.4318 156.309 40.0181 156.127L40.1911 156.069L40.3641 156.021C41.008 155.819 41.5847 155.454 42.0172 152.792C43.036 146.573 46.6211 137.981 50.11 129.849C56.5015 123.468 63.835 116.182 70.1977 110.473Z" fill="#F2E8E7"/>
<path d="M104.847 82.1872C118.956 69.1254 153.586 37.2061 157.19 37.6483C158.449 37.6483 160.314 35.7933 161.621 33.6211C161.265 34.2362 160.862 34.861 160.419 35.5434C160.352 35.7933 160.275 36.0431 160.198 36.3026C156.114 42.1271 149.443 49.326 148.665 57.6206C114.746 119.864 119.033 114.808 116.64 128.235C116.516 128.249 116.393 128.275 116.274 128.312C114.775 128.783 115.15 130.725 115.14 132.791C115.131 134.857 114.708 137.039 111.651 138L111.219 138.125H111.132C108.249 139.029 103.607 148.698 105.145 151.456C105.635 152.523 100.55 163.096 95.7927 175.139L104.847 82.1872Z" fill="#F2E8E7"/>
<path d="M69.6402 316.77C69.9382 316.895 70.5341 316.636 71.351 316.059C70.8234 316.388 70.2455 316.628 69.6402 316.77ZM71.7163 313.3C71.8146 315.933 71.7439 318.568 71.5048 321.191C62.8546 317.914 11.9817 319.01 10.8956 318.837C10.9918 318.837 10.3863 297.432 36.6925 261.639C40.3544 256.959 73.2925 219.349 79.0497 212.554C82.0967 208.78 84.9178 204.83 87.4981 200.723C86.537 205.259 86.4505 208.662 87.5654 210.007C78.6941 219.234 77.8099 254.873 77.954 266.656C70.2649 272.51 71.7066 308.706 71.7066 313.3H71.7163Z" fill="#EEDCDA"/>
<path d="M71.351 316.061C70.5341 316.637 69.9381 316.897 69.6402 316.772C70.2454 316.63 70.8234 316.389 71.351 316.061Z" fill="#F2E8E7"/>
<path d="M10.8957 318.836C11.9818 319.009 62.8931 317.875 71.5048 321.191C70.04 321.577 68.5003 321.577 67.0356 321.191C67.0356 321.191 10.1364 320.672 10.8957 318.836Z" fill="#F2E8E7"/>
<path d="M-3.89617 187.047C-8.42312 193.467 -19.2743 213.41 -18.7553 215.65C-18.467 216.803 -19.0917 217.034 -20.024 216.39C-20.024 216.39 -33.2781 230.499 -33.7202 230.288C-34.7486 229.779 -35.5656 229.961 -35.2484 230.807C-35.0754 232.056 -63.1213 265.408 -70.8104 270.829C-71.3317 271.161 -71.9076 271.398 -72.5116 271.53C-72.723 271.44 -72.9257 271.331 -73.1171 271.204C-72.2521 259.862 -73.4439 236.939 -74.2512 236.439C-75.0586 236.122 -74.5684 235.613 -73.4631 235.382C-73.0018 235.286 -72.6558 220.965 -72.6077 220.917C-71.4928 220.811 -71.1756 220.379 -72.1656 219.879C-74.0879 218.918 -79.3549 202.578 -80.2968 196.744C-80.657 194.517 -80.8816 192.271 -80.9696 190.016C-80.9251 189.888 -80.8929 189.757 -80.8735 189.622C-77.2211 184.942 -68.6959 174.34 -62.9387 167.516C-55.4899 158.693 -51.4051 148.697 -37.161 132.829L-31.6441 121.449C-28.1937 122.699 -30.7407 113.174 -23.9551 114.875C-21.235 115.557 -14.2091 109.002 -14.4206 105.715C-14.4687 105.043 -11.9697 102.64 -8.28855 99.2661C0.207886 91.4617 5.58063 87.0981 12.5681 80.6777C15.8552 77.6501 25.2551 69.2883 25.1205 65.2131C34.5012 64.1462 56.6457 38.3013 65.9783 29.1993C72.2738 31.1216 90.6026 15.234 103.712 5.93985C106.942 3.66196 109.479 1.99923 110.69 1.58594C106.529 7.00674 99.4835 24.9031 99.8295 26.2583C99.881 26.374 99.9058 26.4999 99.9021 26.6265C99.8984 26.7531 99.8663 26.8773 99.8082 26.9898C99.75 27.1024 99.6674 27.2005 99.5663 27.2768C99.4651 27.3531 99.3482 27.4058 99.224 27.4309C98.8868 27.5188 98.5328 27.5188 98.1956 27.4309C97.6573 27.6039 94.0819 32.967 90.6987 38.4551C85.201 47.3552 86.5274 45.2695 84.3553 48.72C84.1584 49.0519 83.9434 49.3728 83.7113 49.6811C83.4367 49.5691 83.1333 49.5488 82.8463 49.6234C82.3657 49.7772 82.135 50.3058 82.3849 51.1228C83.346 55.9285 68.2851 89.5682 63.9503 95.4503C59.3177 101.102 58.7218 102.534 57.7318 109.608C57.1071 114.058 53.7047 121.766 50.2061 129.917L43.7377 136.481L43.1706 136.721L42.8727 136.923C41.9115 137.884 41.3156 137.884 40.8158 137.644L40.5083 137.779C40.0085 137.567 39.5471 137.471 38.7494 138.528L38.4226 138.673C38.3553 138.769 38.2977 138.846 38.2304 138.961C33.6842 146.544 18.3445 157.982 15.9513 164.652C14.029 169.938 13.3082 170.726 8.45442 173.187C6.10925 174.6 0.640388 180.626 -3.89617 187.047Z" fill="#F2E8E7"/>
</g>
<g clip-path="url(#clip1_4548:2984)">
<path d="M377.554 262.941V299.773C377.554 302.112 376.244 304.015 374.642 304.015H268.827C267.216 304.015 265.915 302.073 265.915 299.773V262.941" stroke="#282B35" stroke-width="1.5" stroke-linecap="round" stroke-linejoin="round"/>
<path d="M316.92 284.414H327.87" stroke="#282B35" stroke-width="1.5" stroke-linecap="round" stroke-linejoin="round"/>
<path d="M377.515 221.867V262.941H265.876V221.867" stroke="#282B35" stroke-width="1.5" stroke-linecap="round" stroke-linejoin="round"/>
<path d="M316.92 199.189H327.87" stroke="#282B35" stroke-width="1.5" stroke-linecap="round" stroke-linejoin="round"/>
<path d="M265.915 219.517V183.075C265.915 180.754 267.216 178.871 268.827 178.871H374.642C376.244 178.871 377.554 180.754 377.554 183.075V219.517" stroke="#282B35" stroke-width="1.5" stroke-linecap="round" stroke-linejoin="round"/>
<path d="M327.87 242.186H316.92" stroke="#282B35" stroke-width="1.5" stroke-linecap="round" stroke-linejoin="round"/>
<path d="M265.876 221.158H377.515" stroke="#282B35" stroke-width="1.5" stroke-linecap="round" stroke-linejoin="round"/>
<path fill-rule="evenodd" clip-rule="evenodd" d="M269.274 96.6189V71.7962C269.225 71.3468 269.35 70.8958 269.622 70.5351C269.895 70.1744 270.294 69.931 270.74 69.8546C275.671 69.709 291.903 69.2333 302.649 68.7285C302.881 68.7502 303.106 68.818 303.311 68.9279C303.516 69.0378 303.697 69.1876 303.844 69.3684C303.99 69.5493 304.099 69.7576 304.164 69.9811C304.229 70.2047 304.249 70.4389 304.222 70.6701V96.6189" fill="#FCFAF8"/>
<path d="M269.274 96.6189V71.7962C269.225 71.3468 269.35 70.8958 269.622 70.5351C269.895 70.1744 270.294 69.931 270.74 69.8546C275.671 69.709 291.903 69.2333 302.649 68.7285C302.881 68.7502 303.106 68.818 303.311 68.9279C303.516 69.0378 303.697 69.1876 303.844 69.3684C303.99 69.5493 304.099 69.7576 304.164 69.9811C304.229 70.2047 304.249 70.4389 304.222 70.6701V96.6189" stroke="#282B35" stroke-width="1.5" stroke-linecap="round" stroke-linejoin="round"/>
<path fill-rule="evenodd" clip-rule="evenodd" d="M338.199 96.618V74.3776C338.199 73.6592 338.616 73.0768 339.121 73.0962L367.419 74.4067C367.905 74.4067 368.293 74.9892 368.293 75.6784V96.618" fill="#F2E8E7"/>
<path d="M338.199 96.618V74.3776C338.199 73.6592 338.616 73.0768 339.121 73.0962L367.419 74.4067C367.905 74.4067 368.293 74.9892 368.293 75.6784V96.618" stroke="#282B35" stroke-width="1.5" stroke-linecap="round" stroke-linejoin="round"/>
<path fill-rule="evenodd" clip-rule="evenodd" d="M304.222 96.6176V81.6191H339.636C340.441 81.6191 341.111 82.7549 341.111 84.1528V96.6176" fill="#F2E8E7"/>
<path d="M304.222 96.6176V81.6191H339.636C340.441 81.6191 341.111 82.7549 341.111 84.1528V96.6176" stroke="#282B35" stroke-width="1.5" stroke-linecap="round" stroke-linejoin="round"/>
<path d="M383.825 96.6191H259.566C257.958 96.6191 256.654 97.923 256.654 99.5315V132.538C256.654 134.146 257.958 135.45 259.566 135.45H383.825C385.434 135.45 386.738 134.146 386.738 132.538V99.5315C386.738 97.923 385.434 96.6191 383.825 96.6191Z" stroke="#282B35" stroke-width="1.5" stroke-linecap="round" stroke-linejoin="round"/>
<path d="M316.764 115.627H327.715" stroke="#282B35" stroke-width="1.5" stroke-linecap="round" stroke-linejoin="round"/>
</g>
<g clip-path="url(#clip2_4548:2984)">
<path fill-rule="evenodd" clip-rule="evenodd" d="M176 97.5C180.667 105.5 187.9 129.7 179.5 162.5L174.5 164.5L171 162.5L158 174.5L136.5 147C135.167 146 133.9 141.9 139.5 133.5C140.931 131.353 142.53 128.892 144.202 126.319C150.706 116.308 158.318 104.591 161.5 103C164.7 101.4 172.5 98.6667 176 97.5ZM169 126L170.5 156.5L155.5 142.5L169 126Z" fill="#FCFAF8"/>
<path d="M203.5 181L197.5 98C222.3 105.2 242.167 86.3333 249 76C252.2 83.2 259 84 262 83.5C248.8 107.5 226.5 119.5 217 122.5L228.5 179.5C215.7 178.3 206.5 180 203.5 181Z" fill="#FCFAF8"/>
<path d="M194.29 159.85L187.29 173.85" stroke="#282B35" stroke-width="1.5" stroke-linecap="round" stroke-linejoin="round"/>
<path d="M212.106 153.585C215.552 146.843 213.362 138.83 207.214 135.688C201.067 132.547 193.29 135.466 189.845 142.208C186.399 148.95 188.589 156.963 194.736 160.104C200.883 163.246 208.66 160.327 212.106 153.585Z" fill="#F2E8E7" stroke="#282B35" stroke-width="1.5" stroke-miterlimit="10"/>
<path d="M222.63 179.119C222.63 179.119 222.83 282.059 223.83 288.059C225.986 292.606 229.361 296.466 233.58 299.209C243.76 305.839 225.74 307.149 215.71 301.769C212.94 300.279 215.19 297.199 214.13 293.109L209.73 293.709C202.99 261.529 204.22 209.579 202.66 203.329C200.66 195.329 198.66 182.329 194.66 200.329C191.39 215.039 188.66 269.899 185.55 292.499C185.44 293.309 180.74 292.159 181.05 292.829C183.23 297.519 177.52 300.309 174.34 302.829C170.56 305.769 166.59 309.779 164.02 308.829C158.96 307.019 169.2 292.889 169.2 292.889C170.2 286.889 168.2 183.409 168.2 183.409" stroke="#282B35" stroke-width="1.5" stroke-linecap="round" stroke-linejoin="round"/>
<path d="M215.76 116.65C215.76 116.65 225.5 161.54 228.02 180.06" stroke="#282B35" stroke-width="1.5" stroke-linecap="round" stroke-linejoin="round"/>
<path d="M228.02 180.06C228.02 180.06 215.76 176.57 203.33 181.61C203.33 181.61 198.63 125.34 197.63 97.3399C197.63 97.3399 221.63 110.34 249.63 75.3399C249.63 75.3399 252.63 70.3399 251.63 65.3399C250.63 60.3399 253.06 61.3399 254.34 65.3399C254.34 65.3399 256.13 69.8399 258.13 63.8399C260.13 57.8399 261.13 54.8399 262.13 55.8399C263.13 56.8399 260.13 65.8399 260.13 65.8399C260.13 65.8399 264.27 55.4699 266.2 55.6599C268.13 55.8499 263.13 66.8399 263.13 66.8399C263.13 66.8399 268.13 57.8399 269.13 58.8399C270.13 59.8399 264.13 69.8399 264.13 69.8399C264.13 69.8399 269.13 63.8399 270.13 64.8399C271.13 65.8399 265.13 76.8399 259.13 80.8399L262.13 82.8399C262.13 82.8399 248.13 110.84 221.13 120.84" stroke="#282B35" stroke-width="1.5" stroke-linecap="round" stroke-linejoin="round"/>
<path d="M257.63 83.3398C257.63 83.3398 249.63 81.3398 249.63 75.3398" stroke="#282B35" stroke-width="1.5" stroke-linecap="round" stroke-linejoin="round"/>
<path d="M261.63 72.3394C261.63 72.3394 256.63 71.3394 255.63 76.3394" stroke="#282B35" stroke-width="1.5" stroke-linecap="round" stroke-linejoin="round"/>
<path d="M173.29 94.8398C173.29 94.8398 187.63 107.84 181.29 155.34" stroke="#282B35" stroke-width="1.5" stroke-linecap="round" stroke-linejoin="round"/>
<path d="M174.63 164.34C183.63 161.34 183.46 163.77 180.63 165.34C180.181 165.585 179.807 165.947 179.547 166.387C179.286 166.827 179.148 167.329 179.148 167.84C179.148 168.351 179.286 168.853 179.547 169.293C179.807 169.733 180.181 170.094 180.63 170.34C182.63 171.34 188.36 174.46 187.12 176.46C186.37 177.66 176.41 173.22 176.41 173.22C176.41 173.22 186.41 179.06 185.04 180.99C184.24 182.14 173.87 176.89 173.87 176.89C173.87 176.89 180.54 181.8 180.23 183.56C179.89 185.47 177.34 184.18 174.63 182.34C169.948 179.152 165.454 175.696 161.17 171.99C160.52 171.43 158.48 174.74 157.82 174.16C150.42 167.63 143.88 156.16 139.63 151.34C131.63 142.34 137.99 136.41 140.99 132.41C143.99 128.41 148.63 121.34 154.63 111.34C160.63 101.34 168.43 98.9498 176.63 97.3398C184.29 95.8398 187.92 94.1598 187.29 83.8398" stroke="#282B35" stroke-width="1.5" stroke-linecap="round" stroke-linejoin="round"/>
<path d="M186.83 84.1808C186.986 84.1544 187.131 84.0842 187.248 83.9783C187.365 83.8725 187.45 83.7354 187.492 83.5831C187.534 83.4309 187.531 83.2698 187.485 83.1188C187.439 82.9679 187.35 82.8332 187.23 82.7308C185.61 81.3708 182.65 78.5408 182.92 76.2408C183.12 74.5608 184.15 74.5008 184.92 74.7408C185.037 74.7769 185.161 74.7866 185.283 74.769C185.405 74.7514 185.521 74.707 185.623 74.6391C185.725 74.5712 185.811 74.4814 185.875 74.3762C185.938 74.271 185.978 74.153 185.99 74.0308C186.25 70.2908 188.99 69.8508 192.48 68.2908C196.32 66.5708 197.02 62.2008 197.02 62.2008C198.762 62.5518 200.374 63.373 201.682 64.5753C202.99 65.7775 203.944 67.3149 204.44 69.0208C207.17 67.1908 206.74 59.7608 206.02 57.0808C204.66 52.0808 201.66 50.9108 199.31 53.3008C195.11 57.5708 192.31 56.1408 188.19 56.8108C171.54 59.5508 179.19 77.3308 179.19 77.3308C179.19 77.3308 183.32 84.5808 186.83 84.1808Z" fill="#282B35"/>
<path d="M169.68 125.83C169.68 125.83 159.63 138.34 155.63 142.34C155.63 142.34 167.15 153.62 170.28 156.97C170.63 157.34 169.17 140.16 169.17 140.16" stroke="#282B35" stroke-width="1.5" stroke-linecap="round" stroke-linejoin="round"/>
<path d="M193.09 90.0592C193.634 90.72 194.316 91.2533 195.088 91.6214C195.86 91.9895 196.704 92.1833 197.56 92.1892C206.56 92.1892 204.46 72.9492 204.46 72.9492" stroke="#282B35" stroke-width="1.5" stroke-linecap="round" stroke-linejoin="round"/>
<path d="M197.31 72.3301C197.986 74.3748 198.475 76.4768 198.77 78.6101C198.77 78.6101 198.77 80.3201 196.48 79.7801" stroke="#282B35" stroke-width="1.5" stroke-linecap="round" stroke-linejoin="round"/>
<path d="M277.1 36.8997L252.62 46.4397C252.325 46.5502 252.057 46.7244 251.837 46.9498C251.616 47.1753 251.448 47.4465 251.344 47.7442C251.24 48.042 251.203 48.359 251.235 48.6727C251.267 48.9864 251.368 49.2893 251.53 49.5597C255.08 55.5097 264.53 72.3897 265.61 83.8897C265.637 84.2315 265.744 84.5622 265.924 84.8542C266.103 85.1463 266.35 85.3913 266.643 85.5692C266.936 85.747 267.268 85.8526 267.61 85.877C267.952 85.9014 268.295 85.8441 268.61 85.7097C274 83.3397 285.45 78.5397 292.61 77.3097C293.156 77.2162 293.647 76.918 293.981 76.4759C294.315 76.0338 294.469 75.4809 294.41 74.9297C293.71 68.6397 290.74 49.7697 279.49 37.4297C279.192 37.1099 278.804 36.888 278.377 36.7934C277.951 36.6988 277.505 36.7358 277.1 36.8997Z" fill="#FCFAF8" stroke="#282B35" stroke-width="1.5" stroke-linecap="round" stroke-linejoin="round"/>
<path d="M267.83 66.5998C272.349 64.3172 277.028 62.3655 281.83 60.7598L267.83 66.5998Z" fill="#FCFAF8"/>
<path d="M267.83 66.5998C272.349 64.3172 277.028 62.3655 281.83 60.7598" stroke="#282B35" stroke-width="1.5" stroke-linecap="round" stroke-linejoin="round"/>
<path d="M264.39 59.5191C264.39 59.5191 274.67 54.5791 281.92 52.6191L264.39 59.5191Z" fill="#FCFAF8"/>
<path d="M264.39 59.5191C264.39 59.5191 274.67 54.5791 281.92 52.6191" stroke="#282B35" stroke-width="1.5" stroke-linecap="round" stroke-linejoin="round"/>
<path d="M260.93 52.4195C260.93 52.4195 270.69 47.5695 273.44 47.2695L260.93 52.4195Z" fill="#FCFAF8"/>
<path d="M260.93 52.4195C260.93 52.4195 270.69 47.5695 273.44 47.2695" stroke="#282B35" stroke-width="1.5" stroke-linecap="round" stroke-linejoin="round"/>
</g>
<path d="M130.193 205.934C130.731 206.083 222.842 205.934 238.691 205.934C239.295 205.931 239.875 205.658 240.306 205.173C240.737 204.687 240.986 204.028 241 203.334V192.659C240.998 191.955 240.753 191.28 240.319 190.782C239.885 190.284 239.296 190.003 238.682 190H75.8488C75.3585 190 74.8882 190.223 74.5415 190.621C74.1948 191.019 74 191.559 74 192.121V203.812C74 204.375 74.1948 204.915 74.5415 205.312C74.8882 205.71 75.3585 205.934 75.8488 205.934H85.3966" fill="#282B35"/>
<path d="M102.046 186C101.852 186 101.67 186.024 101.488 186.091C99.3651 186.875 85.1082 193.122 80.6201 220.948C76.8733 244.178 71.3912 260.467 69.0854 266.689C68.5883 268.03 69.5818 269.487 71.0122 269.487H116.566C117.517 269.487 118.332 268.832 118.522 267.901C120.049 260.377 126.547 228.14 128.188 216.094C129.916 203.419 135.577 195.189 139.894 190.592C141.272 189.125 140.174 186 138.162 186H102.046Z" fill="#FCFAF8" stroke="#282B35" stroke-width="1.5" stroke-linecap="round" stroke-linejoin="round"/>
<path d="M110.889 262.08H78.4164" stroke="#282B35" stroke-width="1.5" stroke-linecap="round" stroke-linejoin="round"/>
<path d="M114.772 251.033H82.2995" stroke="#282B35" stroke-width="1.5" stroke-linecap="round" stroke-linejoin="round"/>
<path d="M98.5308 239.994H84.377" stroke="#282B35" stroke-width="1.5" stroke-linecap="round" stroke-linejoin="round"/>
<path d="M119.461 228.947H86.9981" stroke="#282B35" stroke-width="1.5" stroke-linecap="round" stroke-linejoin="round"/>
<path d="M110.889 217.9H88.7357" stroke="#282B35" stroke-width="1.5" stroke-linecap="round" stroke-linejoin="round"/>
<path d="M124.751 206.852H92.2888" stroke="#282B35" stroke-width="1.5" stroke-linecap="round" stroke-linejoin="round"/>
<path d="M127.664 195.805H100.472" stroke="#282B35" stroke-width="1.5" stroke-linecap="round" stroke-linejoin="round"/>
<g clip-path="url(#clip3_4548:2984)">
<path d="M-24.5 180.499C-22.1 160.499 -12.8333 153.832 -8 153.999C0.799984 153.999 15.5 177.999 24.5 187.499L41 164.999L54.5 173.499C37.5 195.999 31 202.999 25.5 203.999C20.3839 204.929 13.3333 201.166 9.5 198.499L12.5 263.999L2 269.499C0.666668 268.166 -3 265.499 -7.00002 265.499C-12 265.499 -16.5 269.499 -21 269.499C-22.5 269.499 -27.1667 265.832 -28 264.499C-49 272.499 -39.5 259.499 -28 231.499C-16.5 203.499 -27.5 205.499 -24.5 180.499Z" fill="#FCFAF8"/>
<path d="M49.8606 128.544C49.8606 128.544 49.9965 113.73 49.8606 106.216C49.857 106.006 49.9021 105.797 49.9923 105.607C50.0825 105.416 50.2155 105.249 50.3808 105.119C50.5462 104.988 50.7394 104.898 50.9455 104.854C51.1516 104.81 51.3651 104.815 51.5692 104.867C55.9862 106.003 67.6355 109.061 72.6738 110.944C73.3552 111.201 73.9334 111.674 74.3193 112.292C74.7052 112.909 74.8775 113.636 74.8095 114.361L74.5862 150.591C74.5379 151.118 74.3652 151.627 74.0822 152.075C73.7992 152.522 73.414 152.897 72.9582 153.167C72.5025 153.437 71.9892 153.595 71.4605 153.628C70.9317 153.661 70.4027 153.568 69.9168 153.357L51.5497 145.649C50.9327 145.378 50.4113 144.927 50.053 144.356C49.6948 143.785 49.5161 143.12 49.5402 142.446L49.8897 133.825" fill="#FCFAF8"/>
<path d="M49.8606 128.544C49.8606 128.544 49.9965 113.73 49.8606 106.216C49.857 106.006 49.9021 105.797 49.9923 105.607C50.0825 105.416 50.2155 105.249 50.3808 105.119C50.5462 104.988 50.7394 104.898 50.9455 104.854C51.1516 104.81 51.3651 104.815 51.5692 104.867C55.9862 106.003 67.6355 109.061 72.6738 110.944C73.3552 111.201 73.9334 111.674 74.3193 112.292C74.7052 112.909 74.8775 113.636 74.8095 114.361L74.5862 150.591C74.5379 151.118 74.3652 151.627 74.0822 152.075C73.7992 152.522 73.414 152.897 72.9582 153.167C72.5025 153.437 71.9892 153.595 71.4605 153.628C70.9317 153.661 70.4027 153.568 69.9168 153.357L51.5497 145.649C50.9327 145.378 50.4113 144.927 50.053 144.356C49.6948 143.785 49.5161 143.12 49.5402 142.446L49.8897 133.825" stroke="#282B35" stroke-width="1.5" stroke-linecap="round" stroke-linejoin="round"/>
<path d="M40.705 143.917C45.8908 142.285 48.0253 134.387 45.4725 126.276C42.9198 118.165 36.6465 112.913 31.4608 114.545C26.2751 116.177 24.1406 124.075 26.6933 132.186C29.246 140.297 35.5193 145.55 40.705 143.917Z" fill="#F2E8E7" stroke="#282B35" stroke-width="1.5" stroke-miterlimit="10"/>
<path d="M40.4539 144.076L44.5991 155.696" stroke="#282B35" stroke-width="1.5" stroke-miterlimit="10"/>
<path d="M5.84576 164.725L33.639 137.543L38.4153 133.02C38.4153 133.02 42.0459 128.243 50.4528 129.214C54.5981 129.69 54.433 133.233 47.4143 133.34" stroke="#282B35" stroke-width="1.5" stroke-linecap="round" stroke-linejoin="round"/>
<path d="M-21.2291 50.2024L5.49628 47.5911C5.7132 47.5683 5.93247 47.5887 6.14144 47.6512C6.35041 47.7137 6.54494 47.817 6.71375 47.9551C6.88256 48.0932 7.0223 48.2634 7.12493 48.4559C7.22755 48.6483 7.29101 48.8592 7.31163 49.0763L10.9229 84.995C10.9471 85.2127 10.9277 85.433 10.8658 85.6431C10.804 85.8532 10.7009 86.0489 10.5627 86.2187C10.4244 86.3886 10.2537 86.5292 10.0606 86.6325C9.86744 86.7357 9.65567 86.7995 9.43762 86.82L-17.3946 89.4508C-17.8347 89.4942 -18.2742 89.3611 -18.6163 89.0808C-18.9585 88.8005 -19.1755 88.3959 -19.2196 87.9558L-22.7338 52.0372C-22.7579 51.8175 -22.7379 51.5952 -22.675 51.3833C-22.6121 51.1715 -22.5074 50.9743 -22.3673 50.8034C-22.2271 50.6325 -22.0543 50.4913 -21.8588 50.3881C-21.6634 50.2849 -21.4493 50.2218 -21.2291 50.2024Z" fill="#FCFAF8" stroke="#282B35" stroke-width="1.5" stroke-linecap="round" stroke-linejoin="round"/>
<path d="M-14.1327 267.85L-12.8028 284.256C-12.8028 284.256 -22.394 280.946 -46.2654 286.508C-50.1485 287.421 -52.2842 283.887 -55.0023 284.412C-60.3804 285.441 -60.0989 290.518 -66.6516 293.857C-70.6512 295.886 -75.9516 297.498 -76.5535 299.109C-76.6601 299.404 -76.6937 299.72 -76.6516 300.03C-76.6095 300.341 -76.4928 300.637 -76.3116 300.892C-76.1303 301.148 -75.8899 301.356 -75.6109 301.498C-75.3318 301.641 -75.0224 301.714 -74.709 301.711L-52.5074 299.167C-50.4518 298.928 -48.3781 298.882 -46.3139 299.031L-8.35663 301.711C-4.17024 301.711 -0.155317 300.048 2.8049 297.088C5.76513 294.127 7.42814 290.112 7.42814 285.926L7.71939 267.287" stroke="#282B35" stroke-width="1.5" stroke-linecap="round" stroke-linejoin="round"/>
<path d="M9.9036 207.71C9.9036 207.71 11.5927 233.29 11.3986 251.046C11.1268 276.441 21.5238 268.131 18.7182 263.608C18.7182 263.608 16.7767 259.724 6.70003 267.287C-0.260418 272.471 -2.12431 263.035 -9.50219 265.802C-15.0647 267.889 -18.511 270.976 -22.3455 269.228C-26.5587 267.287 -23.2095 262.239 -36.9071 266.724C-46.6149 269.918 -33.024 245.833 -25.5394 227.611C-23.3281 222.631 -22.0734 217.28 -21.8407 211.836C-21.5204 206.769 -22.8115 200.556 -23.6949 194.945C-24.8501 187.567 -27.2382 170.054 -14.89 157.793C-13.4644 156.351 -12.3894 154.6 -11.7481 152.676C-11.1067 150.752 -10.9163 148.707 -11.1913 146.697" stroke="#282B35" stroke-width="1.5" stroke-linecap="round" stroke-linejoin="round"/>
<path d="M-5.8909 154.436C-5.8909 154.436 0.00169604 156.61 5.84576 164.726C11.0394 171.929 24.4652 187.384 24.4652 187.384C24.4652 187.384 38.0561 170.123 40.9684 165.434C40.9684 165.434 42.8323 162.376 42.8517 160.464C42.9002 157.144 43.8225 155.552 45.0068 155.61C46.3659 155.717 46.6086 158.406 46.6086 158.406C46.6086 158.406 47.9385 157.057 49.0064 157.435C50.4723 157.901 50.2101 160.348 50.2101 160.348C50.2101 160.348 51.1809 158.212 52.7536 158.882C53.967 159.396 53.7243 161.415 53.7243 161.415C53.7243 161.415 55.0349 160.493 55.9183 160.94C57.1026 161.522 57.3356 162.881 57.0832 164.347C56.4425 167.929 52.2294 171.909 52.2294 171.909L54.8213 173.569C54.8213 173.569 38.9492 194.344 36.0951 197.373C21.6597 212.614 8.91341 200.771 -2.12429 183.064" stroke="#282B35" stroke-width="1.5" stroke-linecap="round" stroke-linejoin="round"/>
<path d="M9.23378 131.525C9.65347 133.885 10.4052 136.172 11.4665 138.321C11.6463 138.685 11.6893 139.102 11.5877 139.496C11.4862 139.89 11.2469 140.234 10.9132 140.466L9.04933 141.039C9.04933 141.039 5.35069 151.533 -1.26028 147.99" stroke="#282B35" stroke-width="1.5" stroke-linecap="round" stroke-linejoin="round"/>
<path d="M1.85587 132.01C1.85587 132.01 0.215271 120.923 -2.53202 132.311C-2.61658 132.795 -2.84841 133.241 -3.19587 133.588C-3.54333 133.936 -3.98951 134.168 -4.47357 134.252C-5.18223 134.359 -7.19176 132.796 -7.80334 134.019C-8.72558 135.854 -5.6191 139.747 -5.6191 139.747C-5.6191 139.747 -10.6574 152.862 -16.0743 145.698C-21.4912 138.533 -20.5302 129.641 -18.0159 126.282C-18.0159 126.282 -21.5495 127.253 -24.7045 123.476C-27.1994 120.516 -25.753 112.982 -18.4527 112.982C-12.4825 112.982 -12.4339 118.681 -12.4339 118.681C-9.9255 116.689 -6.82214 115.596 -3.61931 115.574C-1.06159 115.574 1.48372 115.93 3.94303 116.633C8.05911 117.846 11.0491 119.71 10.6802 123.379C10.3501 126.301 5.76809 132.67 1.85587 132.01Z" fill="#282B35"/>
<path d="M17 178.5L38.9686 154.435L35 151" stroke="#282B35" stroke-width="1.5" stroke-linecap="round" stroke-linejoin="round"/>
</g>
<defs>
<clipPath id="clip0_4548:2984">
<rect width="375" height="321" fill="white"/>
</clipPath>
<clipPath id="clip1_4548:2984">
<rect width="131.54" height="236.743" fill="white" transform="translate(255.926 68)"/>
</clipPath>
<clipPath id="clip2_4548:2984">
<rect width="160.16" height="273.73" fill="white" transform="translate(135 36)"/>
</clipPath>
<clipPath id="clip3_4548:2984">
<rect width="153.567" height="255.595" fill="white" transform="translate(-78 46.8535)"/>
</clipPath>
</defs>
</svg>
