<svg width="375" height="321" viewBox="0 0 375 321" fill="none" xmlns="http://www.w3.org/2000/svg">
<g opacity="0.6" clip-path="url(#clip0_4548:2983)">
<path d="M307.613 271.684C308.219 271.542 308.796 271.301 309.324 270.973C308.498 271.549 307.911 271.809 307.613 271.684Z" fill="#F2E8E7"/>
<path d="M376.104 187.047C371.577 193.467 360.726 213.41 361.245 215.65C361.533 216.803 360.908 217.034 359.976 216.39C359.976 216.39 346.722 230.499 346.28 230.288C345.251 229.779 344.434 229.961 344.752 230.807C344.925 232.056 316.879 265.408 309.19 270.829C308.668 271.161 308.092 271.398 307.488 271.53C307.277 271.44 307.074 271.331 306.883 271.204C307.748 259.862 306.556 236.939 305.749 236.439C304.941 236.122 305.432 235.613 306.537 235.382C306.998 235.286 307.344 220.965 307.392 220.917C308.507 220.811 308.824 220.379 307.834 219.879C305.912 218.918 300.645 202.578 299.703 196.744C299.343 194.517 299.118 192.271 299.03 190.016C299.075 189.888 299.107 189.757 299.127 189.622C302.779 184.942 311.304 174.34 317.061 167.516C324.51 158.693 328.595 148.697 342.839 132.829L348.356 121.449C351.806 122.699 349.259 113.174 356.045 114.875C358.765 115.557 365.791 109.002 365.579 105.715C365.531 105.043 368.03 102.64 371.711 99.2661C380.208 91.4617 385.581 87.0981 392.568 80.6777C395.855 77.6501 405.255 69.2883 405.12 65.2131C414.501 64.1462 436.646 38.3013 445.978 29.1993C452.274 31.1216 470.603 15.234 483.712 5.93985C486.942 3.66196 489.479 1.99923 490.69 1.58594C486.529 7.00674 479.484 24.9031 479.83 26.2583C479.881 26.374 479.906 26.4999 479.902 26.6265C479.898 26.7531 479.866 26.8773 479.808 26.9898C479.75 27.1024 479.667 27.2005 479.566 27.2768C479.465 27.3531 479.348 27.4058 479.224 27.4309C478.887 27.5188 478.533 27.5188 478.196 27.4309C477.657 27.6039 474.082 32.967 470.699 38.4551C465.201 47.3552 466.527 45.2695 464.355 48.72C464.158 49.0519 463.943 49.3728 463.711 49.6811C463.437 49.5691 463.133 49.5488 462.846 49.6234C462.366 49.7772 462.135 50.3058 462.385 51.1228C463.346 55.9285 448.285 89.5682 443.95 95.4503C439.318 101.102 438.722 102.534 437.732 109.608C437.107 114.058 433.705 121.766 430.206 129.917L423.738 136.481L423.171 136.721L422.873 136.923C421.912 137.884 421.316 137.884 420.816 137.644L420.508 137.779C420.008 137.567 419.547 137.471 418.749 138.528L418.423 138.673C418.355 138.769 418.298 138.846 418.23 138.961C413.684 146.544 398.344 157.982 395.951 164.652C394.029 169.938 393.308 170.726 388.454 173.187C386.109 174.6 380.64 180.626 376.104 187.047Z" fill="#F2E8E7"/>
<path d="M305.528 277.402C305.876 277.048 306.147 276.626 306.325 276.162C306.104 276.893 305.845 277.325 305.528 277.402Z" fill="#F2E8E7"/>
<path d="M303.817 276.788C303.567 276.336 297.147 275.212 296.887 274.722C289.679 270.973 284.19 270.973 272.08 262.842C256.241 257.979 252.338 255.71 252.444 255.662C247.36 242.572 296.147 200.118 298.992 189.969C299.08 192.223 299.305 194.47 299.665 196.697C300.626 202.464 305.883 218.88 307.796 219.831C308.757 220.331 308.469 220.792 307.354 220.869C307.354 220.869 306.96 235.286 306.498 235.334C305.393 235.565 304.903 236.074 305.71 236.392C306.518 236.891 307.709 259.814 306.844 271.156C306.612 271.012 306.391 270.851 306.181 270.675C306.142 270.652 306.106 270.623 306.076 270.589C304.576 269.272 305.239 279.633 303.817 276.788Z" fill="#EEDCDA"/>
<path d="M310.622 92.7785C307.2 92.7785 303.788 114.74 303.355 117.768C302.125 126.418 301.529 137.519 301.068 145.266C300.991 145.41 300.905 145.545 300.818 145.679C300.813 145.769 300.813 145.859 300.818 145.948C300.76 146.967 300.28 147.227 299.78 147.361L299.636 147.592C299.126 147.727 298.675 147.9 298.838 148.88C298.78 148.957 298.732 149.043 298.684 149.12C298.636 149.197 298.684 149.284 298.742 149.38C300.453 155.81 296.724 169.737 299.415 174.6C301.549 178.444 301.52 179.261 299.569 183.029C299.088 184.182 298.896 186.825 299.011 189.997C296.128 200.147 247.379 242.6 252.463 255.691C252.358 255.739 256.308 258.007 272.099 262.87C284.21 271.002 289.698 271.002 296.906 274.75C297.166 275.24 303.634 276.365 303.836 276.817C305.259 279.7 304.595 269.3 306.066 270.636C306.097 270.67 306.132 270.7 306.172 270.723C306.381 270.899 306.603 271.059 306.835 271.204C306.745 272.88 306.498 274.543 306.095 276.173C305.911 276.633 305.64 277.054 305.297 277.412C304.81 277.518 304.315 277.576 303.817 277.585H303.692C301.127 277.458 298.59 276.992 296.147 276.201L294.628 275.817C281.172 271.607 260.883 261.14 251.493 258.026C248.907 257.921 247.562 257.065 246.898 255.652C246.898 255.575 246.985 255.499 247.023 255.412C245.265 251.097 249.32 242.398 244.217 236.42C243.794 232.018 243.015 221.945 242.727 215.323C242.343 206.769 238.681 199.224 238.613 183.404L235.057 174.408C238.45 173.379 230.184 169.4 236.374 166.959C238.844 165.998 239.671 158.876 237.335 157.165C236.855 156.819 237.095 154.281 237.566 150.562C238.642 142.046 239.709 136.971 240.593 129.965C241.007 126.658 242.381 117.384 239.555 115.202C245.793 109.954 244.947 84.7338 245.745 75.0551C251.685 72.9695 254.664 55.1308 258.182 43.4914C259.201 40.1082 260.047 37.7247 260.777 37.2922C260.918 37.2526 261.064 37.2363 261.21 37.2441C266.977 37.2441 311.371 52.7183 317.686 55.9862C320.031 57.1876 320.166 57.9085 318.426 58.9945C314.822 60.9168 309.978 87.002 309.439 90.712C307.825 90.8081 312.419 92.7977 310.804 92.7977H310.651L310.622 92.7785Z" fill="#F2E8E7"/>
</g>
<g clip-path="url(#clip1_4548:2983)">
<path d="M355.5 180.499C357.9 160.499 367.167 153.832 372 153.999C380.8 153.999 395.5 177.999 404.5 187.499L421 164.999L434.5 173.499C417.5 195.999 411 202.999 405.5 203.999C400.384 204.929 393.333 201.166 389.5 198.499L392.5 263.999L382 269.499C380.667 268.166 377 265.499 373 265.499C368 265.499 363.5 269.499 359 269.499C357.5 269.499 352.833 265.832 352 264.499C331 272.499 340.5 259.499 352 231.499C363.5 203.499 352.5 205.499 355.5 180.499Z" fill="#FCFAF8"/>
<path d="M303.378 103.576L317.824 92.5282C318.027 92.3736 318.263 92.2677 318.514 92.2186C318.764 92.1695 319.023 92.1786 319.27 92.2452C319.516 92.3118 319.744 92.4341 319.936 92.6026C320.128 92.7712 320.279 92.9815 320.377 93.2175L335.152 129.272C335.294 129.603 335.325 129.972 335.239 130.322C335.153 130.673 334.956 130.986 334.676 131.214L318.377 144.804C318.166 144.98 317.915 145.1 317.647 145.155C317.378 145.21 317.1 145.199 316.837 145.121C316.574 145.043 316.335 144.902 316.139 144.71C315.944 144.517 315.799 144.28 315.717 144.018C313.688 137.485 307.844 118.885 302.835 105.498C302.703 105.162 302.685 104.792 302.783 104.445C302.881 104.098 303.09 103.793 303.378 103.576Z" fill="#FCFAF8" stroke="#282B35" stroke-width="1.5" stroke-linecap="round" stroke-linejoin="round"/>
<path d="M358.771 50.2024L385.496 47.5911C385.713 47.5683 385.932 47.5887 386.141 47.6512C386.35 47.7137 386.545 47.817 386.714 47.9551C386.883 48.0932 387.022 48.2634 387.125 48.4559C387.228 48.6483 387.291 48.8592 387.312 49.0763L390.923 84.995C390.947 85.2127 390.928 85.433 390.866 85.6431C390.804 85.8532 390.701 86.0489 390.563 86.2187C390.424 86.3886 390.254 86.5292 390.061 86.6325C389.867 86.7357 389.656 86.7995 389.438 86.82L362.605 89.4508C362.165 89.4942 361.726 89.3611 361.384 89.0808C361.042 88.8005 360.825 88.3959 360.78 87.9558L357.266 52.0372C357.242 51.8175 357.262 51.5952 357.325 51.3833C357.388 51.1715 357.493 50.9743 357.633 50.8034C357.773 50.6325 357.946 50.4913 358.141 50.3881C358.337 50.2849 358.551 50.2218 358.771 50.2024Z" fill="#FCFAF8" stroke="#282B35" stroke-width="1.5" stroke-linecap="round" stroke-linejoin="round"/>
<path d="M365.867 267.85L367.197 284.256C367.197 284.256 357.606 280.946 333.735 286.508C329.852 287.421 327.716 283.887 324.998 284.412C319.62 285.441 319.901 290.518 313.348 293.857C309.349 295.886 304.048 297.498 303.446 299.109C303.34 299.404 303.306 299.72 303.348 300.03C303.391 300.341 303.507 300.637 303.688 300.892C303.87 301.148 304.11 301.356 304.389 301.498C304.668 301.641 304.978 301.714 305.291 301.711L327.493 299.167C329.548 298.928 331.622 298.882 333.686 299.031L371.643 301.711C375.83 301.711 379.845 300.048 382.805 297.088C385.765 294.127 387.428 290.112 387.428 285.926L387.719 267.287" stroke="#282B35" stroke-width="1.5" stroke-linecap="round" stroke-linejoin="round"/>
<path d="M389.904 207.71C389.904 207.71 391.593 233.29 391.399 251.046C391.127 276.441 401.524 268.131 398.718 263.608C398.718 263.608 396.777 259.724 386.7 267.287C379.74 272.471 377.876 263.035 370.498 265.802C364.935 267.889 361.489 270.976 357.654 269.228C353.441 267.287 356.79 262.239 343.093 266.724C333.385 269.918 346.976 245.833 354.461 227.611C356.672 222.631 357.927 217.28 358.159 211.836C358.48 206.769 357.188 200.556 356.305 194.945C355.15 187.567 352.762 170.054 365.11 157.793C366.536 156.351 367.611 154.6 368.252 152.676C368.893 150.752 369.084 148.707 368.809 146.697" stroke="#282B35" stroke-width="1.5" stroke-linecap="round" stroke-linejoin="round"/>
<path d="M374.109 154.436C374.109 154.436 380.002 156.61 385.846 164.726C391.039 171.929 404.465 187.384 404.465 187.384C404.465 187.384 418.056 170.123 420.968 165.434C420.968 165.434 422.832 162.376 422.852 160.464C422.9 157.144 423.822 155.552 425.007 155.61C426.366 155.717 426.609 158.406 426.609 158.406C426.609 158.406 427.939 157.057 429.006 157.435C430.472 157.901 430.21 160.348 430.21 160.348C430.21 160.348 431.181 158.212 432.754 158.882C433.967 159.396 433.724 161.415 433.724 161.415C433.724 161.415 435.035 160.493 435.918 160.94C437.103 161.522 437.336 162.881 437.083 164.347C436.443 167.929 432.229 171.909 432.229 171.909L434.821 173.569C434.821 173.569 418.949 194.344 416.095 197.373C401.66 212.614 388.913 200.771 377.876 183.064" stroke="#282B35" stroke-width="1.5" stroke-linecap="round" stroke-linejoin="round"/>
<path d="M381.856 132.01C381.856 132.01 380.215 120.923 377.468 132.311C377.383 132.795 377.152 133.241 376.804 133.588C376.457 133.936 376.01 134.168 375.526 134.252C374.818 134.359 372.808 132.796 372.197 134.019C371.274 135.854 374.381 139.747 374.381 139.747C374.381 139.747 369.343 152.862 363.926 145.698C358.509 138.533 359.47 129.641 361.984 126.282C361.984 126.282 358.451 127.253 355.296 123.476C352.801 120.516 354.247 112.982 361.547 112.982C367.518 112.982 367.566 118.681 367.566 118.681C370.075 116.689 373.178 115.596 376.381 115.574C378.938 115.574 381.484 115.93 383.943 116.633C388.059 117.846 391.049 119.71 390.68 123.379C390.35 126.301 385.768 132.67 381.856 132.01Z" fill="#282B35"/>
</g>
<g clip-path="url(#clip2_4548:2983)">
<path d="M231 145.5C233 159.5 231.833 166.333 231 168V179.5H268.5C268.167 178.5 267.7 171.5 268.5 151.5C269.3 131.5 283.833 121.833 291 119.5H254C245.5 122.333 229 131.5 231 145.5Z" fill="#FCFAF8"/>
<path d="M257.5 119.48L254.88 119.48C253.998 119.479 253.131 119.702 252.36 120.13C247.52 122.87 230.13 130.05 231.14 152.32C231.31 156.15 232.81 161.79 231.28 168.07" stroke="#282B35" stroke-width="1.5" stroke-linecap="round" stroke-linejoin="round"/>
<path d="M270.44 140.931C273.54 127.421 285.37 121.931 290.57 120.201C290.654 120.172 290.725 120.114 290.769 120.038C290.814 119.962 290.83 119.872 290.815 119.785C290.799 119.698 290.752 119.619 290.684 119.563C290.615 119.507 290.529 119.478 290.44 119.481H280.18" stroke="#282B35" stroke-width="1.5" stroke-linecap="round" stroke-linejoin="round"/>
<path d="M252.35 178.909L266.22 179.259C266.496 179.27 266.771 179.222 267.027 179.118C267.283 179.014 267.514 178.856 267.703 178.655C267.893 178.454 268.037 178.215 268.126 177.953C268.215 177.692 268.247 177.414 268.22 177.139C267.84 173.459 267.22 165.999 267.9 161.789" stroke="#282B35" stroke-width="1.5" stroke-linecap="round" stroke-linejoin="round"/>
<path d="M262.86 167.409L246.86 159.349C246.86 159.349 241.22 167.669 238.86 168.119C230.64 169.669 226.04 165.979 221.59 163.629C214.97 160.129 206.53 159.679 199.95 161.319C199.95 161.319 187.54 167.899 179.29 157.949" stroke="#282B35" stroke-width="1.5" stroke-linecap="round" stroke-linejoin="round"/>
<path d="M246.85 159.35L249.32 160.64C249.32 160.64 252.4 155.81 251.21 151.09C250.02 146.37 252.63 147.25 254.1 151.01C254.1 151.01 256.1 155.23 258.1 149.48C260.1 143.73 261.1 140.84 262.17 141.77C263.24 142.7 260.29 151.32 260.29 151.32C260.29 151.32 264.45 141.32 266.52 141.47C268.59 141.62 263.52 152.19 263.52 152.19C263.52 152.19 268.63 143.5 269.72 144.42C270.81 145.34 264.66 155.01 264.66 155.01C264.66 155.01 269.85 149.17 270.94 150.09C272.03 151.01 265.94 161.63 259.59 165.6L262.85 167.41C262.85 167.41 251.96 184.47 235.85 184.46C228.222 184.535 220.637 183.311 213.42 180.84L215.62 184.44L234.62 225.3" stroke="#282B35" stroke-width="1.5" stroke-linecap="round" stroke-linejoin="round"/>
<path d="M197.92 152.179C207.68 155.729 207.68 142.429 207.68 142.429L208.76 142.209C209.117 142.136 209.453 141.982 209.742 141.759C210.031 141.536 210.265 141.251 210.427 140.924C210.589 140.597 210.674 140.238 210.677 139.873C210.679 139.508 210.598 139.148 210.44 138.819C209.241 136.05 208.892 132.987 209.44 130.019C209.88 127.819 210.54 125.019 211.09 122.659C211.185 122.269 211.185 121.862 211.09 121.472C210.995 121.083 210.808 120.721 210.544 120.419C210.281 120.116 209.948 119.881 209.575 119.733C209.202 119.585 208.799 119.529 208.4 119.569C204.867 119.824 201.317 119.458 197.91 118.489C186.51 115.639 182.45 126.989 183.73 135.339C184.046 137.305 184.787 139.178 185.9 140.829C186.935 142.36 187.646 144.087 187.99 145.903C188.334 147.719 188.303 149.586 187.9 151.389C186.11 160.169 176.9 162.159 176.9 162.159C166.11 165.619 165.83 173.159 165.83 173.159" stroke="#282B35" stroke-width="1.5" stroke-linecap="round" stroke-linejoin="round"/>
<path d="M227.73 210.46C227.73 210.46 249.23 183.68 256.88 183.68C264.53 183.68 291.55 209.17 299.29 216.36C309.02 225.36 319.67 219.21 323.63 220.53C327.8 221.92 305.55 237.91 302.07 237.22C298.59 236.53 295.07 231.65 295.07 231.65L290.2 235.13C287.42 233.74 260 208.5 260 208.5" stroke="#282B35" stroke-width="1.5" stroke-linecap="round" stroke-linejoin="round"/>
<path d="M234.63 237.22C234.63 237.22 254.1 224.7 262.44 201.76C262.44 201.76 266.93 194.1 271.64 206.27C276.35 218.44 285.38 250.43 288.17 252.51C290.96 254.59 304.85 256.69 305.55 259.51C306.25 262.33 279.82 266.66 277.37 263.05C274.92 259.44 274.26 253.94 274.26 253.94L267.98 257.38C267.98 257.38 255.66 226.03 253.57 218.38" stroke="#282B35" stroke-width="1.5" stroke-linecap="round" stroke-linejoin="round"/>
<path d="M223.92 201.079L243.3 193.109" stroke="#282B35" stroke-width="1.5" stroke-linecap="round" stroke-linejoin="round"/>
<path d="M250.38 230.05C250.38 230.05 251.85 268.37 251.97 286.05C251.97 286.621 251.77 287.174 251.404 287.612C251.039 288.051 250.531 288.347 249.97 288.45V288.45C249.629 288.508 249.281 288.491 248.947 288.403C248.613 288.314 248.302 288.155 248.035 287.936C247.768 287.717 247.551 287.444 247.398 287.134C247.246 286.824 247.161 286.485 247.15 286.14C246.93 279.14 246.24 260.62 244.77 251.14C244.71 250.742 244.551 250.366 244.308 250.044C244.066 249.723 243.747 249.468 243.38 249.301C243.014 249.134 242.611 249.061 242.21 249.089C241.808 249.117 241.42 249.245 241.08 249.46C239.26 250.62 236.83 252.13 234.45 253.53C233.494 254.249 232.731 255.193 232.229 256.279C231.726 257.364 231.5 258.557 231.57 259.75C232.19 270.16 233.79 298.08 233.31 299.89C232.95 301.23 232.31 302.4 231.13 302.4H229.88C229.29 302.362 228.737 302.102 228.332 301.671C227.927 301.24 227.701 300.671 227.7 300.08C227.15 289.91 224.15 249.88 210.89 252.43C200.03 254.52 192.35 253.91 188.89 253.43C188.591 253.404 188.29 253.439 188.004 253.532C187.719 253.625 187.455 253.774 187.228 253.971C187.001 254.167 186.817 254.408 186.685 254.678C186.553 254.947 186.476 255.241 186.46 255.54L180.83 300.3C180.792 300.858 180.551 301.382 180.153 301.774C179.755 302.167 179.228 302.4 178.67 302.43V302.43C178.359 302.408 178.055 302.323 177.777 302.183C177.498 302.042 177.251 301.847 177.048 301.61C176.845 301.373 176.692 301.098 176.596 300.801C176.5 300.504 176.464 300.191 176.49 299.88C176.49 299.88 180.21 235.11 175.84 223.14C162.02 185.23 155.24 172 175.84 171.08C213.12 169.42 213.57 189.31 223.41 229.03" stroke="#282B35" stroke-width="1.5" stroke-linecap="round" stroke-linejoin="round"/>
<path d="M198.98 138.841C199.23 139.291 198.55 139.771 198.34 139.491C198.34 139.491 196.34 136.571 194.65 139.941C193.77 141.711 195.54 143.481 195.54 143.481C195.54 143.481 196.82 147.541 192.32 147.611C187.82 147.681 185.98 146.841 184.85 143.841C183.72 140.841 181.17 138.301 182.41 128.591C183.65 118.881 191.13 113.891 198.81 116.071C208.71 118.891 210.49 116.131 212.06 117.171C213.46 118.101 216.06 126.881 205.84 127.411C200.17 127.661 196.29 133.841 198.98 138.841Z" fill="#282B35"/>
<path d="M283.78 123.33L292 124C292 124 283.98 126.53 279.98 132.24C277.584 135.612 275.785 139.37 274.66 143.35C273.237 149.253 272.407 155.283 272.18 161.35C272.012 165.512 272.432 169.676 273.43 173.72C273.477 173.881 273.483 174.05 273.447 174.213C273.411 174.377 273.335 174.528 273.226 174.655C273.116 174.781 272.977 174.878 272.821 174.936C272.664 174.995 272.495 175.013 272.33 174.99L268.13 174.64" stroke="#282B35" stroke-width="1.5" stroke-linecap="round" stroke-linejoin="round"/>
<path d="M292 124C292 124 296.71 123.841 294.62 129.721L284.5 128" stroke="#282B35" stroke-width="1.5" stroke-linecap="round" stroke-linejoin="round"/>
<path d="M261.04 119L268.26 113.6C269.934 112.4 271.941 111.753 274 111.75H278.5C278.909 111.759 279.306 111.893 279.636 112.134C279.967 112.376 280.215 112.713 280.348 113.1C280.481 113.487 280.492 113.905 280.38 114.298C280.268 114.692 280.037 115.042 279.72 115.3L268.18 124.3C267.093 125.144 265.745 125.579 264.37 125.53L261.94 125.45C261.609 125.441 261.289 125.329 261.024 125.129C260.76 124.93 260.564 124.652 260.465 124.336C260.366 124.02 260.368 123.681 260.471 123.366C260.574 123.051 260.773 122.776 261.04 122.58L271.34 114.9C272.006 114.407 272.812 114.141 273.64 114.14H274.43C274.574 114.136 274.715 114.178 274.833 114.26C274.951 114.341 275.041 114.458 275.088 114.594C275.136 114.729 275.14 114.876 275.099 115.014C275.058 115.152 274.974 115.273 274.86 115.36L268.18 120.5" stroke="#282B35" stroke-width="1.5" stroke-linecap="round" stroke-linejoin="round"/>
</g>
<g clip-path="url(#clip3_4548:2983)">
<path d="M-13.4765 209.004V183.764C-13.4765 182.991 -13.1697 182.251 -12.6235 181.705C-12.0773 181.158 -11.3366 180.852 -10.5642 180.852H47.1775" stroke="#282B35" stroke-width="1.5" stroke-linecap="round" stroke-linejoin="round"/>
<path d="M98 208H-13V244H98V208Z" stroke="#282B35" stroke-width="1.5" stroke-linecap="round" stroke-linejoin="round"/>
<path d="M98.6479 276.473V301.713C98.6479 302.485 98.3411 303.226 97.7949 303.772C97.2488 304.318 96.508 304.625 95.7356 304.625H-10.0788C-10.8512 304.625 -11.5919 304.318 -12.1381 303.772C-12.6843 303.226 -12.9911 302.485 -12.9911 301.713V276.473" stroke="#282B35" stroke-width="1.5" stroke-linecap="round" stroke-linejoin="round"/>
<path d="M36.5184 194.928H47.7017" stroke="#282B35" stroke-width="1.5" stroke-linecap="round" stroke-linejoin="round"/>
<path d="M36.7513 219.197H47.9347" stroke="#282B35" stroke-width="1.5" stroke-linecap="round" stroke-linejoin="round"/>
<path d="M36.9843 291.033H48.1676" stroke="#282B35" stroke-width="1.5" stroke-linecap="round" stroke-linejoin="round"/>
<path fill-rule="evenodd" clip-rule="evenodd" d="M-7.99997 243V223.419C-8.00267 223.02 -7.84466 222.636 -7.56015 222.35C-7.27565 222.064 -6.88756 221.899 -6.47996 221.892C-1.39997 221.784 15.31 221.402 26.39 221.001C26.599 220.994 26.8073 221.029 27.0024 221.103C27.1974 221.177 27.3754 221.288 27.5256 221.43C27.6758 221.573 27.7952 221.744 27.8767 221.932C27.9582 222.121 28.0001 222.323 28 222.528V242.971" fill="#FCFAF8"/>
<path d="M-7.99997 243V223.419C-8.00267 223.02 -7.84466 222.636 -7.56015 222.35C-7.27565 222.064 -6.88756 221.899 -6.47996 221.892C-1.39997 221.784 15.31 221.402 26.39 221.001C26.599 220.994 26.8073 221.029 27.0024 221.103C27.1974 221.177 27.3754 221.288 27.5256 221.43C27.6758 221.573 27.7952 221.744 27.8767 221.932C27.9582 222.121 28.0001 222.323 28 222.528V242.971" stroke="#282B35" stroke-width="1.5" stroke-linecap="round" stroke-linejoin="round"/>
<path fill-rule="evenodd" clip-rule="evenodd" d="M58 243.96V227.932C58 227.808 58.0247 227.685 58.0726 227.571C58.1206 227.456 58.1909 227.353 58.2794 227.266C58.3679 227.179 58.4728 227.111 58.588 227.065C58.7031 227.02 58.8262 226.998 58.95 227L88.1099 227.952C88.3496 227.957 88.5774 228.057 88.744 228.229C88.9107 228.402 89.0026 228.633 88.9999 228.873V244" fill="#F2E8E7"/>
<path d="M58 243.96V227.932C58 227.808 58.0247 227.685 58.0726 227.571C58.1206 227.456 58.1909 227.353 58.2794 227.266C58.3679 227.179 58.4728 227.111 58.588 227.065C58.7031 227.02 58.8262 226.998 58.95 227L88.1099 227.952C88.3495 227.957 88.5774 228.057 88.744 228.229C88.9107 228.402 89.0026 228.633 88.9999 228.873V244" stroke="#282B35" stroke-width="1.5" stroke-linecap="round" stroke-linejoin="round"/>
<path fill-rule="evenodd" clip-rule="evenodd" d="M24 244V234H60.48C60.8831 234 61.2697 234.178 61.5548 234.495C61.8399 234.811 62 235.241 62 235.689V244" fill="#F2E8E7"/>
<path d="M24 244V234H60.48C60.8831 234 61.2697 234.178 61.5548 234.495C61.8399 234.811 62 235.241 62 235.689V244" stroke="#282B35" stroke-width="1.5" stroke-linecap="round" stroke-linejoin="round"/>
<path d="M103.016 243.951H-17.3596C-18.968 243.951 -20.2719 245.255 -20.2719 246.863V273.074C-20.2719 274.683 -18.968 275.987 -17.3596 275.987H103.016C104.625 275.987 105.929 274.683 105.929 273.074V246.863C105.929 245.255 104.625 243.951 103.016 243.951Z" stroke="#282B35" stroke-width="1.5" stroke-linecap="round" stroke-linejoin="round"/>
<path d="M36.7513 259.969H47.9347" stroke="#282B35" stroke-width="1.5" stroke-linecap="round" stroke-linejoin="round"/>
<path d="M98.1625 208.034V184.832" stroke="#282B35" stroke-width="1.5" stroke-linecap="round" stroke-linejoin="round"/>
<path d="M107.637 56.7279C107.783 60.8731 108.938 74.2019 117.617 78.7839C117.708 78.8328 117.786 78.9038 117.843 78.9904C117.9 79.0769 117.934 79.1763 117.943 79.2796C117.951 79.3828 117.934 79.4865 117.892 79.5814C117.851 79.6762 117.786 79.7592 117.704 79.8227C114.578 82.2787 103.89 91.7049 90.7361 84.8027C90.7361 84.8027 84.2513 78.4247 80.0576 80.9196C79.9515 80.9936 79.8254 81.0331 79.6961 81.033C79.5668 81.0329 79.4407 80.9931 79.3348 80.919C79.2289 80.8448 79.1483 80.74 79.104 80.6186C79.0596 80.4971 79.0536 80.365 79.0868 80.2401C79.3586 78.2209 79.1451 74.9008 80.708 73.2311C82.8146 70.9789 80.5333 69.4354 79.3392 70.7265C79.2557 70.81 79.1492 70.8666 79.0333 70.8891C78.9174 70.9116 78.7974 70.8989 78.6888 70.8527C77.4074 70.3576 73.6019 68.649 71.8934 65.3193C70.5343 62.7273 69.1267 60.4654 68.2918 59.2422C67.9909 58.7957 67.4861 58.9898 67.1657 59.4267C64.3505 63.2515 61.6323 64.3971 63.1564 76.2793C63.2244 76.8036 63.0011 77.2501 62.4866 77.1919C62.4866 77.1919 59.2248 75.0465 58.2831 69.5325C56.2542 57.689 68.2821 53.0293 75.7571 53.0293C81.2905 53.0293 92.2602 58.9122 97.2791 59.5335C100.968 59.9995 104.88 57.5919 106.657 56.2717C106.746 56.2078 106.851 56.1687 106.961 56.1586C107.07 56.1484 107.18 56.1675 107.28 56.2139C107.38 56.2603 107.465 56.3324 107.528 56.4227C107.591 56.513 107.629 56.6183 107.637 56.7279Z" fill="#282B35"/>
<path d="M68.9034 68.8633C68.0686 73.358 66.7677 76.212 69.7092 76.746" stroke="#282B35" stroke-width="1.5" stroke-linecap="round" stroke-linejoin="round"/>
<path d="M99.6866 180.675C96.7743 189.412 93.794 190.674 90.2216 191.597C84.5328 193.062 77.6015 195.159 53.4487 184.403C53.4487 184.403 33.7322 176.336 35.5185 155.717" stroke="#282B35" stroke-width="1.5" stroke-linecap="round" stroke-linejoin="round"/>
<path d="M111.715 212.197C107.96 200.953 107.569 188.857 110.588 177.394C107.996 178.598 103.046 179.559 99.7255 180.307C94.3749 181.479 88.9526 182.297 83.4941 182.753C77.3101 183.339 71.0714 182.859 65.0494 181.336C37.5474 174.171 38.1201 151.145 38.1201 151.145" stroke="#282B35" stroke-width="1.5" stroke-linecap="round" stroke-linejoin="round"/>
<path d="M93.7941 166.473C93.7941 166.473 91.0953 167.366 91.6778 174.113C92.2311 180.646 90.2993 182.675 86.9792 184.956C83.6592 187.238 82.8923 191.13 88.7363 191.752" stroke="#282B35" stroke-width="1.5" stroke-linecap="round" stroke-linejoin="round"/>
<path d="M109.385 151.389L86.9404 160.368C86.8878 160.384 86.8428 160.418 86.814 160.465C86.7852 160.512 86.7746 160.567 86.7842 160.621C86.7938 160.675 86.823 160.724 86.8661 160.758C86.9092 160.792 86.9633 160.809 87.018 160.805L122.645 162.319C122.697 162.32 122.747 162.305 122.789 162.275C122.831 162.245 122.862 162.203 122.878 162.154L125.791 151.66C125.8 151.626 125.801 151.59 125.793 151.556C125.786 151.521 125.772 151.488 125.75 151.46C125.729 151.432 125.701 151.41 125.669 151.394C125.638 151.378 125.603 151.369 125.567 151.369H109.472L109.385 151.389Z" fill="#FCFAF8" stroke="#282B35" stroke-width="1.5" stroke-linejoin="round"/>
<path d="M132.178 131.322L151.536 127.06C151.667 127.032 151.803 127.039 151.931 127.078C152.06 127.118 152.175 127.19 152.268 127.288C152.36 127.385 152.426 127.504 152.46 127.634C152.493 127.764 152.492 127.901 152.458 128.031L144.352 154.552C144.319 154.663 144.262 154.764 144.184 154.85C144.107 154.936 144.012 155.003 143.905 155.047L122.548 164.221C122.435 164.269 122.312 164.289 122.189 164.279L86.7365 162.338C86.5356 162.328 86.3465 162.24 86.2089 162.094C86.0713 161.947 85.9959 161.753 85.9987 161.551C85.9986 161.446 86.0199 161.341 86.0612 161.244C86.1025 161.146 86.1631 161.058 86.2392 160.985C86.3153 160.911 86.4055 160.854 86.5043 160.816C86.6031 160.779 86.7085 160.761 86.8141 160.765L122.869 162.299C122.772 162.299 130.528 135.632 131.606 131.836C131.648 131.708 131.723 131.593 131.824 131.503C131.924 131.413 132.046 131.35 132.178 131.322Z" fill="#282B35"/>
<path d="M125.917 160.377C125.917 160.377 129.917 160.639 129.917 172.997C129.917 185.355 120.714 231.904 120.714 231.904" stroke="#282B35" stroke-width="1.5" stroke-linecap="round" stroke-linejoin="round"/>
<path d="M134.13 156.854C134.13 156.854 137.935 159.911 143.76 170.105C149.584 180.298 160.574 206.363 160.574 206.363C160.574 206.363 178.504 209.052 179.931 213.09C181.183 216.614 151.429 218.469 149.05 216.673C146.672 214.877 149.138 211.867 145.216 207.101C138.265 198.636 128.713 186.2 128.713 186.2" stroke="#282B35" stroke-width="1.5" stroke-linecap="round" stroke-linejoin="round"/>
<path d="M85.7657 115.41C85.7657 115.41 93.5319 129.341 79.6984 130.069C79.6984 130.069 76.3298 147.436 90.6293 150.562C93.8426 151.261 101.007 151.261 101.007 151.261" stroke="#282B35" stroke-width="1.5" stroke-linecap="round" stroke-linejoin="round"/>
<path d="M57.0114 109.772L80.31 107.83C80.5897 107.808 80.8707 107.847 81.1339 107.944C81.3971 108.042 81.6361 108.195 81.8344 108.393C82.0328 108.591 82.1858 108.83 82.2829 109.093C82.3801 109.357 82.4191 109.638 82.3972 109.917C81.8729 116.111 80.8439 133.439 84.5037 143.118C84.6213 143.402 84.6699 143.709 84.6454 144.015C84.621 144.322 84.5242 144.618 84.3632 144.879C84.2021 145.141 83.9812 145.36 83.7188 145.52C83.4563 145.679 83.1597 145.774 82.8534 145.797C77.6112 145.991 66.5735 146.613 60.3897 148.418C59.9146 148.556 59.4049 148.507 58.9647 148.281C58.5245 148.056 58.187 147.671 58.021 147.205C56.128 141.865 51.1479 125.498 55.3514 111.131C55.4639 110.766 55.6814 110.443 55.9766 110.201C56.2719 109.959 56.6318 109.81 57.0114 109.772Z" fill="#F2E8E7" stroke="#282B35" stroke-width="1.5" stroke-linecap="round" stroke-linejoin="round"/>
<path d="M49.8471 145.854C56.3998 153.145 66.1561 155.902 66.1561 155.902C70.5246 150.805 71.4565 155.154 76.5919 152.582C77.5627 152.077 78.582 151.679 79.1451 152.261C79.4751 152.611 79.8537 153.368 78.1743 154.378C78.1743 154.378 75.9998 155.756 74.6795 155.717C73.3592 155.678 74.4271 157.921 78.6403 156.329C80.4168 155.659 81.0769 154.135 83.0281 153.921C84.2319 153.795 85.7172 154.824 81.0866 157.727C70.4857 164.406 50.4975 162.823 38.1104 151.164C25.7234 139.505 32.7809 96.3447 50.4975 95.8302C67.8647 95.2963 67.6802 86.6855 67.6802 86.6855" stroke="#282B35" stroke-width="1.5" stroke-linecap="round" stroke-linejoin="round"/>
<path d="M59.2733 116.722C63.7845 116.792 68.2946 116.529 72.7671 115.936L59.2733 116.722Z" fill="#FCFAF8"/>
<path d="M59.2733 116.722C63.7845 116.792 68.2946 116.529 72.7671 115.936" stroke="#282B35" stroke-width="1.5" stroke-linecap="round" stroke-linejoin="round"/>
<path d="M59.2733 123.779C59.2733 123.779 69.4373 123.731 76.0095 122.469L59.2733 123.779Z" fill="#FCFAF8"/>
<path d="M59.2733 123.779C59.2733 123.779 69.4373 123.731 76.0095 122.469" stroke="#282B35" stroke-width="1.5" stroke-linecap="round" stroke-linejoin="round"/>
<path d="M59.2733 130.867C59.2733 130.867 68.9811 130.935 71.3012 130.109L59.2733 130.867Z" fill="#FCFAF8"/>
<path d="M59.2733 130.867C59.2733 130.867 68.9811 130.935 71.3012 130.109" stroke="#282B35" stroke-width="1.5" stroke-linecap="round" stroke-linejoin="round"/>
<path d="M63.3117 93.5195C63.3117 93.5195 64.9329 99.0724 70.1071 98.9753C71.657 98.9038 73.1698 98.4782 74.5296 97.731C75.8893 96.9838 77.0597 95.935 77.951 94.6651" stroke="#282B35" stroke-width="1.5" stroke-linecap="round" stroke-linejoin="round"/>
<path d="M47.1775 119.857C47.1775 119.857 44.4884 129.565 47.1775 137.7" stroke="#282B35" stroke-width="1.5" stroke-linecap="round" stroke-linejoin="round"/>
<path d="M64.4087 81.4336C64.4087 81.4336 69.0781 93.0829 76.6696 83.4528" stroke="#282B35" stroke-width="1.5" stroke-linecap="round" stroke-linejoin="round"/>
<path d="M80.9701 114.858C82.1642 115.693 84.1155 113.101 84.1155 113.101C84.1155 113.101 82.8534 115.47 84.1155 116.081C85.9793 116.955 89.5518 109.665 90.775 113.567C90.775 113.567 97.5704 144.467 104.172 144.467C110.773 144.467 109.996 129.478 104.172 120.576C98.347 111.674 91.7846 101.025 85.2318 103.442C78.6791 105.859 73.932 110.004 75.029 111.684C75.8348 112.907 79.3101 109.665 79.3101 109.665C79.3101 109.665 76.6502 112.198 78.3394 113.218C79.4266 113.858 81.6885 111.587 81.6885 111.587C81.6885 111.587 79.5819 113.878 80.9701 114.858Z" fill="#FCFAF8" stroke="#282B35" stroke-width="1.5" stroke-linecap="round" stroke-linejoin="round"/>
<path d="M82.7661 107.256C81.5384 107.92 80.3945 108.728 79.3586 109.663L82.7661 107.256Z" fill="#FCFAF8"/>
<path d="M82.7661 107.256C81.5384 107.92 80.3945 108.728 79.3586 109.663" stroke="#282B35" stroke-width="1.5" stroke-linecap="round" stroke-linejoin="round"/>
<path d="M83.9795 109.664C83.1193 110.149 82.3715 110.811 81.7856 111.606L83.9795 109.664Z" fill="#FCFAF8"/>
<path d="M83.9795 109.664C83.1193 110.149 82.3715 110.811 81.7856 111.606" stroke="#282B35" stroke-width="1.5" stroke-linecap="round" stroke-linejoin="round"/>
<path d="M85.1833 111.906C84.7563 112.235 84.3942 112.639 84.1154 113.1L85.1833 111.906Z" fill="#FCFAF8"/>
<path d="M85.1833 111.906C84.7563 112.235 84.3942 112.639 84.1154 113.1" stroke="#282B35" stroke-width="1.5" stroke-linecap="round" stroke-linejoin="round"/>
</g>
<defs>
<clipPath id="clip0_4548:2983">
<rect width="140" height="321" fill="white" transform="translate(234)"/>
</clipPath>
<clipPath id="clip1_4548:2983">
<rect width="153.567" height="255.595" fill="white" transform="translate(302 46.8535)"/>
</clipPath>
<clipPath id="clip2_4548:2983">
<rect width="162.9" height="192.13" fill="white" transform="translate(162 111)"/>
</clipPath>
<clipPath id="clip3_4548:2983">
<rect width="201.698" height="252.353" fill="white" transform="translate(-21 53)"/>
</clipPath>
</defs>
</svg>
