<svg width="375" height="321" viewBox="0 0 375 321" fill="none" xmlns="http://www.w3.org/2000/svg">
<g opacity="0.6" clip-path="url(#clip0_4804_4426)">
<path d="M308.613 271.684C309.219 271.542 309.796 271.301 310.324 270.973C309.498 271.549 308.911 271.809 308.613 271.684Z" fill="#F2E8E7"/>
<path d="M377.104 187.047C372.577 193.467 361.726 213.41 362.245 215.65C362.533 216.803 361.908 217.034 360.976 216.39C360.976 216.39 347.722 230.499 347.28 230.288C346.251 229.779 345.434 229.961 345.752 230.807C345.925 232.056 317.879 265.408 310.19 270.829C309.668 271.161 309.092 271.398 308.488 271.53C308.277 271.44 308.074 271.331 307.883 271.204C308.748 259.862 307.556 236.939 306.749 236.439C305.941 236.122 306.432 235.613 307.537 235.382C307.998 235.286 308.344 220.965 308.392 220.917C309.507 220.811 309.824 220.379 308.834 219.879C306.912 218.918 301.645 202.578 300.703 196.744C300.343 194.517 300.118 192.271 300.03 190.016C300.075 189.888 300.107 189.757 300.127 189.622C303.779 184.942 312.304 174.34 318.061 167.516C325.51 158.693 329.595 148.697 343.839 132.829L349.356 121.449C352.806 122.699 350.259 113.174 357.045 114.875C359.765 115.557 366.791 109.002 366.579 105.715C366.531 105.043 369.03 102.64 372.711 99.2661C381.208 91.4617 386.581 87.0981 393.568 80.6777C396.855 77.6501 406.255 69.2883 406.12 65.2131C415.501 64.1462 437.646 38.3013 446.978 29.1993C453.274 31.1216 471.603 15.234 484.712 5.93985C487.942 3.66196 490.479 1.99923 491.69 1.58594C487.529 7.00674 480.484 24.9031 480.83 26.2583C480.881 26.374 480.906 26.4999 480.902 26.6265C480.898 26.7531 480.866 26.8773 480.808 26.9898C480.75 27.1024 480.667 27.2005 480.566 27.2768C480.465 27.3531 480.348 27.4058 480.224 27.4309C479.887 27.5188 479.533 27.5188 479.196 27.4309C478.657 27.6039 475.082 32.967 471.699 38.4551C466.201 47.3552 467.527 45.2695 465.355 48.72C465.158 49.0519 464.943 49.3728 464.711 49.6811C464.437 49.5691 464.133 49.5488 463.846 49.6234C463.366 49.7772 463.135 50.3058 463.385 51.1228C464.346 55.9285 449.285 89.5682 444.95 95.4503C440.318 101.102 439.722 102.534 438.732 109.608C438.107 114.058 434.705 121.766 431.206 129.917L424.738 136.481L424.171 136.721L423.873 136.923C422.912 137.884 422.316 137.884 421.816 137.644L421.508 137.779C421.008 137.567 420.547 137.471 419.749 138.528L419.423 138.673C419.355 138.769 419.298 138.846 419.23 138.961C414.684 146.544 399.344 157.982 396.951 164.652C395.029 169.938 394.308 170.726 389.454 173.187C387.109 174.6 381.64 180.626 377.104 187.047Z" fill="#F2E8E7"/>
<path d="M306.528 277.402C306.876 277.048 307.147 276.626 307.325 276.162C307.104 276.893 306.845 277.325 306.528 277.402Z" fill="#F2E8E7"/>
<path d="M304.817 276.788C304.567 276.336 298.147 275.212 297.887 274.722C290.679 270.973 285.19 270.973 273.08 262.842C257.241 257.979 253.338 255.71 253.444 255.662C248.36 242.572 297.147 200.118 299.992 189.969C300.08 192.223 300.305 194.47 300.665 196.697C301.626 202.464 306.883 218.88 308.796 219.831C309.757 220.331 309.469 220.792 308.354 220.869C308.354 220.869 307.96 235.286 307.498 235.334C306.393 235.565 305.903 236.074 306.71 236.392C307.518 236.891 308.709 259.814 307.844 271.156C307.612 271.012 307.391 270.851 307.181 270.675C307.142 270.652 307.106 270.623 307.076 270.589C305.576 269.272 306.239 279.633 304.817 276.788Z" fill="#EEDCDA"/>
<path d="M311.622 92.7785C308.2 92.7785 304.788 114.74 304.355 117.768C303.125 126.418 302.529 137.519 302.068 145.266C301.991 145.41 301.905 145.545 301.818 145.679C301.813 145.769 301.813 145.859 301.818 145.948C301.76 146.967 301.28 147.227 300.78 147.361L300.636 147.592C300.126 147.727 299.675 147.9 299.838 148.88C299.78 148.957 299.732 149.043 299.684 149.12C299.636 149.197 299.684 149.284 299.742 149.38C301.453 155.81 297.724 169.737 300.415 174.6C302.549 178.444 302.52 179.261 300.569 183.029C300.088 184.182 299.896 186.825 300.011 189.997C297.128 200.147 248.379 242.6 253.463 255.691C253.358 255.739 257.308 258.007 273.099 262.87C285.21 271.002 290.698 271.002 297.906 274.75C298.166 275.24 304.634 276.365 304.836 276.817C306.259 279.7 305.595 269.3 307.066 270.636C307.097 270.67 307.132 270.7 307.172 270.723C307.381 270.899 307.603 271.059 307.835 271.204C307.745 272.88 307.498 274.543 307.095 276.173C306.911 276.633 306.64 277.054 306.297 277.412C305.81 277.518 305.315 277.576 304.817 277.585H304.692C302.127 277.458 299.59 276.992 297.147 276.201L295.628 275.817C282.172 271.607 261.883 261.14 252.493 258.026C249.907 257.921 248.562 257.065 247.898 255.652C247.898 255.575 247.985 255.499 248.023 255.412C246.265 251.097 250.32 242.398 245.217 236.42C244.794 232.018 244.015 221.945 243.727 215.323C243.343 206.769 239.681 199.224 239.613 183.404L236.057 174.408C239.45 173.379 231.184 169.4 237.374 166.959C239.844 165.998 240.671 158.876 238.335 157.165C237.855 156.819 238.095 154.281 238.566 150.562C239.642 142.046 240.709 136.971 241.593 129.965C242.007 126.658 243.381 117.384 240.555 115.202C246.793 109.954 245.947 84.7338 246.745 75.0551C252.685 72.9695 255.664 55.1308 259.182 43.4914C260.201 40.1082 261.047 37.7247 261.777 37.2922C261.918 37.2526 262.064 37.2363 262.21 37.2441C267.977 37.2441 312.371 52.7183 318.686 55.9862C321.031 57.1876 321.166 57.9085 319.426 58.9945C315.822 60.9168 310.978 87.002 310.439 90.712C308.825 90.8081 313.419 92.7977 311.804 92.7977H311.651L311.622 92.7785Z" fill="#F2E8E7"/>
</g>
<g clip-path="url(#clip1_4804_4426)">
<path d="M356.5 180.499C358.9 160.499 368.167 153.832 373 153.999C381.8 153.999 396.5 177.999 405.5 187.499L422 164.999L435.5 173.499C418.5 195.999 412 202.999 406.5 203.999C401.384 204.929 394.333 201.166 390.5 198.499L393.5 263.999L383 269.499C381.667 268.166 378 265.499 374 265.499C369 265.499 364.5 269.499 360 269.499C358.5 269.499 353.833 265.832 353 264.499C332 272.499 341.5 259.499 353 231.499C364.5 203.499 353.5 205.499 356.5 180.499Z" fill="#F8F8F7"/>
<path d="M304.378 103.576L318.824 92.5282C319.027 92.3736 319.263 92.2677 319.514 92.2186C319.764 92.1695 320.023 92.1786 320.27 92.2452C320.516 92.3118 320.744 92.4341 320.936 92.6026C321.128 92.7712 321.279 92.9815 321.377 93.2175L336.152 129.272C336.294 129.603 336.325 129.972 336.239 130.322C336.153 130.673 335.956 130.986 335.676 131.214L319.377 144.804C319.166 144.98 318.915 145.1 318.647 145.155C318.378 145.21 318.1 145.199 317.837 145.121C317.574 145.043 317.335 144.902 317.139 144.71C316.944 144.517 316.799 144.28 316.717 144.018C314.688 137.485 308.844 118.885 303.835 105.498C303.703 105.162 303.685 104.792 303.783 104.445C303.881 104.098 304.09 103.793 304.378 103.576Z" fill="#F8F8F7" stroke="#252525" stroke-width="1.5" stroke-linecap="round" stroke-linejoin="round"/>
<path d="M359.771 50.2024L386.496 47.5911C386.713 47.5683 386.933 47.5887 387.142 47.6512C387.35 47.7137 387.545 47.817 387.714 47.9551C387.883 48.0932 388.022 48.2634 388.125 48.4559C388.228 48.6483 388.291 48.8592 388.312 49.0763L391.923 84.995C391.947 85.2127 391.928 85.433 391.866 85.6431C391.804 85.8532 391.701 86.0489 391.563 86.2187C391.424 86.3886 391.254 86.5292 391.061 86.6325C390.868 86.7357 390.656 86.7995 390.438 86.82L363.606 89.4508C363.165 89.4942 362.726 89.3611 362.384 89.0808C362.042 88.8005 361.825 88.3959 361.78 87.9558L358.266 52.0372C358.242 51.8175 358.262 51.5952 358.325 51.3833C358.388 51.1715 358.493 50.9743 358.633 50.8034C358.773 50.6325 358.946 50.4913 359.141 50.3881C359.337 50.2849 359.551 50.2218 359.771 50.2024Z" fill="#F8F8F7" stroke="#252525" stroke-width="1.5" stroke-linecap="round" stroke-linejoin="round"/>
<path d="M366.867 267.85L368.197 284.256C368.197 284.256 358.606 280.946 334.735 286.508C330.852 287.421 328.716 283.887 325.998 284.412C320.62 285.441 320.901 290.518 314.348 293.857C310.349 295.886 305.048 297.498 304.447 299.109C304.34 299.404 304.306 299.72 304.348 300.03C304.391 300.341 304.507 300.637 304.688 300.892C304.87 301.148 305.11 301.356 305.389 301.498C305.668 301.641 305.978 301.714 306.291 301.711L328.493 299.167C330.548 298.928 332.622 298.882 334.686 299.031L372.643 301.711C376.83 301.711 380.845 300.048 383.805 297.088C386.765 294.127 388.428 290.112 388.428 285.926L388.719 267.287" stroke="#252525" stroke-width="1.5" stroke-linecap="round" stroke-linejoin="round"/>
<path d="M390.904 207.71C390.904 207.71 392.593 233.29 392.399 251.046C392.127 276.441 402.524 268.131 399.718 263.608C399.718 263.608 397.777 259.724 387.7 267.287C380.74 272.471 378.876 263.035 371.498 265.802C365.935 267.889 362.489 270.976 358.655 269.228C354.441 267.287 357.791 262.239 344.093 266.724C334.385 269.918 347.976 245.833 355.461 227.611C357.672 222.631 358.927 217.28 359.159 211.836C359.48 206.769 358.189 200.556 357.305 194.945C356.15 187.567 353.762 170.054 366.11 157.793C367.536 156.351 368.611 154.6 369.252 152.676C369.893 150.752 370.084 148.707 369.809 146.697" stroke="#252525" stroke-width="1.5" stroke-linecap="round" stroke-linejoin="round"/>
<path d="M375.109 154.436C375.109 154.436 381.002 156.61 386.846 164.726C392.039 171.929 405.465 187.384 405.465 187.384C405.465 187.384 419.056 170.123 421.968 165.434C421.968 165.434 423.832 162.376 423.852 160.464C423.9 157.144 424.822 155.552 426.007 155.61C427.366 155.717 427.609 158.406 427.609 158.406C427.609 158.406 428.939 157.057 430.006 157.435C431.472 157.901 431.21 160.348 431.21 160.348C431.21 160.348 432.181 158.212 433.754 158.882C434.967 159.396 434.724 161.415 434.724 161.415C434.724 161.415 436.035 160.493 436.918 160.94C438.103 161.522 438.336 162.881 438.083 164.347C437.443 167.929 433.229 171.909 433.229 171.909L435.821 173.569C435.821 173.569 419.949 194.344 417.095 197.373C402.66 212.614 389.913 200.771 378.876 183.064" stroke="#252525" stroke-width="1.5" stroke-linecap="round" stroke-linejoin="round"/>
<path d="M382.856 132.01C382.856 132.01 381.215 120.923 378.468 132.311C378.383 132.795 378.152 133.241 377.804 133.588C377.457 133.936 377.01 134.168 376.526 134.252C375.818 134.359 373.808 132.796 373.197 134.019C372.274 135.854 375.381 139.747 375.381 139.747C375.381 139.747 370.343 152.862 364.926 145.698C359.509 138.533 360.47 129.641 362.984 126.282C362.984 126.282 359.45 127.253 356.295 123.476C353.801 120.516 355.247 112.982 362.547 112.982C368.517 112.982 368.566 118.681 368.566 118.681C371.074 116.689 374.178 115.596 377.381 115.574C379.938 115.574 382.484 115.93 384.943 116.633C389.059 117.846 392.049 119.71 391.68 123.379C391.35 126.301 386.768 132.67 382.856 132.01Z" fill="#252525"/>
</g>
<g clip-path="url(#clip2_4804_4426)">
<path d="M232 145.5C234 159.5 232.833 166.333 232 168V179.5H269.5C269.167 178.5 268.7 171.5 269.5 151.5C270.3 131.5 284.833 121.833 292 119.5H255C246.5 122.333 230 131.5 232 145.5Z" fill="#F8F8F7"/>
<path d="M258.5 119.48L255.88 119.48C254.998 119.479 254.131 119.702 253.36 120.13C248.52 122.87 231.13 130.05 232.14 152.32C232.31 156.15 233.81 161.79 232.28 168.07" stroke="#252525" stroke-width="1.5" stroke-linecap="round" stroke-linejoin="round"/>
<path d="M271.44 140.931C274.54 127.421 286.37 121.931 291.57 120.201C291.654 120.172 291.725 120.114 291.769 120.038C291.814 119.962 291.83 119.872 291.815 119.785C291.799 119.698 291.752 119.619 291.684 119.563C291.615 119.507 291.529 119.478 291.44 119.481H281.18" stroke="#252525" stroke-width="1.5" stroke-linecap="round" stroke-linejoin="round"/>
<path d="M253.35 178.909L267.22 179.259C267.496 179.27 267.771 179.222 268.027 179.118C268.283 179.014 268.514 178.856 268.703 178.655C268.893 178.454 269.037 178.215 269.126 177.953C269.215 177.692 269.247 177.414 269.22 177.139C268.84 173.459 268.22 165.999 268.9 161.789" stroke="#252525" stroke-width="1.5" stroke-linecap="round" stroke-linejoin="round"/>
<path d="M263.86 167.409L247.86 159.349C247.86 159.349 242.22 167.669 239.86 168.119C231.64 169.669 227.04 165.979 222.59 163.629C215.97 160.129 207.53 159.679 200.95 161.319C200.95 161.319 188.54 167.899 180.29 157.949" stroke="#252525" stroke-width="1.5" stroke-linecap="round" stroke-linejoin="round"/>
<path d="M247.85 159.35L250.32 160.64C250.32 160.64 253.4 155.81 252.21 151.09C251.02 146.37 253.63 147.25 255.1 151.01C255.1 151.01 257.1 155.23 259.1 149.48C261.1 143.73 262.1 140.84 263.17 141.77C264.24 142.7 261.29 151.32 261.29 151.32C261.29 151.32 265.45 141.32 267.52 141.47C269.59 141.62 264.52 152.19 264.52 152.19C264.52 152.19 269.63 143.5 270.72 144.42C271.81 145.34 265.66 155.01 265.66 155.01C265.66 155.01 270.85 149.17 271.94 150.09C273.03 151.01 266.94 161.63 260.59 165.6L263.85 167.41C263.85 167.41 252.96 184.47 236.85 184.46C229.222 184.535 221.637 183.311 214.42 180.84L216.62 184.44L235.62 225.3" stroke="#252525" stroke-width="1.5" stroke-linecap="round" stroke-linejoin="round"/>
<path d="M198.92 152.179C208.68 155.729 208.68 142.429 208.68 142.429L209.76 142.209C210.117 142.136 210.453 141.982 210.742 141.759C211.031 141.536 211.265 141.251 211.427 140.924C211.589 140.597 211.674 140.238 211.677 139.873C211.679 139.508 211.598 139.148 211.44 138.819C210.241 136.05 209.892 132.987 210.44 130.019C210.88 127.819 211.54 125.019 212.09 122.659C212.185 122.269 212.185 121.862 212.09 121.472C211.995 121.083 211.808 120.721 211.544 120.419C211.281 120.116 210.948 119.881 210.575 119.733C210.202 119.585 209.799 119.529 209.4 119.569C205.867 119.824 202.317 119.458 198.91 118.489C187.51 115.639 183.45 126.989 184.73 135.339C185.046 137.305 185.787 139.178 186.9 140.829C187.935 142.36 188.646 144.087 188.99 145.903C189.334 147.719 189.303 149.586 188.9 151.389C187.11 160.169 177.9 162.159 177.9 162.159C167.11 165.619 166.83 173.159 166.83 173.159" stroke="#252525" stroke-width="1.5" stroke-linecap="round" stroke-linejoin="round"/>
<path d="M228.73 210.46C228.73 210.46 250.23 183.68 257.88 183.68C265.53 183.68 292.55 209.17 300.29 216.36C310.02 225.36 320.67 219.21 324.63 220.53C328.8 221.92 306.55 237.91 303.07 237.22C299.59 236.53 296.07 231.65 296.07 231.65L291.2 235.13C288.42 233.74 261 208.5 261 208.5" stroke="#252525" stroke-width="1.5" stroke-linecap="round" stroke-linejoin="round"/>
<path d="M235.63 237.22C235.63 237.22 255.1 224.7 263.44 201.76C263.44 201.76 267.93 194.1 272.64 206.27C277.35 218.44 286.38 250.43 289.17 252.51C291.96 254.59 305.85 256.69 306.55 259.51C307.25 262.33 280.82 266.66 278.37 263.05C275.92 259.44 275.26 253.94 275.26 253.94L268.98 257.38C268.98 257.38 256.66 226.03 254.57 218.38" stroke="#252525" stroke-width="1.5" stroke-linecap="round" stroke-linejoin="round"/>
<path d="M224.92 201.079L244.3 193.109" stroke="#252525" stroke-width="1.5" stroke-linecap="round" stroke-linejoin="round"/>
<path d="M251.38 230.05C251.38 230.05 252.85 268.37 252.97 286.05C252.97 286.621 252.77 287.174 252.404 287.612C252.039 288.051 251.531 288.347 250.97 288.45V288.45C250.629 288.508 250.281 288.491 249.947 288.403C249.613 288.314 249.302 288.155 249.035 287.936C248.768 287.717 248.551 287.444 248.398 287.134C248.246 286.824 248.161 286.485 248.15 286.14C247.93 279.14 247.24 260.62 245.77 251.14C245.71 250.742 245.551 250.366 245.308 250.044C245.066 249.723 244.747 249.468 244.38 249.301C244.014 249.134 243.611 249.061 243.21 249.089C242.808 249.117 242.42 249.245 242.08 249.46C240.26 250.62 237.83 252.13 235.45 253.53C234.494 254.249 233.731 255.193 233.229 256.279C232.726 257.364 232.5 258.557 232.57 259.75C233.19 270.16 234.79 298.08 234.31 299.89C233.95 301.23 233.31 302.4 232.13 302.4H230.88C230.29 302.362 229.737 302.102 229.332 301.671C228.927 301.24 228.701 300.671 228.7 300.08C228.15 289.91 225.15 249.88 211.89 252.43C201.03 254.52 193.35 253.91 189.89 253.43C189.591 253.404 189.29 253.439 189.004 253.532C188.719 253.625 188.455 253.774 188.228 253.971C188.001 254.167 187.817 254.408 187.685 254.678C187.553 254.947 187.476 255.241 187.46 255.54L181.83 300.3C181.792 300.858 181.551 301.382 181.153 301.774C180.755 302.167 180.228 302.4 179.67 302.43V302.43C179.359 302.408 179.055 302.323 178.777 302.183C178.498 302.042 178.251 301.847 178.048 301.61C177.845 301.373 177.692 301.098 177.596 300.801C177.5 300.504 177.464 300.191 177.49 299.88C177.49 299.88 181.21 235.11 176.84 223.14C163.02 185.23 156.24 172 176.84 171.08C214.12 169.42 214.57 189.31 224.41 229.03" stroke="#252525" stroke-width="1.5" stroke-linecap="round" stroke-linejoin="round"/>
<path d="M199.98 138.841C200.23 139.291 199.55 139.771 199.34 139.491C199.34 139.491 197.34 136.571 195.65 139.941C194.77 141.711 196.54 143.481 196.54 143.481C196.54 143.481 197.82 147.541 193.32 147.611C188.82 147.681 186.98 146.841 185.85 143.841C184.72 140.841 182.17 138.301 183.41 128.591C184.65 118.881 192.13 113.891 199.81 116.071C209.71 118.891 211.49 116.131 213.06 117.171C214.46 118.101 217.06 126.881 206.84 127.411C201.17 127.661 197.29 133.841 199.98 138.841Z" fill="#252525"/>
<path d="M284.78 123.33L293 124C293 124 284.98 126.53 280.98 132.24C278.584 135.612 276.785 139.37 275.66 143.35C274.237 149.253 273.407 155.283 273.18 161.35C273.012 165.512 273.432 169.676 274.43 173.72C274.477 173.881 274.483 174.05 274.447 174.213C274.411 174.377 274.335 174.528 274.226 174.655C274.116 174.781 273.977 174.878 273.821 174.936C273.664 174.995 273.495 175.013 273.33 174.99L269.13 174.64" stroke="#252525" stroke-width="1.5" stroke-linecap="round" stroke-linejoin="round"/>
<path d="M293 124C293 124 297.71 123.841 295.62 129.721L285.5 128" stroke="#252525" stroke-width="1.5" stroke-linecap="round" stroke-linejoin="round"/>
<path d="M262.04 119L269.26 113.6C270.934 112.4 272.941 111.753 275 111.75H279.5C279.909 111.759 280.306 111.893 280.636 112.134C280.967 112.376 281.215 112.713 281.348 113.1C281.481 113.487 281.492 113.905 281.38 114.298C281.268 114.692 281.037 115.042 280.72 115.3L269.18 124.3C268.093 125.144 266.745 125.579 265.37 125.53L262.94 125.45C262.609 125.441 262.289 125.329 262.024 125.129C261.76 124.93 261.564 124.652 261.465 124.336C261.366 124.02 261.368 123.681 261.471 123.366C261.574 123.051 261.773 122.776 262.04 122.58L272.34 114.9C273.006 114.407 273.812 114.141 274.64 114.14H275.43C275.574 114.136 275.715 114.178 275.833 114.26C275.951 114.341 276.041 114.458 276.088 114.594C276.136 114.729 276.14 114.876 276.099 115.014C276.058 115.152 275.974 115.273 275.86 115.36L269.18 120.5" stroke="#252525" stroke-width="1.5" stroke-linecap="round" stroke-linejoin="round"/>
</g>
<g clip-path="url(#clip3_4804_4426)">
<path d="M-12.4766 209.004V183.764C-12.4766 182.991 -12.1697 182.251 -11.6236 181.705C-11.0774 181.158 -10.3366 180.852 -9.56424 180.852H48.1774" stroke="#252525" stroke-width="1.5" stroke-linecap="round" stroke-linejoin="round"/>
<path d="M99 208H-12V244H99V208Z" stroke="#252525" stroke-width="1.5" stroke-linecap="round" stroke-linejoin="round"/>
<path d="M99.6478 276.473V301.713C99.6478 302.485 99.341 303.226 98.7948 303.772C98.2487 304.318 97.5079 304.625 96.7355 304.625H-9.07889C-9.85128 304.625 -10.592 304.318 -11.1382 303.772C-11.6844 303.226 -11.9912 302.485 -11.9912 301.713V276.473" stroke="#252525" stroke-width="1.5" stroke-linecap="round" stroke-linejoin="round"/>
<path d="M37.5183 194.928H48.7016" stroke="#252525" stroke-width="1.5" stroke-linecap="round" stroke-linejoin="round"/>
<path d="M37.7515 219.197H48.9348" stroke="#252525" stroke-width="1.5" stroke-linecap="round" stroke-linejoin="round"/>
<path d="M37.9844 291.033H49.1677" stroke="#252525" stroke-width="1.5" stroke-linecap="round" stroke-linejoin="round"/>
<path fill-rule="evenodd" clip-rule="evenodd" d="M-6.99997 243V223.419C-7.00267 223.02 -6.84466 222.636 -6.56015 222.35C-6.27565 222.064 -5.88756 221.899 -5.47996 221.892C-0.399968 221.784 16.31 221.402 27.39 221.001C27.599 220.994 27.8073 221.029 28.0024 221.103C28.1974 221.177 28.3754 221.288 28.5256 221.43C28.6758 221.573 28.7952 221.744 28.8767 221.932C28.9582 222.121 29.0001 222.323 29 222.528V242.971" fill="#F8F8F7"/>
<path d="M-6.99997 243V223.419C-7.00267 223.02 -6.84466 222.636 -6.56015 222.35C-6.27565 222.064 -5.88756 221.899 -5.47996 221.892C-0.399968 221.784 16.31 221.402 27.39 221.001C27.599 220.994 27.8073 221.029 28.0024 221.103C28.1974 221.177 28.3754 221.288 28.5256 221.43C28.6758 221.573 28.7952 221.744 28.8767 221.932C28.9582 222.121 29.0001 222.323 29 222.528V242.971" stroke="#252525" stroke-width="1.5" stroke-linecap="round" stroke-linejoin="round"/>
<path fill-rule="evenodd" clip-rule="evenodd" d="M59 243.96V227.932C59 227.808 59.0247 227.685 59.0726 227.571C59.1206 227.456 59.1909 227.353 59.2794 227.266C59.3679 227.179 59.4728 227.111 59.588 227.065C59.7031 227.02 59.8262 226.998 59.95 227L89.1099 227.952C89.3496 227.957 89.5774 228.057 89.744 228.229C89.9107 228.402 90.0026 228.633 89.9999 228.873V244" fill="#F2E8E7"/>
<path d="M59 243.96V227.932C59 227.808 59.0247 227.685 59.0726 227.571C59.1206 227.456 59.1909 227.353 59.2794 227.266C59.3679 227.179 59.4728 227.111 59.588 227.065C59.7031 227.02 59.8262 226.998 59.95 227L89.1099 227.952C89.3495 227.957 89.5774 228.057 89.744 228.229C89.9107 228.402 90.0026 228.633 89.9999 228.873V244" stroke="#252525" stroke-width="1.5" stroke-linecap="round" stroke-linejoin="round"/>
<path fill-rule="evenodd" clip-rule="evenodd" d="M25 244V234H61.48C61.8831 234 62.2697 234.178 62.5548 234.495C62.8399 234.811 63 235.241 63 235.689V244" fill="#F2E8E7"/>
<path d="M25 244V234H61.48C61.8831 234 62.2697 234.178 62.5548 234.495C62.8399 234.811 63 235.241 63 235.689V244" stroke="#252525" stroke-width="1.5" stroke-linecap="round" stroke-linejoin="round"/>
<path d="M104.016 243.951H-16.3597C-17.9681 243.951 -19.272 245.255 -19.272 246.863V273.074C-19.272 274.683 -17.9681 275.987 -16.3597 275.987H104.016C105.625 275.987 106.929 274.683 106.929 273.074V246.863C106.929 245.255 105.625 243.951 104.016 243.951Z" stroke="#252525" stroke-width="1.5" stroke-linecap="round" stroke-linejoin="round"/>
<path d="M37.7515 259.969H48.9348" stroke="#252525" stroke-width="1.5" stroke-linecap="round" stroke-linejoin="round"/>
<path d="M99.1626 208.034V184.832" stroke="#252525" stroke-width="1.5" stroke-linecap="round" stroke-linejoin="round"/>
<path d="M108.637 56.7279C108.783 60.8731 109.938 74.2019 118.617 78.7839C118.708 78.8328 118.786 78.9038 118.843 78.9904C118.9 79.0769 118.934 79.1763 118.943 79.2796C118.951 79.3828 118.934 79.4865 118.892 79.5814C118.851 79.6762 118.786 79.7592 118.704 79.8227C115.578 82.2787 104.89 91.7049 91.7361 84.8027C91.7361 84.8027 85.2513 78.4247 81.0576 80.9196C80.9515 80.9936 80.8253 81.0331 80.6961 81.033C80.5668 81.0329 80.4407 80.9931 80.3348 80.919C80.2289 80.8448 80.1483 80.74 80.104 80.6186C80.0596 80.4971 80.0536 80.365 80.0868 80.2401C80.3586 78.2209 80.145 74.9008 81.708 73.2311C83.8145 70.9789 81.5332 69.4354 80.3392 70.7265C80.2557 70.81 80.1492 70.8666 80.0333 70.8891C79.9174 70.9116 79.7974 70.8989 79.6888 70.8527C78.4073 70.3576 74.6019 68.649 72.8934 65.3193C71.5343 62.7273 70.1266 60.4654 69.2918 59.2422C68.9908 58.7957 68.486 58.9898 68.1657 59.4267C65.3504 63.2515 62.6323 64.3971 64.1564 76.2793C64.2243 76.8036 64.0011 77.2501 63.4865 77.1919C63.4865 77.1919 60.2247 75.0465 59.2831 69.5325C57.2542 57.689 69.2821 53.0293 76.757 53.0293C82.2904 53.0293 93.2602 58.9122 98.2791 59.5335C101.968 59.9995 105.88 57.5919 107.657 56.2717C107.746 56.2078 107.851 56.1687 107.961 56.1586C108.07 56.1484 108.18 56.1675 108.28 56.2139C108.38 56.2603 108.465 56.3324 108.528 56.4227C108.591 56.513 108.629 56.6183 108.637 56.7279Z" fill="#252525"/>
<path d="M69.9035 68.8633C69.0686 73.358 67.7677 76.212 70.7092 76.746" stroke="#252525" stroke-width="1.5" stroke-linecap="round" stroke-linejoin="round"/>
<path d="M100.687 180.675C97.7743 189.412 94.7941 190.674 91.2216 191.597C85.5329 193.062 78.6016 195.159 54.4487 184.403C54.4487 184.403 34.7323 176.336 36.5185 155.717" stroke="#252525" stroke-width="1.5" stroke-linecap="round" stroke-linejoin="round"/>
<path d="M112.714 212.197C108.96 200.953 108.569 188.857 111.588 177.394C108.996 178.598 104.045 179.559 100.725 180.307C95.3748 181.479 89.9525 182.297 84.494 182.753C78.31 183.339 72.0713 182.859 66.0493 181.336C38.5473 174.171 39.1201 151.145 39.1201 151.145" stroke="#252525" stroke-width="1.5" stroke-linecap="round" stroke-linejoin="round"/>
<path d="M94.7941 166.473C94.7941 166.473 92.0953 167.366 92.6778 174.113C93.2311 180.646 91.2993 182.675 87.9792 184.956C84.6592 187.238 83.8923 191.13 89.7363 191.752" stroke="#252525" stroke-width="1.5" stroke-linecap="round" stroke-linejoin="round"/>
<path d="M110.385 151.389L87.9404 160.368C87.8878 160.384 87.8428 160.418 87.814 160.465C87.7852 160.512 87.7746 160.567 87.7842 160.621C87.7938 160.675 87.823 160.724 87.8661 160.758C87.9092 160.792 87.9633 160.809 88.018 160.805L123.645 162.319C123.697 162.32 123.747 162.305 123.789 162.275C123.831 162.245 123.862 162.203 123.878 162.154L126.791 151.66C126.8 151.626 126.801 151.59 126.793 151.556C126.786 151.521 126.772 151.488 126.75 151.46C126.729 151.432 126.701 151.41 126.669 151.394C126.638 151.378 126.603 151.369 126.567 151.369H110.472L110.385 151.389Z" fill="#F8F8F7" stroke="#252525" stroke-width="1.5" stroke-linejoin="round"/>
<path d="M133.178 131.322L152.536 127.06C152.667 127.032 152.803 127.039 152.931 127.078C153.06 127.118 153.175 127.19 153.268 127.288C153.36 127.385 153.426 127.504 153.459 127.634C153.493 127.764 153.492 127.901 153.458 128.031L145.352 154.552C145.319 154.663 145.262 154.764 145.184 154.85C145.107 154.936 145.012 155.003 144.905 155.047L123.548 164.221C123.435 164.269 123.312 164.289 123.189 164.279L87.7364 162.338C87.5355 162.328 87.3464 162.24 87.2088 162.094C87.0712 161.947 86.9958 161.753 86.9986 161.551C86.9985 161.446 87.0198 161.341 87.0611 161.244C87.1024 161.146 87.163 161.058 87.2391 160.985C87.3152 160.911 87.4054 160.854 87.5042 160.816C87.603 160.779 87.7084 160.761 87.8141 160.765L123.869 162.299C123.772 162.299 131.528 135.632 132.606 131.836C132.648 131.708 132.723 131.593 132.824 131.503C132.924 131.413 133.046 131.35 133.178 131.322Z" fill="#252525"/>
<path d="M126.917 160.377C126.917 160.377 130.917 160.639 130.917 172.997C130.917 185.355 121.714 231.904 121.714 231.904" stroke="#252525" stroke-width="1.5" stroke-linecap="round" stroke-linejoin="round"/>
<path d="M135.13 156.854C135.13 156.854 138.935 159.911 144.76 170.105C150.584 180.298 161.573 206.363 161.573 206.363C161.573 206.363 179.504 209.052 180.931 213.09C182.183 216.614 152.429 218.469 150.05 216.673C147.672 214.877 150.138 211.867 146.216 207.101C139.265 198.636 129.713 186.2 129.713 186.2" stroke="#252525" stroke-width="1.5" stroke-linecap="round" stroke-linejoin="round"/>
<path d="M86.7656 115.41C86.7656 115.41 94.5318 129.341 80.6983 130.069C80.6983 130.069 77.3297 147.436 91.6292 150.562C94.8425 151.261 102.007 151.261 102.007 151.261" stroke="#252525" stroke-width="1.5" stroke-linecap="round" stroke-linejoin="round"/>
<path d="M58.0113 109.772L81.3099 107.83C81.5896 107.808 81.8707 107.847 82.1338 107.944C82.397 108.042 82.636 108.195 82.8343 108.393C83.0327 108.591 83.1857 108.83 83.2829 109.093C83.38 109.357 83.419 109.638 83.3971 109.917C82.8729 116.111 81.8438 133.439 85.5036 143.118C85.6212 143.402 85.6698 143.709 85.6453 144.015C85.6209 144.322 85.5241 144.618 85.3631 144.879C85.202 145.141 84.9811 145.36 84.7187 145.52C84.4562 145.679 84.1597 145.774 83.8533 145.797C78.6112 145.991 67.5735 146.613 61.3896 148.418C60.9145 148.556 60.4048 148.507 59.9646 148.281C59.5244 148.056 59.1869 147.671 59.0209 147.205C57.1279 141.865 52.1479 125.498 56.3513 111.131C56.4638 110.766 56.6813 110.443 56.9766 110.201C57.2718 109.959 57.6317 109.81 58.0113 109.772Z" fill="#F2E8E7" stroke="#252525" stroke-width="1.5" stroke-linecap="round" stroke-linejoin="round"/>
<path d="M50.8472 145.854C57.3999 153.145 67.1562 155.902 67.1562 155.902C71.5247 150.805 72.4566 155.154 77.592 152.582C78.5628 152.077 79.5821 151.679 80.1451 152.261C80.4752 152.611 80.8538 153.368 79.1744 154.378C79.1744 154.378 76.9998 155.756 75.6796 155.717C74.3593 155.678 75.4272 157.921 79.6404 156.329C81.4169 155.659 82.077 154.135 84.0282 153.921C85.232 153.795 86.7173 154.824 82.0867 157.727C71.4858 164.406 51.4976 162.823 39.1105 151.164C26.7235 139.505 33.781 96.3447 51.4976 95.8302C68.8648 95.2963 68.6803 86.6855 68.6803 86.6855" stroke="#252525" stroke-width="1.5" stroke-linecap="round" stroke-linejoin="round"/>
<path d="M60.2734 116.722C64.7846 116.792 69.2947 116.529 73.7672 115.936L60.2734 116.722Z" fill="#F8F8F7"/>
<path d="M60.2734 116.722C64.7846 116.792 69.2947 116.529 73.7672 115.936" stroke="#252525" stroke-width="1.5" stroke-linecap="round" stroke-linejoin="round"/>
<path d="M60.2734 123.779C60.2734 123.779 70.4374 123.731 77.0096 122.469L60.2734 123.779Z" fill="#F8F8F7"/>
<path d="M60.2734 123.779C60.2734 123.779 70.4374 123.731 77.0096 122.469" stroke="#252525" stroke-width="1.5" stroke-linecap="round" stroke-linejoin="round"/>
<path d="M60.2734 130.867C60.2734 130.867 69.9812 130.935 72.3013 130.109L60.2734 130.867Z" fill="#F8F8F7"/>
<path d="M60.2734 130.867C60.2734 130.867 69.9812 130.935 72.3013 130.109" stroke="#252525" stroke-width="1.5" stroke-linecap="round" stroke-linejoin="round"/>
<path d="M64.3118 93.5195C64.3118 93.5195 65.933 99.0724 71.1072 98.9753C72.657 98.9038 74.1699 98.4782 75.5296 97.731C76.8893 96.9838 78.0598 95.935 78.951 94.6651" stroke="#252525" stroke-width="1.5" stroke-linecap="round" stroke-linejoin="round"/>
<path d="M48.1776 119.857C48.1776 119.857 45.4885 129.565 48.1776 137.7" stroke="#252525" stroke-width="1.5" stroke-linecap="round" stroke-linejoin="round"/>
<path d="M65.4087 81.4336C65.4087 81.4336 70.0781 93.0829 77.6696 83.4528" stroke="#252525" stroke-width="1.5" stroke-linecap="round" stroke-linejoin="round"/>
<path d="M81.9702 114.858C83.1642 115.693 85.1155 113.101 85.1155 113.101C85.1155 113.101 83.8535 115.47 85.1155 116.081C86.9794 116.955 90.5518 109.665 91.775 113.567C91.775 113.567 98.5704 144.467 105.172 144.467C111.773 144.467 110.996 129.478 105.172 120.576C99.347 111.674 92.7846 101.025 86.2319 103.442C79.6791 105.859 74.9321 110.004 76.029 111.684C76.8348 112.907 80.3102 109.665 80.3102 109.665C80.3102 109.665 77.6502 112.198 79.3394 113.218C80.4266 113.858 82.6886 111.587 82.6886 111.587C82.6886 111.587 80.582 113.878 81.9702 114.858Z" fill="#F8F8F7" stroke="#252525" stroke-width="1.5" stroke-linecap="round" stroke-linejoin="round"/>
<path d="M83.7661 107.256C82.5384 107.92 81.3945 108.728 80.3586 109.663L83.7661 107.256Z" fill="#F8F8F7"/>
<path d="M83.7661 107.256C82.5384 107.92 81.3945 108.728 80.3586 109.663" stroke="#252525" stroke-width="1.5" stroke-linecap="round" stroke-linejoin="round"/>
<path d="M84.9796 109.664C84.1193 110.149 83.3716 110.811 82.7856 111.606L84.9796 109.664Z" fill="#F8F8F7"/>
<path d="M84.9796 109.664C84.1193 110.149 83.3716 110.811 82.7856 111.606" stroke="#252525" stroke-width="1.5" stroke-linecap="round" stroke-linejoin="round"/>
<path d="M86.1833 111.906C85.7564 112.235 85.3942 112.639 85.1155 113.1L86.1833 111.906Z" fill="#F8F8F7"/>
<path d="M86.1833 111.906C85.7564 112.235 85.3942 112.639 85.1155 113.1" stroke="#252525" stroke-width="1.5" stroke-linecap="round" stroke-linejoin="round"/>
</g>
<defs>
<clipPath id="clip0_4804_4426">
<rect width="140" height="321" fill="white" transform="translate(235)"/>
</clipPath>
<clipPath id="clip1_4804_4426">
<rect width="72" height="255" fill="white" transform="translate(303 47)"/>
</clipPath>
<clipPath id="clip2_4804_4426">
<rect width="162.9" height="192.13" fill="white" transform="translate(163 111)"/>
</clipPath>
<clipPath id="clip3_4804_4426">
<rect width="182" height="252" fill="white" transform="translate(0 53)"/>
</clipPath>
</defs>
</svg>
