<svg width="24" height="24" viewBox="0 0 24 24" fill="none" xmlns="http://www.w3.org/2000/svg">
<mask id="path-1-inside-1_9887_5389" fill="white">
<path d="M2 8C2 4.68629 4.68629 2 8 2H16.2913C19.605 2 22.2913 4.68629 22.2913 8V16.2913C22.2913 19.605 19.605 22.2913 16.2913 22.2913H8C4.68629 22.2913 2 19.605 2 16.2913V8Z"/>
</mask>
<path d="M8 4H16.2913V0H8V4ZM20.2913 8V16.2913H24.2913V8H20.2913ZM16.2913 20.2913H8V24.2913H16.2913V20.2913ZM4 16.2913V8H0V16.2913H4ZM8 20.2913C5.79086 20.2913 4 18.5004 4 16.2913H0C0 20.7095 3.58172 24.2913 8 24.2913V20.2913ZM20.2913 16.2913C20.2913 18.5004 18.5004 20.2913 16.2913 20.2913V24.2913C20.7095 24.2913 24.2913 20.7095 24.2913 16.2913H20.2913ZM16.2913 4C18.5004 4 20.2913 5.79086 20.2913 8H24.2913C24.2913 3.58172 20.7095 0 16.2913 0V4ZM8 0C3.58172 0 0 3.58172 0 8H4C4 5.79086 5.79086 4 8 4V0Z" fill="white" mask="url(#path-1-inside-1_9887_5389)"/>
<path d="M3.13664 17.8952C2.74612 18.2857 2.74612 18.9189 3.13664 19.3094C3.52717 19.6999 4.16033 19.6999 4.55086 19.3094L3.13664 17.8952ZM7.53307 14.913L7.90446 13.9845C7.53304 13.8359 7.10883 13.923 6.82596 14.2058L7.53307 14.913ZM12.1447 16.7576L11.7733 17.6861C12.1755 17.847 12.6356 17.7306 12.9129 17.3978L12.1447 16.7576ZM16.7564 11.2236L17.5849 10.6636C17.4088 10.4032 17.1205 10.2407 16.8065 10.2249C16.4925 10.2091 16.1894 10.3419 15.9882 10.5834L16.7564 11.2236ZM20.1705 18.0604C20.4798 18.5179 21.1015 18.6381 21.559 18.3289C22.0166 18.0196 22.1368 17.3979 21.8275 16.9404L20.1705 18.0604ZM4.55086 19.3094L8.24018 15.6201L6.82596 14.2058L3.13664 17.8952L4.55086 19.3094ZM7.16168 15.8414L11.7733 17.6861L12.5161 15.8291L7.90446 13.9845L7.16168 15.8414ZM12.9129 17.3978L17.5246 11.8638L15.9882 10.5834L11.3765 16.1174L12.9129 17.3978ZM15.9279 11.7836L20.1705 18.0604L21.8275 16.9404L17.5849 10.6636L15.9279 11.7836Z" fill="white"/>
<path d="M11.3008 7.61133H12.9901L12.9901 9.30065L11.3008 9.30065L11.3008 7.61133Z" fill="white" stroke="white" stroke-width="2"/>
</svg>
