<svg width="24" height="24" viewBox="0 0 24 24" fill="none" xmlns="http://www.w3.org/2000/svg">
<circle cx="12" cy="7" r="4" fill="#BBF383" stroke="#282B35" stroke-width="2"/>
<path d="M12 15C7.58172 15 4 18.134 4 22H20C20 18.134 16.4183 15 12 15Z" fill="#BBF383"/>
<path d="M3.05126 20.6839C2.87671 21.2079 3.15997 21.7742 3.68394 21.9487C4.20792 22.1233 4.77419 21.84 4.94874 21.3161L3.05126 20.6839ZM19.0513 21.3161C19.2258 21.84 19.7921 22.1233 20.3161 21.9487C20.84 21.7742 21.1233 21.2079 20.9487 20.6839L19.0513 21.3161ZM4.94874 21.3161C5.99163 18.1855 8.78114 16 12 16V14C7.83203 14 4.33735 16.8234 3.05126 20.6839L4.94874 21.3161ZM12 16C15.2189 16 18.0084 18.1855 19.0513 21.3161L20.9487 20.6839C19.6627 16.8234 16.168 14 12 14V16Z" fill="#282B35"/>
</svg>
