<svg width="25" height="25" viewBox="0 0 25 25" fill="none" xmlns="http://www.w3.org/2000/svg">
<path fill-rule="evenodd" clip-rule="evenodd" d="M12.6666 3.25C10.8717 3.25 9.41658 4.70507 9.41658 6.5C9.41658 8.29493 10.8717 9.75 12.6666 9.75C14.4615 9.75 15.9166 8.29493 15.9166 6.5C15.9166 4.70507 14.4615 3.25 12.6666 3.25ZM7.91658 6.5C7.91658 3.87665 10.0432 1.75 12.6666 1.75C15.2899 1.75 17.4166 3.87665 17.4166 6.5C17.4166 9.12335 15.2899 11.25 12.6666 11.25C10.0432 11.25 7.91658 9.12335 7.91658 6.5Z" fill="#252525"/>
<path fill-rule="evenodd" clip-rule="evenodd" d="M10.9633 14.25C8.31557 14.25 6.08221 16.2216 5.75381 18.8488L5.41078 21.593L3.92236 21.407L4.26539 18.6628C4.68763 15.2849 7.55908 12.75 10.9633 12.75H14.3699C17.7741 12.75 20.6455 15.2849 21.0678 18.6628L21.4108 21.407L19.9224 21.593L19.5793 18.8488C19.2509 16.2216 17.0176 14.25 14.3699 14.25H10.9633Z" fill="#252525"/>
</svg>
