<svg width="24" height="24" viewBox="0 0 24 24" fill="none" xmlns="http://www.w3.org/2000/svg">
<path d="M8 7C8 5.34315 9.34315 4 11 4H13C14.6569 4 16 5.34315 16 7V9C16 10.6569 14.6569 12 13 12H11C9.34315 12 8 10.6569 8 9V7Z" fill="#BBF383" stroke="#282B35" stroke-width="2"/>
<path d="M17 16H7C4.79086 16 3 17.7909 3 20V22L21 21.9268V20C21 17.7909 19.2091 16 17 16Z" fill="#BBF383"/>
<path d="M21 20.939V20C21 17.7909 19.2091 16 17 16H7C4.79086 16 3 17.7909 3 20V21" stroke="#282B35" stroke-width="2" stroke-linecap="round"/>
</svg>
