<svg width="375" height="399" viewBox="0 0 375 399" fill="none" xmlns="http://www.w3.org/2000/svg">
<g clip-path="url(#clip0_15426_37257)">
<rect y="-1" width="375" height="400" fill="#E4F1E2"/>
<rect x="122" y="289" width="131" height="131" rx="8" fill="#F8F8F7"/>
<g clip-path="url(#clip1_15426_37257)">
<path fill-rule="evenodd" clip-rule="evenodd" d="M132.481 355.691C132.481 356.333 132.667 356.48 133.859 356.48V356.883H129.706V356.48C130.525 356.48 130.805 356.406 130.805 355.71V349.166C130.805 348.469 130.525 348.396 129.706 348.396V347.992H136.671L136.708 350.43H136.373C136.186 348.597 135.721 348.432 133.989 348.432H132.462V352.062H133.691C134.864 352.062 134.939 351.879 135.032 350.962H135.367V353.62H135.032C134.939 352.704 134.864 352.538 133.691 352.538H132.462V355.691H132.481H132.481ZM137.564 356.883V356.48C138.384 356.48 138.663 356.406 138.663 355.71V349.166C138.663 348.469 138.384 348.396 137.564 348.396V347.992H141.438V348.396C140.618 348.396 140.339 348.469 140.339 349.166V355.71C140.339 356.406 140.618 356.48 141.438 356.48V356.883H137.564H137.564ZM150.228 357.029L144.045 349.495V355.673C144.045 356.388 144.548 356.498 145.404 356.498V356.901H142.127V356.498C142.983 356.498 143.449 356.388 143.449 355.673V348.817C143.058 348.414 142.779 348.396 142.127 348.396V347.992H145.032L149.762 353.987V349.202C149.762 348.487 149.259 348.377 148.403 348.377V347.992H151.699V348.396C150.842 348.396 150.376 348.506 150.376 349.221V357.03H150.228V357.029ZM154.641 356.883H151.382V356.48C152.239 356.48 152.63 356.37 152.909 355.636L155.851 347.901H156.671L159.837 355.691C160.116 356.388 160.246 356.461 160.898 356.461V356.864H157.118V356.461C158.272 356.461 158.384 356.37 158.105 355.691L157.174 353.327H154.343L153.505 355.618C153.244 356.315 153.654 356.461 154.66 356.461V356.883H154.641ZM154.511 352.868H156.969L155.684 349.679L154.511 352.868ZM169.39 357.029L163.226 349.495V355.673C163.226 356.388 163.729 356.498 164.585 356.498V356.901H161.382V356.498C162.164 356.498 162.63 356.388 162.63 355.673V348.836C162.183 348.432 161.848 348.396 161.103 348.396V347.992H164.194L168.924 353.987V349.202C168.924 348.487 168.421 348.377 167.565 348.377V347.992H170.843V348.396C169.986 348.396 169.52 348.506 169.52 349.221V357.03H169.39V357.029ZM178.533 347.974H178.757L178.887 350.632L178.552 350.65C178.329 349.129 177.509 348.322 176.001 348.322C174.325 348.322 173.058 349.734 173.058 351.897C173.058 354.665 174.828 356.241 176.69 356.241C177.491 356.241 178.217 356.021 178.924 355.27L179.185 355.526C178.608 356.333 177.472 357.011 175.945 357.011C173.673 357.011 171.364 355.325 171.364 352.502C171.364 349.77 173.468 347.846 176.019 347.846C177.23 347.846 177.863 348.359 178.198 348.359C178.347 348.359 178.459 348.231 178.533 347.974ZM179.93 356.883V356.48C180.749 356.48 181.029 356.406 181.029 355.71V349.166C181.029 348.469 180.749 348.396 179.93 348.396V347.992H183.804V348.396C182.984 348.396 182.705 348.469 182.705 349.166V355.71C182.705 356.406 182.984 356.48 183.804 356.48V356.883H179.93ZM187.454 356.883H184.418V356.48C185.089 356.48 185.442 356.37 185.722 355.636L188.664 347.901H189.483L192.649 355.691C192.928 356.388 193.059 356.461 193.71 356.461V356.864H189.93V356.461C191.085 356.461 191.197 356.37 190.917 355.691L189.986 353.327H187.156L186.318 355.618C186.057 356.315 186.467 356.461 187.472 356.461V356.883H187.454ZM187.323 352.868H189.781L188.515 349.679L187.323 352.868ZM194.344 356.883V356.48C195.163 356.48 195.442 356.406 195.442 355.71V349.166C195.442 348.469 195.163 348.396 194.344 348.396V347.992H198.198V348.396C197.379 348.396 197.118 348.469 197.118 349.166V355.765C197.118 356.351 197.416 356.425 197.901 356.425H198.366C200.116 356.425 200.675 356.168 201.159 354.207L201.495 354.243L201.215 356.865H194.344V356.883V356.883ZM213.115 347.992L213.152 350.577H212.817C212.631 348.671 212.165 348.432 210.433 348.432H209.875V355.691C209.875 356.388 210.135 356.48 211.253 356.48V356.883H206.821V356.48C207.938 356.48 208.217 356.37 208.217 355.691V348.432H207.659C205.927 348.432 205.461 348.671 205.275 350.577H204.94L204.977 347.992H213.115ZM213.99 356.883V356.48C214.81 356.48 215.089 356.406 215.089 355.71V349.166C215.089 348.469 214.81 348.396 213.99 348.396V347.992H217.864V348.396C217.044 348.396 216.765 348.469 216.765 349.166V355.71C216.765 356.406 217.044 356.48 217.864 356.48V356.883H213.99ZM229.521 347.992V348.396C228.702 348.396 228.348 348.432 228.422 349.147L229.13 355.746C229.205 356.425 229.465 356.498 230.285 356.498V356.901H226.43V356.498C227.231 356.498 227.51 356.425 227.454 355.746L226.728 348.817L223.879 357.048H223.767L220.973 348.799L220.303 355.728C220.229 356.425 220.713 356.498 221.532 356.498V356.901H218.515V356.498C219.335 356.498 219.614 356.37 219.67 355.728L220.377 349.129C220.452 348.432 220.098 348.377 219.279 348.377V347.992H222.444L224.344 354.06L226.392 347.992H229.521L229.521 347.992ZM236.728 353.62H236.393C236.3 352.703 236.225 352.538 235.052 352.538H233.674V355.764C233.674 356.351 233.972 356.424 234.456 356.424H235.201C236.951 356.424 237.51 356.168 237.994 354.206L238.329 354.243L238.013 356.864H230.899V356.461C231.719 356.461 231.998 356.388 231.998 355.691V349.166C231.998 348.469 231.719 348.396 230.899 348.396V347.992H237.733L237.771 350.21H237.436C237.231 348.634 236.821 348.451 235.033 348.451H233.692V352.062H235.071C236.244 352.062 236.318 351.878 236.411 350.962H236.747V353.62H236.728L236.728 353.62ZM243.916 355.05C243.916 354.243 243.395 353.84 242.501 353.345L241.067 352.612C239.987 352.043 239.354 351.42 239.354 350.302C239.354 348.909 240.564 347.846 242.147 347.846C243.227 347.846 243.786 348.359 244.102 348.359C244.307 348.359 244.4 348.231 244.493 347.974H244.754L244.885 350.467L244.549 350.485C244.363 349.275 243.488 348.341 242.259 348.341C241.328 348.341 240.713 348.891 240.713 349.66C240.713 350.504 241.365 350.852 242.091 351.237L243.32 351.878C244.475 352.502 245.294 353.125 245.294 354.316C245.294 355.893 243.916 357.011 242.203 357.011C240.992 357.011 240.397 356.443 240.08 356.443C239.875 356.443 239.763 356.626 239.67 356.901H239.409L239.223 354.261L239.559 354.225C239.819 355.875 240.974 356.553 242.128 356.553C243.097 356.534 243.916 356.113 243.916 355.05L243.916 355.05Z" fill="#252525"/>
</g>
<rect x="122" y="134" width="131" height="131" rx="8" fill="#F8F8F7"/>
<g clip-path="url(#clip2_15426_37257)">
<path d="M137.802 193.856C137.802 192.576 136.59 192.256 135.634 192.256V192.448C136.208 192.448 136.654 192.64 136.654 193.088C136.654 193.344 136.463 193.728 135.889 193.728C135.442 193.728 134.485 193.472 133.784 193.216C132.955 192.896 132.189 192.64 131.551 192.64C130.276 192.64 129.383 193.6 129.383 194.688C129.383 195.648 130.084 195.968 130.339 196.096L130.403 195.968C130.276 195.84 130.084 195.712 130.084 195.328C130.084 195.072 130.339 194.624 130.977 194.624C131.551 194.624 132.317 194.88 133.337 195.2C134.23 195.456 135.187 195.648 135.697 195.712V197.696L134.741 198.528V198.592L135.697 199.424V202.176C135.187 202.496 134.613 202.56 134.103 202.56C133.146 202.56 132.317 202.304 131.615 201.536L134.23 200.256V195.84L131.041 197.248C131.296 196.416 131.998 195.84 132.699 195.456L132.636 195.264C130.722 195.776 129 197.568 129 199.744C129 202.304 131.105 204.224 133.465 204.224C136.016 204.224 137.675 202.176 137.675 200.064H137.547C137.164 200.896 136.59 201.664 135.889 202.048V199.424L136.909 198.592V198.528L135.889 197.696V195.712C136.845 195.712 137.802 195.072 137.802 193.856ZM132.253 200.896L131.488 201.28C131.041 200.704 130.786 199.936 130.786 198.848C130.786 198.4 130.786 197.888 130.914 197.504L132.253 196.928V200.896V200.896ZM139.014 202.368L138.185 203.008L138.312 203.136L138.695 202.816L140.098 204.096L142.012 202.816L141.948 202.688L141.438 203.008L140.8 202.368V198.016L141.31 197.632L142.395 198.528V202.432C142.395 204.864 141.884 205.248 140.8 205.632V205.824C142.586 205.888 144.244 205.312 144.244 202.176V197.952L144.818 197.504L144.691 197.376L144.181 197.76L142.586 196.416L140.8 197.76V192.512H140.672L138.44 194.048V194.176C138.695 194.304 139.078 194.432 139.078 195.136L139.014 202.368V202.368ZM150.686 201.664L149.092 202.88L147.497 201.6V200.832L150.495 198.784V198.72L148.964 196.416L145.648 198.208V202.432L145.01 202.944L145.137 203.072L145.711 202.624L147.88 204.224L150.75 201.92L150.686 201.664V201.664ZM147.497 200.576V197.44L147.625 197.376L149.028 199.616L147.497 200.576ZM162.869 193.28C162.869 193.088 162.805 192.896 162.742 192.704H162.614C162.423 193.216 162.168 193.472 161.53 193.472C160.956 193.472 160.573 193.152 160.318 192.896L158.468 195.008L158.596 195.136L159.234 194.56C159.616 194.88 159.935 195.136 160.828 195.2V200.512L157.065 194.048C156.746 193.536 156.299 192.832 155.406 192.832C154.386 192.832 153.493 193.728 153.621 195.136H153.812C153.876 194.752 154.067 194.304 154.514 194.304C154.832 194.304 155.151 194.624 155.343 194.944V197.056C154.195 197.056 153.429 197.568 153.429 198.528C153.429 199.04 153.684 199.808 154.45 200V199.872C154.322 199.744 154.258 199.616 154.258 199.424C154.258 199.104 154.514 198.848 154.96 198.848H155.279V201.536C153.939 201.536 152.855 202.304 152.855 203.584C152.855 204.8 153.876 205.376 155.024 205.312V205.184C154.322 205.12 154.003 204.8 154.003 204.352C154.003 203.776 154.386 203.52 154.896 203.52C155.406 203.52 155.853 203.84 156.172 204.224L158.022 202.176L157.894 202.048L157.448 202.56C156.746 201.92 156.363 201.728 155.534 201.6V195.2L160.637 204.16H161.019V195.2C161.976 195.136 162.869 194.368 162.869 193.28V193.28ZM167.525 201.664L165.931 202.88L164.336 201.6V200.832L167.334 198.784V198.72L165.803 196.416L162.486 198.208V202.432L161.849 202.944L161.976 203.072L162.55 202.624L164.719 204.224L167.589 201.92L167.525 201.664V201.664ZM164.336 200.576V197.44L164.464 197.376L165.867 199.616L164.336 200.576V200.576ZM177.922 197.12L177.476 197.44L176.264 196.416L174.861 197.696L175.435 198.272V203.072L173.904 202.112V198.144L174.414 197.824L172.947 196.416L171.544 197.696L172.118 198.272V202.88L171.926 203.008L170.587 202.048V198.208C170.587 197.312 170.141 197.056 169.63 196.736C169.184 196.416 168.929 196.224 168.929 195.776C168.929 195.392 169.311 195.2 169.503 195.072V194.944C168.992 194.944 167.653 195.456 167.653 196.672C167.653 197.312 167.972 197.568 168.291 197.888C168.61 198.208 168.929 198.464 168.929 199.04V202.752L168.227 203.264L168.355 203.392L168.992 202.88L170.459 204.16L172.054 203.072L173.84 204.16L177.221 202.176V197.888L178.05 197.248L177.922 197.12V197.12ZM189.786 193.6L189.148 194.176L187.745 192.896L185.64 194.432V193.024H185.449L185.512 203.392C185.321 203.392 184.747 203.264 184.301 203.136L184.173 194.496C184.173 193.856 183.726 192.96 182.578 192.96C181.43 192.96 180.665 193.856 180.665 194.752H180.856C180.92 194.368 181.111 194.048 181.494 194.048C181.877 194.048 182.196 194.304 182.196 195.136V197.632C181.048 197.696 180.346 198.336 180.346 199.168C180.346 199.68 180.601 200.448 181.366 200.448V200.32C181.111 200.192 181.048 200 181.048 199.872C181.048 199.488 181.366 199.36 181.877 199.36H182.132V203.328C181.175 203.648 180.792 204.352 180.792 205.12C180.792 206.208 181.622 206.976 182.897 206.976C183.79 206.976 184.556 206.848 185.321 206.656C185.959 206.528 186.788 206.336 187.171 206.336C187.681 206.336 187.872 206.592 187.872 206.912C187.872 207.36 187.681 207.552 187.426 207.616V207.744C188.446 207.552 189.084 206.912 189.084 205.952C189.084 204.992 188.128 204.416 187.107 204.416C186.597 204.416 185.512 204.608 184.747 204.736C183.854 204.928 182.961 205.056 182.706 205.056C182.259 205.056 181.749 204.864 181.749 204.224C181.749 203.712 182.196 203.264 183.28 203.264C183.854 203.264 184.556 203.328 185.257 203.52C186.023 203.712 186.724 203.904 187.362 203.904C188.319 203.904 189.148 203.584 189.148 202.24V194.368L189.914 193.728L189.786 193.6V193.6ZM187.171 197.504C186.979 197.696 186.724 197.888 186.405 197.888C186.086 197.888 185.768 197.696 185.64 197.504V194.688L186.278 194.24L187.171 195.072V197.504ZM187.171 199.424C187.043 199.296 186.724 199.104 186.405 199.104C186.086 199.104 185.768 199.296 185.64 199.424V197.76C185.768 197.888 186.086 198.08 186.405 198.08C186.724 198.08 187.043 197.888 187.171 197.76V199.424ZM187.171 202.432C187.171 202.944 186.852 203.456 186.15 203.456H185.64V199.68C185.768 199.552 186.086 199.36 186.405 199.36C186.724 199.36 186.979 199.552 187.171 199.68V202.432V202.432ZM195.909 197.888L193.868 196.416L190.743 198.208V202.368L190.105 202.88L190.169 203.008L190.679 202.624L192.72 204.16L195.909 202.24V197.888V197.888ZM192.465 201.92V197.312L194.059 198.464V203.008L192.465 201.92V201.92ZM201.969 196.544H201.841C201.65 196.672 201.458 196.8 201.267 196.8C201.012 196.8 200.693 196.672 200.565 196.48H200.438L199.354 197.696L198.269 196.48L196.356 197.76L196.419 197.888L196.93 197.568L197.568 198.272V202.304L196.738 202.944L196.866 203.072L197.249 202.752L198.779 204.032L200.757 202.688L200.693 202.56L200.119 202.88L199.354 202.24V197.76C199.672 198.08 200.055 198.4 200.502 198.4C201.395 198.464 201.905 197.568 201.969 196.544V196.544ZM209.623 202.688L207.454 204.16L204.52 199.68L206.625 196.416H206.752C207.008 196.672 207.39 196.928 207.837 196.928C208.283 196.928 208.602 196.672 208.794 196.416H208.921C208.857 197.696 207.964 198.464 207.326 198.464C206.689 198.464 206.37 198.144 205.987 197.952L205.796 198.272L208.985 203.008L209.623 202.624V202.688V202.688ZM202.606 202.368L201.777 203.008L201.905 203.136L202.288 202.816L203.691 204.096L205.604 202.816L205.477 202.688L204.966 203.008L204.329 202.368V192.512H204.265L201.969 194.048V194.176C202.224 194.304 202.606 194.368 202.606 195.136V202.368V202.368ZM220.211 193.856C220.211 192.576 218.999 192.256 218.042 192.256V192.448C218.616 192.448 219.063 192.64 219.063 193.088C219.063 193.344 218.871 193.728 218.297 193.728C217.851 193.728 216.894 193.472 216.192 193.216C215.363 192.96 214.598 192.704 213.96 192.704C212.684 192.704 211.791 193.664 211.791 194.752C211.791 195.712 212.493 196.032 212.748 196.16L212.812 196.032C212.621 195.904 212.429 195.776 212.429 195.392C212.429 195.136 212.684 194.688 213.322 194.688C213.896 194.688 214.662 194.944 215.682 195.264C216.575 195.52 217.532 195.712 218.042 195.776V197.76L217.085 198.592V198.656L218.042 199.488V202.24C217.532 202.56 216.958 202.624 216.448 202.624C215.491 202.624 214.662 202.368 213.96 201.6L216.575 200.32V195.84L213.386 197.248C213.705 196.416 214.406 195.84 215.044 195.392L214.981 195.264C213.067 195.776 211.345 197.504 211.345 199.68C211.345 202.24 213.45 204.16 215.81 204.16C218.361 204.16 220.019 202.112 220.019 200H219.892C219.509 200.832 218.935 201.6 218.234 201.984V199.36L219.254 198.528V198.464L218.297 197.632V195.712C219.254 195.712 220.211 195.072 220.211 193.856V193.856ZM214.662 200.896L213.896 201.28C213.45 200.704 213.195 199.936 213.195 198.848C213.195 198.4 213.258 197.888 213.386 197.504L214.725 196.928L214.662 200.896V200.896ZM222.443 193.216H222.379L221.104 194.304V194.368L222.188 195.584H222.316L223.591 194.496V194.432L222.443 193.216V193.216ZM224.357 202.688L223.846 203.008L223.209 202.368V197.952L223.846 197.504L223.719 197.376L223.272 197.76L222.124 196.416L220.275 197.696L220.402 197.888L220.849 197.568L221.423 198.272V202.432L220.594 203.072L220.657 203.2L221.104 202.88L222.507 204.16L224.421 202.88L224.357 202.688V202.688ZM235.009 202.624L234.562 202.944L233.861 202.304V197.952L234.498 197.44L234.371 197.312L233.861 197.76L232.394 196.416L230.48 197.76L229.013 196.416L227.227 197.76L226.079 196.416L224.229 197.696L224.293 197.888L224.739 197.568L225.377 198.272V202.432L224.867 202.944L226.334 204.16L227.737 202.88L227.163 202.304V197.952L227.737 197.568L228.694 198.464V202.304L228.184 202.816L229.651 204.032L231.054 202.752L230.48 202.176V197.952L230.99 197.632L232.011 198.528V202.368L231.564 202.816L233.031 204.16L235.009 202.816V202.624V202.624ZM240.558 201.664L238.963 202.88L237.369 201.6V200.832L240.366 198.784V198.72L238.836 196.416L235.519 198.208V202.56L237.751 204.16L240.622 201.856L240.558 201.664V201.664ZM237.369 200.576V197.44L237.496 197.376L238.899 199.616L237.369 200.576V200.576ZM246.362 200L245.15 199.04C245.979 198.336 246.298 197.376 246.298 196.736V196.352H246.171C246.043 196.672 245.788 196.992 245.278 196.992C244.768 196.992 244.449 196.736 244.13 196.352L241.259 197.952V200.256L242.344 201.088C241.259 202.048 241.068 202.688 241.068 203.2C241.068 203.84 241.387 204.288 241.897 204.48L241.961 204.352C241.834 204.224 241.706 204.16 241.706 203.84C241.706 203.648 241.961 203.328 242.471 203.328C243.109 203.328 243.492 203.776 243.683 203.968L246.426 202.304V200H246.362V200ZM245.661 198.08C245.214 198.848 244.257 199.616 243.683 200L242.982 199.424V197.184C243.237 197.824 243.938 198.336 244.64 198.336C245.086 198.336 245.342 198.272 245.661 198.08V198.08ZM244.576 203.2C244.257 202.496 243.492 201.984 242.726 201.984C242.535 201.984 242.025 201.984 241.515 202.304C241.834 201.792 242.663 200.896 243.747 200.256L244.512 200.896L244.576 203.2V203.2Z" fill="black"/>
</g>
<rect x="122" y="-21" width="131" height="131" rx="8" fill="#F8F8F7"/>
<g clip-path="url(#clip3_15426_37257)">
<path fill-rule="evenodd" clip-rule="evenodd" d="M183.73 29.6021L183.787 31.881L183.25 31.9091C183.222 30.5305 182.91 30.3336 180.79 30.3336H180.338V38.2958C180.338 39.393 180.621 39.6744 181.695 39.7306L181.723 40.1245C180.705 40.1245 179.914 40.1245 179.405 40.1245C178.896 40.1245 178.076 40.1245 177.002 40.1245L177.03 39.7306C178.133 39.7025 178.415 39.4211 178.415 38.2958V30.3336H177.878C175.701 30.3336 175.39 30.5305 175.362 31.9091L174.825 31.881L174.881 29.6021C176.86 29.6021 178.359 29.6302 179.376 29.6302C180.338 29.6302 181.808 29.6021 183.73 29.6021ZM184.607 39.7306C185.597 39.7306 185.738 39.5337 185.738 38.1551V31.5152C185.709 30.1366 185.597 29.9397 184.607 29.9397L184.579 29.5739C185.907 29.4895 186.218 29.4614 187.434 29.2363V33.7379C188.226 32.8938 188.848 32.5562 189.724 32.5562C191.166 32.5562 191.958 33.4284 191.958 35.1165V38.1269C191.986 39.5055 192.099 39.7025 193.089 39.7025L193.117 40.0682C192.269 40.0401 191.619 40.012 191.194 40.012C190.77 40.012 190.177 40.0401 189.357 40.0682L189.385 39.7025C190.177 39.5899 190.233 39.4493 190.261 38.1269V35.9324C190.261 34.0755 189.95 33.4847 188.961 33.4847C188.452 33.4847 187.887 33.8223 187.66 34.3287C187.576 34.4975 187.519 34.6945 187.462 34.8914C187.462 34.9758 187.462 35.0321 187.462 35.0602V38.1551C187.462 39.4493 187.547 39.6181 188.339 39.7306L188.367 40.0964C187.547 40.0683 186.925 40.0401 186.529 40.0401C186.105 40.0401 185.455 40.0683 184.607 40.0964V39.7306ZM195.52 35.426C196.877 35.3979 197.273 35.3697 198.63 35.2291C198.461 33.7942 197.923 33.1189 197.019 33.1189C196.114 33.1189 195.662 33.8223 195.52 35.426ZM200.185 38.6334C199.281 39.7587 198.376 40.237 197.216 40.237C195.181 40.237 193.795 38.7459 193.795 36.5514C193.795 34.1881 195.237 32.5844 197.301 32.5844C198.404 32.5844 199.196 33.0064 199.761 33.8505C200.128 34.4694 200.242 34.8914 200.242 35.9606H195.577C195.633 38.1551 196.453 39.4211 197.782 39.4211C198.574 39.4211 199.252 39.0554 199.987 38.2113L200.185 38.6334ZM145.874 53.6292C147.061 53.6011 147.372 53.2635 147.372 52.0536V44.4291C147.372 43.2193 147.061 42.8817 145.874 42.8536L145.817 42.4597L148.333 42.4878L152.291 42.4316L153.337 42.4597L153.394 44.823L152.744 44.8793C152.631 43.3882 152.348 43.2475 150.03 43.2475H149.662L149.492 43.2756V47.6647C149.803 47.6647 150.058 47.6928 150.199 47.6928C150.454 47.7209 150.708 47.7209 150.963 47.7209C152.235 47.7209 152.546 47.4396 152.546 46.2298H153.111C153.055 47.1864 153.055 47.6928 153.055 48.1711C153.055 48.565 153.055 49.0995 153.083 49.831H152.546C152.489 48.6775 152.207 48.4243 150.991 48.4243L150.114 48.3961L149.492 48.4243V51.8285C149.492 53.2072 149.577 53.2635 150.963 53.2635C152.772 53.2635 153.309 52.8696 153.479 51.2941L154.129 51.3223L153.762 54.0232L152.489 54.0513L148.503 54.0232L145.817 54.0513L145.874 53.6292ZM162.385 52.8977C161.452 53.8543 160.717 54.2201 159.642 54.2201C157.494 54.2201 156.108 52.5319 156.108 50.028C156.108 47.3833 157.578 45.7515 159.925 45.7515C160.547 45.7515 161.169 45.864 162.13 46.1172L162.159 48.0304L161.423 48.0867C161.141 46.6518 160.858 46.3142 159.925 46.3142C158.709 46.3142 158.059 47.3833 158.059 49.4652C158.059 51.9129 158.822 53.2916 160.208 53.2916C160.914 53.2916 161.508 52.9821 162.13 52.3068L162.385 52.8977ZM166.117 50.1405C166.286 52.4475 167.05 53.6855 168.294 53.6855C169.481 53.6855 170.188 52.4756 170.188 50.45C170.188 48.0585 169.227 46.3704 167.87 46.3704C166.682 46.3704 166.06 47.3552 166.06 49.409C166.088 49.6341 166.088 49.8873 166.117 50.1405ZM164.109 50.3093V50.0561C164.109 47.2989 165.608 45.7515 168.124 45.7515C170.471 45.7515 172.139 47.4677 172.139 49.9998C172.139 52.5319 170.527 54.2201 168.068 54.2201C165.749 54.2201 164.194 52.6726 164.109 50.3093ZM174.061 53.6574C175.136 53.6574 175.277 53.4323 175.277 51.9129V48.1711C175.277 46.6799 175.107 46.483 174.061 46.4548L174.033 46.0891C175.446 46.0047 175.786 45.9484 177.03 45.6952L177.115 47.1301C178.048 46.1172 178.754 45.7515 179.744 45.7515C181.327 45.7515 182.232 46.7643 182.232 48.5931V51.941C182.204 52.0817 182.204 52.1943 182.204 52.335C182.204 53.376 182.486 53.6855 183.476 53.6855L183.504 54.0794C182.543 54.0513 181.836 54.0232 181.356 54.0232C180.903 54.0232 180.225 54.0513 179.348 54.0794L179.376 53.6855C180.225 53.5448 180.309 53.4042 180.309 51.941L180.338 50.9565V49.5215C180.338 47.4677 179.97 46.8206 178.924 46.8206C178.274 46.8206 177.737 47.1582 177.426 47.749C177.284 48.0023 177.171 48.368 177.171 48.5368V51.9692C177.2 53.4042 177.256 53.573 178.133 53.7137L178.189 54.1076C177.284 54.0794 176.577 54.0513 176.125 54.0513C175.644 54.0513 174.938 54.0794 174.033 54.1076L174.061 53.6574ZM186.925 50.1405C187.095 52.4475 187.858 53.6855 189.102 53.6855C190.29 53.6855 190.997 52.4756 190.997 50.45C190.997 48.0585 190.035 46.3704 188.707 46.3704C187.519 46.3704 186.925 47.3552 186.925 49.409C186.897 49.6341 186.897 49.8873 186.925 50.1405ZM184.89 50.3093V50.0561C184.89 47.2989 186.388 45.7515 188.904 45.7515C191.279 45.7515 192.947 47.4677 192.947 49.9998C192.947 52.5319 191.336 54.2201 188.876 54.2201C186.558 54.2201 184.975 52.6726 184.89 50.3093ZM194.785 53.6574C195.888 53.6574 196.057 53.4323 196.057 51.9129V48.1711C196.057 46.6799 195.888 46.483 194.785 46.4548L194.757 46.0891C196.199 46.0047 196.538 45.9484 197.782 45.6952L197.867 47.1301C198.8 46.1172 199.507 45.7515 200.468 45.7515C201.57 45.7515 202.221 46.2016 202.701 47.2708C203.691 46.1454 204.426 45.7515 205.444 45.7515C206.999 45.7515 207.847 46.7925 207.847 48.5931V51.941C207.847 52.0817 207.819 52.1943 207.819 52.335C207.819 53.376 208.101 53.6855 209.091 53.6855L209.119 54.0794C208.158 54.0513 207.451 54.0232 206.999 54.0232C206.546 54.0232 205.896 54.0513 204.991 54.0794L205.02 53.6855C205.896 53.5448 205.981 53.4042 205.981 51.941V49.4934C205.981 47.4677 205.614 46.7925 204.596 46.7925C204.002 46.7925 203.38 47.1582 203.097 47.7209C203.012 47.9179 202.928 48.1148 202.899 48.3399C202.871 48.4243 202.871 48.4806 202.871 48.5087V51.941C202.871 53.376 202.956 53.5448 203.832 53.6855L203.86 54.0794C202.984 54.0513 202.362 54.0232 201.938 54.0232C201.514 54.0232 200.864 54.0513 200.015 54.0794L200.044 53.6855C200.92 53.5448 201.005 53.4042 201.005 51.941V49.4934C201.005 47.4677 200.637 46.7925 199.62 46.7925C198.998 46.7925 198.432 47.1301 198.121 47.7209C197.98 47.9741 197.895 48.3399 197.895 48.5087V51.941C197.923 53.376 197.98 53.5448 198.856 53.6855L198.885 54.0794C197.98 54.0513 197.33 54.0232 196.877 54.0232C196.396 54.0232 195.69 54.0513 194.757 54.0794L194.785 53.6574ZM211.551 42.9943C211.551 42.4034 212.031 41.9251 212.625 41.9251C213.219 41.9251 213.728 42.4316 213.728 42.9943C213.728 43.6132 213.247 44.0915 212.625 44.0915C212.031 44.0915 211.551 43.6132 211.551 42.9943ZM213.643 45.6952V50.9284L213.671 51.9129C213.671 53.4323 213.812 53.6574 214.943 53.6574L214.972 54.0513C213.954 54.0232 213.219 53.995 212.71 53.995C212.229 53.995 211.494 54.0232 210.505 54.0513L210.533 53.6574C211.607 53.6574 211.777 53.4323 211.777 51.9129L211.805 50.9284V49.212L211.777 48.1711C211.777 46.6799 211.636 46.483 210.533 46.4548L210.505 46.0891C211.975 46.0047 212.342 45.9484 213.643 45.6952ZM216.923 53.7699L216.866 52.1099L217.686 52.0817C218.053 53.3197 218.308 53.573 219.184 53.573C219.948 53.573 220.428 53.1791 220.428 52.5882C220.428 52.0254 220.089 51.6318 219.043 50.9284C218.534 50.5626 218.166 50.3375 217.969 50.1687C217.544 49.831 217.233 49.4652 217.064 49.015C216.951 48.7619 216.923 48.4806 216.923 48.1429C216.923 46.6799 217.94 45.7233 219.467 45.7233C220.033 45.7233 220.372 45.7796 221.672 46.0891L221.701 47.6928L220.881 47.7209C220.683 46.6518 220.372 46.2861 219.608 46.2861C218.873 46.2861 218.336 46.7081 218.336 47.2708C218.336 47.8335 218.591 48.1711 219.439 48.7056C220.202 49.212 220.796 49.6622 221.192 50.028C221.644 50.4782 221.927 51.0128 221.927 51.6318C221.927 53.0665 220.711 54.1639 219.156 54.1639C218.562 54.2201 217.969 54.1076 216.923 53.7699ZM223.651 46.2298C224.952 46.1454 225.433 45.5827 225.8 43.8946H226.535V46.0891H228.599L228.373 46.9894H226.535V50.9565C226.535 52.9258 226.79 53.4042 227.92 53.4042C228.175 53.4042 228.429 53.376 228.825 53.2635V53.7418C228.26 54.0513 227.496 54.2201 226.705 54.2201C225.97 54.2201 225.319 53.8262 225.037 53.2072C224.782 52.7007 224.697 52.1943 224.697 51.1253V46.9894H223.651V46.2298Z" fill="#252525"/>
</g>
<rect x="-33" y="198.131" width="131" height="131" rx="8" fill="#F8F8F7"/>
<g clip-path="url(#clip4_15426_37257)">
<path d="M-0.917397 273.388C-0.251204 272.952 0.392006 272.448 0.392006 271.438V265.108L-0.61875 264.053L-1.00928 264.443L-0.136341 265.36V271.415C-0.136341 272.264 -0.434963 272.883 -0.963338 273.296L-0.917397 273.388ZM-4.79961 259.993V260.062C-4.50099 260.177 -4.1564 260.475 -4.1564 261.048V270.383L-4.52395 270.75L-3.12267 271.943L-2.70918 271.599L-3.8348 270.682L-3.62806 270.498V261.14C-3.62806 260.406 -4.29425 260.039 -4.79961 259.993ZM-3.94966 274.03C-2.15785 273.892 -0.389023 273.296 -0.389023 271.392V265.429L-1.19304 264.626L-2.08895 265.498V269.971L-1.35384 270.636L-3.05377 272.149H-3.21457L-4.86854 270.727L-4.40909 270.291V261.163C-4.40909 260.475 -4.9834 260.108 -5.35095 260.039V259.879C-5.19014 259.787 -4.93746 259.741 -4.61586 259.741C-4.04154 259.741 -3.5132 260.085 -3.35239 260.452H-3.30645C-2.96187 259.947 -2.41056 259.741 -1.88221 259.718C-1.72141 259.718 -1.53762 259.741 -1.35384 259.787V259.97C-1.65249 260.062 -2.08895 260.429 -2.08895 261.324V265.108L0.116339 262.998H0.277143C0.437946 263.158 1.40273 264.03 1.58665 264.145C1.67848 264.191 1.79339 264.236 1.88522 264.236C2.06888 264.236 2.18379 264.168 2.34462 264.099V264.328C2.16096 264.489 1.95396 264.787 1.95396 265.154V270.314C1.95396 272.608 -0.549826 273.984 -3.94966 274.237C-3.94966 274.283 -3.94966 274.03 -3.94966 274.03ZM6.22681 264.076L5.7905 264.397C6.29581 264.993 6.96195 265.773 7.60527 266.484L8.06467 266.163C7.39853 265.452 6.75521 264.672 6.22681 264.076ZM5.69841 267.746L7.35235 266.622C6.7783 265.957 6.1809 265.292 5.69841 264.741V267.746ZM6.7783 271.553C5.7905 271.094 4.89453 270.75 4.09039 270.314C4.1363 270.016 4.15939 269.672 4.15939 268.709V264.97L3.63099 265.246V268.732C3.63099 269.695 3.60816 270.314 3.53916 270.59C4.32022 271.026 5.42293 271.484 6.43355 271.92L6.7783 271.553ZM3.35524 265.085C4.34304 264.603 5.81333 263.732 6.80112 263.021H6.98504C7.6281 263.686 8.56998 264.764 9.37386 265.475V265.658L5.69841 268.044V269.512C6.08907 269.741 7.14561 270.291 7.78892 270.498L9.25921 269.076L9.44287 269.259L6.47947 272.127H6.29581C5.30801 271.691 3.99856 271.14 3.17159 270.682C3.26342 270.383 3.35524 269.604 3.35524 268.663V265.085ZM78.588 273.365C79.2541 272.929 79.8974 272.425 79.8974 271.415V265.085L78.8868 264.03L78.4961 264.42L79.369 265.337V271.392C79.369 272.241 79.0474 272.86 78.5421 273.273C78.5421 273.296 78.588 273.365 78.588 273.365ZM74.7289 259.97L74.7058 260.039C75.0043 260.154 75.3719 260.452 75.3719 261.025V270.337L75.0043 270.704L76.4056 271.897L76.8191 271.553L75.6936 270.636L75.9003 270.452V261.117C75.8775 260.383 75.2111 260.016 74.7289 259.97ZM75.5558 274.007C77.3475 273.87 79.1164 273.273 79.1164 271.37V265.406L78.3125 264.58L77.4165 265.452V269.925L78.1517 270.59L76.4518 272.104H76.291L74.6139 270.682L75.0733 270.246V261.14C75.0733 260.452 74.499 260.085 74.1315 260.016V259.856C74.2923 259.764 74.5449 259.718 74.8666 259.718C75.4409 259.718 75.9693 260.062 76.1301 260.429H76.1761C76.5205 259.924 77.072 259.718 77.6002 259.695C77.761 259.695 77.9449 259.718 78.1286 259.764V259.947C77.83 260.039 77.4165 260.406 77.4165 261.301V265.108L79.6217 262.998H79.7825C79.9433 263.158 80.9083 264.03 81.092 264.145C81.1838 264.191 81.2987 264.236 81.4136 264.236C81.5973 264.236 81.7353 264.168 81.873 264.099V264.42C81.6894 264.58 81.4826 264.879 81.4826 265.246V270.337C81.4826 272.631 78.9786 274.007 75.5787 274.26L75.5558 274.007ZM27.9812 264.076L27.5446 264.397C28.0499 264.993 28.7163 265.773 29.3594 266.484L29.8188 266.163C29.1757 265.452 28.5096 264.649 27.9812 264.076ZM27.4987 267.723L29.1527 266.599C28.5783 265.934 27.9812 265.269 27.4987 264.718V267.723ZM28.5555 271.53C27.5677 271.071 26.6717 270.727 25.8679 270.291C25.9138 269.993 25.9366 269.649 25.9366 268.686V264.947L25.4082 265.223V268.709C25.4082 269.672 25.3854 270.291 25.3164 270.567C26.0974 271.003 27.2001 271.461 28.2108 271.897L28.5555 271.53ZM25.1555 265.062C26.1433 264.58 27.6136 263.709 28.6014 262.998H28.7851C29.4284 263.663 30.3703 264.741 31.1742 265.452V265.636L27.4987 268.021V269.489C27.8663 269.718 28.9459 270.269 29.5892 270.475L31.0592 269.053L31.2432 269.236L28.2798 272.104H28.0961C27.0852 271.668 25.7989 271.117 24.9719 270.659C25.0637 270.36 25.1555 269.604 25.1555 268.64V265.062ZM34.2525 271.507C33.5863 271.324 32.9202 270.888 32.9202 269.971V261.622L32.1851 260.865L31.7944 261.255L32.3918 261.874V270.177C32.3918 271.117 33.1498 271.714 33.8618 271.897L34.2525 271.507ZM34.4823 260.911V269.741C34.4823 270.108 34.8496 270.475 35.1944 270.544L35.7228 270.016L35.8833 270.2L33.9998 272.127H33.908C33.1957 271.966 32.162 271.324 32.162 270.223V262.012L31.6336 261.484L31.0823 262.035L30.9215 261.851L33.0349 259.718H33.1729L34.4823 260.911ZM39.559 264.076L39.1225 264.397C39.6278 264.993 40.2939 265.773 40.9372 266.484L41.3966 266.163C40.7536 265.429 40.0872 264.649 39.559 264.076ZM39.0535 267.723L40.7074 266.599C40.1334 265.934 39.536 265.269 39.0535 264.718V267.723ZM40.1103 271.53C39.1225 271.071 38.2265 270.727 37.4226 270.291C37.4685 269.993 37.4914 269.649 37.4914 268.686V264.947L36.9632 265.223V268.709C36.9632 269.672 36.9401 270.291 36.8711 270.567C37.6522 271.003 38.7549 271.461 39.7658 271.897L40.1103 271.53ZM36.7106 265.062C37.6984 264.58 39.1684 263.709 40.1562 262.998H40.3401C40.9832 263.663 41.925 264.741 42.7292 265.452V265.636L39.0766 268.021V269.489C39.4441 269.718 40.5238 270.269 41.1671 270.475L42.6371 269.053L42.821 269.236L39.8345 272.104H39.6509C38.6631 271.668 37.3536 271.117 36.5266 270.659C36.6185 270.36 36.7106 269.604 36.7106 268.64V265.062ZM55.2946 264.649C55.5934 264.925 56.0069 265.314 56.3514 265.613L56.6958 265.223C56.3744 264.925 55.8689 264.512 55.6393 264.259C55.6162 264.236 55.2946 264.649 55.2946 264.649ZM54.3988 271.507C53.7096 271.324 53.0663 270.888 53.0663 269.971V264.925L52.3542 264.191L51.9408 264.58L52.5379 265.2V270.2C52.5379 271.14 53.2961 271.737 54.0082 271.92L54.3988 271.507ZM54.6056 265.429V269.764C54.6056 270.154 54.9501 270.475 55.3176 270.544L55.846 270.039L56.0069 270.223L54.1231 272.149H54.0082C53.2961 271.989 52.2852 271.347 52.2852 270.246V265.292L51.7571 264.764L51.2056 265.314L51.022 265.131L53.1353 262.998H53.2961L54.6284 264.305V265.016L56.3283 262.998H56.4891C56.8338 263.342 57.362 263.847 57.8216 264.191V264.214L56.3973 265.911H56.3744C55.9838 265.567 55.4554 265.085 55.1568 264.787C55.1109 264.81 54.6056 265.429 54.6056 265.429ZM61.9106 270.085V267.402C61.3822 267.264 60.8309 267.035 60.3026 266.782V270.108L61.2444 270.682L61.9106 270.085ZM64.047 271.53C63.4037 271.301 62.7145 270.819 62.7145 269.925V265.269L60.1645 263.984C60.0958 264.03 59.7972 264.236 59.7051 264.305L62.1632 265.59V270.108C62.1632 270.98 62.9671 271.645 63.6335 271.897L64.047 271.53ZM61.9106 267.126V265.727L59.4984 264.466C59.3148 264.603 58.6714 264.993 58.4647 265.108C59.039 265.865 60.5321 266.782 61.9106 267.126ZM60.4634 271.484L58.7633 270.36V267.86L58.2579 268.25V270.682L60.0727 271.897C60.0727 271.874 60.4634 271.484 60.4634 271.484ZM60.0268 272.127L57.9825 270.773V268.113C58.4878 267.746 59.5674 267.012 60.0727 266.645C59.2688 266.209 58.5796 265.681 58.1661 265.177V264.993C59.3838 264.305 60.2566 263.663 60.9918 262.998H61.1523C61.1523 262.998 63.6563 264.191 63.7941 264.236C63.9321 264.305 64.0239 264.351 64.1617 264.351C64.3456 264.351 64.4833 264.305 64.6672 264.214V264.489C64.4833 264.626 64.2766 264.879 64.2766 265.269V269.741C64.2766 270.2 64.6901 270.521 64.9886 270.59L65.517 270.062L65.6778 270.246L63.7941 272.172H63.6794C62.9443 271.966 62.1173 271.255 61.9793 270.429L60.1645 272.195C60.1417 272.149 60.0268 272.149 60.0268 272.127ZM47.622 270.085V265.452L45.9221 264.718V269.993L46.9789 270.704L47.622 270.085ZM48.4261 264.925L45.9221 263.869V264.42L47.8746 265.269V270.36C47.8746 271.461 48.3571 272.654 49.0923 273.571L49.4827 273.182C48.8396 272.333 48.403 271.392 48.403 270.291L48.4261 264.925ZM45.7385 271.874L46.152 271.507L44.36 270.36V264.902L43.8547 265.269V270.613L45.7385 271.874ZM45.0262 274.03C44.36 274.03 43.7857 274.328 43.4412 274.787V274.879C43.8316 274.649 44.291 274.512 45.0262 274.512C45.8991 274.512 47.0249 274.764 47.6679 275.108L48.0127 274.695C47.2544 274.328 46.1748 274.03 45.0262 274.03ZM43.579 270.727V265.108L46.5655 263.021H46.7491C47.3234 263.273 49.2531 264.076 49.4827 264.191C49.5748 264.214 49.6894 264.259 49.8043 264.259C49.9883 264.259 50.1719 264.191 50.3787 264.099V264.42C50.195 264.58 49.9652 264.925 49.9652 265.2V269.971C49.9652 271.094 50.195 271.737 50.6544 272.195V272.379C49.9883 273.044 48.4721 274.604 47.8059 275.429H47.691C47.0477 275.062 45.9452 274.787 45.0493 274.787C44.3831 274.787 43.648 274.97 43.0737 275.406L42.9359 275.292C43.4412 274.099 44.5439 272.883 45.9452 272.883C46.8181 272.883 47.9667 273.25 48.9314 273.778C48.2653 273.021 47.6679 271.622 47.6451 270.452L45.8762 272.149H45.7385L43.579 270.727ZM70.2724 264.489L71.1912 265.383V270.291L71.7196 269.993V265.108L70.6858 264.076L70.2724 264.489ZM70.6399 272.035C70.7318 271.897 70.9154 271.714 71.0072 271.599L69.1925 271.209V271.714L70.6399 272.035ZM70.9154 270.291V265.452L70.1115 264.626L69.2156 265.475V269.948C69.606 270.039 70.7087 270.246 70.9154 270.291ZM67.1481 273.617L66.7806 273.961L68.1359 275.131L68.5494 274.764L67.4926 273.87L67.6765 273.686V264.97L66.9183 264.214L66.5507 264.58L67.1481 265.2V273.617ZM69.1925 265.108L71.3979 263.021H71.5587C71.7196 263.181 72.7302 264.076 72.891 264.191C72.9828 264.236 73.0977 264.259 73.1896 264.259C73.3735 264.259 73.5112 264.191 73.6492 264.122V264.42C73.4653 264.558 73.2586 264.879 73.2586 265.246V270.636C72.3167 270.865 71.5587 271.37 70.7546 272.31H70.6858L69.2156 272.012V273.205L69.9735 273.892L68.1818 275.383H68.09L66.413 273.961L66.8724 273.48V271.484C66.6887 271.438 66.344 271.392 66.1832 271.347V271.094C66.3899 271.003 66.9183 270.498 66.9183 270.062V265.314L66.3899 264.787L65.8387 265.337L65.655 265.154L67.7684 263.021H67.9292L69.2615 264.328L69.1925 265.108ZM-11.5533 267.723L-11.5763 265.383L-12.1047 265.75V267.929C-12.1047 268.158 -12.1506 268.365 -12.2195 268.526H-12.1506C-11.829 268.319 -11.5533 267.998 -11.5533 267.723ZM-14.264 264.053C-15.0221 264.81 -15.7342 265.865 -15.7342 267.195C-15.7342 270.36 -13.5978 271.966 -10.8872 271.966C-9.21021 271.966 -8.01567 271.049 -7.32652 270.36L-7.37246 270.291C-8.15351 270.934 -9.23319 271.438 -10.8872 271.438C-13.0695 271.438 -15.1829 270.108 -15.1829 267.172C-15.1829 266.025 -14.7464 264.879 -14.1951 264.099L-14.264 264.053ZM-8.45214 262.814C-10.4736 262.814 -12.3114 261.828 -13.7816 261.828C-14.7234 261.828 -15.8261 262.218 -16.2166 263.319L-16.1477 263.342C-15.7112 262.585 -14.6775 262.333 -13.7816 262.333C-12.3114 262.333 -10.4736 263.342 -8.45214 263.342C-6.82113 263.342 -5.87929 262.791 -5.71849 261.484L-5.81037 261.461C-6.0401 262.447 -6.82113 262.814 -8.45214 262.814ZM-16.0099 267.195C-16.0099 265.039 -14.3789 263.548 -12.8627 262.883L-12.7479 263.021C-13.2992 263.663 -13.6897 264.282 -13.6897 265.59C-13.6897 267.08 -13.2992 268.113 -12.6789 268.801C-12.4722 268.571 -12.3573 268.204 -12.3573 267.883V265.658L-9.62369 263.709L-9.50883 263.869C-9.73855 264.214 -9.8764 264.535 -9.8764 265.062V266.484C-9.8764 267.471 -11.5074 268.549 -12.5181 268.961C-11.852 269.604 -10.9101 269.879 -9.8764 269.879C-9.50883 269.879 -9.16427 269.856 -8.86562 269.81V263.548C-9.76154 263.502 -10.6115 263.25 -11.3925 263.044C-12.2195 262.791 -13.0695 262.585 -13.7816 262.585C-14.8842 262.585 -16.2166 262.952 -16.2396 264.558C-16.2396 264.695 -16.2166 264.856 -16.1936 265.016L-16.4004 265.085C-16.5842 264.58 -16.699 264.099 -16.699 263.617C-16.722 261.691 -15.2977 259.993 -13.0005 259.993C-12.0357 259.993 -11.1169 260.223 -10.3358 260.452C-9.48587 260.704 -8.63592 260.911 -7.76299 260.911C-7.32652 260.911 -7.07383 260.681 -7.07383 260.268C-7.07383 259.856 -7.30356 259.672 -7.62516 259.58L-7.5792 259.374C-6.59143 259.557 -5.51175 260.131 -5.51175 261.369C-5.51175 262.86 -6.59143 263.571 -8.42918 263.571H-8.61294V269.764C-7.4184 269.535 -6.61438 268.984 -6.01711 268.021L-5.83335 268.136C-6.49952 270.246 -8.06161 272.264 -10.8642 272.264C-13.6897 272.241 -16.0099 270.59 -16.0099 267.195ZM18.4018 267.723L18.379 265.383L17.8506 265.75V267.929C17.8506 268.158 17.8046 268.365 17.7356 268.526H17.8046C18.1491 268.319 18.4018 267.998 18.4018 267.723ZM15.7141 264.053C14.9562 264.81 14.2441 265.865 14.2441 267.195C14.2441 270.383 16.3803 271.966 19.091 271.966C20.768 271.966 21.9626 271.049 22.6287 270.36L22.5828 270.291C21.8018 270.934 20.7221 271.438 19.091 271.438C16.9087 271.438 14.7953 270.108 14.7953 267.172C14.7953 266.003 15.2088 264.856 15.7601 264.076L15.7141 264.053ZM21.526 262.814C19.5045 262.814 17.6669 261.828 16.1966 261.828C15.2547 261.828 14.152 262.218 13.7616 263.319L13.8306 263.342C14.2669 262.585 15.3007 262.333 16.1966 262.333C17.6669 262.333 19.5045 263.342 21.526 263.342C23.1571 263.342 24.099 262.791 24.2598 261.484L24.1678 261.461C23.9382 262.447 23.1571 262.814 21.526 262.814ZM13.9684 267.195C13.9684 265.039 15.5992 263.548 17.1154 262.883L17.2072 263.021C16.656 263.663 16.2656 264.282 16.2656 265.59C16.2656 267.08 16.656 268.113 17.2762 268.801C17.483 268.571 17.5979 268.204 17.5979 267.883V265.658L20.3315 263.709L20.4464 263.869C20.1937 264.214 20.0788 264.535 20.0788 265.062V266.484C20.0788 267.471 18.448 268.549 17.4371 268.961C18.1032 269.604 19.0451 269.879 20.0788 269.879C20.4464 269.879 20.7909 269.856 21.0897 269.81V263.548C20.1937 263.502 19.3437 263.25 18.5857 263.044C17.7587 262.791 16.9087 262.585 16.1966 262.585C15.0939 262.585 13.7616 262.952 13.7385 264.558C13.7385 264.695 13.7616 264.856 13.7616 265.016L13.5549 265.085C13.371 264.58 13.2563 264.099 13.2563 263.617C13.2332 261.668 14.6576 259.97 16.9546 259.97C17.9196 259.97 18.8384 260.2 19.6194 260.429C20.4695 260.658 21.3193 260.888 22.1922 260.888C22.6287 260.888 22.8814 260.658 22.8814 260.246C22.8814 259.833 22.6746 259.626 22.353 259.535L22.3761 259.328C23.3639 259.512 24.4435 260.085 24.4435 261.324C24.4435 262.814 23.3639 263.525 21.5491 263.525H21.3652V269.718C22.5597 269.489 23.3639 268.938 23.961 267.975L24.1449 268.09C23.4788 270.2 21.9167 272.218 19.1141 272.218C16.2884 272.241 13.9684 270.59 13.9684 267.195Z" fill="#252525"/>
</g>
<rect x="-33" y="43" width="131" height="131" rx="8" fill="#F8F8F7"/>
<g clip-path="url(#clip5_15426_37257)">
<path d="M-3.25189 101.611C-1.89672 101.612 -0.541059 101.612 0.81436 101.611C0.81436 101.627 0.814603 101.658 0.814847 101.673C0.550975 101.727 0.27809 101.766 0.0378518 101.896C-0.142936 101.987 -0.296679 102.133 -0.385611 102.315C-0.491111 102.533 -0.508167 102.778 -0.509629 103.016C-0.507924 104.774 -0.510113 106.531 -0.508651 108.289C-0.504753 108.552 -0.520594 108.817 -0.491843 109.079C-0.462849 109.332 -0.354911 109.585 -0.149272 109.745C0.123371 109.965 0.480317 110.02 0.81436 110.085C0.81436 110.1 0.814605 110.129 0.814605 110.144C-0.541057 110.144 -1.89672 110.144 -3.25214 110.144C-3.25214 110.129 -3.25214 110.1 -3.25214 110.085C-3.00069 110.032 -2.73974 109.998 -2.5073 109.881C-2.28412 109.777 -2.08871 109.593 -2.01099 109.357C-1.94252 109.174 -1.92937 108.978 -1.92791 108.785C-1.92791 106.986 -1.92791 105.188 -1.92791 103.389C-1.93303 103.123 -1.91012 102.855 -1.9608 102.592C-1.9993 102.365 -2.116 102.151 -2.29947 102.009C-2.56968 101.792 -2.92248 101.738 -3.25238 101.673C-3.25238 101.658 -3.25189 101.627 -3.25189 101.611Z" fill="#252525"/>
<path d="M1.05346 101.611C2.0473 101.609 3.04114 101.611 4.03523 101.61C4.30373 102.086 4.64898 102.513 4.9935 102.936C5.55608 103.617 6.13353 104.287 6.70465 104.961C7.55961 105.965 8.41238 106.97 9.2671 107.974C9.25419 106.553 9.24322 105.131 9.22982 103.71C9.2286 103.281 9.20838 102.839 9.03685 102.439C8.93647 102.203 8.75641 101.998 8.5247 101.883C8.24962 101.744 7.93727 101.714 7.63612 101.672C7.63636 101.657 7.6366 101.625 7.63685 101.61C9.75221 101.61 11.8676 101.61 13.9829 101.61C14.5323 101.613 15.0818 101.603 15.6312 101.618C16.3037 101.648 16.9815 101.761 17.6018 102.029C18.4139 102.357 19.1305 102.938 19.5783 103.692C20.0505 104.476 20.2267 105.419 20.1292 106.324C20.0354 107.21 19.6641 108.074 19.0423 108.721C18.3908 109.419 17.4907 109.861 16.5549 110.033C15.8568 110.177 15.1412 110.137 14.4332 110.142C13.3051 110.142 12.1765 110.143 11.0484 110.142C11.0509 110.128 11.0557 110.099 11.0582 110.086C11.2497 110.046 11.4473 110.029 11.6337 109.966C11.8671 109.892 12.091 109.755 12.2184 109.541C12.3458 109.32 12.3783 109.061 12.3778 108.81C12.378 107.003 12.3785 105.195 12.3775 103.388C12.3731 102.934 12.2991 102.441 11.9813 102.092C11.6958 101.775 11.2482 101.664 10.8338 101.673C10.5026 101.675 10.1593 101.749 9.89109 101.951C9.60699 102.163 9.44935 102.502 9.38819 102.843C9.32679 103.153 9.34019 103.471 9.33898 103.786C9.33873 105.966 9.33873 108.146 9.33873 110.326C9.31826 110.326 9.27733 110.326 9.25687 110.327C7.99891 108.861 6.75094 107.387 5.49591 105.918C4.67091 104.95 3.84494 103.982 3.01995 103.013C3.03164 104.448 3.04407 105.884 3.05528 107.318C3.05771 107.865 3.0716 108.421 3.23217 108.947C3.31159 109.202 3.4339 109.451 3.6315 109.637C3.90805 109.905 4.29764 109.992 4.6597 110.083C4.65995 110.098 4.65995 110.128 4.65995 110.142C3.55305 110.143 2.4464 110.142 1.33975 110.143C1.33975 110.128 1.3395 110.098 1.3395 110.084C1.62554 110.01 1.92255 109.949 2.17595 109.79C2.48026 109.601 2.67348 109.279 2.77508 108.944C2.93954 108.402 2.95099 107.83 2.94588 107.268C2.94612 105.831 2.94417 104.394 2.94734 102.957C2.64765 102.626 2.34138 102.293 1.97128 102.038C1.71521 101.862 1.42161 101.744 1.11656 101.686C1.07027 101.684 1.04712 101.658 1.05346 101.611ZM13.799 101.672C13.799 104.035 13.7992 106.397 13.799 108.759C13.7992 108.992 13.8087 109.229 13.8745 109.454C13.9254 109.67 14.0677 109.868 14.2687 109.97C14.4873 110.086 14.7424 110.086 14.9833 110.084C15.5618 110.091 16.1509 110 16.675 109.748C17.1331 109.529 17.5275 109.185 17.8133 108.768C18.1164 108.334 18.3033 107.829 18.4173 107.314C18.5287 106.801 18.5691 106.274 18.5603 105.75C18.5494 105.171 18.4751 104.589 18.2926 104.038C18.1364 103.563 17.8974 103.11 17.5629 102.736C17.2464 102.383 16.8477 102.103 16.4048 101.931C15.9384 101.747 15.4341 101.67 14.9336 101.672C14.5555 101.672 14.1774 101.672 13.799 101.672Z" fill="#252525"/>
<path d="M20.4443 101.612C22.8591 101.611 25.2744 101.612 27.6894 101.612C27.6897 102.416 27.6894 103.221 27.6897 104.026C27.6745 104.027 27.6446 104.027 27.6297 104.028C27.4648 103.737 27.3032 103.444 27.1417 103.152C27.0374 102.968 26.9378 102.781 26.8076 102.614C26.6096 102.346 26.3489 102.123 26.0472 101.979C25.6993 101.808 25.3124 101.74 24.9296 101.703C24.3514 101.656 23.771 101.68 23.1914 101.674C23.1912 103.019 23.1943 104.364 23.1914 105.709C23.628 105.696 24.0656 105.704 24.501 105.666C24.7676 105.642 25.0436 105.596 25.2729 105.45C25.5036 105.304 25.6608 105.069 25.7719 104.825C25.9142 104.517 26.0048 104.191 26.1074 103.869C26.1228 103.869 26.1537 103.868 26.169 103.868C26.169 105.116 26.1683 106.363 26.1693 107.61C26.1542 107.61 26.1237 107.61 26.1084 107.61C25.9892 107.256 25.8893 106.892 25.7168 106.558C25.5911 106.309 25.4018 106.08 25.1406 105.966C24.8156 105.822 24.4511 105.817 24.1017 105.801C23.7983 105.792 23.4945 105.79 23.1914 105.782C23.1934 106.792 23.1919 107.802 23.1926 108.811C23.196 109.09 23.2233 109.378 23.3583 109.627C23.4589 109.807 23.6307 109.942 23.8261 110.008C24.107 110.107 24.4097 110.081 24.7025 110.085C25.2103 110.082 25.7315 110.035 26.201 109.828C26.4877 109.703 26.745 109.515 26.9546 109.283C27.1463 109.079 27.2976 108.842 27.4394 108.601C27.6029 108.325 27.7705 108.052 27.9326 107.774C27.9474 107.74 27.9759 107.724 28.0176 107.726C28.0198 108.532 28.0166 109.338 28.0171 110.144C25.4929 110.143 22.9685 110.145 20.4438 110.143C20.4462 110.129 20.4513 110.1 20.454 110.086C20.6694 110.044 20.8926 110.029 21.0987 109.947C21.3316 109.864 21.5378 109.697 21.6464 109.474C21.7456 109.26 21.7722 109.021 21.7712 108.787C21.7712 106.921 21.7712 105.056 21.7709 103.19C21.7675 102.926 21.7885 102.653 21.6974 102.399C21.6338 102.19 21.4725 102.022 21.2832 101.918C21.0281 101.775 20.7342 101.737 20.4533 101.672C20.4511 101.657 20.4465 101.627 20.4443 101.612Z" fill="#252525"/>
<path d="M29.0257 101.61C30.1416 101.611 31.2575 101.61 32.3734 101.611C32.9725 101.602 33.5826 101.638 34.1523 101.837C34.6264 101.996 35.0733 102.259 35.4076 102.633C35.7545 103.016 35.9675 103.52 35.9865 104.037C36.0262 104.653 35.8038 105.282 35.3764 105.73C35.0835 106.052 34.6998 106.282 34.297 106.443C33.7739 106.645 33.2086 106.722 32.6497 106.718C32.4982 106.717 32.3474 106.718 32.1965 106.717C32.1965 106.7 32.1963 106.665 32.1963 106.647C32.7601 106.653 33.348 106.482 33.7527 106.076C34.1384 105.704 34.3375 105.178 34.4052 104.656C34.4722 104.089 34.4379 103.497 34.2254 102.962C34.0702 102.58 33.8119 102.232 33.4596 102.01C33.2157 101.85 32.9343 101.753 32.647 101.708C32.36 101.659 32.0676 101.676 31.7777 101.673C31.7794 104.019 31.7777 106.365 31.7794 108.711C31.785 108.98 31.7891 109.265 31.9241 109.507C32.035 109.699 32.2382 109.813 32.4424 109.885C32.7041 109.977 32.9779 110.027 33.2491 110.084C33.2491 110.098 33.2489 110.128 33.2489 110.143C31.8403 110.143 30.4315 110.143 29.023 110.143C29.023 110.128 29.023 110.099 29.023 110.084C29.3012 110.028 29.5902 109.986 29.8404 109.843C30.0478 109.727 30.2164 109.534 30.28 109.304C30.3555 109.073 30.3441 108.826 30.3455 108.586C30.3441 106.753 30.3463 104.921 30.3443 103.088C30.3502 102.787 30.338 102.463 30.1625 102.204C29.9857 101.943 29.6762 101.813 29.3778 101.746C29.2591 101.719 29.1402 101.697 29.0218 101.673C29.0228 101.657 29.0245 101.626 29.0257 101.61Z" fill="#252525"/>
<path d="M36.3306 101.612C38.7456 101.611 41.1607 101.612 43.5755 101.612C43.5755 102.416 43.5755 103.221 43.5755 104.026C43.5543 104.026 43.534 104.027 43.5148 104.027C43.2894 103.633 43.0784 103.231 42.8482 102.839C42.6077 102.441 42.2556 102.101 41.8183 101.927C41.2671 101.701 40.6604 101.679 40.0725 101.674C39.7419 101.674 39.4113 101.673 39.0806 101.674C39.0811 103.019 39.0804 104.364 39.0811 105.709C39.4449 105.699 39.8094 105.701 40.1731 105.682C40.4258 105.667 40.6821 105.646 40.9231 105.564C41.1546 105.487 41.3568 105.328 41.4896 105.124C41.7488 104.748 41.8499 104.296 41.9978 103.872C42.012 103.87 42.0405 103.866 42.0548 103.864C42.0541 105.112 42.0585 106.359 42.0524 107.607C42.0385 107.609 42.0105 107.612 41.9966 107.615C41.8546 107.192 41.7415 106.751 41.4947 106.374C41.3714 106.19 41.2006 106.033 40.9925 105.951C40.7235 105.84 40.4287 105.824 40.142 105.806C39.7884 105.791 39.4344 105.792 39.0809 105.782C39.0809 106.8 39.0804 107.818 39.0811 108.836C39.0823 109.119 39.1186 109.414 39.2665 109.661C39.3925 109.868 39.6166 110 39.8518 110.047C40.1042 110.102 40.3639 110.081 40.6205 110.084C41.1865 110.08 41.7744 110.015 42.2756 109.734C42.6737 109.516 42.981 109.165 43.2158 108.783C43.4285 108.435 43.6317 108.082 43.8471 107.736C43.8615 107.734 43.89 107.729 43.9044 107.727C43.9054 108.532 43.9032 109.338 43.9036 110.144C41.379 110.144 38.8545 110.145 36.3303 110.143C36.3325 110.129 36.3374 110.1 36.3401 110.086C36.5696 110.043 36.8079 110.025 37.025 109.931C37.2784 109.831 37.495 109.626 37.5783 109.364C37.6575 109.139 37.6614 108.897 37.6597 108.661C37.6594 106.87 37.6597 105.08 37.6597 103.289C37.6538 102.99 37.6845 102.68 37.5829 102.392C37.5208 102.193 37.3673 102.033 37.1894 101.929C36.9299 101.777 36.6273 101.738 36.3391 101.672C36.3371 101.657 36.3328 101.627 36.3306 101.612Z" fill="#252525"/>
<path d="M44.5292 101.61C45.5213 101.61 46.5134 101.61 47.5056 101.61C47.7721 102.083 48.1147 102.508 48.4573 102.928C49.0488 103.646 49.6582 104.35 50.2591 105.06C51.085 106.032 51.9107 107.003 52.7372 107.974C52.725 106.645 52.7145 105.315 52.7026 103.985C52.6985 103.599 52.708 103.21 52.6288 102.83C52.5783 102.594 52.4965 102.358 52.3447 102.167C52.2009 101.983 51.9921 101.858 51.7699 101.792C51.5689 101.734 51.3606 101.705 51.1537 101.678C51.1116 101.678 51.0943 101.656 51.1018 101.611C53.1894 101.609 55.2768 101.61 57.3641 101.61C57.9381 101.613 58.5119 101.603 59.0857 101.618C59.7633 101.646 60.4465 101.76 61.0719 102.028C61.9035 102.363 62.6311 102.965 63.0796 103.741C63.908 105.179 63.7896 107.105 62.7729 108.421C62.28 109.057 61.5972 109.536 60.8405 109.809C60.1782 110.052 59.4678 110.148 58.7641 110.143C57.35 110.142 55.9358 110.143 54.5217 110.142C54.5241 110.127 54.5288 110.099 54.5312 110.085C54.7298 110.045 54.9342 110.027 55.1267 109.959C55.3535 109.884 55.5699 109.745 55.6919 109.535C55.8201 109.317 55.8469 109.058 55.8479 108.81C55.8484 107.036 55.8476 105.261 55.8481 103.488C55.852 103.01 55.7935 102.488 55.469 102.111C55.1747 101.77 54.6981 101.657 54.2622 101.674C53.8556 101.679 53.4223 101.814 53.1633 102.143C52.9947 102.35 52.9 102.609 52.8544 102.869C52.8057 103.138 52.8088 103.412 52.8096 103.685C52.8105 105.899 52.8081 108.114 52.8103 110.329C52.7764 110.325 52.744 110.321 52.7133 110.318C51.4473 108.821 50.1711 107.333 48.9005 105.841C48.0972 104.898 47.2929 103.956 46.4898 103.013C46.5015 104.406 46.5132 105.799 46.5244 107.192C46.5268 107.775 46.5288 108.369 46.6972 108.933C46.7931 109.255 46.9676 109.571 47.2556 109.761C47.4829 109.917 47.7548 109.986 48.0185 110.055C48.0684 110.072 48.1513 110.064 48.1379 110.142C47.0275 110.143 45.9172 110.143 44.8069 110.142C44.7921 110.068 44.8688 110.072 44.9171 110.057C45.198 109.985 45.4901 109.913 45.7255 109.735C46.0188 109.52 46.1882 109.179 46.2759 108.835C46.445 108.202 46.4135 107.542 46.416 106.894C46.4118 105.58 46.4226 104.264 46.4111 102.95C46.0946 102.602 45.772 102.249 45.3729 101.993C45.1176 101.826 44.8242 101.73 44.527 101.67C44.5275 101.655 44.5287 101.625 44.5292 101.61ZM57.2691 101.672C57.2693 104.043 57.2691 106.414 57.2691 108.785C57.2686 109.053 57.2883 109.326 57.3853 109.579C57.4623 109.772 57.6199 109.93 57.8151 110.005C58.0597 110.103 58.3289 110.081 58.5872 110.083C58.9985 110.078 59.412 110.019 59.802 109.887C60.2508 109.737 60.6633 109.478 60.9872 109.133C61.3616 108.743 61.6148 108.251 61.7751 107.739C61.9532 107.169 62.0236 106.57 62.0312 105.975C62.0368 105.39 61.982 104.8 61.8226 104.235C61.6876 103.752 61.4752 103.284 61.1614 102.889C60.8656 102.508 60.474 102.202 60.0355 101.998C59.5287 101.767 58.9671 101.671 58.4118 101.672C58.0307 101.672 57.6499 101.672 57.2691 101.672Z" fill="#252525"/>
<path d="M63.9194 101.61C66.3323 101.61 68.7454 101.611 71.1582 101.609C71.1611 102.414 71.1575 103.218 71.1602 104.022C71.1387 104.024 71.119 104.025 71.1005 104.027C70.8751 103.633 70.6636 103.232 70.4336 102.841C70.1897 102.435 69.8284 102.089 69.3808 101.917C68.8592 101.709 68.2878 101.68 67.7323 101.673C67.3763 101.672 67.0203 101.672 66.6646 101.672C66.6646 103.017 66.6646 104.362 66.6646 105.707C67.0291 105.698 67.3946 105.7 67.7591 105.68C68.0127 105.665 68.2705 105.644 68.5124 105.56C68.7434 105.482 68.9442 105.322 69.0765 105.119C69.3331 104.743 69.4342 104.293 69.5823 103.871C69.5962 103.869 69.6245 103.864 69.6383 103.862C69.6405 105.11 69.6371 106.358 69.64 107.606C69.6249 107.607 69.5947 107.609 69.5796 107.61C69.4366 107.189 69.3272 106.747 69.0787 106.372C68.9554 106.189 68.7863 106.033 68.5794 105.95C68.3212 105.842 68.0376 105.824 67.7615 105.807C67.396 105.789 67.0301 105.791 66.6649 105.781C66.6646 106.799 66.6644 107.816 66.6649 108.834C66.6658 109.112 66.7014 109.399 66.8415 109.645C66.956 109.842 67.1585 109.976 67.3775 110.032C67.648 110.104 67.9304 110.079 68.2074 110.083C68.7661 110.078 69.3462 110.015 69.843 109.742C70.2536 109.518 70.5725 109.159 70.8098 108.763C70.9984 108.451 71.1841 108.138 71.3724 107.827C71.4009 107.781 71.4216 107.716 71.4898 107.725C71.4913 108.531 71.4898 109.336 71.4906 110.142C68.9651 110.142 66.4395 110.143 63.9141 110.142C63.9165 110.127 63.9211 110.099 63.9236 110.085C64.1597 110.041 64.4045 110.022 64.6265 109.922C64.8392 109.836 65.021 109.674 65.1211 109.466C65.2183 109.253 65.2432 109.016 65.2437 108.785C65.2432 106.902 65.2437 105.02 65.2437 103.138C65.2424 102.892 65.2522 102.64 65.171 102.404C65.106 102.189 64.941 102.014 64.7437 101.911C64.4886 101.773 64.1984 101.731 63.9184 101.671C63.9187 101.656 63.9192 101.625 63.9194 101.61Z" fill="#252525"/>
<path d="M72.1196 101.611C73.113 101.609 74.1063 101.612 75.0995 101.609C75.3606 102.07 75.6937 102.483 76.0253 102.894C76.6115 103.603 77.2126 104.3 77.8064 105.002C78.6499 105.992 79.4902 106.984 80.3333 107.974C80.3204 106.586 80.3099 105.198 80.2965 103.811C80.2923 103.475 80.2655 103.138 80.1829 102.812C80.0955 102.463 79.9144 102.118 79.6018 101.921C79.3346 101.749 79.0115 101.709 78.7025 101.672C78.7025 101.657 78.7028 101.626 78.7028 101.61C79.8009 101.61 80.8995 101.61 81.9979 101.61C81.9976 101.626 81.9976 101.657 81.9976 101.673C81.7993 101.7 81.5981 101.717 81.4075 101.78C81.1812 101.85 80.9704 101.98 80.8228 102.166C80.65 102.371 80.5577 102.629 80.498 102.887C80.3764 103.418 80.412 103.967 80.4056 104.508C80.4066 106.447 80.4039 108.386 80.4064 110.326C80.3854 110.326 80.3435 110.326 80.3226 110.327C78.2398 107.892 76.1654 105.451 74.0859 103.014C74.0976 104.44 74.1102 105.866 74.1212 107.292C74.1241 107.877 74.1351 108.475 74.3271 109.034C74.4379 109.359 74.6482 109.662 74.9584 109.826C75.1967 109.956 75.4647 110.016 75.7256 110.084C75.7256 110.098 75.7259 110.128 75.7259 110.143C74.62 110.143 73.5143 110.143 72.4088 110.143C72.4088 110.128 72.4086 110.098 72.4086 110.084C72.6469 110.022 72.8908 109.969 73.114 109.861C73.3393 109.752 73.5313 109.575 73.6583 109.36C73.8822 108.984 73.9492 108.542 73.9909 108.113C74.0323 107.484 74.0033 106.853 74.012 106.222C74.0108 105.135 74.014 104.047 74.0103 102.96C73.9723 102.899 73.9161 102.854 73.8705 102.8C73.524 102.428 73.1571 102.05 72.6834 101.841C72.5073 101.757 72.316 101.717 72.1286 101.67C72.1265 101.655 72.1218 101.626 72.1196 101.611Z" fill="#252525"/>
<path d="M82.4634 101.611C84.9944 101.611 87.5254 101.611 90.0567 101.611C90.0567 102.539 90.0572 103.467 90.0579 104.395C90.0426 104.393 90.0126 104.388 89.9975 104.386C89.8057 103.934 89.6391 103.472 89.4381 103.024C89.2522 102.621 89.0144 102.217 88.6357 101.965C88.3036 101.741 87.8941 101.673 87.5006 101.674C87.3234 101.673 87.147 101.674 86.9706 101.674C86.9721 103.994 86.9714 106.315 86.9719 108.636C86.9689 108.897 86.9723 109.165 87.0705 109.411C87.1614 109.648 87.3619 109.833 87.5956 109.927C87.8168 110.022 88.0593 110.046 88.2951 110.085C88.2951 110.099 88.2949 110.129 88.2949 110.144C86.9392 110.144 85.5835 110.144 84.2284 110.144C84.2281 110.129 84.2281 110.099 84.2281 110.085C84.4559 110.047 84.6903 110.025 84.9062 109.935C85.126 109.852 85.318 109.69 85.423 109.479C85.5251 109.263 85.5511 109.022 85.5502 108.786C85.5502 106.415 85.5507 104.044 85.5494 101.674C85.2083 101.679 84.8638 101.653 84.5266 101.716C84.1723 101.777 83.8376 101.952 83.5959 102.218C83.2823 102.557 83.0932 102.986 82.9214 103.408C82.8033 103.699 82.6863 103.992 82.5699 104.284C82.547 104.333 82.5387 104.409 82.4656 104.396C82.4624 103.468 82.4641 102.539 82.4634 101.611Z" fill="#252525"/>
</g>
<rect x="-32.9991" y="353.262" width="131" height="131" rx="8" fill="#F8F8F7"/>
<rect x="277.001" y="198.131" width="131" height="131" rx="8" fill="#F8F8F7"/>
<g clip-path="url(#clip6_15426_37257)">
<path d="M323.44 265.979L324.68 265.341V255.648H323.743L321.454 258.669H321.197L321.342 255.272H331.264L331.409 258.672H331.134L328.891 255.651H327.926V265.317L329.172 265.973V266.3H323.44V265.979ZM332.373 265.551V254.815L331.409 254.43V254.231L334.885 253.594H335.266V258.69L335.348 258.608C336.179 257.905 337.234 257.513 338.328 257.507C339.852 257.507 340.523 258.365 340.523 259.956V265.548L341.336 265.991V266.297H336.79V265.991L337.606 265.548V259.938C337.606 259.06 337.219 258.711 336.499 258.711C336.064 258.702 335.638 258.84 335.296 259.105V265.566L336.097 266.009V266.3H331.551V266.009L332.373 265.551ZM343.809 262.254C343.903 264.029 344.704 265.401 346.596 265.401C347.512 265.401 348.162 264.98 348.763 264.658V265.007C347.944 266.003 346.714 266.571 345.42 266.556C342.485 266.556 340.988 264.932 340.988 262.122C340.988 259.376 342.63 257.664 345.278 257.664C347.772 257.664 349.066 258.903 349.066 262.17V262.254H343.809ZM343.76 261.842L346.348 261.686C346.348 259.487 345.97 258.028 345.211 258.028C344.401 258.031 343.76 259.727 343.76 261.842ZM307.301 270.599C307.301 265.927 310.408 264.264 313.87 264.264C315.339 264.264 316.723 264.505 317.5 264.817L317.567 268.078H317.237L315.206 264.923C314.798 264.76 314.359 264.691 313.918 264.715C312.077 264.715 311.137 266.833 311.167 270.301C311.2 274.45 311.926 276.339 313.616 276.339C313.96 276.351 314.305 276.294 314.628 276.17V271.724L313.513 271.092V270.713H318.9V271.11L317.803 271.721V276.107C316.497 276.567 315.118 276.802 313.731 276.796C309.798 276.799 307.301 274.985 307.301 270.599ZM318.401 268.418V268.147L322.013 267.513L322.412 267.546V274.651C322.412 275.509 322.827 275.77 323.522 275.77C323.978 275.776 324.411 275.575 324.698 275.22V268.845L323.706 268.415V268.138L327.319 267.504L327.681 267.537V275.689L328.658 276.095V276.354L325.115 276.787L324.752 276.754V275.683H324.652C323.924 276.39 322.954 276.796 321.938 276.82C320.2 276.82 319.405 275.8 319.405 274.251V268.845L318.401 268.418ZM341.112 267.498L341.412 267.531V270.169H341.493C341.88 268.25 342.733 267.531 343.775 267.531C343.927 267.525 344.078 267.546 344.22 267.597V270.268C343.975 270.217 343.724 270.196 343.476 270.202C342.799 270.184 342.125 270.319 341.505 270.593V275.794L342.331 276.249V276.606H337.633V276.251L338.479 275.794V268.695L337.488 268.4V268.159L341.112 267.498ZM350.202 267.72V264.947L349.211 264.601V264.381L352.868 263.713L353.216 263.764V275.677L354.226 276.041V276.348L350.613 276.826L350.332 276.793V275.812H350.251C349.625 276.471 348.751 276.835 347.841 276.817C345.87 276.817 344.431 275.319 344.431 272.263C344.431 269.035 346.103 267.447 348.636 267.447C349.168 267.419 349.706 267.513 350.202 267.72ZM350.202 275.349V268.217C349.924 267.982 349.565 267.871 349.202 267.907C348.222 267.94 347.618 269.411 347.618 272.031C347.618 274.386 348.05 275.704 349.356 275.659C349.667 275.662 349.967 275.551 350.202 275.349ZM358.186 267.498L358.5 267.531V275.794L359.326 276.249V276.606H354.628V276.251L355.471 275.794V268.827L354.461 268.43V268.153L358.186 267.498ZM358.515 265.263C358.488 266.12 357.772 266.794 356.91 266.779C356.342 266.8 355.807 266.511 355.516 266.027C355.226 265.542 355.226 264.935 355.516 264.45C355.807 263.966 356.342 263.677 356.91 263.698C357.784 263.686 358.503 264.384 358.515 265.254V265.263ZM369.065 275.794V268.752L368.074 268.406V268.066L371.686 267.398L372.049 267.431V268.487H372.149C373.007 267.756 374.098 267.353 375.229 267.35C376.801 267.35 377.496 268.09 377.496 269.748V275.782L378.34 276.261V276.61H373.636V276.255L374.479 275.797V269.895C374.479 268.99 374.08 268.626 373.337 268.626C372.889 268.614 372.454 268.752 372.097 269.02V275.794L372.926 276.249V276.61H368.225V276.255L369.065 275.794ZM363.953 271.369V270.187C363.953 268.409 363.564 267.826 362.457 267.826C362.333 267.829 362.206 267.841 362.082 267.859L360.114 270.512H359.836V268.066C360.9 267.702 362.016 267.51 363.141 267.495C365.55 267.495 366.943 268.159 366.943 270.166V275.921L367.805 276.146V276.372C367.258 276.652 366.647 276.79 366.03 276.778C364.842 276.778 364.274 276.39 364.014 275.743H363.929C363.425 276.423 362.711 276.811 361.587 276.811C360.157 276.811 359.177 275.921 359.177 274.386C359.177 272.897 360.105 272.091 361.992 271.733L363.953 271.369ZM363.953 275.349V271.79L363.352 271.838C362.409 271.92 362.067 272.518 362.067 273.845C362.067 275.283 362.548 275.656 363.204 275.656C363.488 275.683 363.769 275.569 363.953 275.349ZM333.452 271.369V270.187C333.452 268.409 333.062 267.826 331.956 267.826C331.832 267.829 331.705 267.841 331.581 267.859L329.613 270.509H329.338V268.066C330.402 267.702 331.515 267.51 332.639 267.495C335.048 267.495 336.442 268.159 336.442 270.166V275.921L337.303 276.146V276.372C336.756 276.652 336.146 276.79 335.529 276.778C334.341 276.778 333.773 276.39 333.513 275.743H333.431C332.926 276.423 332.213 276.811 331.088 276.811C329.658 276.811 328.679 275.921 328.679 274.386C328.679 272.897 329.607 272.091 331.493 271.733L333.452 271.369ZM333.452 275.349V271.79L332.851 271.838C331.908 271.92 331.566 272.518 331.566 273.845C331.566 275.283 332.047 275.656 332.702 275.656C332.987 275.683 333.268 275.569 333.452 275.349Z" fill="#252525"/>
</g>
<rect x="277.001" y="43" width="131" height="131" rx="8" fill="#F8F8F7"/>
<g clip-path="url(#clip7_15426_37257)">
<path fill-rule="evenodd" clip-rule="evenodd" d="M288.047 104.849C288.279 104.223 288.599 103.73 289.006 103.369C289.06 103.347 289.117 103.333 289.176 103.327C289.232 103.321 289.373 103.318 289.6 103.318C289.724 103.318 289.834 103.327 289.93 103.344C290.026 103.361 290.125 103.395 290.227 103.445C290.329 103.497 290.447 103.566 290.583 103.656L288.853 105.026L289.261 105.348V109.915C288.819 109.7 288.453 109.359 288.209 108.934C287.869 108.348 287.7 107.564 287.7 106.583C287.699 106.053 287.815 105.475 288.047 104.849ZM287.886 103.099C287.988 103.099 288.118 103.116 288.276 103.15C288.434 103.184 288.581 103.217 288.717 103.251C287.767 103.669 287.032 104.362 286.512 105.331C286.06 106.186 285.827 107.139 285.833 108.105C285.833 109.345 286.265 110.408 287.13 111.293C287.996 112.179 289.051 112.621 290.294 112.621C291.492 112.621 292.505 112.164 293.331 111.251C294.156 110.338 294.569 109.26 294.569 108.021C294.456 108.28 294.328 108.498 294.187 108.671C294.006 108.885 293.804 109.081 293.585 109.256C293.415 109.401 293.262 109.511 293.127 109.585C292.992 109.658 292.816 109.74 292.601 109.831V103.742C292.873 103.629 293.091 103.514 293.255 103.395C293.418 103.277 293.597 103.105 293.79 102.879C294.287 102.326 294.564 101.712 294.621 101.035C294.259 101.272 293.933 101.447 293.645 101.559C293.357 101.672 293.032 101.745 292.67 101.78C292.613 101.78 292.534 101.785 292.432 101.796C292.036 101.796 291.445 101.641 290.66 101.331C289.874 101.021 289.254 100.866 288.802 100.866C287.908 100.866 287.191 101.283 286.647 102.117C286.161 102.861 285.918 103.747 285.918 104.772C285.985 104.457 286.149 104.158 286.41 103.876C286.602 103.664 286.825 103.481 287.071 103.335C287.321 103.178 287.592 103.099 287.886 103.099ZM296.147 112.537L297.624 110.896L296.877 110.118V105.72L297.301 105.433L298.489 106.329V112.13C298.489 112.457 298.469 112.737 298.429 112.968C298.395 113.187 298.304 113.394 298.167 113.568L297.751 114.084C297.565 114.315 297.33 114.497 297.047 114.633C297.612 114.577 298.076 114.45 298.438 114.253C298.8 114.057 299.173 113.743 299.558 113.315C299.84 112.998 300.053 112.683 300.194 112.367C300.337 112.045 300.432 111.703 300.474 111.352V104.858L299.965 104.892L298.37 103.826L297.217 104.773L296.844 104.57V101.357L296.504 100.629L294.995 102.1V110.439L294.537 110.98L296.147 112.537ZM301.203 110.693L303.934 112.417L306.529 109.695L305.121 110.693L303.391 109.458V108.308L306.478 106.008L304.51 103.369L301.372 105.551V110.32L301.203 110.693ZM310.278 102.186V105.348C310.052 105.371 309.868 105.411 309.727 105.467C309.585 105.523 309.436 105.619 309.277 105.754C308.824 106.104 308.599 106.554 308.599 107.107C308.595 107.279 308.618 107.45 308.667 107.615C308.824 107.48 308.98 107.389 309.133 107.344C309.286 107.299 309.475 107.276 309.702 107.276C309.814 107.276 309.905 107.289 309.973 107.31C310.041 107.334 310.143 107.377 310.278 107.446V110.558L312.62 112.909L314.774 110.727L317.37 112.909L321.153 109.257V102.998L318.812 101.205L317.082 102.761L314.724 101.205L312.62 102.964V101.933C312.62 101.594 312.377 101.211 311.891 100.783C311.744 100.682 311.605 100.577 311.475 100.47C311.345 100.363 311.269 100.21 311.247 100.013C311.227 99.8535 311.215 99.6925 311.213 99.5313C311.213 99.1481 311.343 98.8432 311.603 98.6178C311.508 98.5997 311.411 98.5884 311.315 98.584C310.806 98.584 310.356 98.795 309.966 99.2183C309.576 99.6415 309.381 100.112 309.381 100.631C309.381 100.71 309.392 100.817 309.415 100.952C309.514 101.504 309.802 101.915 310.278 102.186ZM321.61 110.777L323.714 112.249L325.241 110.812L327.055 112.08L328.616 110.406H328.073L327.378 109.695V104.74L327.004 104.807L325.241 103.335L321.898 105.635V110.489L321.61 110.777ZM331.728 103.665C331.513 103.563 331.311 103.435 331.127 103.285L328.362 105.23V108.512L328.616 108.714H330.261L328.124 112.417C328.452 112.136 328.707 111.95 328.888 111.859C329.147 111.733 329.431 111.67 329.719 111.673C330.081 111.673 330.374 111.716 330.601 111.801C330.828 111.885 331.059 112.034 331.297 112.248L334.011 110.118V106.787L333.807 106.583H331.991V106.414L333.604 103.589C333.433 103.691 333.298 103.75 333.196 103.767C333.033 103.787 332.868 103.795 332.704 103.792H332.348C332.135 103.795 331.923 103.752 331.728 103.665ZM336.029 112.3L337.522 110.643L336.776 109.864V105.467L337.183 105.18L338.386 106.093V111.877C338.391 112.157 338.371 112.438 338.327 112.715C338.287 112.934 338.194 113.134 338.047 113.315C337.956 113.428 337.832 113.59 337.674 113.806C337.47 114.042 337.222 114.237 336.944 114.379C337.464 114.335 337.925 114.208 338.327 114C338.728 113.791 339.104 113.484 339.455 113.078C339.715 112.774 339.919 112.456 340.066 112.123C340.213 111.791 340.309 111.449 340.354 111.099V104.604L339.862 104.655L338.251 103.589L337.097 104.52L336.724 104.317V101.12L336.402 100.377L334.875 101.848V110.203L334.417 110.727L336.029 112.3ZM344.188 102.304L342.662 101.069L341.424 102.423L342.713 103.589L344.188 102.304ZM341.797 106.126V110.725L341.474 111.217H342.051L343.374 112.332L344.765 111.064L346.546 112.501L348.106 110.777L347.614 110.152V105.838L348.021 105.636L348.92 106.617V110.845L350.498 112.215L352.025 110.489H351.313L350.906 109.83V105.229L351.109 104.807L350.702 104.891L349.142 103.656L347.615 105.229L345.834 103.825L344.358 105.466H344.935L345.427 106.041V110.269L344.444 110.607L343.815 110.117V105.381L344.019 105.093L342.255 103.791L340.813 105.313L341.305 105.465L341.797 106.126ZM372.297 110.574L371.807 109.948V105.636L372.212 105.433L373.112 106.414V110.66L374.691 112.012L376.216 110.287H375.504L375.097 109.627V105.026L375.3 104.621L374.893 104.688L373.333 103.453L371.807 105.026L370.025 103.623L368.549 105.264H369.126L369.617 105.838V110.084L369.006 110.896L370.889 112.13L372.297 110.574ZM352.348 110.608C352.574 110.608 352.78 110.637 352.967 110.693C353.154 110.749 353.337 110.848 353.518 110.989C353.7 111.131 353.832 111.265 353.917 111.395C354.002 111.524 354.073 111.702 354.129 111.927L353.247 113.061L352.314 114.313C352.552 114.177 352.756 114.095 352.925 114.067C353.095 114.039 353.343 114.026 353.672 114.026C354.056 114.059 354.383 114.149 354.654 114.296C354.927 114.443 355.174 114.662 355.401 114.956C355.944 114.753 356.575 114.301 357.292 113.603C358.011 112.904 358.371 112.329 358.371 111.878C358.371 111.799 358.288 111.556 358.124 111.151C357.959 110.742 357.876 110.305 357.878 109.865V104.605L355.519 103.133L352.551 105.23V110.238L352.348 110.608ZM358.2 104.824H359.184V110.693L358.947 111.15H359.523L360.762 112.097L362.356 110.287H361.661L361.203 109.796V104.942L362.204 103.708H361.203V100.477L359.185 102.355V103.64L358.2 104.824ZM362.493 110.608L364.595 112.097L368.26 109.543V104.571L367.887 104.655L366.122 103.167L362.781 105.467V110.321L362.493 110.608ZM379.71 102.219V103.792C379.416 103.792 379.167 103.824 378.963 103.886C378.76 103.948 378.566 104.068 378.378 104.249C378.192 104.43 378.082 104.638 378.048 104.875C378.015 105.112 377.997 105.422 377.997 105.805C377.997 105.963 377.991 106.07 377.98 106.126C378.229 105.732 378.573 105.569 379.015 105.636C379.309 105.681 379.541 105.806 379.71 106.008V108.63C379.19 108.901 378.737 109.257 378.354 109.696C377.923 110.203 377.635 110.726 377.488 111.268C377.679 111.119 377.884 110.986 378.099 110.871C378.268 110.786 378.506 110.7 378.812 110.609C378.924 110.575 379.054 110.538 379.201 110.499C379.348 110.459 379.518 110.44 379.711 110.44V115.497L381.933 113.686L382.679 114.227V111.352L383.63 111.673L386.836 109.458V102.016L384.783 100.376L382.679 102.135V101.204L382.273 100.866V102.355L381.933 102.591V101.035L380.203 99.716L378.15 101.729C378.32 101.627 378.495 101.576 378.675 101.576C378.822 101.576 378.964 101.599 379.1 101.644C379.405 101.757 379.608 101.949 379.71 102.219ZM387.124 110.777L389.227 112.249L392.908 109.696V104.74L392.535 104.807L390.754 103.336L387.412 105.636V110.489L387.124 110.777ZM396.861 103.589C396.642 103.482 396.433 103.358 396.233 103.217L393.485 105.145V108.427L393.723 108.63H395.369L393.231 112.333C393.468 112.13 393.666 111.978 393.824 111.876C394.118 111.685 394.457 111.589 394.842 111.589C395.193 111.589 395.481 111.632 395.707 111.716C395.933 111.801 396.165 111.95 396.402 112.164L399.117 110.034V106.701L398.913 106.498H397.097V106.329L398.709 103.504C398.539 103.606 398.404 103.665 398.302 103.682C398.2 103.7 398.036 103.708 397.81 103.708H397.455C397.228 103.708 397.03 103.668 396.861 103.589ZM399.168 104.909H400.152V110.777L399.914 111.235H400.491L401.712 112.181L403.324 110.371H402.628L402.17 109.881V105.027L403.153 103.792H402.17V100.562L400.152 102.439V103.725L399.168 104.909ZM323.917 105.061L325.24 106.042V109.982L324.815 110.439L323.916 109.662V105.061H323.917ZM356.758 111.995C357.03 112.187 357.166 112.429 357.166 112.723C357.166 112.858 357.153 112.959 357.131 113.026C357.064 113.127 357.012 113.195 356.978 113.229C356.886 113.32 356.767 113.379 356.639 113.398C356.492 113.421 356.3 113.35 356.063 113.188C355.825 113.023 355.468 112.941 354.994 112.941C354.688 112.941 354.412 112.97 354.163 113.026C353.914 113.082 353.654 113.179 353.382 113.314L355.859 110.27V110.66C355.859 110.885 355.879 111.071 355.918 111.218C355.959 111.364 356.046 111.505 356.181 111.641C356.374 111.764 356.566 111.883 356.758 111.995ZM354.571 104.858L355.86 105.805V109.628L355.486 110.034L354.571 109.12V104.858ZM303.391 107.818V105.348L304.629 106.904L303.391 107.818ZM332.45 105.027L331.296 107.074H330.431V104.858C330.77 105.072 331.137 105.179 331.533 105.179C331.85 105.179 332.155 105.128 332.45 105.027ZM364.799 104.892L366.122 105.89V109.831L365.699 110.287L364.798 109.492V104.892H364.799ZM330.753 108.308H331.991V110.489C331.817 110.428 331.639 110.38 331.457 110.345C331.338 110.33 331.092 110.321 330.719 110.321C330.502 110.318 330.286 110.34 330.075 110.388C329.894 110.433 329.679 110.506 329.431 110.608L330.753 108.308ZM381.933 103.708L382.272 103.42V113.077L381.933 112.874V103.708ZM382.679 103.167L383.714 102.507L384.46 103.048V109.408C384.108 109.205 383.917 109.099 383.882 109.086L383.509 108.968C383.232 108.902 382.955 108.835 382.678 108.765V103.167H382.679ZM292.042 103.911C292.155 103.911 292.245 103.899 292.313 103.877V110.034C291.886 110.245 291.416 110.355 290.939 110.356C290.657 110.356 290.374 110.322 290.091 110.255C289.807 110.188 289.587 110.097 289.429 109.983L291.363 108.054V103.827C291.443 103.872 291.533 103.898 291.626 103.903C291.722 103.909 291.787 103.911 291.821 103.911L292.042 103.911ZM389.431 105.061L390.754 106.042V109.982L390.347 110.439L389.431 109.662V105.061ZM312.619 103.454L313.247 102.964L314.553 104.283V110.355L314.028 110.896L312.62 109.543V103.454H312.619ZM397.132 105.061C397.279 105.039 397.42 104.999 397.555 104.942L396.402 106.989H395.538V104.773C395.873 104.983 396.261 105.095 396.657 105.095C396.827 105.095 396.985 105.083 397.132 105.061ZM395.859 108.224H397.098V110.406C396.925 110.343 396.746 110.295 396.564 110.262C396.444 110.245 396.199 110.237 395.826 110.237C395.609 110.233 395.392 110.255 395.181 110.304C394.966 110.36 394.756 110.434 394.553 110.524L395.859 108.224ZM317.08 103.454L317.691 102.964L319.015 104.283V110.355L318.471 110.896L317.08 109.543V103.454Z" fill="#252525"/>
</g>
<rect x="277.001" y="353.262" width="131" height="131" rx="8" fill="#F8F8F7"/>
</g>
<defs>
<clipPath id="clip0_15426_37257">
<rect width="375" height="399" fill="white"/>
</clipPath>
<clipPath id="clip1_15426_37257">
<rect width="131" height="32.9334" fill="white" transform="translate(122 331.869)"/>
</clipPath>
<clipPath id="clip2_15426_37257">
<rect width="131" height="21" fill="white" transform="translate(121.999 188.869)"/>
</clipPath>
<clipPath id="clip3_15426_37257">
<rect width="99.6099" height="35.4761" fill="white" transform="translate(137.516 27)"/>
</clipPath>
<clipPath id="clip4_15426_37257">
<rect width="115.174" height="35.4761" fill="white" transform="translate(-25 241)"/>
</clipPath>
<clipPath id="clip5_15426_37257">
<rect width="140" height="35.157" fill="white" transform="translate(-42 85)"/>
</clipPath>
<clipPath id="clip6_15426_37257">
<rect width="87.6775" height="35.4761" fill="white" transform="translate(299 245.592)"/>
</clipPath>
<clipPath id="clip7_15426_37257">
<rect width="133.156" height="33.4755" fill="white" transform="translate(278 86)"/>
</clipPath>
</defs>
</svg>
