<svg width="47" height="57" viewBox="0 0 47 57" fill="none" xmlns="http://www.w3.org/2000/svg">
<path d="M37 19H6L7.53119 43.499C7.79471 47.7153 11.2911 51 15.5156 51H27.4844C31.7089 51 35.2053 47.7153 35.4688 43.499L37 19Z" stroke="#282B35" stroke-width="2" stroke-linejoin="round"/>
<path d="M39.75 51L3.25 51C2.00736 51 1 52.0074 1 53.25C1 54.4926 2.00736 55.5 3.25 55.5L39.75 55.5C40.9926 55.5 42 54.4926 42 53.25C42 52.0074 40.9926 51 39.75 51Z" fill="#E4F1E2" stroke="#282B35" stroke-width="2"/>
<path d="M37 25H41.5C43.9853 25 46 27.0147 46 29.5V29.5C46 31.9853 43.9853 34 41.5 34H37" stroke="#282B35" stroke-width="2" stroke-linejoin="round"/>
<path d="M14.5 13C15.6319 12.2258 17.2166 9.90323 14.5 6.80645C11.7834 3.70968 13.3681 1.64516 14.5 1" stroke="#282B35" stroke-width="2" stroke-linecap="round" stroke-linejoin="round"/>
<path d="M27.5 13C28.6319 12.2258 30.2166 9.90323 27.5 6.80645C24.7834 3.70968 26.3681 1.64516 27.5 1" stroke="#282B35" stroke-width="2" stroke-linecap="round" stroke-linejoin="round"/>
</svg>
