<svg width="54" height="54" viewBox="0 0 54 54" fill="none" xmlns="http://www.w3.org/2000/svg">
<circle cx="27" cy="27" r="11" fill="#FB9E8A"/>
<path fill-rule="evenodd" clip-rule="evenodd" d="M16 27C16 20.9249 20.9249 16 27 16C33.0751 16 38 20.9249 38 27C38 33.0751 33.0751 38 27 38C20.9249 38 16 33.0751 16 27ZM27 14C19.8203 14 14 19.8203 14 27C14 34.1797 19.8203 40 27 40C34.1797 40 40 34.1797 40 27C40 19.8203 34.1797 14 27 14ZM22.5 26C23.3284 26 24 25.3284 24 24.5C24 23.6716 23.3284 23 22.5 23C21.6716 23 21 23.6716 21 24.5C21 25.3284 21.6716 26 22.5 26ZM33 24.5C33 25.3284 32.3284 26 31.5 26C30.6716 26 30 25.3284 30 24.5C30 23.6716 30.6716 23 31.5 23C32.3284 23 33 23.6716 33 24.5ZM22.7145 32.6996C23.7138 31.6792 25.2471 31 27 31C28.7529 31 30.2862 31.6792 31.2855 32.6996C31.6719 33.0942 32.305 33.1009 32.6996 32.7145C33.0942 32.3281 33.1009 31.695 32.7145 31.3004C31.3191 29.8753 29.2614 29 27 29C24.7386 29 22.6809 29.8753 21.2855 31.3004C20.8991 31.695 20.9058 32.3281 21.3004 32.7145C21.695 33.1009 22.3281 33.0942 22.7145 32.6996Z" fill="#252525"/>
<path fill-rule="evenodd" clip-rule="evenodd" d="M27 11C26.4477 11 26 10.5523 26 10V2C26 1.44771 26.4477 1 27 1C27.5523 1 28 1.44771 28 2V10C28 10.5523 27.5523 11 27 11Z" fill="#252525"/>
<path fill-rule="evenodd" clip-rule="evenodd" d="M1 26C1 25.4477 1.44772 25 2 25H10C10.5523 25 11 25.4477 11 26C11 26.5523 10.5523 27 10 27H2C1.44772 27 1 26.5523 1 26Z" fill="#252525"/>
<path fill-rule="evenodd" clip-rule="evenodd" d="M43 26C43 25.4477 43.4477 25 44 25H52C52.5523 25 53 25.4477 53 26C53 26.5523 52.5523 27 52 27H44C43.4477 27 43 26.5523 43 26Z" fill="#252525"/>
<path fill-rule="evenodd" clip-rule="evenodd" d="M40.293 15.293C39.9025 14.9025 39.9025 14.2694 40.293 13.8788L45.9499 8.22198C46.3404 7.83145 46.9736 7.83145 47.3641 8.22198C47.7546 8.6125 47.7546 9.24567 47.3641 9.63619L41.7073 15.293C41.3167 15.6836 40.6836 15.6836 40.293 15.293Z" fill="#252525"/>
<path fill-rule="evenodd" clip-rule="evenodd" d="M8.70696 8.22176C9.09748 7.83123 9.73065 7.83123 10.1212 8.22176L15.778 13.8786C16.1685 14.2691 16.1685 14.9023 15.778 15.2928C15.3875 15.6833 14.7543 15.6833 14.3638 15.2928L8.70696 9.63597C8.31643 9.24544 8.31643 8.61228 8.70696 8.22176Z" fill="#252525"/>
<path fill-rule="evenodd" clip-rule="evenodd" d="M40.707 36.3643C41.0975 35.9738 41.7306 35.9738 42.1212 36.3643L47.778 42.0212C48.1685 42.4117 48.1685 43.0449 47.778 43.4354C47.3875 43.8259 46.7543 43.8259 46.3638 43.4354L40.707 37.7785C40.3164 37.388 40.3164 36.7549 40.707 36.3643Z" fill="#252525"/>
<path fill-rule="evenodd" clip-rule="evenodd" d="M6.29304 43.3643C5.90252 42.9738 5.90252 42.3406 6.29304 41.9501L11.9499 36.2933C12.3404 35.9027 12.9736 35.9027 13.3641 36.2933C13.7546 36.6838 13.7546 37.317 13.3641 37.7075L7.70726 43.3643C7.31673 43.7549 6.68357 43.7549 6.29304 43.3643Z" fill="#252525"/>
<path fill-rule="evenodd" clip-rule="evenodd" d="M27 53C26.4477 53 26 52.5523 26 52V44C26 43.4477 26.4477 43 27 43C27.5523 43 28 43.4477 28 44V52C28 52.5523 27.5523 53 27 53Z" fill="#252525"/>
</svg>
