<svg width="24" height="24" viewBox="0 0 24 24" fill="none" xmlns="http://www.w3.org/2000/svg">
<g clip-path="url(#clip0_18911_1263)">
<path fill-rule="evenodd" clip-rule="evenodd" d="M11.6197 9.94995C10.377 9.94995 9.36969 10.9573 9.36969 12.2C9.36969 13.4426 10.377 14.45 11.6197 14.45C12.8623 14.45 13.8697 13.4426 13.8697 12.2C13.8697 10.9573 12.8623 9.94995 11.6197 9.94995ZM7.86969 12.2C7.86969 10.1289 9.54862 8.44995 11.6197 8.44995C13.6908 8.44995 15.3697 10.1289 15.3697 12.2C15.3697 14.271 13.6908 15.95 11.6197 15.95C9.54862 15.95 7.86969 14.271 7.86969 12.2Z" fill="#252525"/>
<path fill-rule="evenodd" clip-rule="evenodd" d="M12.9083 1.25001C13.4559 1.24819 13.9842 1.45155 14.3893 1.82004C14.6957 2.09878 14.7181 2.57312 14.4394 2.87952C14.1606 3.18591 13.6863 3.20834 13.3799 2.9296C13.2522 2.81339 13.0855 2.7493 12.9128 2.75001L12.9097 2.75001H10.331C10.1594 2.75072 9.99426 2.81532 9.86774 2.93122C9.741 3.04732 9.66216 3.20654 9.64664 3.37772L9.6462 3.38259L9.32789 6.65646L8.04668 7.36113L5.1109 5.98357C4.96137 5.91975 4.79383 5.91159 4.63868 5.96072C4.48116 6.0106 4.34719 6.11613 4.2618 6.25759L4.26003 6.26052L2.90243 8.48658C2.81611 8.63303 2.78602 8.80592 2.81784 8.97299C2.84926 9.13793 2.93889 9.28597 3.07023 9.39024L5.65931 11.2608L5.63875 11.6678C5.62623 11.9158 5.62623 12.1642 5.63875 12.4122L5.65974 12.8278L3.0447 14.648C2.90399 14.7448 2.80483 14.8909 2.76695 15.0574C2.72907 15.2239 2.75522 15.3986 2.84021 15.5467L2.84468 15.5545L4.09321 17.792C4.17965 17.9435 4.31884 18.0579 4.48426 18.1133C4.64934 18.1686 4.82895 18.1613 4.98897 18.0929L7.8202 16.8333L8.16688 17.0736C8.4282 17.2546 8.70196 17.4171 8.98612 17.5597L9.35753 17.7461L9.64665 20.8223C9.66216 20.9935 9.741 21.1527 9.86774 21.2688C9.99422 21.3847 10.1593 21.4493 10.3308 21.45H12.9086C13.0801 21.4493 13.2452 21.3847 13.3717 21.2688C13.6771 20.989 14.1515 21.0098 14.4313 21.3152C14.7111 21.6206 14.6903 22.0951 14.3849 22.3749C13.9827 22.7433 13.4574 22.9484 12.9119 22.95L12.9097 22.95H10.3297L10.3276 22.95C9.78204 22.9484 9.25675 22.7433 8.8545 22.3749C8.45259 22.0067 8.20243 21.5018 8.15289 20.9591L8.15277 20.9577L7.94069 18.7013C7.84982 18.6497 7.75994 18.5964 7.67109 18.5414L5.58758 19.4684C5.08725 19.6849 4.52453 19.7088 4.00761 19.5355C3.49069 19.3623 3.05605 19.0041 2.78723 18.5298L2.78477 18.5255L1.53673 16.289C1.26622 15.8151 1.18324 15.2569 1.30433 14.7247C1.42561 14.1916 1.74276 13.7236 2.19286 13.4133L2.19473 13.412L4.1294 12.0654C4.12934 12.0456 4.12935 12.0258 4.12943 12.006L2.17091 10.591L2.16155 10.5838C1.7357 10.2552 1.44498 9.78203 1.34433 9.25365C1.24369 8.72528 1.3401 8.17834 1.61534 7.71622L1.61936 7.70948L2.9786 5.48081C3.25238 5.02813 3.68145 4.69043 4.18584 4.5307C4.69084 4.37079 5.23679 4.40021 5.72167 4.61349L5.73003 4.61716L7.91922 5.6444L8.15302 3.2396C8.20285 2.69734 8.45292 2.19305 8.8545 1.82517C9.25675 1.45668 9.78205 1.25158 10.3276 1.25002L10.3297 1.25001L12.9083 1.25001Z" fill="#252525"/>
<path fill-rule="evenodd" clip-rule="evenodd" d="M10.3417 1.25001C9.79414 1.24819 9.26575 1.45155 8.8607 1.82004C8.5543 2.09878 8.53188 2.57312 8.81062 2.87952C9.08935 3.18591 9.5637 3.20834 9.87009 2.9296C9.99784 2.81339 10.1645 2.7493 10.3372 2.75001L10.3403 2.75001H12.919C13.0906 2.75072 13.2557 2.81532 13.3823 2.93122C13.509 3.04732 13.5878 3.20654 13.6034 3.37772L13.6038 3.38259L13.9221 6.65646L15.2033 7.36113L18.1391 5.98357C18.2886 5.91975 18.4562 5.91159 18.6113 5.96072C18.7688 6.0106 18.9028 6.11613 18.9882 6.25759L18.99 6.26052L20.3476 8.48658C20.4339 8.63303 20.464 8.80592 20.4322 8.97299C20.4007 9.13793 20.3111 9.28597 20.1798 9.39024L17.5907 11.2608L17.6112 11.6678C17.6238 11.9158 17.6238 12.1642 17.6112 12.4122L17.5903 12.8278L20.2053 14.648C20.346 14.7448 20.4452 14.8909 20.4831 15.0574C20.5209 15.2239 20.4948 15.3986 20.4098 15.5467L20.4053 15.5545L19.1568 17.792C19.0704 17.9435 18.9312 18.0579 18.7657 18.1133C18.6007 18.1686 18.421 18.1613 18.261 18.0929L15.4298 16.8333L15.0831 17.0736C14.8218 17.2546 14.548 17.4171 14.2639 17.5597L13.8925 17.7461L13.6034 20.8223C13.5878 20.9935 13.509 21.1527 13.3823 21.2688C13.2558 21.3847 13.0907 21.4493 12.9192 21.45H10.3414C10.1699 21.4493 10.0048 21.3847 9.87832 21.2688C9.5729 20.989 9.09848 21.0098 8.81868 21.3152C8.53888 21.6206 8.55966 22.0951 8.86509 22.3749C9.26733 22.7433 9.79263 22.9484 10.3381 22.95L10.3403 22.95H12.9203L12.9224 22.95C13.468 22.9484 13.9933 22.7433 14.3955 22.3749C14.7974 22.0067 15.0476 21.5018 15.0971 20.9591L15.0972 20.9577L15.3093 18.7013C15.4002 18.6497 15.4901 18.5964 15.5789 18.5414L17.6624 19.4684C18.1628 19.6849 18.7255 19.7088 19.2424 19.5355C19.7593 19.3623 20.194 19.0041 20.4628 18.5298L20.4652 18.5255L21.7133 16.289C21.9838 15.8151 22.0668 15.2569 21.9457 14.7247C21.8244 14.1916 21.5072 13.7236 21.0571 13.4133L21.0553 13.412L19.1206 12.0654C19.1207 12.0456 19.1206 12.0258 19.1206 12.006L21.0791 10.591L21.0884 10.5838C21.5143 10.2552 21.805 9.78203 21.9057 9.25365C22.0063 8.72528 21.9099 8.17834 21.6347 7.71622L21.6306 7.70948L20.2714 5.48081C19.9976 5.02813 19.5686 4.69043 19.0642 4.5307C18.5592 4.37079 18.0132 4.40021 17.5283 4.61349L17.52 4.61716L15.3308 5.6444L15.097 3.2396C15.0472 2.69734 14.7971 2.19305 14.3955 1.82517C13.9932 1.45668 13.468 1.25158 12.9224 1.25002L12.9203 1.25001L10.3417 1.25001Z" fill="#252525"/>
</g>
<defs>
<clipPath id="clip0_18911_1263">
<rect width="24" height="24" fill="white"/>
</clipPath>
</defs>
</svg>
