<svg width="22" height="23" viewBox="0 0 22 23" fill="none" xmlns="http://www.w3.org/2000/svg">
<path d="M10.6197 14.1992C12.2766 14.1992 13.6197 12.8561 13.6197 11.1992C13.6197 9.54236 12.2766 8.19922 10.6197 8.19922C8.96285 8.19922 7.61971 9.54236 7.61971 11.1992C7.61971 12.8561 8.96285 14.1992 10.6197 14.1992Z" stroke="#252525" stroke-width="2" stroke-linecap="round" stroke-linejoin="round"/>
<path d="M17.3286 11.2054C17.3269 10.9376 17.4549 10.6666 17.6752 10.5142L19.6197 9.17001C19.9156 8.96652 20.1241 8.65915 20.2038 8.30898C20.2834 7.95881 20.2284 7.59149 20.0497 7.28001L18.7997 5.04001C18.6221 4.72668 18.335 4.49005 17.9935 4.37561C17.652 4.26116 17.2802 4.27698 16.9497 4.42001L14.6834 5.42823C14.4548 5.52993 14.1914 5.51668 13.9741 5.39253V5.39253C13.7519 5.26557 13.6055 5.03838 13.5816 4.78361L13.3497 2.31001C13.3172 1.95106 13.1512 1.61736 12.8846 1.37482C12.618 1.13228 12.2701 0.998541 11.9097 1.00001H9.32971C8.97101 1.00104 8.62561 1.1359 8.36112 1.3782C8.09663 1.62049 7.93209 1.95278 7.89971 2.31001L7.65343 4.84309C7.63233 5.06019 7.50542 5.25287 7.3143 5.35799V5.35799C7.1292 5.45979 6.90658 5.46693 6.71534 5.37719L4.41971 4.30001C4.10164 4.16011 3.74352 4.14081 3.41226 4.24571C3.081 4.35061 2.79927 4.57253 2.61971 4.87001L1.25971 7.10001C1.0783 7.40459 1.01475 7.76507 1.08108 8.11332C1.14742 8.46157 1.33903 8.77345 1.61971 8.99001L3.56069 10.3923C3.76586 10.5405 3.87949 10.7826 3.87936 11.0357V11.0357C3.87923 11.2935 3.76112 11.5395 3.54954 11.6868L1.61971 13.03C1.32381 13.2335 1.1153 13.5409 1.03564 13.891C0.955968 14.2412 1.01097 14.6085 1.18971 14.92L2.43971 17.16C2.6173 17.4733 2.90444 17.71 3.24593 17.8244C3.58742 17.9389 3.95917 17.923 4.28971 17.78L6.25232 16.9068C6.55496 16.7722 6.90363 16.8092 7.18857 16.978V16.978C7.46985 17.1448 7.66829 17.4278 7.69889 17.7533L7.89971 19.89C7.93209 20.2472 8.09663 20.5795 8.36112 20.8218C8.62561 21.0641 8.97101 21.199 9.32971 21.2H11.9097C12.2684 21.199 12.6138 21.0641 12.8783 20.8218C13.1428 20.5795 13.3073 20.2472 13.3397 19.89L13.5722 17.6812C13.6017 17.4006 13.7764 17.159 14.0199 17.0165V17.0165C14.2734 16.8682 14.5836 16.8379 14.8489 16.9639L16.8197 17.9C17.1434 18.0542 17.5132 18.0812 17.8558 17.9756C18.1985 17.8701 18.4889 17.6396 18.6697 17.33L19.9797 15.1C20.1598 14.7899 20.2185 14.4241 20.1447 14.0732C20.0708 13.7223 19.8695 13.4112 19.5797 13.2L17.6445 11.8067C17.4469 11.6644 17.3302 11.449 17.3286 11.2054V11.2054Z" stroke="#252525" stroke-width="2" stroke-linecap="round" stroke-linejoin="round"/>
</svg>
