<svg width="20" height="20" viewBox="0 0 20 20" fill="none" xmlns="http://www.w3.org/2000/svg">
<path d="M17.7005 10.98C17.7405 10.66 17.7705 10.34 17.7705 10C17.7705 9.66 17.7405 9.34 17.7005 9.02L19.8105 7.37C20.0005 7.22 20.0505 6.95 19.9305 6.73L17.9305 3.27C17.8405 3.11 17.6705 3.02 17.4905 3.02C17.4305 3.02 17.3705 3.03 17.3205 3.05L14.8305 4.05C14.3105 3.65 13.7505 3.32 13.1405 3.07L12.7605 0.42C12.7305 0.18 12.5205 0 12.2705 0H8.27053C8.02053 0 7.81053 0.18 7.78053 0.42L7.40053 3.07C6.79053 3.32 6.23053 3.66 5.71053 4.05L3.22053 3.05C3.16053 3.03 3.10053 3.02 3.04053 3.02C2.87053 3.02 2.70053 3.11 2.61053 3.27L0.61053 6.73C0.48053 6.95 0.54053 7.22 0.73053 7.37L2.84053 9.02C2.80053 9.34 2.77053 9.67 2.77053 10C2.77053 10.33 2.80053 10.66 2.84053 10.98L0.73053 12.63C0.54053 12.78 0.49053 13.05 0.61053 13.27L2.61053 16.73C2.70053 16.89 2.87053 16.98 3.05053 16.98C3.11053 16.98 3.17053 16.97 3.22053 16.95L5.71053 15.95C6.23053 16.35 6.79053 16.68 7.40053 16.93L7.78053 19.58C7.81053 19.82 8.02053 20 8.27053 20H12.2705C12.5205 20 12.7305 19.82 12.7605 19.58L13.1405 16.93C13.7505 16.68 14.3105 16.34 14.8305 15.95L17.3205 16.95C17.3805 16.97 17.4405 16.98 17.5005 16.98C17.6705 16.98 17.8405 16.89 17.9305 16.73L19.9305 13.27C20.0505 13.05 20.0005 12.78 19.8105 12.63L17.7005 10.98ZM15.7205 9.27C15.7605 9.58 15.7705 9.79 15.7705 10C15.7705 10.21 15.7505 10.43 15.7205 10.73L15.5805 11.86L16.4705 12.56L17.5505 13.4L16.8505 14.61L15.5805 14.1L14.5405 13.68L13.6405 14.36C13.2105 14.68 12.8005 14.92 12.3905 15.09L11.3305 15.52L11.1705 16.65L10.9705 18H9.57053L9.38053 16.65L9.22053 15.52L8.16053 15.09C7.73053 14.91 7.33053 14.68 6.93053 14.38L6.02053 13.68L4.96053 14.11L3.69053 14.62L2.99053 13.41L4.07053 12.57L4.96053 11.87L4.82053 10.74C4.79053 10.43 4.77053 10.2 4.77053 10C4.77053 9.8 4.79053 9.57 4.82053 9.27L4.96053 8.14L4.07053 7.44L2.99053 6.6L3.69053 5.39L4.96053 5.9L6.00053 6.32L6.90053 5.64C7.33053 5.32 7.74053 5.08 8.15053 4.91L9.21053 4.48L9.37053 3.35L9.57053 2H10.9605L11.1505 3.35L11.3105 4.48L12.3705 4.91C12.8005 5.09 13.2005 5.32 13.6005 5.62L14.5105 6.32L15.5705 5.89L16.8405 5.38L17.5405 6.59L16.4705 7.44L15.5805 8.14L15.7205 9.27ZM10.2705 6C8.06053 6 6.27053 7.79 6.27053 10C6.27053 12.21 8.06053 14 10.2705 14C12.4805 14 14.2705 12.21 14.2705 10C14.2705 7.79 12.4805 6 10.2705 6ZM10.2705 12C9.17053 12 8.27053 11.1 8.27053 10C8.27053 8.9 9.17053 8 10.2705 8C11.3705 8 12.2705 8.9 12.2705 10C12.2705 11.1 11.3705 12 10.2705 12Z" fill="#282B35"/>
</svg>
