<svg width="26" height="26" viewBox="0 0 26 26" fill="none" xmlns="http://www.w3.org/2000/svg">
<path d="M10.75 1V0C10.1977 0 9.75 0.447715 9.75 1L10.75 1ZM15.25 1H16.25C16.25 0.447715 15.8023 0 15.25 0V1ZM10.75 4.28354L10.9993 5.25198C11.4411 5.13824 11.75 4.73982 11.75 4.28354H10.75ZM8.42783 5.24624L7.72072 5.95335C8.04343 6.27605 8.54368 6.33933 8.93658 6.10715L8.42783 5.24624ZM6.10532 2.92373L6.81243 2.21663C6.62489 2.02909 6.37054 1.92373 6.10532 1.92373C5.8401 1.92373 5.58575 2.02909 5.39821 2.21663L6.10532 2.92373ZM2.92334 6.10571L2.21623 5.39861C2.0287 5.58614 1.92334 5.8405 1.92334 6.10571C1.92334 6.37093 2.0287 6.62528 2.21623 6.81282L2.92334 6.10571ZM5.24595 8.42832L6.10689 8.93702C6.33904 8.54412 6.27574 8.0439 5.95305 7.72121L5.24595 8.42832ZM4.28354 10.75V11.75C4.73982 11.75 5.13824 11.4411 5.25198 10.9993L4.28354 10.75ZM1 10.75V9.75C0.447715 9.75 0 10.1977 0 10.75H1ZM1 15.25H0C0 15.8023 0.447715 16.25 1 16.25L1 15.25ZM4.28354 15.25L5.25198 15.0007C5.13824 14.5589 4.73982 14.25 4.28354 14.25V15.25ZM5.58728 18.1055L6.34236 18.7612C6.64156 18.4166 6.66952 17.9132 6.41034 17.5376L5.58728 18.1055ZM3.43367 20.5858L2.67859 19.9302C2.3165 20.3472 2.36102 20.9788 2.77804 21.3409L3.43367 20.5858ZM6.83154 23.5362L6.17591 24.2912C6.37617 24.4651 6.63731 24.5523 6.90187 24.5337C7.16643 24.515 7.41274 24.3921 7.58663 24.1918L6.83154 23.5362ZM8.98442 21.0567L9.43119 20.1621C9.02296 19.9582 8.5285 20.0565 8.22934 20.4011L8.98442 21.0567ZM10.75 21.7165H11.75C11.75 21.2602 11.4411 20.8618 10.9993 20.748L10.75 21.7165ZM10.75 25H9.75C9.75 25.5523 10.1977 26 10.75 26V25ZM15.25 25V26C15.8023 26 16.25 25.5523 16.25 25H15.25ZM15.25 21.7165L15.0007 20.748C14.5589 20.8618 14.25 21.2602 14.25 21.7165H15.25ZM17.5717 20.7541L18.2788 20.0469C17.9561 19.7243 17.4559 19.661 17.063 19.8931L17.5717 20.7541ZM19.8939 23.0763L19.1868 23.7834C19.5773 24.1739 20.2105 24.1739 20.601 23.7834L19.8939 23.0763ZM23.0759 19.8943L23.783 20.6014C24.1735 20.2109 24.1735 19.5777 23.783 19.1872L23.0759 19.8943ZM20.7538 17.5722L19.8928 17.0634C19.6607 17.4563 19.7239 17.9566 20.0467 18.2793L20.7538 17.5722ZM21.7165 15.25V14.25C21.2602 14.25 20.8618 14.5589 20.748 15.0007L21.7165 15.25ZM25 15.25V16.25C25.5523 16.25 26 15.8023 26 15.25H25ZM25 10.75H26C26 10.1977 25.5523 9.75 25 9.75V10.75ZM21.7165 10.75L20.748 10.9993C20.8618 11.4411 21.2602 11.75 21.7165 11.75V10.75ZM20.4129 7.89469L19.6578 7.23906C19.3586 7.58363 19.3306 8.08703 19.5898 8.46263L20.4129 7.89469ZM22.5667 5.41419L23.3217 6.06982C23.4956 5.86956 23.5828 5.60843 23.5642 5.34387C23.5455 5.07931 23.4226 4.83299 23.2223 4.65911L22.5667 5.41419ZM19.1688 2.46386L19.8244 1.70877C19.4074 1.34668 18.7758 1.39121 18.4137 1.80823L19.1688 2.46386ZM17.0158 4.94341L16.569 5.83804C16.9773 6.04192 17.4717 5.94359 17.7709 5.59904L17.0158 4.94341ZM15.25 4.28354H14.25C14.25 4.73982 14.5589 5.13824 15.0007 5.25198L15.25 4.28354ZM10.75 2H15.25V0H10.75V2ZM11.75 4.28354V1H9.75V4.28354H11.75ZM8.93658 6.10715C9.57316 5.73097 10.266 5.44071 10.9993 5.25198L10.5007 3.3151C9.58225 3.55151 8.71503 3.91496 7.91907 4.38533L8.93658 6.10715ZM5.39821 3.63084L7.72072 5.95335L9.13493 4.53913L6.81243 2.21663L5.39821 3.63084ZM3.63045 6.81282L6.81243 3.63084L5.39821 2.21663L2.21623 5.39861L3.63045 6.81282ZM5.95305 7.72121L3.63045 5.39861L2.21623 6.81282L4.53884 9.13543L5.95305 7.72121ZM5.25198 10.9993C5.44067 10.2661 5.73083 9.57348 6.10689 8.93702L4.385 7.91962C3.91479 8.71543 3.55145 9.58246 3.3151 10.5007L5.25198 10.9993ZM1 11.75H4.28354V9.75H1V11.75ZM2 15.25V10.75H0V15.25H2ZM4.28354 14.25H1V16.25H4.28354V14.25ZM6.41034 17.5376C5.88501 16.7763 5.48865 15.9203 5.25198 15.0007L3.3151 15.4993C3.61159 16.6512 4.10788 17.7224 4.76423 18.6735L6.41034 17.5376ZM4.18876 21.2415L6.34236 18.7612L4.8322 17.4499L2.67859 19.9302L4.18876 21.2415ZM7.48717 22.7811L4.0893 19.8307L2.77804 21.3409L6.17591 24.2912L7.48717 22.7811ZM8.22934 20.4011L6.07646 22.8805L7.58663 24.1918L9.7395 21.7123L8.22934 20.4011ZM10.9993 20.748C10.4518 20.6071 9.92692 20.4096 9.43119 20.1621L8.53765 21.9514C9.15792 22.2611 9.81507 22.5084 10.5007 22.6849L10.9993 20.748ZM11.75 25V21.7165H9.75V25H11.75ZM15.25 24H10.75V26H15.25V24ZM14.25 21.7165V25H16.25V21.7165H14.25ZM17.063 19.8931C16.4265 20.2692 15.7339 20.5593 15.0007 20.748L15.4993 22.6849C16.4175 22.4485 17.2846 22.0852 18.0804 21.615L17.063 19.8931ZM20.601 22.3692L18.2788 20.0469L16.8646 21.4612L19.1868 23.7834L20.601 22.3692ZM22.3688 19.1872L19.1868 22.3692L20.601 23.7834L23.783 20.6014L22.3688 19.1872ZM20.0467 18.2793L22.3688 20.6014L23.783 19.1872L21.4609 16.8651L20.0467 18.2793ZM20.748 15.0007C20.5593 15.734 20.269 16.4268 19.8928 17.0634L21.6147 18.0809C22.085 17.285 22.4485 16.4178 22.6849 15.4993L20.748 15.0007ZM25 14.25H21.7165V16.25H25V14.25ZM24 10.75V15.25H26V10.75H24ZM21.7165 11.75H25V9.75H21.7165V11.75ZM19.5898 8.46263C20.1151 9.22384 20.5114 10.0798 20.748 10.9993L22.6849 10.5007C22.3884 9.3489 21.8922 8.27782 21.2359 7.32675L19.5898 8.46263ZM21.8116 4.75856L19.6578 7.23906L21.168 8.55032L23.3217 6.06982L21.8116 4.75856ZM18.5132 3.21894L21.911 6.16927L23.2223 4.65911L19.8244 1.70877L18.5132 3.21894ZM17.7709 5.59904L19.9239 3.11949L18.4137 1.80823L16.2607 4.28778L17.7709 5.59904ZM15.0007 5.25198C15.5483 5.39291 16.0732 5.59043 16.569 5.83804L17.4626 4.04877C16.8423 3.73895 16.185 3.49161 15.4993 3.3151L15.0007 5.25198ZM14.25 1V4.28354H16.25V1H14.25ZM11 11V9C9.89543 9 9 9.89543 9 11H11ZM11 15V11H9V15H11ZM11 15H9C9 16.1046 9.89543 17 11 17V15ZM15 15H11V17H15V15ZM15 15V17C16.1046 17 17 16.1046 17 15H15ZM15 11V15H17V11H15ZM15 11H17C17 9.89543 16.1046 9 15 9V11ZM11 11H15V9H11V11Z" fill="white"/>
</svg>
