<svg width="24" height="24" viewBox="0 0 24 24" fill="none" xmlns="http://www.w3.org/2000/svg">
<circle cx="12" cy="12" r="11" stroke="#252525" stroke-width="2" stroke-linecap="round" stroke-linejoin="round" stroke-dasharray="4 4"/>
<path d="M12 23C18.0751 23 23 18.0751 23 12C23 5.92487 18.0751 1 12 1" stroke="#252525" stroke-width="2" stroke-linecap="round" stroke-linejoin="round"/>
<path d="M11.9936 17C12.429 17 13.014 16.5771 13.014 16.5771C17.2512 13.4348 16.9971 10.9385 16.9971 10.9385C16.9969 10.2962 16.804 9.67171 16.4481 9.16043C16.0921 8.64915 15.5927 8.27926 15.026 8.10731C14.4593 7.93536 13.8567 7.97081 13.3103 8.20825C12.7638 8.4457 12.3036 8.87206 12 9.42214C11.6963 8.87231 11.236 8.44619 10.6896 8.20892C10.1433 7.97165 9.54076 7.93626 8.97422 8.10818C8.40769 8.2801 7.90827 8.64986 7.5523 9.16095C7.19632 9.67205 7.00336 10.2964 7.00291 10.9385C7.00291 10.9385 6.74879 13.4342 10.9863 16.5771C10.9863 16.5771 11.5597 17 11.9951 17" stroke="#252525" stroke-width="2" stroke-miterlimit="10" stroke-linecap="round" stroke-linejoin="round"/>
</svg>
