<svg width="25" height="26" viewBox="0 0 25 26" fill="none" xmlns="http://www.w3.org/2000/svg">
<path d="M4 6.25C4 3.48858 6.23858 1.25 9 1.25H19C21.7614 1.25 24 3.48858 24 6.25V16.25C24 19.0114 21.7614 21.25 19 21.25H9C6.23858 21.25 4 19.0114 4 16.25V6.25Z" stroke="#252525" stroke-width="2"/>
<path d="M1 10C1 7.23858 3.23858 5 6 5H16C18.7614 5 21 7.23858 21 10V20C21 22.7614 18.7614 25 16 25H6C3.23858 25 1 22.7614 1 20V10Z" fill="white" stroke="#252525" stroke-width="2"/>
<path d="M2 22L6 18L11 20L16 14L21 22" stroke="#252525" stroke-width="2" stroke-linejoin="round"/>
<path d="M10 10H12V12H10V10Z" fill="white" stroke="#252525" stroke-width="2"/>
</svg>
