<svg fill="none" height="40" viewBox="0 0 40 40" width="40" xmlns="http://www.w3.org/2000/svg"
>
    <path clip-rule="evenodd"
          d="m19.2929 10.2929c.3905-.39053 1.0237-.39053 1.4142 0l4 4c.3905.3905.3905 1.0237 0 1.4142s-1.0237.3905-1.4142 0l-2.2929-2.2929v7.5858c0 .5523-.4477 1-1 1s-1-.4477-1-1v-7.5858l-2.2929 2.2929c-.3905.3905-1.0237.3905-1.4142 0s-.3905-1.0237 0-1.4142zm-8.2929 7.9571v9c0 1.1046.8954 2 2 2h14c1.1046 0 2-.8954 2-2v-9h-2v9h-14v-9z"
          fill="#252525" fill-rule="evenodd"/>
</svg>