<svg width="16" height="21" viewBox="0 0 16 21" fill="none" xmlns="http://www.w3.org/2000/svg">
<path d="M7.98929 3.99954V1.20954C7.98929 0.759542 7.44929 0.539542 7.13929 0.859542L3.34929 4.64954C3.14929 4.84954 3.14929 5.15954 3.34929 5.35954L7.13929 9.14954C7.44929 9.45954 7.98929 9.23954 7.98929 8.79954V5.99954C11.7193 5.99954 14.6693 9.41954 13.8493 13.2895C13.3793 15.5595 11.5393 17.3895 9.27929 17.8595C5.70929 18.6095 2.52929 16.1595 2.04929 12.8495C1.98929 12.3695 1.56929 11.9995 1.06929 11.9995C0.469286 11.9995 -0.0107142 12.5295 0.0692858 13.1295C0.689286 17.5195 4.86929 20.7695 9.59929 19.8495C12.7193 19.2395 15.2293 16.7295 15.8393 13.6095C16.8293 8.47954 12.9393 3.99954 7.98929 3.99954ZM6.88929 14.9995H6.03929V11.7395L5.02929 12.0495V11.3595L6.79929 10.7295H6.88929V14.9995ZM11.1693 13.2395C11.1693 13.5595 11.1393 13.8395 11.0693 14.0595C10.9993 14.2795 10.8993 14.4795 10.7793 14.6295C10.6593 14.7795 10.4993 14.8895 10.3293 14.9595C10.1593 15.0295 9.95929 15.0595 9.73929 15.0595C9.51929 15.0595 9.32929 15.0295 9.14929 14.9595C8.96929 14.8895 8.81929 14.7795 8.68929 14.6295C8.55929 14.4795 8.45929 14.2895 8.38929 14.0595C8.31929 13.8295 8.27929 13.5595 8.27929 13.2395V12.4995C8.27929 12.1795 8.30929 11.8995 8.37929 11.6795C8.44929 11.4595 8.54929 11.2595 8.66929 11.1095C8.78929 10.9595 8.94929 10.8495 9.11929 10.7795C9.28929 10.7095 9.48929 10.6795 9.70929 10.6795C9.92929 10.6795 10.1193 10.7095 10.2993 10.7795C10.4793 10.8495 10.6293 10.9595 10.7593 11.1095C10.8893 11.2595 10.9893 11.4495 11.0593 11.6795C11.1293 11.9095 11.1693 12.1795 11.1693 12.4995V13.2395ZM10.3193 12.3795C10.3193 12.1895 10.3093 12.0295 10.2793 11.8995C10.2493 11.7695 10.2093 11.6695 10.1593 11.5895C10.1093 11.5095 10.0493 11.4495 9.96929 11.4195C9.88929 11.3895 9.80929 11.3695 9.71929 11.3695C9.62929 11.3695 9.53929 11.3895 9.46929 11.4195C9.39929 11.4495 9.32929 11.5095 9.27929 11.5895C9.22929 11.6695 9.18929 11.7695 9.15929 11.8995C9.12929 12.0295 9.11929 12.1895 9.11929 12.3795V13.3495C9.11929 13.5395 9.12929 13.6995 9.15929 13.8295C9.18929 13.9595 9.22929 14.0695 9.27929 14.1495C9.32929 14.2295 9.38929 14.2895 9.46929 14.3195C9.54929 14.3495 9.62929 14.3695 9.71929 14.3695C9.80929 14.3695 9.89929 14.3495 9.96929 14.3195C10.0393 14.2895 10.1093 14.2295 10.1593 14.1495C10.2093 14.0695 10.2493 13.9595 10.2693 13.8295C10.2893 13.6995 10.3093 13.5395 10.3093 13.3495V12.3795H10.3193Z" fill="#282B35"/>
</svg>
