<svg width="16" height="20" viewBox="0 0 16 20" fill="none" xmlns="http://www.w3.org/2000/svg">
<path d="M14.9194 11.9997C14.4194 11.9997 14.0094 12.3697 13.9394 12.8597C13.4594 16.2297 10.1694 18.6997 6.51939 17.8197C4.26939 17.2797 2.60939 15.5497 2.12938 13.2897C1.31939 9.4197 4.26938 5.9997 7.99938 5.9997V8.7897C7.99938 9.2397 8.53938 9.4597 8.84939 9.1397L12.6394 5.3497C12.8394 5.1497 12.8394 4.8397 12.6394 4.6397L8.84939 0.849697C8.53938 0.539697 7.99938 0.759697 7.99938 1.2097V3.9997C3.05938 3.9997 -0.840615 8.4797 0.159385 13.5997C0.759385 16.7097 3.05938 19.0997 6.14938 19.7897C10.9794 20.8697 15.2994 17.5897 15.9194 13.1197C16.0094 12.5297 15.5194 11.9997 14.9194 11.9997ZM6.89938 14.9997V10.7297H6.80939L5.03938 11.3597V12.0497L6.04939 11.7397V14.9997H6.89938ZM10.3194 10.7797C10.1394 10.7097 9.94938 10.6797 9.72938 10.6797C9.50938 10.6797 9.31939 10.7097 9.13939 10.7797C8.95938 10.8497 8.80938 10.9597 8.68938 11.1097C8.56938 11.2597 8.45938 11.4497 8.39938 11.6797C8.33938 11.9097 8.29939 12.1797 8.29939 12.4997V13.2397C8.29939 13.5597 8.33939 13.8397 8.40938 14.0597C8.47938 14.2797 8.57938 14.4797 8.70938 14.6297C8.83939 14.7797 8.98938 14.8897 9.16938 14.9597C9.34939 15.0297 9.53938 15.0597 9.75939 15.0597C9.97939 15.0597 10.1694 15.0297 10.3494 14.9597C10.5294 14.8897 10.6794 14.7797 10.7994 14.6297C10.9194 14.4797 11.0194 14.2897 11.0894 14.0597C11.1594 13.8297 11.1894 13.5597 11.1894 13.2397V12.4997C11.1894 12.1797 11.1494 11.8997 11.0794 11.6797C11.0094 11.4597 10.9094 11.2597 10.7794 11.1097C10.6494 10.9597 10.4894 10.8497 10.3194 10.7797ZM10.3294 13.3497C10.3294 13.5397 10.3194 13.6997 10.2894 13.8297C10.2594 13.9597 10.2294 14.0697 10.1794 14.1497C10.1294 14.2297 10.0694 14.2897 9.98938 14.3197C9.90938 14.3497 9.82938 14.3697 9.73938 14.3697C9.64938 14.3697 9.55938 14.3497 9.48938 14.3197C9.41938 14.2897 9.34939 14.2297 9.29939 14.1497C9.24938 14.0697 9.20938 13.9597 9.17939 13.8297C9.14939 13.6997 9.13939 13.5397 9.13939 13.3497V12.3797C9.13939 12.1897 9.14939 12.0297 9.17939 11.8997C9.20938 11.7697 9.23938 11.6697 9.29939 11.5897C9.35939 11.5097 9.40938 11.4497 9.48938 11.4197C9.56938 11.3897 9.64938 11.3697 9.73938 11.3697C9.82938 11.3697 9.91938 11.3897 9.98938 11.4197C10.0594 11.4497 10.1294 11.5097 10.1794 11.5897C10.2294 11.6697 10.2694 11.7697 10.2994 11.8997C10.3294 12.0297 10.3394 12.1897 10.3394 12.3797V13.3497H10.3294Z" fill="#252525"/>
</svg>
