<svg width="24" height="24" viewBox="0 0 24 24" fill="none" xmlns="http://www.w3.org/2000/svg">
<g clip-path="url(#clip0_657_2106)">
<path d="M17.6879 20.0707C19.1117 19.2436 20.2914 18.0546 21.1073 16.6243C21.9231 15.194 22.346 13.5733 22.3331 11.9267C22.3202 10.2801 21.8718 8.66629 21.0336 7.24897C20.1954 5.83165 18.9972 4.6613 17.5605 3.85672C16.1238 3.05215 14.4999 2.64197 12.8534 2.66784C11.207 2.6937 9.59674 3.15468 8.18604 4.00399C6.77534 4.8533 5.61445 6.0607 4.82118 7.50365" stroke="#252525" stroke-width="1.5"/>
<path d="M4 3L4 8L9 8" stroke="#252525" stroke-width="1.40625"/>
<path d="M7.314 20.955H5.4V14.146H4.278C3.959 15.312 3.178 15.554 2.144 15.554V16.434H4.08V20.955H1.792V22H7.314V20.955ZM11.2418 21.043C10.0758 21.043 9.61377 19.525 9.61377 18.062C9.61377 16.61 10.0758 15.18 11.2418 15.18C12.4078 15.18 12.8698 16.61 12.8698 18.062C12.8698 19.525 12.4078 21.043 11.2418 21.043ZM8.29377 18.073C8.29377 20.097 9.01977 22.154 11.2418 22.154C13.4638 22.154 14.1898 20.097 14.1898 18.073C14.1898 16.049 13.4638 14.08 11.2418 14.08C9.01977 14.08 8.29377 16.049 8.29377 18.073Z" fill="#252525"/>
</g>
<defs>
<clipPath id="clip0_657_2106">
<rect width="24" height="24" fill="white"/>
</clipPath>
</defs>
</svg>
