<svg width="24" height="24" viewBox="0 0 24 24" fill="none" xmlns="http://www.w3.org/2000/svg">
<g clip-path="url(#clip0_657_2121)">
<path d="M6.31215 20.0707C4.88829 19.2436 3.70857 18.0546 2.89273 16.6243C2.0769 15.194 1.65398 13.5733 1.66691 11.9267C1.67985 10.2801 2.12816 8.66629 2.96637 7.24897C3.80457 5.83165 5.00282 4.6613 6.43949 3.85672C7.87617 3.05215 9.50013 2.64197 11.1466 2.66784C12.793 2.6937 14.4033 3.15468 15.814 4.00399C17.2247 4.8533 18.3856 6.0607 19.1788 7.50365" stroke="#252525" stroke-width="1.5"/>
<path d="M15 8H20V3" stroke="#252525" stroke-width="1.5"/>
<path d="M15.6285 20.955H13.7145V14.146H12.5925C12.2735 15.312 11.4925 15.554 10.4585 15.554V16.434H12.3945V20.955H10.1065V22H15.6285V20.955ZM19.5562 21.043C18.3902 21.043 17.9282 19.525 17.9282 18.062C17.9282 16.61 18.3902 15.18 19.5562 15.18C20.7222 15.18 21.1842 16.61 21.1842 18.062C21.1842 19.525 20.7222 21.043 19.5562 21.043ZM16.6082 18.073C16.6082 20.097 17.3342 22.154 19.5562 22.154C21.7782 22.154 22.5042 20.097 22.5042 18.073C22.5042 16.049 21.7782 14.08 19.5562 14.08C17.3342 14.08 16.6082 16.049 16.6082 18.073Z" fill="#252525"/>
</g>
<defs>
<clipPath id="clip0_657_2121">
<rect width="24" height="24" fill="white"/>
</clipPath>
</defs>
</svg>
