<svg width="24" height="24" viewBox="0 0 24 24" fill="none" xmlns="http://www.w3.org/2000/svg">
<path fill-rule="evenodd" clip-rule="evenodd" d="M5.14179 10.3898C5.778 7.0359 8.72593 4.5 12.2645 4.5C14.958 4.5 17.3097 5.96904 18.5599 8.15121L15.3237 7.38575L15 8.75424L20.55 10.067L21.8627 4.51698L20.4942 4.1933L19.7709 7.25145C18.2416 4.705 15.4529 3 12.2645 3C7.99198 3 4.43608 6.06152 3.66807 10.1102L5.14179 10.3898ZM19.6421 13.6234C18.8972 16.9548 15.8684 19.3935 12.3317 19.2784C9.29597 19.1797 6.7553 17.228 5.76344 14.5421L8.92392 15.8735L9.46983 14.5775L4.21399 12.3635L2 17.6194L3.29596 18.1653L4.47518 15.3659C5.74673 18.4475 8.73252 20.6621 12.2829 20.7776C16.5532 20.9166 20.2067 17.9723 21.106 13.9507L19.6421 13.6234Z" fill="#252525"/>
</svg>
