<svg width="22" height="27" viewBox="0 0 22 27" fill="none" xmlns="http://www.w3.org/2000/svg">
<path d="M20 3.75L20.8321 4.3047C21.056 3.9688 21.056 3.5312 20.8321 3.1953L20 3.75ZM3 23.75L2.16795 23.1953C1.91944 23.5681 1.94918 24.0606 2.24074 24.4008L3 23.75ZM19.3321 0.9453C19.0257 0.485771 18.4048 0.361597 17.9453 0.66795C17.4858 0.974302 17.3616 1.59517 17.6679 2.0547L19.3321 0.9453ZM17.6679 5.4453C17.3616 5.90483 17.4858 6.5257 17.9453 6.83205C18.4048 7.1384 19.0257 7.01423 19.3321 6.5547L17.6679 5.4453ZM5.33205 22.0547C5.6384 21.5952 5.51423 20.9743 5.0547 20.6679C4.59517 20.3616 3.9743 20.4858 3.66795 20.9453L5.33205 22.0547ZM3.74074 26.1508C4.10017 26.5701 4.73147 26.6187 5.15079 26.2593C5.57012 25.8998 5.61868 25.2685 5.25926 24.8492L3.74074 26.1508ZM2 11.5V9.75H0V11.5H2ZM20 15.5V17.75H22V15.5H20ZM7 4.75H20V2.75H7V4.75ZM15 22.75H3V24.75H15V22.75ZM20.8321 3.1953L19.3321 0.9453L17.6679 2.0547L19.1679 4.3047L20.8321 3.1953ZM19.1679 3.1953L17.6679 5.4453L19.3321 6.5547L20.8321 4.3047L19.1679 3.1953ZM3.83205 24.3047L5.33205 22.0547L3.66795 20.9453L2.16795 23.1953L3.83205 24.3047ZM2.24074 24.4008L3.74074 26.1508L5.25926 24.8492L3.75926 23.0992L2.24074 24.4008ZM20 17.75C20 20.5114 17.7614 22.75 15 22.75V24.75C18.866 24.75 22 21.616 22 17.75H20ZM2 9.75C2 6.98858 4.23858 4.75 7 4.75V2.75C3.13401 2.75 0 5.88401 0 9.75H2Z" fill="#282B35"/>
<rect x="7" y="17" width="8" height="3" rx="1.5" stroke="#282B35" stroke-width="2"/>
<rect x="5" y="14" width="8" height="3" rx="1.5" stroke="#282B35" stroke-width="2"/>
<rect x="7" y="11" width="8" height="3" rx="1.5" stroke="#282B35" stroke-width="2"/>
<rect x="8" y="8" width="8" height="3" rx="1.5" stroke="#282B35" stroke-width="2"/>
</svg>
