<svg width="62" height="41" viewBox="0 0 62 41" fill="none" xmlns="http://www.w3.org/2000/svg">
<path d="M12.0286 25C12.0286 21.134 15.1626 18 19.0286 18H33.0286C36.8946 18 40.0286 21.134 40.0286 25V40H12.0286V25Z" fill="#BBF383"/>
<path d="M44.9714 37.9429V20.9429C44.9714 17.0769 41.8374 13.9429 37.9714 13.9429H23.9714C20.1054 13.9429 16.9714 17.0769 16.9714 20.9429V37.9429" stroke="#282B35" stroke-width="3"/>
<line x1="1.52856" y1="38.5857" x2="59.5286" y2="38.5857" stroke="#282B35" stroke-width="3" stroke-linecap="round" stroke-linejoin="round"/>
<line x1="31.1571" y1="5.59285e-08" x2="31.1571" y2="7" stroke="#282B35" stroke-width="3" stroke-linejoin="round"/>
<line x1="61.0286" y1="24.1572" x2="54.0286" y2="24.1572" stroke="#282B35" stroke-width="3" stroke-linejoin="round"/>
<line x1="7" y1="24.1572" x2="-1.31134e-07" y2="24.1572" stroke="#282B35" stroke-width="3" stroke-linejoin="round"/>
<line x1="53.825" y1="4.76103" x2="49.4661" y2="10.2382" stroke="#282B35" stroke-width="3" stroke-linejoin="round"/>
<line x1="13.3772" y1="10.1404" x2="8.6599" y2="4.96873" stroke="#282B35" stroke-width="3" stroke-linejoin="round"/>
</svg>
