<svg width="54" height="54" viewBox="0 0 54 54" fill="none" xmlns="http://www.w3.org/2000/svg">
<path fill-rule="evenodd" clip-rule="evenodd" d="M26 10C26 10.5523 26.4477 11 27 11C27.5523 11 28 10.5523 28 10V2C28 1.44771 27.5523 1 27 1C26.4477 1 26 1.44771 26 2V10ZM2 25C1.44772 25 1 25.4477 1 26C1 26.5523 1.44772 27 2 27H10C10.5523 27 11 26.5523 11 26C11 25.4477 10.5523 25 10 25H2ZM43 26C43 25.4477 43.4477 25 44 25H52C52.5523 25 53 25.4477 53 26C53 26.5523 52.5523 27 52 27H44C43.4477 27 43 26.5523 43 26ZM40.2928 13.8787C39.9023 14.2692 39.9023 14.9024 40.2928 15.2929C40.6833 15.6834 41.3165 15.6834 41.707 15.2929L47.3639 9.63607C47.7544 9.24554 47.7544 8.61238 47.3639 8.22185C46.9733 7.83133 46.3402 7.83133 45.9497 8.22185L40.2928 13.8787ZM8.7072 8.22188C9.09772 7.83135 9.73089 7.83135 10.1214 8.22188L15.7783 13.8787C16.1688 14.2693 16.1688 14.9024 15.7783 15.2929C15.3877 15.6835 14.7546 15.6835 14.3641 15.2929L8.7072 9.63609C8.31668 9.24557 8.31668 8.6124 8.7072 8.22188ZM42.1214 36.364C41.7309 35.9734 41.0977 35.9734 40.7072 36.364C40.3167 36.7545 40.3167 37.3877 40.7072 37.7782L46.3641 43.435C46.7546 43.8256 47.3877 43.8256 47.7783 43.435C48.1688 43.0445 48.1688 42.4113 47.7783 42.0208L42.1214 36.364ZM6.2928 43.364C5.90228 42.9734 5.90228 42.3403 6.2928 41.9498L11.9497 36.2929C12.3402 35.9024 12.9733 35.9024 13.3639 36.2929C13.7544 36.6834 13.7544 37.3166 13.3639 37.7071L7.70701 43.364C7.31649 43.7545 6.68332 43.7545 6.2928 43.364ZM26 52C26 52.5523 26.4477 53 27 53C27.5523 53 28 52.5523 28 52V44C28 43.4477 27.5523 43 27 43C26.4477 43 26 43.4477 26 44V52Z" fill="#282B35"/>
</svg>
