<svg width="17" height="16" viewBox="0 0 17 16" fill="none" xmlns="http://www.w3.org/2000/svg">
<path d="M1.5 5.45601C1.5 4.35955 2.38885 3.4707 3.48531 3.4707H11.044C12.1405 3.4707 13.0293 4.35956 13.0293 5.45601V13.0147C13.0293 14.1112 12.1405 15 11.044 15H3.48531C2.38885 15 1.5 14.1112 1.5 13.0147V5.45601Z" fill="#E4F1E2" stroke="#282B35" stroke-width="1.48898"/>
<path d="M3.9707 6.76562H6.16676" stroke="#282B35" stroke-width="1.48898" stroke-linecap="round" stroke-linejoin="round"/>
<path d="M3.9707 8.48988C3.55953 8.48988 3.22621 8.8232 3.22621 9.23438C3.22621 9.64555 3.55953 9.97887 3.9707 9.97887V8.48988ZM10.5589 9.97887C10.9701 9.97887 11.3034 9.64555 11.3034 9.23438C11.3034 8.8232 10.9701 8.48988 10.5589 8.48988V9.97887ZM3.9707 9.97887H10.5589V8.48988H3.9707V9.97887Z" fill="#282B35"/>
<path d="M3.9707 11.236C3.55953 11.236 3.22621 11.5693 3.22621 11.9805C3.22621 12.3916 3.55953 12.725 3.9707 12.725V11.236ZM10.5589 12.725C10.9701 12.725 11.3034 12.3916 11.3034 11.9805C11.3034 11.5693 10.9701 11.236 10.5589 11.236V12.725ZM3.9707 12.725H10.5589V11.236H3.9707V12.725Z" fill="#282B35"/>
<path d="M3.9707 3.16173V2.98529C3.9707 1.88883 4.85955 0.999979 5.95601 0.999979H13.5147C14.6112 0.999979 15.5 1.88883 15.5 2.98529V10.544C15.5 11.6404 14.6112 12.5293 13.5147 12.5293H12.6177" stroke="#282B35" stroke-width="1.48898"/>
</svg>
