<svg width="24" height="24" viewBox="0 0 24 24" fill="none" xmlns="http://www.w3.org/2000/svg">
<path d="M11.9984 2.3999C6.69684 2.3999 2.39844 6.6983 2.39844 11.9999C2.39844 13.8009 2.90431 15.48 3.76719 16.9202L2.48438 21.5999L7.26406 20.3452C8.66192 21.14 10.2756 21.5999 11.9984 21.5999C17.3 21.5999 21.5984 17.3015 21.5984 11.9999C21.5984 6.6983 17.3 2.3999 11.9984 2.3999ZM8.7125 7.52178C8.8685 7.52178 9.02879 7.52083 9.16719 7.52803C9.33839 7.53203 9.52473 7.54456 9.70313 7.93896C9.91513 8.40776 10.3767 9.58383 10.4359 9.70303C10.4951 9.82223 10.5371 9.96265 10.4547 10.1187C10.3763 10.2787 10.3355 10.3755 10.2203 10.5171C10.1011 10.6547 9.9705 10.8256 9.8625 10.9296C9.7433 11.0488 9.62021 11.1795 9.75781 11.4171C9.89541 11.6547 10.3733 12.4336 11.0797 13.0624C11.9877 13.8736 12.7538 14.1229 12.9922 14.2421C13.2306 14.3613 13.3687 14.3427 13.5063 14.1827C13.6479 14.0267 14.1009 13.4914 14.2609 13.253C14.4169 13.0146 14.5762 13.0559 14.7922 13.1343C15.0114 13.2127 16.1804 13.7885 16.4188 13.9077C16.6572 14.0269 16.8134 14.0859 16.8734 14.1827C16.935 14.2827 16.9351 14.7588 16.7375 15.314C16.5399 15.8684 15.5696 16.4045 15.1344 16.4421C14.6952 16.4829 14.2853 16.6395 12.2797 15.8499C9.86049 14.8971 8.33483 12.4193 8.21563 12.2593C8.09643 12.1033 7.24688 10.971 7.24688 9.80303C7.24688 8.63103 7.86136 8.05705 8.07656 7.81865C8.29576 7.58025 8.5525 7.52178 8.7125 7.52178Z" fill="#282B35"/>
</svg>
