<svg width="208" height="268" viewBox="0 0 208 268" fill="none" xmlns="http://www.w3.org/2000/svg">
<rect x="4.07467" y="31.6191" width="176.154" height="222.594" rx="9.60839" transform="rotate(-2.42574 4.07467 31.6191)" fill="black" stroke="white" stroke-width="6.40559"/>
<rect x="27.9231" y="42.2028" width="176.154" height="222.594" rx="9.60839" fill="black" stroke="white" stroke-width="6.40559"/>
<rect x="47.1399" y="103.054" width="137.72" height="137.72" rx="9.60839" stroke="white" stroke-width="6.40559"/>
<path d="M47.1399 65.4219H102.388" stroke="white" stroke-width="6.40559" stroke-linecap="round" stroke-linejoin="round"/>
<mask id="path-5-inside-1" fill="white">
<path fill-rule="evenodd" clip-rule="evenodd" d="M20.2405 12.7365C20.2818 5.66124 26.0508 -0.041003 33.1261 0.000222129L190.061 0.914619C197.136 0.955844 202.838 6.72493 202.797 13.8002L202.632 42.0574C205.315 44.4057 207.01 47.8557 207.01 51.7016V255.079C207.01 262.155 201.274 267.89 194.199 267.89H37.2619C30.7116 267.89 25.3094 262.974 24.5437 256.631L22.9615 256.698C15.8924 256.997 9.919 251.509 9.61954 244.44L1.0117 41.2448C0.712232 34.1757 6.20009 28.2023 13.2692 27.9029L20.1539 27.6112L20.2405 12.7365Z"/>
</mask>
<path d="M33.1261 0.000222129L33.1635 -6.40526L33.1261 0.000222129ZM20.2405 12.7365L26.646 12.7739L20.2405 12.7365ZM190.061 0.914619L190.098 -5.49087L190.061 0.914619ZM202.797 13.8002L196.391 13.7629V13.7629L202.797 13.8002ZM202.632 42.0574L196.227 42.0201L196.21 44.9489L198.414 46.8777L202.632 42.0574ZM24.5437 256.631L30.9031 255.863L30.1929 249.98L24.2726 250.231L24.5437 256.631ZM22.9615 256.698L22.6904 250.298H22.6903L22.9615 256.698ZM9.61954 244.44L16.0194 244.169L9.61954 244.44ZM1.0117 41.2448L-5.38816 41.5159L1.0117 41.2448ZM13.2692 27.9029L12.9981 21.503H12.9981L13.2692 27.9029ZM20.1539 27.6112L20.425 34.0111L26.5238 33.7527L26.5593 27.6486L20.1539 27.6112ZM33.1635 -6.40526C22.5505 -6.4671 13.8969 2.08626 13.835 12.6992L26.646 12.7739C26.6666 9.23622 29.5512 6.3851 33.0888 6.40571L33.1635 -6.40526ZM190.098 -5.49087L33.1635 -6.40526L33.0888 6.40571L190.023 7.3201L190.098 -5.49087ZM209.202 13.8376C209.264 3.22461 200.711 -5.42903 190.098 -5.49087L190.023 7.3201C193.561 7.34072 196.412 10.2253 196.391 13.7629L209.202 13.8376ZM209.038 42.0947L209.202 13.8376L196.391 13.7629L196.227 42.0201L209.038 42.0947ZM198.414 46.8777C199.766 48.0614 200.605 49.7797 200.605 51.7016H213.416C213.416 45.9318 210.865 40.75 206.851 37.2371L198.414 46.8777ZM200.605 51.7016V255.079H213.416V51.7016H200.605ZM200.605 255.079C200.605 258.617 197.737 261.485 194.199 261.485V274.296C204.812 274.296 213.416 265.692 213.416 255.079H200.605ZM194.199 261.485H37.2619V274.296H194.199V261.485ZM37.2619 261.485C33.9914 261.485 31.2852 259.028 30.9031 255.863L18.1842 257.398C19.3337 266.921 27.4317 274.296 37.2619 274.296V261.485ZM23.2325 263.098L24.8147 263.031L24.2726 250.231L22.6904 250.298L23.2325 263.098ZM3.21968 244.711C3.66888 255.315 12.6289 263.547 23.2326 263.098L22.6903 250.298C19.1558 250.448 16.1691 247.704 16.0194 244.169L3.21968 244.711ZM-5.38816 41.5159L3.21968 244.711L16.0194 244.169L7.41155 40.9737L-5.38816 41.5159ZM12.9981 21.503C2.39444 21.9522 -5.83735 30.9123 -5.38816 41.5159L7.41155 40.9737C7.26182 37.4392 10.0057 34.4525 13.5403 34.3027L12.9981 21.503ZM19.8827 21.2114L12.9981 21.503L13.5403 34.3027L20.425 34.0111L19.8827 21.2114ZM13.835 12.6992L13.7484 27.5739L26.5593 27.6486L26.646 12.7739L13.835 12.6992Z" fill="#BBF383" mask="url(#path-5-inside-1)"/>
</svg>
