<svg width="204" height="43" viewBox="0 0 204 43" fill="none" xmlns="http://www.w3.org/2000/svg">
<g clip-path="url(#clip0_4136:2507)">
<path d="M126.062 22.3203L200.059 22.3667L203.056 43.0011L129.245 42.6499L126.062 22.3203Z" fill="#BBF383"/>
<path d="M193.56 28.3066H188.117C187.83 28.3066 187.597 28.5484 187.597 28.8467V34.4973C187.597 34.7956 187.83 35.0373 188.117 35.0373H193.56C193.847 35.0373 194.08 34.7956 194.08 34.4973V28.8467C194.08 28.5484 193.847 28.3066 193.56 28.3066Z" fill="#252525"/>
<path d="M5.96298 0H0.520185C0.232895 0 0 0.241787 0 0.540047V6.19066C0 6.48892 0.232895 6.73071 0.520185 6.73071H5.96298C6.25027 6.73071 6.48316 6.48892 6.48316 6.19066V0.540047C6.48316 0.241787 6.25027 0 5.96298 0Z" fill="#BBF383"/>
<path d="M6.51029 10.4473H0V35.0525H6.51029V10.4473Z" fill="#252525"/>
<path d="M10.201 10.448H16.2757V13.4679C16.8531 12.2978 17.7833 11.3559 18.9245 10.7859C20.1723 10.1811 21.5368 9.88076 22.9137 9.90794C24.7072 9.90794 26.2773 10.2983 27.624 11.0792C28.9484 11.8393 30.0392 12.9722 30.7707 14.3476C31.5217 15.7435 31.8978 17.3731 31.8988 19.2362V35.0549H25.3885V20.6791C25.3885 19.2677 24.9832 18.1334 24.1726 17.2764C23.362 16.4194 22.3201 15.9915 21.0467 15.9926C19.7702 15.9926 18.7288 16.4205 17.9224 17.2764C17.1161 18.1323 16.7108 19.2665 16.7065 20.6791V35.0549H10.201V10.448Z" fill="#252525"/>
<path d="M37.9767 16.3051H33.9875V10.4457H37.9767V10.0862C37.9767 7.17175 38.7942 4.9188 40.4292 3.32737C42.0642 1.73594 44.3588 0.939678 47.3129 0.938574C48.0853 0.927513 48.8566 1.00193 49.6138 1.16056V6.9321C49.1393 6.84811 48.6591 6.80269 48.1777 6.79626C45.7194 6.79626 44.4896 7.89292 44.4886 10.0862V10.4457H49.5676V16.3051H44.4918V35.0526H37.9767V16.3051Z" fill="#252525"/>
<path d="M56.7543 33.9267C54.8614 32.847 53.2746 31.2704 52.1525 29.3545C51.01 27.4163 50.4387 25.2153 50.4387 22.7514C50.4387 20.2588 51.01 18.05 52.1525 16.125C53.28 14.2192 54.8659 12.6509 56.7543 11.5744C58.7196 10.4793 60.9153 9.90625 63.1457 9.90625C65.3762 9.90625 67.5719 10.4793 69.5372 11.5744C71.4164 12.6555 72.9941 14.2232 74.1167 16.125C75.2592 18.0489 75.831 20.2576 75.832 22.7514C75.832 25.2153 75.2603 27.4163 74.1167 29.3545C72.9995 31.2664 71.4209 32.8424 69.5372 33.9267C67.5719 35.0217 65.3762 35.5948 63.1457 35.5948C60.9153 35.5948 58.7196 35.0217 56.7543 33.9267ZM67.4548 27.6184C68.5526 26.3561 69.1021 24.7337 69.1031 22.7514C69.1031 20.7988 68.5537 19.1842 67.4548 17.9075C66.3559 16.6308 64.923 15.9925 63.1561 15.9925C61.3913 15.9925 59.952 16.6308 58.8383 17.9075C57.7245 19.1842 57.1671 20.7988 57.166 22.7514C57.166 24.7393 57.7234 26.3616 58.8383 27.6184C59.9531 28.8752 61.3924 29.5064 63.1561 29.5119C64.9209 29.5119 66.3538 28.8807 67.4548 27.6184Z" fill="#252525"/>
<path d="M78.5654 10.4487H84.6417V14.1445C85.2491 12.6127 86.1102 11.5685 87.2251 11.0119C88.4292 10.4382 89.7428 10.1551 91.0674 10.1836H92.4556V16.038H90.4148C88.8191 16.038 87.5314 16.541 86.5517 17.5471C85.572 18.5532 85.0805 19.9729 85.0773 21.8062V35.0589H78.5654V10.4487Z" fill="#252525"/>
<path d="M138.344 33.8588C136.523 32.7427 135.033 31.1291 134.035 29.1939C133.012 27.1977 132.49 24.9661 132.516 22.705C132.516 20.2411 133.044 18.0478 134.101 16.1251C135.117 14.2456 136.591 12.6764 138.375 11.5744C140.173 10.4634 142.2 9.90735 144.457 9.90625C146.975 9.90625 149.102 10.4468 150.839 11.528C152.531 12.5614 153.907 14.0692 154.811 15.8782C155.721 17.695 156.177 19.7453 156.178 22.0291C156.178 22.5096 156.156 22.9828 156.113 23.4488C156.082 23.8553 156.001 24.2561 155.873 24.6416H139.291C139.464 26.1745 140.057 27.4064 141.071 28.3374C142.084 29.2684 143.386 29.7345 144.977 29.7356C146.134 29.7356 147.126 29.4948 147.951 29.0133C148.759 28.549 149.428 27.8608 149.882 27.0254L155.098 29.5997C154.369 31.4032 153.093 32.8527 151.268 33.9483C149.444 35.0438 147.317 35.5922 144.886 35.5933C142.371 35.5933 140.19 35.0151 138.344 33.8588ZM141.216 16.4415C140.334 17.1925 139.733 18.2737 139.414 19.6851H149.274C149.165 18.4753 148.623 17.352 147.755 16.5376C146.887 15.7269 145.787 15.3216 144.457 15.3216C143.183 15.3172 142.103 15.6905 141.216 16.4415Z" fill="#252525"/>
<path d="M163.858 33.8846C162.051 32.7594 160.562 31.1595 159.54 29.2461C158.477 27.2629 157.93 25.0255 157.956 22.7556C157.956 20.3525 158.491 18.1818 159.561 16.2436C160.6 14.3406 162.096 12.7493 163.903 11.625C165.75 10.4763 167.869 9.88327 170.022 9.91212C172.888 9.91212 175.16 10.7835 176.837 12.5262V0.943359H183.349V35.0574H177.278V32.7134C176.402 33.6697 175.325 34.4023 174.131 34.8537C172.834 35.3564 171.458 35.6085 170.073 35.5975C167.749 35.5975 165.677 35.0265 163.858 33.8846ZM175.167 27.6442C176.28 26.3974 176.837 24.7673 176.837 22.754C176.837 20.7661 176.28 19.1437 175.167 17.8869C174.053 16.6301 172.613 15.9995 170.847 15.9951C169.054 15.9951 167.578 16.6334 166.419 17.9101C165.261 19.1868 164.682 20.8014 164.683 22.754C164.683 24.7419 165.262 26.3642 166.419 27.621C167.577 28.8778 169.053 29.509 170.847 29.5145C172.612 29.5145 174.052 28.8911 175.167 27.6442Z" fill="#252525"/>
<path d="M94.2349 10.4472H100.311V13.4672C100.888 12.2968 101.819 11.3549 102.96 10.7851C104.117 10.1998 105.447 9.90715 106.949 9.90715C108.431 9.88804 109.897 10.2356 111.224 10.921C112.44 11.5288 113.458 12.492 114.153 13.6924C114.931 12.4578 116.02 11.4683 117.302 10.8315C118.614 10.2029 120.045 9.88709 121.49 9.90715C123.198 9.90715 124.709 10.2976 126.025 11.0784C127.331 11.8483 128.406 12.9799 129.129 14.3468C129.882 15.7427 130.258 17.3723 130.258 19.2354V35.0541H123.751V20.6783C123.751 19.2669 123.383 18.1326 122.646 17.2756C121.908 16.4186 120.903 15.9907 119.628 15.9918C118.352 15.9918 117.346 16.4197 116.611 17.2756C115.876 18.1315 115.507 19.2658 115.505 20.6783V35.0541H108.993V20.6783C108.993 19.2669 108.624 18.1326 107.886 17.2756C107.147 16.4186 106.142 15.9907 104.87 15.9918C103.593 15.9918 102.588 16.4197 101.853 17.2756C101.117 18.1315 100.749 19.2658 100.747 20.6783V35.0541H94.2349V10.4472Z" fill="#252525"/>
</g>
<defs>
<clipPath id="clip0_4136:2507">
<rect width="203.056" height="43" fill="white"/>
</clipPath>
</defs>
</svg>
